<svg width="28" height="28" viewBox="0 0 28 28" fill="none" xmlns="http://www.w3.org/2000/svg">
<path d="M27.5484 15.3548C27.7977 15.3548 28 15.153 28 14.9032V11.2903C28 11.0406 27.7977 10.8387 27.5484 10.8387H26.1935V8.58064C26.1935 8.3309 25.9912 8.12903 25.7419 8.12903C24.4968 8.12903 23.4839 7.11606 23.4839 5.87097V0.451613C23.4839 0.201871 23.2815 0 23.0323 0H19.4194C19.1701 0 18.9677 0.201871 18.9677 0.451613V2.25806C18.9677 4.9971 16.739 7.22581 14 7.22581C11.261 7.22581 9.03226 4.9971 9.03226 2.25806V0.451613C9.03226 0.201871 8.82994 0 8.58064 0H4.96774C4.71845 0 4.51613 0.201871 4.51613 0.451613V5.87097C4.51613 7.11606 3.50316 8.12903 2.25806 8.12903C2.00877 8.12903 1.80645 8.3309 1.80645 8.58064V10.8387H0.451613C0.202323 10.8387 0 11.0406 0 11.2903V14.9032C0 15.153 0.202323 15.3548 0.451613 15.3548H1.80645V17.1613H0.451613C0.202323 17.1613 0 17.3632 0 17.6129V21.2258C0 21.4755 0.202323 21.6774 0.451613 21.6774H1.80645V24.8387C1.80645 26.5815 3.22452 28 4.96774 28H23.0323C24.7755 28 26.1935 26.5815 26.1935 24.8387V21.6774H27.5484C27.7977 21.6774 28 21.4755 28 21.2258V17.6129C28 17.3632 27.7977 17.1613 27.5484 17.1613H26.1935V15.3548H27.5484ZM27.0968 14.4516H24.3871V11.7419H27.0968V14.4516ZM22.5806 0.903226V1.80645H19.871V0.903226H22.5806ZM8.12903 0.903226V1.80645H5.41935V0.903226H8.12903ZM0.903226 11.7419H3.6129V14.4516H0.903226V11.7419ZM0.903226 18.0645H3.6129V20.7742H0.903226V18.0645ZM27.0968 20.7742H24.3871V18.0645H27.0968V20.7742ZM25.2903 17.1613H23.9355C23.6862 17.1613 23.4839 17.3632 23.4839 17.6129V21.2258C23.4839 21.4755 23.6862 21.6774 23.9355 21.6774H25.2903V24.8387C25.2903 26.0838 24.2774 27.0968 23.0323 27.0968H4.96774C3.72265 27.0968 2.70968 26.0838 2.70968 24.8387V21.6774H4.06452C4.31381 21.6774 4.51613 21.4755 4.51613 21.2258V17.6129C4.51613 17.3632 4.31381 17.1613 4.06452 17.1613H2.70968V15.3548H4.06452C4.31381 15.3548 4.51613 15.153 4.51613 14.9032V11.2903C4.51613 11.0406 4.31381 10.8387 4.06452 10.8387H2.70968V9.00019C4.23974 8.78071 5.41935 7.4611 5.41935 5.87097V2.70968H8.15206C8.38419 5.73594 10.915 8.12903 14 8.12903C17.085 8.12903 19.6158 5.73594 19.8479 2.70968H22.5806V5.87097C22.5806 7.4611 23.7603 8.78026 25.2903 9.00019V10.8387H23.9355C23.6862 10.8387 23.4839 11.0406 23.4839 11.2903V14.9032C23.4839 15.153 23.6862 15.3548 23.9355 15.3548H25.2903V17.1613Z" fill="white"/>
<path d="M21.2259 10.8379H6.77427C6.0273 10.8379 5.41943 11.4458 5.41943 12.1927V24.8379C5.41943 25.5849 6.0273 26.1927 6.77427 26.1927H21.2259C21.9729 26.1927 22.5807 25.5849 22.5807 24.8379V12.1927C22.5807 11.4458 21.9729 10.8379 21.2259 10.8379ZM21.2259 25.2895H6.77427C6.52543 25.2895 6.32266 25.0872 6.32266 24.8379V22.5798H11.742V21.6766H6.32266V19.8701H11.742V18.9669H6.32266V17.1605H11.742V16.2572H6.32266V14.4508H11.742V13.5476H6.32266V12.1927C6.32266 11.9434 6.52543 11.7411 6.77427 11.7411H21.2259C21.4747 11.7411 21.6775 11.9434 21.6775 12.1927V13.5476H16.2581V14.4508H21.6775V16.2572H16.2581V17.1605H21.6775V18.9669H16.2581V19.8701H21.6775V21.6766H16.2581V22.5798H21.6775V24.8379C21.6775 25.0872 21.4747 25.2895 21.2259 25.2895Z" fill="white"/>
</svg>
