<svg width="17" height="11" fill="none" xmlns="http://www.w3.org/2000/svg"><path d="M10.993 2.734h5.081c.434 0 .551.154.551.727v4.058c0 .619-.116.773-.59.773H5.946c-.365 0-.366 0-.366.479v1.605c0 .237-.027.457-.203.571-.176.115-.338.03-.486-.127A5292.792 5292.792 0 00.256 6c-.341-.355-.343-.636.005-1C1.446 3.766 2.632 2.534 3.82 1.304L4.933.153c.123-.128.251-.207.406-.11.164.104.236.285.237.52 0 .603.01 1.206-.003 1.81-.006.279.061.369.275.368 1.715-.011 3.43-.007 5.145-.007zM4.822 9.507V8.115c0-.683.105-.818.62-.818H15.51c.357 0 .357 0 .357-.458V4.152c0-.451 0-.452-.337-.452H5.352c-.406 0-.524-.152-.53-.692-.004-.399 0-.798-.003-1.197 0-.072.028-.171-.044-.206-.052-.026-.093.043-.133.084L1.135 5.326c-.136.14-.136.223.005.368.735.749 1.46 1.51 2.19 2.268l1.492 1.545z" fill="#fff"/></svg>