<svg width="17" height="11" fill="none" xmlns="http://www.w3.org/2000/svg"><path d="M6.007 8.266H.926c-.434 0-.551-.154-.551-.727V3.481c0-.619.116-.773.59-.773h10.09c.365 0 .366 0 .366-.479V.624c0-.237.027-.457.203-.571.176-.115.338-.03.486.127C13.654 1.788 15.2 3.394 16.744 5c.341.355.343.636-.006 1a1491.05 1491.05 0 01-3.558 3.697l-1.113 1.151c-.123.128-.251.207-.406.11-.164-.104-.236-.285-.237-.52 0-.603-.01-1.206.003-1.81.006-.279-.061-.369-.275-.368-1.715.011-3.43.007-5.145.007zm6.171-6.773v1.392c0 .683-.105.818-.62.818H1.49c-.357 0-.357 0-.357.458v2.687c0 .451 0 .452.337.452h10.177c.406 0 .524.152.53.692.004.399 0 .798.003 1.197 0 .072-.028.171.044.206.052.026.093-.043.133-.084a7239.19 7239.19 0 003.507-3.637c.136-.14.136-.223-.005-.368-.735-.749-1.46-1.51-2.19-2.268l-1.492-1.545z" fill="#21DB70"/></svg>