<svg width="20" height="20" viewBox="0 0 20 20" fill="none" xmlns="http://www.w3.org/2000/svg">
<path fill-rule="evenodd" clip-rule="evenodd" d="M0 10C0 15.5228 4.47715 20 10 20C15.5228 20 20 15.5228 20 10C20 4.47715 15.5228 0 10 0C4.47715 0 0 4.47715 0 10ZM18.1818 10C18.1818 14.5187 14.5187 18.1818 10 18.1818C5.48131 18.1818 1.81818 14.5187 1.81818 10C1.81818 5.48131 5.48131 1.81818 10 1.81818C14.5187 1.81818 18.1818 5.48131 18.1818 10Z" fill="url(#paint0_linear)"/>
<path fill-rule="evenodd" clip-rule="evenodd" d="M8.5 11.2322L13.7929 5.93934L15.2071 7.35355L8.5 14.0607L4.79289 10.3536L6.20711 8.93934L8.5 11.2322Z" fill="url(#paint1_linear)"/>
<defs>
<linearGradient id="paint0_linear" x1="1.82701e-06" y1="3.47828" x2="15.6014" y2="1.81137" gradientUnits="userSpaceOnUse">
<stop stop-color="#FF7272"/>
<stop offset="1" stop-color="#EE3D48"/>
</linearGradient>
<linearGradient id="paint1_linear" x1="1.82701e-06" y1="3.47828" x2="15.6014" y2="1.81137" gradientUnits="userSpaceOnUse">
<stop stop-color="#FF7272"/>
<stop offset="1" stop-color="#EE3D48"/>
</linearGradient>
</defs>
</svg>
