<svg width="14" height="14" viewBox="0 0 14 14" fill="none" xmlns="http://www.w3.org/2000/svg">
<path d="M6.72517 6.99879L1.05666 1.33028C0.981114 1.25471 0.981114 1.13222 1.05666 1.05666C1.13222 0.981115 1.25471 0.981115 1.33028 1.05666L6.99879 6.72517L12.6673 1.05666C12.7442 0.982421 12.8667 0.984549 12.9409 1.06142C13.0133 1.13641 13.0133 1.2553 12.9409 1.33028L7.27242 6.99879L12.9409 12.6673C13.0178 12.7416 13.0199 12.8641 12.9457 12.9409C12.8714 13.0178 12.7489 13.0199 12.672 12.9457C12.6704 12.9441 12.6688 12.9425 12.6673 12.9409L6.99879 7.27242L1.33028 12.9409C1.25341 13.0152 1.13092 13.0131 1.05666 12.9362C0.984211 12.8612 0.984211 12.7423 1.05666 12.6673L6.72517 6.99879Z" fill="white" stroke="white" stroke-width="0.5"/>
</svg>
