<svg width="30" height="28" viewBox="0 0 30 28" fill="none" xmlns="http://www.w3.org/2000/svg">
<path d="M8.98711 7.13766V6.88766C8.98711 6.1928 8.42136 5.62704 7.72644 5.62704C7.03157 5.62704 6.46582 6.19275 6.46582 6.88766C6.46582 7.58254 7.03153 8.14833 7.72644 8.14833C9.62225 8.14833 11.1642 9.69026 11.1642 11.5861L8.98711 7.13766ZM8.98711 7.13766H9.23711M8.98711 7.13766H9.23711M9.23711 7.13766H10.8778H11.1278M9.23711 7.13766H11.1278M11.1278 7.13766V6.88766M11.1278 7.13766V6.88766M11.1278 6.88766C11.1278 5.01197 9.60218 3.48633 7.72638 3.48633C5.85069 3.48633 4.32505 5.01191 4.32505 6.88766C4.32505 7.78529 4.67479 8.60254 5.24407 9.21053M11.1278 6.88766L5.24407 9.21053M5.24407 9.21053C4.65305 9.82776 4.28857 10.665 4.28857 11.5861C4.28857 11.7776 4.30501 11.9649 4.33506 12.1471L4.386 12.4559L4.67596 12.3379C5.61811 11.9545 6.64762 11.7425 7.72638 11.7425C8.80509 11.7425 9.83466 11.9545 10.7768 12.338L11.0668 12.456L11.1177 12.1471C11.1478 11.965 11.1642 11.7777 11.1642 11.5861L5.24407 9.21053Z" stroke="white" stroke-width="0.5"/>
<path d="M7.72649 12.8828C3.87944 12.8828 0.75 16.0123 0.75 19.8593C0.75 23.7063 3.87944 26.8358 7.72649 26.8358C11.5735 26.8358 14.703 23.7063 14.703 19.8593C14.703 16.0123 11.5735 12.8828 7.72649 12.8828Z" stroke="white" stroke-width="0.5"/>
<path d="M23.5344 4.40133V4.15133C23.5344 3.45647 22.9687 2.89072 22.2738 2.89072C21.579 2.89072 21.0132 3.45642 21.0132 4.15133C21.0132 4.84621 21.5789 5.412 22.2738 5.412C24.1697 5.412 25.7116 6.95394 25.7115 8.84981L23.5344 4.40133ZM23.5344 4.40133H23.7844M23.5344 4.40133H23.7844M23.7844 4.40133H25.4251H25.6751M23.7844 4.40133H25.6751M25.6751 4.40133V4.15133M25.6751 4.40133V4.15133M25.6751 4.15133C25.6751 2.27564 24.1494 0.75 22.2737 0.75C20.3981 0.75 18.8724 2.27564 18.8724 4.15139C18.8724 5.049 19.2221 5.86629 19.7914 6.47426M25.6751 4.15133L19.7914 6.47426M19.7914 6.47426C19.2004 7.09149 18.8359 7.9287 18.8359 8.84981C18.8359 9.04139 18.8524 9.22864 18.8824 9.41079L18.9334 9.71968L19.2233 9.60166C20.1655 9.21818 21.195 9.00619 22.2737 9.00619C23.3525 9.00619 24.382 9.21813 25.3241 9.60165L25.6141 9.7197L25.665 9.41079C25.6951 9.22864 25.7115 9.0414 25.7115 8.84982L19.7914 6.47426Z" stroke="white" stroke-width="0.5"/>
<path d="M22.2734 10.1465C18.4263 10.1465 15.2969 13.2759 15.2969 17.123C15.2969 20.97 18.4263 24.0995 22.2734 24.0995C26.1204 24.0995 29.2499 20.97 29.2499 17.123C29.2499 13.2759 26.1204 10.1465 22.2734 10.1465Z" stroke="white" stroke-width="0.5"/>
</svg>
