<svg width="91" height="91" fill="none" xmlns="http://www.w3.org/2000/svg"><g filter="url(#filter0_d)"><circle cx="45.5" cy="45.5" r="32.5" fill="url(#paint0_linear)"/></g><path d="M29 44.01c.547-.859 2.303-1.268 3.142-.643.295.222.51.709.556 1.1.087.737.025 1.502.025 2.29h1.268c0-.767-.008-1.541 0-2.314.009-.84.501-1.352 1.341-1.42a.237.237 0 01.073 0c1.557.323 2.684-.382 3.55-1.577 1.318-1.821 3.053-2.312 5.268-2.203 3.61.18 7.238.047 10.857.05 1.144 0 1.528.39 1.53 1.542v5.907h1.3v-2.31c.008-.896.442-1.357 1.326-1.407a8.93 8.93 0 01.954 0c.767.034 1.293.519 1.3 1.296.018 2.886.008 5.773 0 8.659.002.195-.035.389-.108.57-.285.668-1.28.944-2.507.714-.675-.127-1.088-.608-1.109-1.343-.02-.736 0-1.463 0-2.246h-1.18c-.02.034-.076.078-.07.114.205 1.219-.473 1.992-1.29 2.76-1.336 1.254-2.58 2.61-3.919 3.861-.37.333-.842.53-1.339.562-2.714.051-5.43.044-8.144 0a2.001 2.001 0 01-1.154-.472 52.248 52.248 0 01-2.812-2.577 1.836 1.836 0 00-1.423-.544c-2.288.03-2.444-.148-2.444-2.439v-1.272h-1.265v2.005c0 1.383-.34 1.697-1.747 1.725-.848.018-1.633-.03-1.977-.988L29 44.01zm20.153 4.114H46.31l2.95-4.995c-.907 0-1.684.024-2.459-.008-.399-.018-.6.12-.778.479-.917 1.83-1.865 3.643-2.801 5.464-.065.152-.12.308-.168.467h2.568c-.693 1.917-1.352 3.748-2.013 5.576l.107.05 5.437-7.032zm-3.874-10.17v-1.222c-.75 0-1.454.008-2.156 0-1.011-.017-1.41-.412-1.443-1.419-.009-.245 0-.488 0-.737.016-1.163.43-1.576 1.6-1.576h7.839c1.241 0 1.662.428 1.667 1.678 0 .243.01.488 0 .737-.047.86-.476 1.294-1.335 1.317-.8.019-1.599 0-2.417 0l-.066 1.223-3.69-.001z" fill="#fff"/><defs><linearGradient id="paint0_linear" x1="18.2" y1="26.65" x2="72.8" y2="63.7" gradientUnits="userSpaceOnUse"><stop stop-color="#00A044"/><stop offset="1" stop-color="#21DB70"/></linearGradient><filter id="filter0_d" x="0" y="0" width="91" height="91" filterUnits="userSpaceOnUse" color-interpolation-filters="sRGB"><feFlood flood-opacity="0" result="BackgroundImageFix"/><feColorMatrix in="SourceAlpha" values="0 0 0 0 0 0 0 0 0 0 0 0 0 0 0 0 0 0 127 0"/><feMorphology radius="1" operator="dilate" in="SourceAlpha" result="effect1_dropShadow"/><feOffset/><feGaussianBlur stdDeviation="6"/><feColorMatrix values="0 0 0 0 0.00784314 0 0 0 0 0.643137 0 0 0 0 0.278431 0 0 0 0.6 0"/><feBlend in2="BackgroundImageFix" result="effect1_dropShadow"/><feBlend in="SourceGraphic" in2="effect1_dropShadow" result="shape"/></filter></defs></svg>