<svg width="32" height="22" viewBox="0 0 32 22" fill="none" xmlns="http://www.w3.org/2000/svg">
<path d="M21.5731 2.90182L21.5731 2.90181C21.682 2.87068 21.7948 2.91295 21.8565 3.00815L27.7922 12.1775L27.8661 12.2916H28.002H29.6743C29.7549 12.2916 29.8312 12.3085 29.9007 12.3386L30.6598 12.6681L30.2101 11.9734L23.6534 1.84489C23.0775 0.955219 22.0041 0.552479 20.985 0.843592L20.985 0.843597C19.9617 1.136 19.248 2.08218 19.248 3.14635V4.54033C19.248 5.1315 19.7273 5.61064 20.3184 5.61064C20.9095 5.61064 21.3887 5.13143 21.3887 4.54033V3.14635C21.3887 3.03399 21.4651 2.93267 21.5731 2.90182Z" stroke="white" stroke-width="0.5"/>
<path d="M28.6117 13.6816V13.4316H28.3617H19.8225C18.8717 13.4316 18.0986 14.2047 18.0986 15.1555V17.5948C18.0986 18.38 18.2449 19.2809 19.0149 19.9748C19.7754 20.6601 21.0945 21.0975 23.3217 21.0975H23.3887C25.6158 21.0975 26.935 20.6602 27.6955 19.9748C28.4655 19.2809 28.6117 18.38 28.6117 17.5949V13.6816Z" stroke="white" stroke-width="0.5"/>
<path d="M3.9805 12.2916H4.11648L4.19037 12.1775L10.1261 3.00808L9.91628 2.87223L10.1261 3.00808C10.1877 2.91301 10.3004 2.87068 10.4095 2.90181C10.5175 2.9327 10.5938 3.03396 10.5938 3.14632V4.5403C10.5938 5.1314 11.073 5.61061 11.6641 5.61061C12.2552 5.61061 12.7345 5.1314 12.7345 4.5403V3.14632C12.7345 2.0821 12.0207 1.13591 10.9974 0.843565L10.9974 0.843561C9.97843 0.552509 8.90501 0.955247 8.32911 1.84485L8.32911 1.84486L1.79013 11.9462L1.40727 12.5376L2.0773 12.3198C2.13332 12.3016 2.19242 12.2916 2.25359 12.2916H3.9805Z" stroke="white" stroke-width="0.5"/>
<path d="M3.6377 13.4316H3.3877V13.6816V17.5948C3.3877 18.38 3.53395 19.2809 4.30393 19.9748C5.06442 20.6601 6.38361 21.0975 8.61075 21.0975H8.67774C10.9049 21.0975 12.2241 20.6601 12.9846 19.9748C13.7545 19.2809 13.9008 18.38 13.9008 17.5948V15.1555C13.9008 14.2047 13.1277 13.4316 12.1769 13.4316H3.6377Z" stroke="white" stroke-width="0.5"/>
<path d="M16.958 15.3302V15.1513L16.7886 15.0936C16.3735 14.9522 15.7284 14.914 15.2097 15.0925L15.041 15.1506V15.3289V17.3434L15.5106 17.4629C15.6628 17.1831 15.8593 17.1135 16.0203 17.1273C16.1983 17.1426 16.3841 17.2641 16.4862 17.4602L16.958 17.3448V15.3302Z" stroke="white" stroke-width="0.5"/>
</svg>
