<svg width="30" height="18" viewBox="0 0 30 18" fill="none" xmlns="http://www.w3.org/2000/svg">
<path d="M8.86002 13.3726L8.86 13.3727L8.86565 13.3739C10.8871 13.811 12.9513 14.0185 15.0193 13.9924C17.0873 14.0185 19.1516 13.811 21.173 13.3739L21.173 13.374L21.179 13.3725C22.0749 13.1556 22.8193 12.8696 23.3459 12.5222C23.8673 12.1783 24.2237 11.7394 24.2237 11.2106C24.2237 7.08017 23.5755 4.47055 22.5671 2.88664C21.546 1.28265 20.1676 0.75 18.7963 0.75L18.7959 0.75C17.0116 0.752869 15.3032 1.68294 14.3991 2.17513L14.3784 2.18638L14.3777 2.1868C14.2633 2.24959 14.1659 2.30302 14.0871 2.34427C14.0036 2.38792 13.9565 2.4096 13.9367 2.41643L13.9367 2.41634L13.9304 2.41869C13.7121 2.50058 13.4303 2.52306 13.0883 2.50436C12.7489 2.4858 12.3752 2.42863 11.9769 2.36736C11.3999 2.26286 10.8154 2.20516 10.229 2.19482L10.229 2.19474L10.2225 2.1948C9.64001 2.19985 9.05662 2.28844 8.51294 2.5508C7.96627 2.81461 7.4753 3.24667 7.06827 3.91359C6.26219 5.23439 5.78309 7.48025 5.81497 11.2116C5.81544 11.75 6.17019 12.1895 6.69341 12.5321C7.22045 12.8771 7.96511 13.1573 8.86002 13.3726Z" stroke="white" stroke-width="0.5"/>
<path d="M27.5233 10.976L27.5233 10.9759L27.5176 10.9732C26.6312 10.5555 25.7014 10.237 24.7451 10.0236L24.4406 9.95563V10.2676V11.2104C24.4406 11.8878 23.9926 12.4053 23.3261 12.8072C22.6635 13.2067 21.84 13.456 21.2153 13.6068C19.1787 14.0529 17.0977 14.2638 15.0131 14.2355L15.0131 14.2354L15.0062 14.2355C12.9179 14.2647 10.8332 14.0537 8.79304 13.6068C8.16817 13.4559 7.34099 13.2066 6.67483 12.8069C6.00434 12.4046 5.55385 11.887 5.55385 11.2104V11.2103V11.2102V11.2101V11.21V11.2099V11.2098V11.2097V11.2097V11.2096V11.2095V11.2094V11.2093V11.2092V11.2091V11.209V11.2089V11.2088V11.2087V11.2086V11.2085V11.2084V11.2083V11.2082V11.2081V11.208V11.2079V11.2078V11.2077V11.2076V11.2075V11.2074V11.2073V11.2072V11.2071V11.207V11.2069V11.2068V11.2067V11.2066V11.2065V11.2064V11.2063V11.2062V11.2061V11.206V11.2059V11.2059V11.2058V11.2057V11.2056V11.2055V11.2054V11.2053V11.2052V11.2051V11.205V11.2049V11.2048V11.2047V11.2046V11.2045V11.2044V11.2043V11.2042V11.2041V11.204V11.2039V11.2038V11.2037V11.2036V11.2035V11.2034V11.2033V11.2032V11.2031V11.203V11.2029V11.2028V11.2027V11.2026V11.2025V11.2024V11.2024V11.2023V11.2022V11.2021V11.202V11.2019V11.2018V11.2017V11.2016V11.2015V11.2014V11.2013V11.2012V11.2011V11.201V11.2009V11.2008V11.2007V11.2006V11.2005V11.2004V11.2003V11.2002V11.2001V11.2V11.1999V11.1998V11.1997V11.1996V11.1995V11.1994V11.1993V11.1993V11.1992V11.1991V11.199V11.1989V11.1988V11.1987V11.1986V11.1985V11.1984V11.1983V11.1982V11.1981V11.198V11.1979V11.1978V11.1977V11.1976V11.1975V11.1974V11.1973V11.1972V11.1971V11.197V11.1969V11.1968V11.1967V11.1966V11.1966V11.1965V11.1964V11.1963V11.1962V11.1961V11.196V11.1959V11.1958V11.1957V11.1956V11.1955V11.1954V11.1953V11.1952V11.1951V11.195V11.1949V11.1948V11.1947V11.1946V11.1945V11.1944V11.1943V11.1942V11.1942V11.1941V11.194V11.1939V11.1938V11.1937V11.1936V11.1935V11.1934V11.1933V11.1932V11.1931V11.193V11.1929V11.1928V11.1927V11.1926V11.1925V11.1924V11.1923V11.1922V11.1921V11.1921V11.192V11.1919V11.1918V11.1917V11.1916V11.1915V11.1914V11.1913V11.1912V11.1911V11.191V11.1909V11.1908V11.1907V11.1906V11.1905V11.1904V11.1903V11.1902V11.1902V11.1901V11.19V11.1899V11.1898V11.1897V11.1896V11.1895V11.1894V11.1893V11.1892V11.1891V11.189V11.1889V11.1888V11.1887V11.1886V11.1885V11.1884V11.1884V11.1883V11.1882V11.1881V11.188V11.1879V11.1878V11.1877V11.1876V11.1875V11.1874V11.1873V11.1872V11.1871V11.187V11.1869V11.1869V11.1868V11.1867V11.1866V11.1865V11.1864V11.1863V11.1862V11.1861V11.186V11.1859V11.1858V11.1857V11.1856V11.1855V11.1854V11.1854V11.1853V11.1852V11.1851V11.185V11.1849V11.1848V11.1847V11.1846V11.1845V11.1844V11.1843V11.1842V11.1841V11.1841V11.184V11.1839V11.1838V11.1837V11.1836V11.1835V11.1834V11.1833V11.1832V11.1831V11.183V11.1829V11.1828V11.1828V11.1827V11.1826V11.1825V11.1824V11.1823V11.1822V11.1821V11.182V11.1819V11.1818V11.1817V11.1817V11.1816V11.1815V11.1814V11.1813V11.1812V11.1811V11.181V11.1809V11.1808V11.1807V11.1806V11.1806V11.1805V11.1804V11.1803V11.1802V11.1801V11.18V11.1799V11.1798V11.1797V11.1796V11.1795V11.1795V11.1794V11.1793V11.1792V11.1791V11.179V11.1789V11.1788V11.1787V11.1786V11.1785V11.1785V11.1784V11.1783V11.1782V11.1781V11.178V11.1779V11.1778V11.1777V11.1776V11.1776V11.1775V11.1774V11.1773V11.1772V11.1771V11.177V11.1769V11.1768V11.1767V11.1767V11.1766V11.1765V11.1764V11.1763V11.1762V11.1761V11.176V11.1759V11.1759V11.1758V11.1757V11.1756V11.1755V11.1754V11.1753V11.1752V11.1751V11.1751V11.175V11.1749V11.1748V11.1747V11.1746V11.1745V11.1744V11.1743V11.1743V11.1742V11.1741V11.174V11.1739V11.1738V11.1737V11.1736V11.1735V11.1735V11.1734V11.1733V11.1732V11.1731V11.173V11.1729V11.1728V11.1728V11.1727V11.1726V11.1725V11.1724V11.1723V11.1722V11.1721V11.1721V11.172V11.1719V11.1718V11.1717V11.1716V11.1715V11.1714V11.1714V11.1713V11.1712V11.1711V11.171V11.1709V11.1708V11.1708V11.1707V11.1706V11.1705V11.1704V11.1703V11.1702V11.1702V11.1701V11.17V11.1699V11.1698V11.1697V11.1696V11.1696V11.1695V11.1694V11.1693V11.1692V11.1691V11.169V11.169V11.1689V11.1688V11.1687V11.1686V11.1685V11.1684V11.1684V11.1683V11.1682V11.1681V11.168V11.1679V11.1679V11.1678V11.1677V11.1676V11.1675V11.1674V11.1673V11.1673V11.1672V11.1671V11.167V11.1669V11.1668V11.1668V11.1667V11.1666V11.1665V11.1664V11.1663V11.1663V11.1662V11.1661V11.166V11.1659V11.1658V11.1658V11.1657V11.1656V11.1655V11.1654V11.1653V11.1653V11.1652V11.1651V11.165V11.1649V11.1648V11.1648V11.1647V11.1646V11.1645V11.1644V11.1644V11.1643V11.1642V11.1641V11.164V11.1639V11.1639V11.1638V11.1637V11.1636V11.1635V11.1635V11.1634V11.1633V11.1617V11.16V11.1584V11.1568V11.1552V11.1535V11.1519V11.1503V11.1486V11.147V11.1454V11.1437V11.1421V11.1405V11.1388V11.1372V11.1356V11.1339V11.1323V11.1306V11.129V11.1274V11.1257V11.1241V11.1224V11.1208V11.1191V11.1175V11.1159V11.1142V11.1126V11.1109V11.1093V11.1076V11.106V11.1043V11.1027V11.101V11.0994V11.0977V11.096V11.0944V11.0927V11.0911V11.0894V11.0878V11.0861V11.0845V11.0828V11.0811V11.0795V11.0778V11.0761V11.0745V11.0728V11.0712V11.0695V11.0678V11.0662V11.0645V11.0628V11.0612V11.0595V11.0578V11.0561V11.0545V11.0528V11.0511V11.0495V11.0478V11.0461V11.0444V11.0428V11.0411V11.0394V11.0377V11.036V11.0344V11.0327V11.031V11.0293V11.0276V11.026V11.0243V11.0226V11.0209V11.0192V11.0175V11.0159V11.0142V11.0125V11.0108V11.0091V11.0074V11.0057V11.004V11.0024V11.0007V10.999V10.9973V10.9956V10.9939V10.9922V10.9905V10.9888V10.9871V10.9854V10.9837V10.982V10.9803V10.9786V10.9769V10.9752V10.9735V10.9718V10.9701V10.9684V10.9667V10.965V10.9633V10.9616V10.9599V10.9582V10.9565V10.9548V10.9531V10.9514V10.9497V10.948V10.9463V10.9445V10.9428V10.9411V10.9394V10.9377V10.936V10.9343V10.9326V10.9309V10.9291V10.9274V10.9257V10.924V10.9223V10.9206V10.9188V10.9171V10.9154V10.9137V10.912V10.9102V10.9085V10.9068V10.9051V10.9034V10.9016V10.8999V10.8982V10.8965V10.8947V10.893V10.8913V10.8896V10.8878V10.8861V10.8844V10.8827V10.8809V10.8792V10.8775V10.8757V10.874V10.8723V10.8706V10.8688V10.8671V10.8654V10.8636V10.8619V10.8602V10.8584V10.8567V10.855V10.8532V10.8515V10.8498V10.848V10.8463V10.8445V10.8428V10.8411V10.8393V10.8376V10.8358V10.8341V10.8324V10.8306V10.8289V10.8271V10.8254V10.8237V10.8219V10.8202V10.8184V10.8167V10.8149V10.8132V10.8114V10.8097V10.808V10.8062V10.8045V10.8027V10.801V10.7992V10.7975V10.7957V10.794V10.7922V10.7905V10.7887V10.787V10.7852V10.7835V10.7817V10.78V10.7782V10.7765V10.7747V10.7729V10.7712V10.7694V10.7677V10.7659V10.7642V10.7624V10.7607V10.7589V10.7571V10.7554V10.7536V10.7519V10.7501V10.7484V10.7466V10.7448V10.7431V10.7413V10.7396V10.7378V10.736V10.7343V10.7325V10.7307V10.729V10.7272V10.7255V10.7237V10.7219V10.7202V10.7184V10.7166V10.7149V10.7131V10.7113V10.7096V10.7078V10.706V10.7043V10.7025V10.7007V10.699V10.6972V10.6954V10.6937V10.6919V10.6901V10.6884V10.6866V10.6848V10.6831V10.6813V10.6795V10.6777V10.676V10.6742V10.6724V10.6707V10.6689V10.6671V10.6653V10.6636V10.6618V10.66V10.6582V10.6565V10.6547V10.6529V10.6511V10.6494V10.6476V10.6458V10.644V10.6423V10.6405V10.6387V10.6369V10.6352V10.6334V10.6316V10.6298V10.628V10.6263V10.6245V10.6227V10.6209V10.6192V10.6174V10.6156V10.6138V10.612V10.6103V10.6085V10.6067V10.6049V10.6031V10.6014V10.5996V10.5978V10.596V10.5942V10.5924V10.5907V10.5889V10.5871V10.5853V10.5835V10.5817V10.58V10.5782V10.5764V10.5746V10.5728V10.571V10.5693V10.5675V10.5657V10.5639V10.5621V10.5603V10.5586V10.5568V10.555V10.5532V10.5514V10.5496V10.5478V10.5461V10.5443V10.5425V10.5407V10.5389V10.5371V10.5353V10.5335V10.5318V10.53V10.5282V10.5264V10.5246V10.5228V10.521V10.5192V10.5175V10.5157V10.5139V10.5121V10.5103V10.5085V10.5067V10.5049V10.5031V10.5014V10.4996V10.4978V10.496V10.4942V10.4924V10.4906V10.4888V10.487V10.4852V10.4835V10.4817V10.4799V10.4781V10.4763V10.4745V10.4727V10.4709V10.4691V10.4673V10.4656V10.4638V10.462V10.4602V10.4584V10.4566V10.4548V10.453V10.4512V10.4494V10.4476V10.4458V10.4441V10.4423V10.4405V10.4387V10.4369V10.4351V10.4333V10.4315V10.4297V10.4279V10.4261V10.4243V10.4226V10.4208V10.419V10.4172V10.4154V10.4136V10.4118V10.41V10.4082V10.4064V10.4046V10.4028V10.4011V10.3993V10.3975V10.3957V10.3939V10.3921V10.3903V10.3885V10.3867V10.3849V10.3831V10.3813V10.3795V10.3778V10.376V10.3742V10.3724V10.3706V10.3688V10.367V10.3652V10.3634V10.3616V10.3598V10.358V10.3563V10.3545V10.3527V10.3509V10.3491V10.3473V10.3455V10.3437V10.3419V10.3401V10.3383V10.3366V10.3348V10.333V10.3312V10.3294V10.3276V10.3258V10.324V10.3222V10.3204V10.3186V10.3169V10.3151V10.3133V10.3115V10.3097V10.3079V10.3061V10.3043V10.3025V10.3008V10.299V10.2972V10.2954V10.2936V10.2918V10.29V10.2882V10.2864V10.2847V10.2829V10.2811V10.2793V10.2775V10.2757V10.2739V10.2721V10.2704V9.95817L5.24922 10.0264C4.29479 10.2401 3.36685 10.5586 2.48229 10.976L2.48225 10.9759L2.47645 10.9789C1.4407 11.501 0.75 12.1855 0.75 13.0462C0.75 13.7559 1.25957 14.3553 2.03238 14.8391C2.81395 15.3285 3.92554 15.7405 5.27062 16.0625C7.7902 16.6671 11.2131 17.0399 14.9903 17.0399C18.7672 17.0399 22.2233 16.67 24.7291 16.0736L24.7299 16.0734C26.0804 15.7474 27.1919 15.3332 27.972 14.8439C28.7432 14.3601 29.25 13.7628 29.25 13.0573C29.25 12.1867 28.5639 11.4991 27.5233 10.976Z" stroke="white" stroke-width="0.5"/>
</svg>
