<svg width="43" height="43" fill="none" xmlns="http://www.w3.org/2000/svg"><g filter="url(#filter0_f)"><circle cx="21.5" cy="21.5" r="14.5" fill="#1F78FF"/></g><circle cx="21.5" cy="21.5" r="13.5" fill="#1F78FF"/><path fill-rule="evenodd" clip-rule="evenodd" d="M20.95 16h1.1a1.65 1.65 0 011.647 1.553l.003.097v.55h1.65c.911 0 1.65.739 1.65 1.65v5.5A1.65 1.65 0 0125.35 27h-7.7A1.65 1.65 0 0116 25.35v-5.5c0-.911.739-1.65 1.65-1.65h1.65v-.55a1.65 1.65 0 011.553-1.647L20.95 16h1.1-1.1zm4.95 7.7h-8.8v1.65c0 .304.245.55.55.55h7.7a.55.55 0 00.55-.55V23.7zm-.55-4.4h-7.7a.55.55 0 00-.55.55v2.75h8.8v-2.75a.55.55 0 00-.55-.55zm-3.3-2.2h-1.1a.55.55 0 00-.546.485l-.003.064v.55h2.2v-.55a.55.55 0 00-.486-.546l-.064-.004z" fill="#fff"/><defs><filter id="filter0_f" x="0" y="0" width="43" height="43" filterUnits="userSpaceOnUse" color-interpolation-filters="sRGB"><feFlood flood-opacity="0" result="BackgroundImageFix"/><feBlend in="SourceGraphic" in2="BackgroundImageFix" result="shape"/><feGaussianBlur stdDeviation="3.5" result="effect1_foregroundBlur"/></filter></defs></svg>