<svg width="159" height="293" fill="none" xmlns="http://www.w3.org/2000/svg"><rect y="31" width="30" height="21" rx="10" fill="#D91515" fill-opacity=".4"/><path d="M12.853 45.987v-9.074c1.205-.035 2.037-.052 2.496-.052.988 0 1.72.2 2.197.598.486.39.728.94.728 1.651 0 .529-.138.97-.416 1.326-.277.355-.658.615-1.144.78v.026c.59.095 1.049.33 1.378.702.338.373.507.858.507 1.456 0 .867-.294 1.525-.884 1.976-.59.442-1.395.663-2.418.663-.996 0-1.811-.017-2.444-.052zm2.574-4.134h-1.469v3.094c.356.035.824.052 1.404.052.685 0 1.21-.139 1.573-.416.373-.286.56-.702.56-1.248 0-.477-.183-.84-.547-1.092-.355-.26-.862-.39-1.52-.39zm-.104-3.952c-.26 0-.715.013-1.365.039v2.938h1.456c.512 0 .932-.134 1.261-.403.33-.277.494-.65.494-1.118 0-.97-.615-1.456-1.846-1.456z" fill="#fff"/><g filter="url(#filter0_d)"><path d="M34.66 46h-1.19v-9.8h1.204l3.682 5.026 3.528-5.026h1.134V46h-1.19v-7.924l-3.472 4.872h-.182l-3.514-4.83V46zm15.59-4.69L46.61 46h-1.12v-6.3h1.12v4.69l3.64-4.69h1.12V46h-1.12v-4.69zm7.202-1.61h1.47l-2.758 3.01L59.188 46h-1.554l-2.842-3.22 2.66-3.08zM54.526 46h-1.12v-6.3h1.12V46zm6.973 2.8h-1.12v-9.1h1.12v.742c.224-.261.532-.471.924-.63a3.062 3.062 0 011.218-.252c.896 0 1.6.299 2.114.896.532.588.798 1.353.798 2.296 0 .961-.303 1.769-.91 2.422-.597.644-1.386.966-2.366.966-.756 0-1.349-.145-1.778-.434V48.8zm1.82-8.19c-.747 0-1.353.29-1.82.868V44.6a2.98 2.98 0 001.68.49c.663 0 1.19-.21 1.582-.63.401-.43.602-.985.602-1.666 0-.663-.182-1.19-.546-1.582-.364-.401-.863-.602-1.498-.602zm5.343 4.606c-.616-.635-.924-1.423-.924-2.366 0-.952.308-1.736.924-2.352.626-.625 1.438-.938 2.436-.938 1 0 1.806.313 2.422.938.626.616.938 1.4.938 2.352s-.312 1.74-.938 2.366c-.616.616-1.423.924-2.422.924-.989 0-1.8-.308-2.436-.924zm.882-3.976c-.41.41-.616.947-.616 1.61 0 .663.201 1.2.602 1.61.411.42.934.63 1.568.63.635 0 1.153-.205 1.554-.616.411-.42.616-.961.616-1.624 0-.644-.205-1.18-.616-1.61-.4-.42-.919-.63-1.554-.63-.634 0-1.152.21-1.554.63zm10.8 7.56h-1.12v-2.66h-.154c-1.054 0-1.89-.308-2.506-.924-.606-.625-.91-1.414-.91-2.366 0-.905.308-1.68.924-2.324.616-.644 1.442-.966 2.478-.966h.168V36.2h1.12v3.36h.182c1.027 0 1.848.313 2.464.938.616.625.924 1.41.924 2.352 0 .98-.298 1.773-.896 2.38-.588.607-1.418.91-2.492.91h-.182v2.66zm-3.5-5.95c0 .681.201 1.227.602 1.638.411.401.966.602 1.666.602h.112v-4.48h-.182c-.68 0-1.218.21-1.61.63-.392.41-.588.947-.588 1.61zm3.682-2.24h-.182v4.48h.126c.71 0 1.26-.2 1.652-.602.402-.41.602-.957.602-1.638 0-.616-.196-1.143-.588-1.582-.392-.439-.928-.658-1.61-.658zm5.5 4.606c-.616-.635-.924-1.423-.924-2.366 0-.952.308-1.736.924-2.352.625-.625 1.437-.938 2.436-.938.998 0 1.806.313 2.422.938.625.616.938 1.4.938 2.352s-.313 1.74-.938 2.366c-.616.616-1.424.924-2.422.924-.99 0-1.802-.308-2.436-.924zm.882-3.976c-.411.41-.616.947-.616 1.61 0 .663.2 1.2.602 1.61.41.42.933.63 1.568.63.634 0 1.152-.205 1.554-.616.41-.42.616-.961.616-1.624 0-.644-.206-1.18-.616-1.61-.402-.42-.92-.63-1.554-.63-.635 0-1.153.21-1.554.63zM99.178 46h-1.12v-2.66h-3.5V46h-1.12v-6.3h1.12v2.59h3.5V39.7h1.12V46z" fill="#fff"/></g><rect y="83" width="30" height="21" rx="10" fill="#D91515" fill-opacity=".4"/><path d="M18.381 98h-5.59v-9.1h1.105v8.06h4.485V98z" fill="#fff"/><g filter="url(#filter1_d)"><path d="M32.7 93.1c0-1.419.471-2.613 1.414-3.584.943-.97 2.137-1.456 3.584-1.456 1.437 0 2.627.471 3.57 1.414.952.943 1.428 2.151 1.428 3.626 0 1.437-.476 2.641-1.428 3.612-.952.952-2.142 1.428-3.57 1.428s-2.623-.471-3.584-1.414c-.943-.943-1.414-2.151-1.414-3.626zm1.26 0c0 1.101.36 2.035 1.078 2.8.719.747 1.605 1.12 2.66 1.12 1.101 0 1.997-.373 2.688-1.12.7-.747 1.05-1.68 1.05-2.8 0-1.12-.36-2.053-1.078-2.8-.719-.747-1.605-1.12-2.66-1.12-1.073 0-1.965.369-2.674 1.106-.71.737-1.064 1.675-1.064 2.814zm11.962-.28h-2.31V91.7h5.74v1.12h-2.31V98h-1.12v-5.18zm8.7-1.12h1.47l-2.758 3.01L56.358 98h-1.554l-2.842-3.22 2.66-3.08zM51.696 98h-1.12v-6.3h1.12V98zm6.973 2.8h-1.12v-9.1h1.12v.742c.224-.261.532-.471.924-.63a3.062 3.062 0 011.218-.252c.896 0 1.6.299 2.114.896.532.588.798 1.353.798 2.296 0 .961-.303 1.769-.91 2.422-.597.644-1.386.966-2.366.966-.756 0-1.349-.145-1.778-.434v3.094zm1.82-8.19c-.747 0-1.353.29-1.82.868V96.6a2.98 2.98 0 001.68.49c.663 0 1.19-.21 1.582-.63.401-.43.602-.985.602-1.666 0-.663-.182-1.19-.546-1.582-.364-.401-.863-.602-1.498-.602zm6.87 5.39h-2.03v-6.3h1.12v1.89h1.035c.859 0 1.489.196 1.89.588.402.383.602.91.602 1.582 0 .635-.21 1.167-.63 1.596-.401.43-1.064.644-1.988.644zm4.941 0h-1.12v-6.3h1.12V98zm-5.026-3.36h-.826v2.31h.812c.532 0 .92-.093 1.162-.28.243-.187.364-.476.364-.868 0-.775-.504-1.162-1.512-1.162zm8.549-1.82h-2.31V91.7h5.74v1.12h-2.31V98h-1.12v-5.18zM82.605 98h-2.128v-6.3h1.12v1.89h1.148c.858 0 1.488.196 1.89.588.401.383.602.91.602 1.582 0 .635-.21 1.167-.63 1.596-.42.43-1.088.644-2.002.644zm-.07-3.36h-.938v2.31h.924c1.017 0 1.526-.383 1.526-1.148 0-.775-.504-1.162-1.512-1.162zm6.802 6.272l-.882-.322 4.662-12.53.868.322-4.648 12.53zm11.138-2.772a4.254 4.254 0 01-1.904-.434c-.579-.29-1.013-.658-1.302-1.106l.658-.798c.308.364.69.658 1.148.882.467.224.91.336 1.33.336.672 0 1.209-.168 1.61-.504.411-.336.616-.793.616-1.372 0-.485-.168-.873-.504-1.162-.336-.29-.807-.434-1.414-.434h-1.134v-1.12h1.05c.429 0 .807-.154 1.134-.462.327-.327.49-.723.49-1.19 0-.504-.163-.896-.49-1.176-.327-.28-.756-.42-1.288-.42-.868 0-1.61.364-2.226 1.092l-.7-.784a3.411 3.411 0 011.316-1.05 4.063 4.063 0 011.736-.378c.868 0 1.559.233 2.072.7.513.457.77 1.092.77 1.904 0 .457-.126.891-.378 1.302a2.47 2.47 0 01-1.036.938v.042c.569.112 1.008.378 1.316.798.317.41.476.915.476 1.512 0 .887-.327 1.587-.98 2.1-.653.523-1.442.784-2.366.784zm5.672-5.11l-.294-.896a3.941 3.941 0 012.1-.574c.849 0 1.465.21 1.848.63.382.42.574 1.069.574 1.946V98h-1.064v-.812c-.495.607-1.167.91-2.016.91-.579 0-1.046-.173-1.4-.518-.355-.355-.532-.83-.532-1.428 0-.616.219-1.101.658-1.456.438-.364 1.012-.546 1.722-.546.662 0 1.185.135 1.568.406 0-.71-.098-1.218-.294-1.526-.196-.308-.574-.462-1.134-.462-.57 0-1.148.154-1.736.462zm1.54 4.06c.625 0 1.166-.27 1.624-.812v-.798c-.392-.28-.864-.42-1.414-.42-.383 0-.705.093-.966.28-.252.177-.378.43-.378.756 0 .308.098.55.294.728.205.177.485.266.84.266zm8.609-5.39h1.47l-2.758 3.01 3.024 3.29h-1.554l-2.842-3.22 2.66-3.08zM113.37 98h-1.12v-6.3h1.12V98zm6.973 2.8h-1.12v-9.1h1.12v.742c.224-.261.532-.471.924-.63a3.062 3.062 0 011.218-.252c.896 0 1.601.299 2.114.896.532.588.798 1.353.798 2.296 0 .961-.303 1.769-.91 2.422-.597.644-1.386.966-2.366.966-.756 0-1.349-.145-1.778-.434v3.094zm1.82-8.19c-.747 0-1.353.29-1.82.868V96.6a2.98 2.98 0 001.68.49c.663 0 1.19-.21 1.582-.63.401-.43.602-.985.602-1.666 0-.663-.182-1.19-.546-1.582-.364-.401-.863-.602-1.498-.602zm6.869 5.39h-2.03v-6.3h1.12v1.89h1.036c.859 0 1.489.196 1.89.588.401.383.602.91.602 1.582 0 .635-.21 1.167-.63 1.596-.401.43-1.064.644-1.988.644zm4.942 0h-1.12v-6.3h1.12V98zm-5.026-3.36h-.826v2.31h.812c.532 0 .919-.093 1.162-.28.243-.187.364-.476.364-.868 0-.775-.504-1.162-1.512-1.162zm8.549-1.82h-2.31V91.7h5.74v1.12h-2.31V98h-1.12v-5.18zm6.782 5.18h-2.128v-6.3h1.12v1.89h1.148c.858 0 1.488.196 1.89.588.401.383.602.91.602 1.582 0 .635-.21 1.167-.63 1.596-.42.43-1.088.644-2.002.644zm-.07-3.36h-.938v2.31h.924c1.017 0 1.526-.383 1.526-1.148 0-.775-.504-1.162-1.512-1.162z" fill="#fff"/></g><rect y="213" width="30" height="21" rx="10" fill="#D91515" fill-opacity=".4"/><path d="M17.935 218.9h1.34l-4.057 4.277L19.482 228h-1.417l-4.12-4.745 3.99-4.355zm-4.212 9.1h-1.105v-9.1h1.105v9.1z" fill="#fff"/><g filter="url(#filter2_d)"><path d="M39.196 218.2h1.442l-4.368 4.606L40.862 228h-1.526l-4.438-5.11 4.298-4.69zM34.66 228h-1.19v-9.8h1.19v9.8zm8.615 2.8h-1.12v-9.1h1.12v.742c.224-.261.532-.471.924-.63a3.062 3.062 0 011.218-.252c.895 0 1.6.299 2.114.896.532.588.797 1.353.797 2.296 0 .961-.303 1.769-.91 2.422-.597.644-1.386.966-2.365.966-.756 0-1.35-.145-1.778-.434v3.094zm1.82-8.19c-.747 0-1.354.289-1.82.868v3.122c.494.327 1.054.49 1.68.49.662 0 1.19-.21 1.581-.63.402-.429.602-.985.602-1.666 0-.663-.181-1.19-.545-1.582-.365-.401-.864-.602-1.499-.602zm9.045-.91h1.274l-2.52 6.3c-.458 1.111-.854 1.848-1.19 2.212-.355.392-.761.588-1.218.588-.411 0-.808-.131-1.19-.392l.364-.854c.298.14.532.21.7.21.261 0 .494-.112.7-.336.214-.224.429-.588.644-1.092l.14-.336-3.024-6.3h1.344l1.848 4.004c.037.065.163.383.378.952.084-.308.182-.63.294-.966l1.456-3.99zm7.185 1.61l-3.64 4.69h-1.12v-6.3h1.12v4.69l3.64-4.69h1.12v6.3h-1.12v-4.69zm5.242 4.83c-.476 0-.98-.079-1.512-.238-.514-.168-.878-.373-1.092-.616l.574-.84c.252.205.55.373.896.504.354.121.676.182.966.182.485 0 .882-.093 1.19-.28.308-.196.462-.448.462-.756a.67.67 0 00-.336-.602c-.215-.14-.514-.21-.896-.21h-1.064v-.91h.994c.317 0 .578-.084.784-.252a.821.821 0 00.308-.644.747.747 0 00-.364-.658c-.243-.168-.57-.252-.98-.252-.663 0-1.293.233-1.89.7l-.434-.868c.252-.261.602-.467 1.05-.616a4.626 4.626 0 011.442-.224c.746 0 1.325.149 1.736.448.42.299.63.714.63 1.246 0 .728-.369 1.223-1.106 1.484v.028c.41.047.732.21.966.49.233.271.35.602.35.994 0 .579-.248 1.041-.742 1.386-.486.336-1.13.504-1.932.504zm7.769-3.43H70.99v-1.05h3.346v1.05zm6.099-3.01h1.47l-2.758 3.01L82.17 228h-1.554l-2.842-3.22 2.66-3.08zm-2.926 6.3h-1.12v-6.3h1.12v6.3zm6.015-.784c-.616-.635-.924-1.423-.924-2.366 0-.952.308-1.736.924-2.352.625-.625 1.437-.938 2.436-.938.998 0 1.806.313 2.422.938.625.616.938 1.4.938 2.352s-.313 1.741-.938 2.366c-.616.616-1.424.924-2.422.924-.99 0-1.802-.308-2.436-.924zm.882-3.976c-.41.411-.616.947-.616 1.61 0 .663.2 1.199.602 1.61.41.42.933.63 1.568.63.634 0 1.152-.205 1.554-.616.41-.42.616-.961.616-1.624 0-.644-.206-1.181-.616-1.61-.402-.42-.92-.63-1.554-.63-.635 0-1.153.21-1.554.63zm12.27 4.76h-1.12v-2.66h-3.5V228h-1.12v-6.3h1.12v2.59h3.5v-2.59h1.12v6.3zm3.537-5.18h-2.31v-1.12h5.74v1.12h-2.31V228h-1.12v-5.18zm5.774 7.98h-1.12v-9.1h1.12v.742c.224-.261.532-.471.924-.63a3.062 3.062 0 011.218-.252c.896 0 1.601.299 2.114.896.532.588.798 1.353.798 2.296 0 .961-.303 1.769-.91 2.422-.597.644-1.386.966-2.366.966-.756 0-1.348-.145-1.778-.434v3.094zm1.82-8.19c-.746 0-1.353.289-1.82.868v3.122a2.98 2.98 0 001.68.49c.663 0 1.19-.21 1.582-.63.402-.429.602-.985.602-1.666 0-.663-.182-1.19-.546-1.582-.364-.401-.863-.602-1.498-.602zm5.344 4.606c-.616-.635-.924-1.423-.924-2.366 0-.952.308-1.736.924-2.352.625-.625 1.437-.938 2.436-.938.998 0 1.806.313 2.422.938.625.616.938 1.4.938 2.352s-.313 1.741-.938 2.366c-.616.616-1.424.924-2.422.924-.99 0-1.802-.308-2.436-.924zm.882-3.976c-.411.411-.616.947-.616 1.61 0 .663.2 1.199.602 1.61.41.42.933.63 1.568.63.634 0 1.152-.205 1.554-.616.41-.42.616-.961.616-1.624 0-.644-.206-1.181-.616-1.61-.402-.42-.92-.63-1.554-.63-.635 0-1.153.21-1.554.63zm11.716 4.76h-1.12v-5.18h-2.212l-.07 1.064c-.075.868-.187 1.591-.336 2.17-.14.569-.327.999-.56 1.288-.224.28-.462.476-.714.588-.252.103-.56.154-.924.154l-.084-1.092a.8.8 0 00.322-.042c.112-.047.233-.14.364-.28.14-.14.261-.327.364-.56.112-.233.21-.56.294-.98.093-.429.154-.919.182-1.47l.112-1.96h4.382v6.3zm4.147 0h-2.128v-6.3h1.12v1.89h1.148c.858 0 1.488.196 1.89.588.401.383.602.91.602 1.582 0 .635-.21 1.167-.63 1.596-.42.429-1.088.644-2.002.644zm-.07-3.36h-.938v2.31h.924c1.017 0 1.526-.383 1.526-1.148 0-.775-.504-1.162-1.512-1.162z" fill="#fff"/></g><rect y="239" width="30" height="21" rx="10" fill="#D91515" fill-opacity=".4"/><path d="M18.126 244.9h1.313l-3.224 4.472 3.34 4.628h-1.312l-2.756-3.783L12.744 254h-1.3l3.34-4.628-3.197-4.472h1.3l2.639 3.64 2.6-3.64z" fill="#fff"/><g filter="url(#filter3_d)"><path d="M33.414 254H32.21l4.214-9.856h1.022L41.66 254h-1.274l-1.26-2.968H34.66L33.414 254zm5.25-4.088l-1.764-4.186-1.764 4.186h3.528zM42.879 254v-6.3h.196c.084-.009.205-.014.364-.014a7.75 7.75 0 01.434-.014c.69-.019 1.12-.028 1.288-.028 1.81 0 2.716.541 2.716 1.624 0 .373-.117.695-.35.966-.233.261-.537.42-.91.476v.028c.98.177 1.47.672 1.47 1.484 0 1.223-.966 1.834-2.898 1.834-.093 0-.504-.009-1.232-.028-.14 0-.294-.005-.462-.014-.168 0-.299-.005-.392-.014h-.224zm2.464-2.828H44v1.932c.672.028 1.101.042 1.288.042 1.073 0 1.61-.336 1.61-1.008 0-.644-.518-.966-1.554-.966zm-.098-2.618c-.27 0-.686.014-1.246.042v1.876h1.414c.383 0 .69-.089.924-.266a.85.85 0 00.35-.714c0-.625-.48-.938-1.442-.938zm6.064.266H49v-1.12h5.74v1.12h-2.31V254h-1.12v-5.18zm4.953 4.396c-.616-.635-.924-1.423-.924-2.366 0-.952.308-1.736.924-2.352.625-.625 1.437-.938 2.436-.938.999 0 1.806.313 2.422.938.625.616.938 1.4.938 2.352s-.313 1.741-.938 2.366c-.616.616-1.423.924-2.422.924-.99 0-1.801-.308-2.436-.924zm.882-3.976c-.41.411-.616.947-.616 1.61 0 .663.2 1.199.602 1.61.41.42.933.63 1.568.63s1.153-.205 1.554-.616c.41-.42.616-.961.616-1.624 0-.644-.205-1.181-.616-1.61-.401-.42-.92-.63-1.554-.63-.635 0-1.153.21-1.554.63zm12.2 4.76h-1.12v-5.25h-3.43V254h-1.12v-6.3h5.67v6.3zm6.787-4.69l-3.64 4.69h-1.12v-6.3h1.12v4.69l3.64-4.69h1.12v6.3h-1.12v-4.69zM84.72 254H83.6v-5.18h-2.212l-.07 1.064c-.074.868-.186 1.591-.336 2.17-.14.569-.326.999-.56 1.288-.224.28-.462.476-.714.588-.252.103-.56.154-.924.154l-.084-1.092a.799.799 0 00.322-.042c.112-.047.234-.14.364-.28.14-.14.262-.327.364-.56.112-.233.21-.56.294-.98a9.15 9.15 0 00.182-1.47l.112-1.96h4.382v6.3zm2.524-.784c-.617-.635-.924-1.423-.924-2.366 0-.952.307-1.736.924-2.352.625-.625 1.437-.938 2.436-.938.998 0 1.805.313 2.421.938.626.616.939 1.4.939 2.352s-.313 1.741-.939 2.366c-.615.616-1.423.924-2.421.924-.99 0-1.802-.308-2.436-.924zm.882-3.976c-.411.411-.617.947-.617 1.61 0 .663.201 1.199.603 1.61.41.42.933.63 1.567.63.635 0 1.153-.205 1.555-.616.41-.42.615-.961.615-1.624 0-.644-.205-1.181-.615-1.61-.402-.42-.92-.63-1.555-.63-.634 0-1.152.21-1.553.63zm7.795-.42h-2.31v-1.12h5.74v1.12h-2.31V254h-1.12v-5.18z" fill="#fff"/></g><rect y="135" width="30" height="21" rx="10" fill="#D91515" fill-opacity=".4"/><path d="M15.46 140.9h1.106v7.033c0 1.465-.663 2.197-1.99 2.197-.597 0-1.056-.16-1.377-.481l.377-.845c.242.191.528.286.858.286.684 0 1.027-.446 1.027-1.339V140.9z" fill="#fff"/><g filter="url(#filter4_d)"><path d="M41.17 150h-1.19v-8.68h-5.32V150h-1.19v-9.8h7.7v9.8zm3.595 2.8h-1.12v-9.1h1.12v.742c.224-.261.532-.471.924-.63a3.062 3.062 0 011.218-.252c.896 0 1.6.299 2.114.896.532.588.798 1.353.798 2.296 0 .961-.304 1.769-.91 2.422-.598.644-1.386.966-2.366.966-.756 0-1.349-.145-1.778-.434v3.094zm1.82-8.19c-.747 0-1.354.289-1.82.868v3.122c.494.327 1.054.49 1.68.49.662 0 1.19-.21 1.582-.63.401-.429.602-.985.602-1.666 0-.663-.182-1.19-.546-1.582-.364-.401-.864-.602-1.498-.602zm9.599.7l-3.64 4.69h-1.12v-6.3h1.12v4.69l3.64-4.69h1.12v6.3h-1.12v-4.69zm8 2.968l.532.812c-.541.7-1.349 1.05-2.422 1.05-1.008 0-1.825-.299-2.45-.896-.616-.597-.924-1.395-.924-2.394 0-.924.303-1.703.91-2.338s1.367-.952 2.282-.952c1.101 0 1.927.275 2.478.826l-.518.882c-.485-.439-1.087-.658-1.806-.658-.588 0-1.097.215-1.526.644-.42.42-.63.952-.63 1.596 0 .681.215 1.223.644 1.624.439.411.98.616 1.624.616.728 0 1.33-.271 1.806-.812zm3.422-3.458h-2.31v-1.12h5.74v1.12h-2.31V150h-1.12v-5.18zm9.419 3.612l.35.882c-.607.551-1.395.826-2.366.826-1.027 0-1.844-.299-2.45-.896-.616-.597-.924-1.395-.924-2.394 0-.943.29-1.727.868-2.352.57-.625 1.362-.938 2.38-.938.84 0 1.535.271 2.086.812.56.532.84 1.223.84 2.072 0 .271-.023.523-.07.756h-4.844c.047.588.266 1.05.658 1.386.401.336.915.504 1.54.504.821 0 1.465-.219 1.932-.658zm-2.198-3.822c-.55 0-1.008.154-1.372.462-.355.308-.565.714-.63 1.218h3.822c-.028-.523-.206-.933-.532-1.232-.317-.299-.747-.448-1.288-.448zm5.621 5.39h-1.12v-6.3h3.99v1.05h-2.87V150zm9.693 0h-1.12v-2.66h-3.5V150H84.4v-6.3h1.12v2.59h3.5v-2.59h1.12v6.3zm6.477-6.3h1.274l-2.52 6.3c-.457 1.111-.854 1.848-1.19 2.212-.355.392-.76.588-1.218.588-.41 0-.807-.131-1.19-.392l.364-.854c.299.14.532.21.7.21.262 0 .495-.112.7-.336.215-.224.43-.588.644-1.092l.14-.336-3.024-6.3h1.344l1.848 4.004c.038.065.163.383.378.952.084-.308.182-.63.294-.966l1.456-3.99zm4.06 1.12h-2.31v-1.12h5.74v1.12h-2.31V150h-1.12v-5.18zm6.782 5.18h-2.128v-6.3h1.12v1.89h1.148c.859 0 1.489.196 1.89.588.402.383.602.91.602 1.582 0 .635-.21 1.167-.63 1.596-.42.429-1.087.644-2.002.644zm-.07-3.36h-.938v2.31h.924c1.018 0 1.526-.383 1.526-1.148 0-.775-.504-1.162-1.512-1.162zm8.966 1.638l.532.812c-.541.7-1.349 1.05-2.422 1.05-1.008 0-1.825-.299-2.45-.896-.616-.597-.924-1.395-.924-2.394 0-.924.303-1.703.91-2.338s1.367-.952 2.282-.952c1.101 0 1.927.275 2.478.826l-.518.882c-.485-.439-1.087-.658-1.806-.658-.588 0-1.097.215-1.526.644-.42.42-.63.952-.63 1.596 0 .681.215 1.223.644 1.624.439.411.98.616 1.624.616.728 0 1.33-.271 1.806-.812zm4.449-4.578h1.96v6.3h-1.12v-2.1h-1.218l-1.54 2.1h-1.358l1.82-2.38a1.668 1.668 0 01-.966-.616c-.261-.336-.392-.737-.392-1.204 0-.644.233-1.153.7-1.526.467-.383 1.171-.574 2.114-.574zm-1.624 2.128c0 .299.117.546.35.742.233.187.509.28.826.28h1.288v-2.1h-1.022c-.476 0-.835.098-1.078.294a.955.955 0 00-.364.784z" fill="#fff"/></g><rect y="109" width="30" height="21" rx="10" fill="#D91515" fill-opacity=".4"/><path d="M18.208 124h-5.55v-.845c1.178-1.153 2.045-2.071 2.6-2.756.979-1.231 1.468-2.262 1.468-3.094 0-.433-.134-.784-.403-1.053-.26-.277-.62-.416-1.079-.416-.398 0-.75.13-1.053.39-.294.251-.485.607-.572 1.066l-.884-.364c.104-.65.395-1.166.871-1.547.486-.39 1.062-.585 1.73-.585.797 0 1.412.23 1.845.689.434.459.65.997.65 1.612 0 1.17-.559 2.414-1.677 3.731a20.708 20.708 0 01-1.209 1.326c-.26.26-.572.55-.936.871h4.2V124z" fill="#fff"/><g filter="url(#filter5_d)"><path d="M35.766 124.14a4.258 4.258 0 01-1.904-.434c-.579-.289-1.013-.658-1.302-1.106l.658-.798c.308.364.69.658 1.148.882.467.224.91.336 1.33.336.672 0 1.209-.168 1.61-.504.41-.336.616-.793.616-1.372 0-.485-.168-.873-.504-1.162-.336-.289-.807-.434-1.414-.434H34.87v-1.12h1.05c.43 0 .807-.154 1.134-.462a1.62 1.62 0 00.49-1.19c0-.504-.163-.896-.49-1.176-.327-.28-.756-.42-1.288-.42-.868 0-1.61.364-2.226 1.092l-.7-.784a3.411 3.411 0 011.316-1.05 4.063 4.063 0 011.736-.378c.868 0 1.559.233 2.072.7.513.457.77 1.092.77 1.904 0 .457-.126.891-.378 1.302a2.47 2.47 0 01-1.036.938v.042c.57.112 1.008.378 1.316.798.317.411.476.915.476 1.512 0 .887-.327 1.587-.98 2.1-.653.523-1.442.784-2.366.784zm5.672-5.11l-.294-.896a3.94 3.94 0 012.1-.574c.85 0 1.465.21 1.848.63.382.42.574 1.069.574 1.946V124h-1.064v-.812c-.495.607-1.167.91-2.016.91-.579 0-1.046-.173-1.4-.518-.355-.355-.532-.831-.532-1.428 0-.616.22-1.101.658-1.456.438-.364 1.012-.546 1.722-.546.662 0 1.185.135 1.568.406 0-.709-.098-1.218-.294-1.526-.196-.308-.574-.462-1.134-.462-.57 0-1.148.154-1.736.462zm1.54 4.06c.625 0 1.166-.271 1.624-.812v-.798c-.392-.28-.864-.42-1.414-.42-.383 0-.705.093-.966.28-.252.177-.378.429-.378.756 0 .308.098.551.294.728.205.177.485.266.84.266zm4.563.91v-6.3h.196c.084-.009.206-.014.364-.014a7.75 7.75 0 01.434-.014c.69-.019 1.12-.028 1.288-.028 1.81 0 2.716.541 2.716 1.624 0 .373-.117.695-.35.966-.233.261-.536.42-.91.476v.028c.98.177 1.47.672 1.47 1.484 0 1.223-.966 1.834-2.898 1.834-.093 0-.504-.009-1.232-.028-.14 0-.294-.005-.462-.014-.168 0-.298-.005-.392-.014h-.224zm2.464-2.828h-1.344v1.932c.672.028 1.102.042 1.288.042 1.074 0 1.61-.336 1.61-1.008 0-.644-.518-.966-1.554-.966zm-.098-2.618c-.27 0-.686.014-1.246.042v1.876h1.414c.383 0 .69-.089.924-.266a.85.85 0 00.35-.714c0-.625-.48-.938-1.442-.938zm9.522 3.878l.35.882c-.607.551-1.395.826-2.366.826-1.026 0-1.843-.299-2.45-.896-.616-.597-.924-1.395-.924-2.394 0-.943.29-1.727.868-2.352.57-.625 1.363-.938 2.38-.938.84 0 1.535.271 2.086.812.56.532.84 1.223.84 2.072 0 .271-.023.523-.07.756H55.3c.047.588.266 1.05.658 1.386.401.336.915.504 1.54.504.822 0 1.465-.219 1.932-.658zm-2.198-3.822c-.55 0-1.008.154-1.372.462-.355.308-.565.714-.63 1.218h3.822c-.028-.523-.205-.933-.532-1.232-.317-.299-.746-.448-1.288-.448zm9.264 3.668l.532.812c-.542.7-1.35 1.05-2.422 1.05-1.008 0-1.825-.299-2.45-.896-.616-.597-.924-1.395-.924-2.394 0-.924.303-1.703.91-2.338.606-.635 1.367-.952 2.282-.952 1.1 0 1.927.275 2.478.826l-.518.882c-.486-.439-1.088-.658-1.806-.658-.588 0-1.097.215-1.526.644-.42.42-.63.952-.63 1.596 0 .681.214 1.223.644 1.624.438.411.98.616 1.624.616.728 0 1.33-.271 1.806-.812zm3.421-3.458h-2.31v-1.12h5.74v1.12h-2.31V124h-1.12v-5.18zm9.415.49L75.69 124h-1.12v-6.3h1.12v4.69l3.64-4.69h1.12v6.3h-1.12v-4.69zm6.482 6.23h-1.05v-2.59h.784c.233-.289.439-.756.616-1.4.177-.653.294-1.381.35-2.184l.098-1.666h4.298v5.25h1.05v2.59h-1.05V124h-5.096v1.54zm1.848-6.79l-.07 1.05a9.644 9.644 0 01-.336 1.918c-.168.579-.34.989-.518 1.232h3.052v-4.2h-2.128zm5.517 5.25v-6.3h.196c.084-.009.205-.014.364-.014a7.75 7.75 0 01.434-.014c.69-.019 1.12-.028 1.288-.028 1.81 0 2.716.541 2.716 1.624 0 .373-.117.695-.35.966-.233.261-.537.42-.91.476v.028c.98.177 1.47.672 1.47 1.484 0 1.223-.966 1.834-2.898 1.834-.093 0-.504-.009-1.232-.028-.14 0-.294-.005-.462-.014-.168 0-.299-.005-.392-.014h-.224zm2.464-2.828h-1.344v1.932c.672.028 1.101.042 1.288.042 1.073 0 1.61-.336 1.61-1.008 0-.644-.518-.966-1.554-.966zm-.098-2.618c-.27 0-.686.014-1.246.042v1.876h1.414c.383 0 .69-.089.924-.266a.85.85 0 00.35-.714c0-.625-.48-.938-1.442-.938zm9.312.756l-3.64 4.69h-1.12v-6.3h1.12v4.69l3.64-4.69h1.12v6.3h-1.12v-4.69zm4.276 4.69h-1.12v-6.3h3.99v1.05h-2.87V124zm4.288-4.97l-.294-.896a3.943 3.943 0 012.1-.574c.85 0 1.466.21 1.848.63.383.42.574 1.069.574 1.946V124h-1.064v-.812c-.494.607-1.166.91-2.016.91-.578 0-1.045-.173-1.4-.518-.354-.355-.532-.831-.532-1.428 0-.616.22-1.101.658-1.456.439-.364 1.013-.546 1.722-.546.663 0 1.186.135 1.568.406 0-.709-.098-1.218-.294-1.526-.196-.308-.574-.462-1.134-.462-.569 0-1.148.154-1.736.462zm1.54 4.06c.626 0 1.167-.271 1.624-.812v-.798c-.392-.28-.863-.42-1.414-.42-.382 0-.704.093-.966.28-.252.177-.378.429-.378.756 0 .308.098.551.294.728.206.177.486.266.84.266zm6.076-4.27h-2.31v-1.12h5.74v1.12h-2.31V124h-1.12v-5.18zm9.419 3.612l.35.882c-.607.551-1.396.826-2.366.826-1.027 0-1.844-.299-2.45-.896-.616-.597-.924-1.395-.924-2.394 0-.943.289-1.727.868-2.352.569-.625 1.362-.938 2.38-.938.84 0 1.535.271 2.086.812.56.532.84 1.223.84 2.072 0 .271-.024.523-.07.756h-4.844c.046.588.266 1.05.658 1.386.401.336.914.504 1.54.504.821 0 1.465-.219 1.932-.658zm-2.198-3.822c-.551 0-1.008.154-1.372.462-.355.308-.565.714-.63 1.218h3.822c-.028-.523-.206-.933-.532-1.232-.318-.299-.747-.448-1.288-.448zm9.687 5.39h-1.12v-5.18h-2.212l-.07 1.064c-.075.868-.187 1.591-.336 2.17-.14.569-.327.999-.56 1.288-.224.28-.462.476-.714.588-.252.103-.56.154-.924.154l-.084-1.092a.798.798 0 00.322-.042c.112-.047.233-.14.364-.28.14-.14.261-.327.364-.56.112-.233.21-.56.294-.98.093-.429.154-.919.182-1.47l.112-1.96h4.382v6.3zm4.147 0h-2.128v-6.3h1.12v1.89h1.148c.859 0 1.489.196 1.89.588.401.383.602.91.602 1.582 0 .635-.21 1.167-.63 1.596-.42.429-1.087.644-2.002.644zm-.07-3.36h-.938v2.31h.924c1.017 0 1.526-.383 1.526-1.148 0-.775-.504-1.162-1.512-1.162z" fill="#fff"/></g><rect y="5" width="30" height="21" rx="10" fill="#D91515" fill-opacity=".4"/><path d="M14.45 11.94h-3.186V10.9h7.475v1.04h-3.185V20H14.45v-8.06z" fill="#fff"/><g filter="url(#filter6_d)"><path d="M38.44 10.2h1.19V20h-1.19v-4.284c-.7.504-1.563.756-2.59.756-.868 0-1.573-.252-2.114-.756-.55-.504-.826-1.293-.826-2.366V10.2h1.19v2.828c0 1.55.686 2.324 2.058 2.324.784 0 1.545-.247 2.282-.742V10.2zm4.01 4.83l-.294-.896a3.943 3.943 0 012.1-.574c.849 0 1.465.21 1.847.63.383.42.575 1.069.575 1.946V20h-1.064v-.812c-.495.607-1.167.91-2.017.91-.578 0-1.045-.173-1.4-.518-.354-.355-.532-.83-.532-1.428 0-.616.22-1.101.659-1.456.438-.364 1.012-.546 1.721-.546.663 0 1.186.135 1.569.406 0-.71-.098-1.218-.294-1.526-.197-.308-.575-.462-1.135-.462-.569 0-1.148.154-1.736.462zm1.54 4.06c.625 0 1.166-.27 1.623-.812v-.798c-.392-.28-.863-.42-1.413-.42-.383 0-.705.093-.967.28-.252.177-.377.43-.377.756 0 .308.097.55.294.728.205.177.485.266.84.266zm6.075-4.27h-2.31V13.7h5.74v1.12h-2.31V20h-1.12v-5.18z" fill="#fff"/></g><g filter="url(#filter7_d)"><path d="M35.57 63.32h-3.43V62.2h8.05v1.12h-3.43V72h-1.19v-8.68zm8.889 7.112l.35.882c-.607.55-1.396.826-2.366.826-1.027 0-1.844-.299-2.45-.896-.617-.597-.925-1.395-.925-2.394 0-.943.29-1.727.869-2.352.569-.625 1.362-.938 2.38-.938.84 0 1.535.27 2.086.812.56.532.84 1.223.84 2.072 0 .27-.024.523-.07.756h-4.845c.047.588.266 1.05.658 1.386.402.336.915.504 1.54.504.822 0 1.466-.22 1.932-.658zM42.26 66.61c-.55 0-1.008.154-1.371.462-.355.308-.565.714-.63 1.218h3.822c-.029-.523-.206-.933-.533-1.232-.317-.299-.746-.448-1.288-.448zM51.949 72h-1.12v-5.18h-2.212l-.07 1.064c-.075.868-.187 1.591-.336 2.17-.14.57-.327.999-.56 1.288-.224.28-.462.476-.714.588-.252.103-.56.154-.924.154l-.084-1.092c.103.01.21-.005.322-.042a1.12 1.12 0 00.364-.28c.14-.14.261-.327.364-.56.112-.233.21-.56.294-.98.093-.43.154-.92.182-1.47l.112-1.96h4.382V72zm6.989-1.568l.35.882c-.607.55-1.395.826-2.366.826-1.027 0-1.843-.299-2.45-.896-.616-.597-.924-1.395-.924-2.394 0-.943.29-1.727.868-2.352.57-.625 1.363-.938 2.38-.938.84 0 1.535.27 2.086.812.56.532.84 1.223.84 2.072 0 .27-.023.523-.07.756h-4.844c.047.588.266 1.05.658 1.386.401.336.915.504 1.54.504.821 0 1.465-.22 1.932-.658zM56.74 66.61c-.55 0-1.008.154-1.372.462-.355.308-.565.714-.63 1.218h3.822c-.028-.523-.205-.933-.532-1.232-.317-.299-.747-.448-1.288-.448zm8.69 8.19h-1.12v-2.66h-.155c-1.054 0-1.89-.308-2.506-.924-.606-.625-.91-1.414-.91-2.366 0-.905.308-1.68.924-2.324.616-.644 1.442-.966 2.478-.966h.168V62.2h1.12v3.36h.182c1.027 0 1.848.313 2.464.938.616.625.924 1.41.924 2.352 0 .98-.298 1.773-.896 2.38-.588.607-1.418.91-2.492.91h-.182v2.66zm-3.5-5.95c0 .681.2 1.227.601 1.638.411.401.966.602 1.666.602h.112v-4.48h-.182c-.68 0-1.218.21-1.61.63-.392.41-.588.947-.588 1.61zm3.681-2.24h-.182v4.48h.126c.71 0 1.26-.2 1.652-.602.402-.41.602-.957.602-1.638 0-.616-.196-1.143-.588-1.582-.392-.439-.928-.658-1.61-.658zm5.5 4.606c-.616-.635-.924-1.423-.924-2.366 0-.952.308-1.736.924-2.352.625-.625 1.437-.938 2.436-.938.998 0 1.806.313 2.422.938.625.616.938 1.4.938 2.352s-.313 1.74-.938 2.366c-.616.616-1.424.924-2.422.924-.99 0-1.802-.308-2.436-.924zm.882-3.976c-.411.41-.616.947-.616 1.61 0 .663.2 1.2.602 1.61.41.42.933.63 1.568.63.634 0 1.152-.205 1.554-.616.41-.42.616-.961.616-1.624 0-.644-.206-1.18-.616-1.61-.402-.42-.92-.63-1.554-.63-.635 0-1.153.21-1.554.63zM84.262 72h-1.12v-2.66h-3.5V72h-1.12v-6.3h1.12v2.59h3.5V65.7h1.12V72z" fill="#fff"/></g><rect y="57" width="30" height="21" rx="10" fill="#D91515" fill-opacity=".4"/><path d="M11.986 66.694l.951.925a.166.166 0 00.233 0l1.6-1.568v6.782c0 .092.074.167.166.167h1.334a.167.167 0 00.166-.167v-6.782l1.6 1.568a.167.167 0 00.232 0l.951-.925a.166.166 0 000-.239l-3.5-3.408a.166.166 0 00-.232 0l-3.5 3.408a.167.167 0 000 .239z" fill="#fff"/><g filter="url(#filter8_d)"><path d="M33.414 202H32.21l4.214-9.856h1.022L41.66 202h-1.274l-1.26-2.968H34.66L33.414 202zm5.25-4.088l-1.764-4.186-1.764 4.186h3.528zM42.879 202v-6.3h.196c.084-.009.205-.014.364-.014a7.75 7.75 0 01.434-.014c.69-.019 1.12-.028 1.288-.028 1.81 0 2.716.541 2.716 1.624 0 .373-.117.695-.35.966-.233.261-.537.42-.91.476v.028c.98.177 1.47.672 1.47 1.484 0 1.223-.966 1.834-2.898 1.834-.093 0-.504-.009-1.232-.028-.14 0-.294-.005-.462-.014-.168 0-.299-.005-.392-.014h-.224zm2.464-2.828H44v1.932c.672.028 1.101.042 1.288.042 1.073 0 1.61-.336 1.61-1.008 0-.644-.518-.966-1.554-.966zm-.098-2.618c-.27 0-.686.014-1.246.042v1.876h1.414c.383 0 .69-.089.924-.266a.85.85 0 00.35-.714c0-.625-.48-.938-1.442-.938zm4.888.476l-.294-.896a3.94 3.94 0 012.1-.574c.85 0 1.465.21 1.848.63.383.42.574 1.069.574 1.946V202h-1.064v-.812c-.495.607-1.167.91-2.016.91-.579 0-1.045-.173-1.4-.518-.355-.355-.532-.831-.532-1.428 0-.616.22-1.101.658-1.456.439-.364 1.013-.546 1.722-.546.663 0 1.185.135 1.568.406 0-.709-.098-1.218-.294-1.526-.196-.308-.574-.462-1.134-.462-.57 0-1.148.154-1.736.462zm1.54 4.06c.625 0 1.167-.271 1.624-.812v-.798c-.392-.28-.863-.42-1.414-.42-.383 0-.705.093-.966.28-.252.177-.378.429-.378.756 0 .308.098.551.294.728.205.177.485.266.84.266zm5.683 3.71h-1.12v-9.1h1.12v.742c.224-.261.532-.471.925-.63a3.062 3.062 0 011.218-.252c.895 0 1.6.299 2.113.896.532.588.798 1.353.798 2.296 0 .961-.303 1.769-.91 2.422-.597.644-1.386.966-2.365.966-.756 0-1.35-.145-1.779-.434v3.094zm1.82-8.19c-.746 0-1.353.289-1.82.868v3.122a2.98 2.98 0 001.68.49c.663 0 1.19-.21 1.582-.63.402-.429.602-.985.602-1.666 0-.663-.181-1.19-.545-1.582-.364-.401-.864-.602-1.498-.602zm9.6.7l-3.64 4.69h-1.12v-6.3h1.12v4.69l3.64-4.69h1.12v6.3h-1.12v-4.69zm7.916 0l-3.64 4.69h-1.12v-6.3h1.12v4.69l3.64-4.69h1.12v6.3h-1.12v-4.69zm-3.864-4.83h1.05c.056.737.415 1.106 1.078 1.106.625 0 .966-.369 1.022-1.106h1.05c0 .569-.196 1.041-.588 1.414-.383.364-.877.546-1.484.546-.663 0-1.186-.177-1.568-.532-.374-.364-.56-.84-.56-1.428zm11.066 3.22h1.47l-2.758 3.01L85.63 202h-1.554l-2.842-3.22 2.66-3.08zm-2.926 6.3h-1.12v-6.3h1.12v6.3zm6.188-4.97l-.294-.896a3.94 3.94 0 012.1-.574c.85 0 1.466.21 1.849.63.382.42.573 1.069.573 1.946V202H90.32v-.812c-.494.607-1.166.91-2.015.91-.58 0-1.046-.173-1.4-.518-.355-.355-.532-.831-.532-1.428 0-.616.219-1.101.657-1.456.44-.364 1.013-.546 1.722-.546.663 0 1.186.135 1.569.406 0-.709-.099-1.218-.294-1.526-.197-.308-.575-.462-1.135-.462-.569 0-1.147.154-1.736.462zm1.54 4.06c.626 0 1.167-.271 1.624-.812v-.798c-.391-.28-.863-.42-1.413-.42-.383 0-.705.093-.966.28-.252.177-.379.429-.379.756 0 .308.099.551.294.728.206.177.486.266.84.266z" fill="#fff"/></g><rect y="187" width="30" height="21" rx="10" fill="#D91515" fill-opacity=".4"/><path d="M19.22 199.306l-.95-.925a.165.165 0 00-.233 0l-1.6 1.568v-6.782a.167.167 0 00-.166-.167h-1.334a.167.167 0 00-.166.167v6.782l-1.6-1.568a.166.166 0 00-.232 0l-.951.925a.165.165 0 00-.05.119.17.17 0 00.05.12l3.5 3.408a.168.168 0 00.232 0l3.5-3.408a.169.169 0 00.05-.12.165.165 0 00-.05-.119z" fill="#fff"/><g filter="url(#filter9_d)"><path d="M73.17 176h-1.19v-8.68h-5.32V176h-1.19v-9.8h7.7v9.8zm2.979-.784c-.616-.635-.924-1.423-.924-2.366 0-.952.308-1.736.924-2.352.625-.625 1.437-.938 2.436-.938.998 0 1.806.313 2.422.938.625.616.938 1.4.938 2.352s-.313 1.741-.938 2.366c-.616.616-1.424.924-2.422.924-.99 0-1.802-.308-2.436-.924zm.882-3.976c-.41.411-.616.947-.616 1.61 0 .663.2 1.199.602 1.61.41.42.933.63 1.568.63.634 0 1.152-.205 1.554-.616.41-.42.616-.961.616-1.624 0-.644-.206-1.181-.616-1.61-.402-.42-.92-.63-1.554-.63-.635 0-1.153.21-1.554.63zm6.53 4.76v-6.3h.196c.084-.009.205-.014.364-.014a7.72 7.72 0 01.434-.014c.69-.019 1.12-.028 1.288-.028 1.81 0 2.716.541 2.716 1.624 0 .373-.117.695-.35.966-.234.261-.537.42-.91.476v.028c.98.177 1.47.672 1.47 1.484 0 1.223-.966 1.834-2.898 1.834-.094 0-.504-.009-1.232-.028-.14 0-.294-.005-.462-.014-.168 0-.299-.005-.392-.014h-.224zm2.464-2.828H84.68v1.932c.672.028 1.101.042 1.288.042 1.073 0 1.61-.336 1.61-1.008 0-.644-.518-.966-1.554-.966zm-.098-2.618c-.27 0-.686.014-1.246.042v1.876h1.414c.382 0 .69-.089.924-.266a.85.85 0 00.35-.714c0-.625-.48-.938-1.442-.938zm5.056 4.662c-.616-.635-.924-1.423-.924-2.366 0-.952.308-1.736.924-2.352.625-.625 1.437-.938 2.436-.938.998 0 1.806.313 2.422.938.625.616.938 1.4.938 2.352s-.313 1.741-.938 2.366c-.616.616-1.424.924-2.422.924-.99 0-1.802-.308-2.436-.924zm.882-3.976c-.411.411-.616.947-.616 1.61 0 .663.2 1.199.602 1.61.41.42.933.63 1.568.63.634 0 1.152-.205 1.554-.616.41-.42.616-.961.616-1.624 0-.644-.206-1.181-.616-1.61-.402-.42-.92-.63-1.554-.63-.635 0-1.153.21-1.554.63zm7.65 7.56h-1.12v-9.1h1.12v.742c.224-.261.532-.471.924-.63a3.062 3.062 0 011.218-.252c.896 0 1.6.299 2.114.896.532.588.798 1.353.798 2.296 0 .961-.304 1.769-.91 2.422-.598.644-1.386.966-2.366.966-.756 0-1.349-.145-1.778-.434v3.094zm1.82-8.19c-.747 0-1.354.289-1.82.868v3.122c.494.327 1.054.49 1.68.49.662 0 1.19-.21 1.582-.63.401-.429.602-.985.602-1.666 0-.663-.182-1.19-.546-1.582-.364-.401-.864-.602-1.498-.602zm5.343 4.606c-.616-.635-.924-1.423-.924-2.366 0-.952.308-1.736.924-2.352.625-.625 1.437-.938 2.436-.938.999 0 1.806.313 2.422.938.625.616.938 1.4.938 2.352s-.313 1.741-.938 2.366c-.616.616-1.423.924-2.422.924-.989 0-1.801-.308-2.436-.924zm.882-3.976c-.411.411-.616.947-.616 1.61 0 .663.201 1.199.602 1.61.411.42.933.63 1.568.63s1.153-.205 1.554-.616c.411-.42.616-.961.616-1.624 0-.644-.205-1.181-.616-1.61-.401-.42-.919-.63-1.554-.63s-1.153.21-1.554.63zm7.796-.42h-2.31v-1.12h5.74v1.12h-2.31V176h-1.12v-5.18zM125.75 176h-1.12v-2.66h-3.5V176h-1.12v-6.3h1.12v2.59h3.5v-2.59h1.12v6.3zm6.786-4.69l-3.64 4.69h-1.12v-6.3h1.12v4.69l3.64-4.69h1.12v6.3h-1.12v-4.69zm7.202-1.61h1.47l-2.758 3.01 3.024 3.29h-1.554l-2.842-3.22 2.66-3.08zm-2.926 6.3h-1.12v-6.3h1.12v6.3zm10.612-4.69l-3.64 4.69h-1.12v-6.3h1.12v4.69l3.64-4.69h1.12v6.3h-1.12v-4.69z" fill="#fff"/></g><rect y="161" width="30" height="21" rx="10" fill="#D91515" fill-opacity=".4"/><rect x="32" y="161" width="30" height="21" rx="10" fill="#D91515" fill-opacity=".4"/><path d="M14.295 175.283l.926-.951a.166.166 0 000-.233l-1.569-1.599h6.783a.167.167 0 00.167-.167V171a.167.167 0 00-.167-.167h-6.783l1.569-1.599a.167.167 0 000-.233l-.926-.95a.164.164 0 00-.239 0l-3.407 3.499a.167.167 0 000 .233l3.408 3.5a.167.167 0 00.238 0zm34.613-7.566l-.926.951a.166.166 0 000 .233l1.569 1.599h-6.783a.167.167 0 00-.166.167V172c0 .092.074.167.166.167h6.783l-1.569 1.599a.167.167 0 000 .233l.926.95a.164.164 0 00.239 0l3.407-3.499a.167.167 0 000-.233l-3.408-3.5a.167.167 0 00-.238 0z" fill="#fff"/><rect y="265" width="30" height="21" rx="10" fill="#D91515" fill-opacity=".4"/><path d="M9.86 280H8.757v-9.1h5.135v1.04H9.86v3.224h3.64v1.04H9.86V280zm5.201-3.224c0-.78.13-1.53.39-2.249.269-.719.624-1.33 1.066-1.833.91-1.031 1.898-1.673 2.964-1.924l.43.793c-.859.217-1.635.68-2.328 1.391-.667.693-1.1 1.577-1.3 2.652.433-.806 1.148-1.209 2.145-1.209.754 0 1.374.26 1.86.78.493.52.74 1.192.74 2.015 0 .849-.281 1.556-.845 2.119-.555.546-1.209.819-1.963.819-.98 0-1.75-.321-2.314-.962-.563-.659-.845-1.456-.845-2.392zm1.105 0c0 .65.178 1.2.533 1.651.355.442.858.663 1.508.663a1.6 1.6 0 001.222-.533c.33-.373.494-.802.494-1.287 0-.563-.164-1.018-.494-1.365-.32-.355-.771-.533-1.352-.533-.46 0-.862.134-1.209.403a2.08 2.08 0 00-.702 1.001z" fill="#fff"/><g filter="url(#filter10_d)"><path d="M40.288 278.152l.476.896c-.327.336-.77.602-1.33.798a5.3 5.3 0 01-1.764.294c-1.465 0-2.665-.457-3.598-1.372-.915-.933-1.372-2.156-1.372-3.668 0-1.456.439-2.655 1.316-3.598.877-.961 2.067-1.442 3.57-1.442 1.241 0 2.235.317 2.982.952l-.546.896c-.653-.485-1.46-.728-2.422-.728-1.064 0-1.937.364-2.618 1.092-.681.719-1.022 1.661-1.022 2.828 0 1.167.35 2.114 1.05 2.842.719.719 1.643 1.078 2.772 1.078.952 0 1.787-.289 2.506-.868zm5.954-4.452h1.47l-2.759 3.01 3.024 3.29h-1.553l-2.843-3.22 2.66-3.08zm-2.926 6.3h-1.12v-6.3h1.12v6.3zm6.972 2.8h-1.12v-9.1h1.12v.742c.224-.261.532-.471.924-.63a3.062 3.062 0 011.218-.252c.896 0 1.6.299 2.114.896.532.588.798 1.353.798 2.296 0 .961-.303 1.769-.91 2.422-.597.644-1.386.966-2.366.966-.756 0-1.349-.145-1.778-.434v3.094zm1.82-8.19c-.746 0-1.353.289-1.82.868v3.122a2.98 2.98 0 001.68.49c.663 0 1.19-.21 1.582-.63.402-.429.602-.985.602-1.666 0-.663-.182-1.19-.546-1.582-.364-.401-.863-.602-1.498-.602zm6.87 5.39h-2.03v-6.3h1.12v1.89h1.035c.86 0 1.49.196 1.89.588.402.383.602.91.602 1.582 0 .635-.21 1.167-.63 1.596-.4.429-1.064.644-1.988.644zm4.941 0H62.8v-6.3h1.12v6.3zm-5.025-3.36h-.826v2.31h.812c.531 0 .919-.093 1.161-.28.243-.187.365-.476.365-.868 0-.775-.505-1.162-1.512-1.162zm8.548-1.82h-2.31v-1.12h5.74v1.12h-2.31V280h-1.12v-5.18zm6.782 5.18h-2.128v-6.3h1.12v1.89h1.148c.859 0 1.489.196 1.89.588.401.383.602.91.602 1.582 0 .635-.21 1.167-.63 1.596-.42.429-1.087.644-2.002.644zm-.07-3.36h-.938v2.31h.924c1.017 0 1.526-.383 1.526-1.148 0-.775-.504-1.162-1.512-1.162zM87.172 280h-1.12v-5.25h-3.43V280h-1.12v-6.3h5.67v6.3zm2.531-.784c-.616-.635-.924-1.423-.924-2.366 0-.952.308-1.736.924-2.352.626-.625 1.438-.938 2.436-.938 1 0 1.806.313 2.422.938.626.616.938 1.4.938 2.352s-.312 1.741-.938 2.366c-.616.616-1.423.924-2.422.924-.989 0-1.8-.308-2.436-.924zm.882-3.976c-.41.411-.616.947-.616 1.61 0 .663.201 1.199.602 1.61.411.42.934.63 1.568.63.635 0 1.153-.205 1.554-.616.411-.42.616-.961.616-1.624 0-.644-.205-1.181-.616-1.61-.4-.42-.919-.63-1.554-.63-.634 0-1.152.21-1.554.63zm6.466 6.3h-1.05v-2.59h.784c.234-.289.439-.756.616-1.4.178-.653.294-1.381.35-2.184l.098-1.666h4.298v5.25h1.05v2.59h-1.05V280h-5.096v1.54zm1.848-6.79l-.07 1.05a9.644 9.644 0 01-.336 1.918c-.168.579-.34.989-.518 1.232h3.052v-4.2h-2.128zm10.361 3.528l.532.812c-.541.7-1.348 1.05-2.422 1.05-1.008 0-1.824-.299-2.45-.896-.616-.597-.924-1.395-.924-2.394 0-.924.304-1.703.91-2.338.607-.635 1.368-.952 2.282-.952 1.102 0 1.928.275 2.478.826l-.518.882c-.485-.439-1.087-.658-1.806-.658-.588 0-1.096.215-1.526.644-.42.42-.63.952-.63 1.596 0 .681.215 1.223.644 1.624.439.411.98.616 1.624.616.728 0 1.33-.271 1.806-.812zm6.038-4.578h1.47l-2.758 3.01 3.024 3.29h-1.554l-2.842-3.22 2.66-3.08zm-2.926 6.3h-1.12v-6.3h1.12v6.3zm6.189-4.97l-.294-.896a3.939 3.939 0 012.1-.574c.849 0 1.465.21 1.848.63.382.42.574 1.069.574 1.946V280h-1.064v-.812c-.495.607-1.167.91-2.016.91-.579 0-1.046-.173-1.4-.518-.355-.355-.532-.831-.532-1.428 0-.616.219-1.101.658-1.456.438-.364 1.012-.546 1.722-.546.662 0 1.185.135 1.568.406 0-.709-.098-1.218-.294-1.526-.196-.308-.574-.462-1.134-.462-.57 0-1.148.154-1.736.462zm1.54 4.06c.625 0 1.166-.271 1.624-.812v-.798c-.392-.28-.864-.42-1.414-.42-.383 0-.705.093-.966.28-.252.177-.378.429-.378.756 0 .308.098.551.294.728.205.177.485.266.84.266zm6.649 1.05c-.476 0-.98-.079-1.512-.238-.513-.168-.877-.373-1.092-.616l.574-.84c.252.205.551.373.896.504.355.121.677.182.966.182.486 0 .882-.093 1.19-.28.308-.196.462-.448.462-.756a.67.67 0 00-.336-.602c-.214-.14-.513-.21-.896-.21h-1.064v-.91h.994c.318 0 .579-.084.784-.252a.82.82 0 00.308-.644.746.746 0 00-.364-.658c-.242-.168-.569-.252-.98-.252-.662 0-1.292.233-1.89.7l-.434-.868c.252-.261.602-.467 1.05-.616a4.629 4.629 0 011.442-.224c.747 0 1.326.149 1.736.448.42.299.63.714.63 1.246 0 .728-.368 1.223-1.106 1.484v.028c.411.047.733.21.966.49.234.271.35.602.35.994 0 .579-.247 1.041-.742 1.386-.485.336-1.129.504-1.932.504zm8.427-6.44h1.47l-2.758 3.01 3.024 3.29h-1.554l-2.842-3.22 2.66-3.08zm-2.926 6.3h-1.12v-6.3h1.12v6.3zm10.613-4.69l-3.64 4.69h-1.12v-6.3h1.12v4.69l3.64-4.69h1.12v6.3h-1.12v-4.69z" fill="#fff"/></g><defs><filter id="filter0_d" x="23.47" y="26.199" width="85.708" height="32.6" filterUnits="userSpaceOnUse" color-interpolation-filters="sRGB"><feFlood flood-opacity="0" result="BackgroundImageFix"/><feColorMatrix in="SourceAlpha" values="0 0 0 0 0 0 0 0 0 0 0 0 0 0 0 0 0 0 127 0"/><feOffset/><feGaussianBlur stdDeviation="5"/><feColorMatrix values="0 0 0 0 0 0 0 0 0 0 0 0 0 0 0 0 0 0 0.33 0"/><feBlend in2="BackgroundImageFix" result="effect1_dropShadow"/><feBlend in="SourceGraphic" in2="effect1_dropShadow" result="shape"/></filter><filter id="filter1_d" x="22.7" y="78.061" width="134.211" height="32.852" filterUnits="userSpaceOnUse" color-interpolation-filters="sRGB"><feFlood flood-opacity="0" result="BackgroundImageFix"/><feColorMatrix in="SourceAlpha" values="0 0 0 0 0 0 0 0 0 0 0 0 0 0 0 0 0 0 127 0"/><feOffset/><feGaussianBlur stdDeviation="5"/><feColorMatrix values="0 0 0 0 0 0 0 0 0 0 0 0 0 0 0 0 0 0 0.33 0"/><feBlend in2="BackgroundImageFix" result="effect1_dropShadow"/><feBlend in="SourceGraphic" in2="effect1_dropShadow" result="shape"/></filter><filter id="filter2_d" x="23.47" y="208.199" width="119.058" height="32.6" filterUnits="userSpaceOnUse" color-interpolation-filters="sRGB"><feFlood flood-opacity="0" result="BackgroundImageFix"/><feColorMatrix in="SourceAlpha" values="0 0 0 0 0 0 0 0 0 0 0 0 0 0 0 0 0 0 127 0"/><feOffset/><feGaussianBlur stdDeviation="5"/><feColorMatrix values="0 0 0 0 0 0 0 0 0 0 0 0 0 0 0 0 0 0 0.33 0"/><feBlend in2="BackgroundImageFix" result="effect1_dropShadow"/><feBlend in="SourceGraphic" in2="effect1_dropShadow" result="shape"/></filter><filter id="filter3_d" x="22.21" y="234.145" width="87.14" height="29.996" filterUnits="userSpaceOnUse" color-interpolation-filters="sRGB"><feFlood flood-opacity="0" result="BackgroundImageFix"/><feColorMatrix in="SourceAlpha" values="0 0 0 0 0 0 0 0 0 0 0 0 0 0 0 0 0 0 127 0"/><feOffset/><feGaussianBlur stdDeviation="5"/><feColorMatrix values="0 0 0 0 0 0 0 0 0 0 0 0 0 0 0 0 0 0 0.33 0"/><feBlend in2="BackgroundImageFix" result="effect1_dropShadow"/><feBlend in="SourceGraphic" in2="effect1_dropShadow" result="shape"/></filter><filter id="filter4_d" x="23.47" y="130.199" width="109.295" height="32.6" filterUnits="userSpaceOnUse" color-interpolation-filters="sRGB"><feFlood flood-opacity="0" result="BackgroundImageFix"/><feColorMatrix in="SourceAlpha" values="0 0 0 0 0 0 0 0 0 0 0 0 0 0 0 0 0 0 127 0"/><feOffset/><feGaussianBlur stdDeviation="5"/><feColorMatrix values="0 0 0 0 0 0 0 0 0 0 0 0 0 0 0 0 0 0 0.33 0"/><feBlend in2="BackgroundImageFix" result="effect1_dropShadow"/><feBlend in="SourceGraphic" in2="effect1_dropShadow" result="shape"/></filter><filter id="filter5_d" x="22.56" y="104.061" width="132.163" height="31.48" filterUnits="userSpaceOnUse" color-interpolation-filters="sRGB"><feFlood flood-opacity="0" result="BackgroundImageFix"/><feColorMatrix in="SourceAlpha" values="0 0 0 0 0 0 0 0 0 0 0 0 0 0 0 0 0 0 127 0"/><feOffset/><feGaussianBlur stdDeviation="5"/><feColorMatrix values="0 0 0 0 0 0 0 0 0 0 0 0 0 0 0 0 0 0 0.33 0"/><feBlend in2="BackgroundImageFix" result="effect1_dropShadow"/><feBlend in="SourceGraphic" in2="effect1_dropShadow" result="shape"/></filter><filter id="filter6_d" x="22.91" y=".199" width="40.585" height="29.898" filterUnits="userSpaceOnUse" color-interpolation-filters="sRGB"><feFlood flood-opacity="0" result="BackgroundImageFix"/><feColorMatrix in="SourceAlpha" values="0 0 0 0 0 0 0 0 0 0 0 0 0 0 0 0 0 0 127 0"/><feOffset/><feGaussianBlur stdDeviation="5"/><feColorMatrix values="0 0 0 0 0 0 0 0 0 0 0 0 0 0 0 0 0 0 0.33 0"/><feBlend in2="BackgroundImageFix" result="effect1_dropShadow"/><feBlend in="SourceGraphic" in2="effect1_dropShadow" result="shape"/></filter><filter id="filter7_d" x="22.14" y="52.199" width="72.122" height="32.6" filterUnits="userSpaceOnUse" color-interpolation-filters="sRGB"><feFlood flood-opacity="0" result="BackgroundImageFix"/><feColorMatrix in="SourceAlpha" values="0 0 0 0 0 0 0 0 0 0 0 0 0 0 0 0 0 0 127 0"/><feOffset/><feGaussianBlur stdDeviation="5"/><feColorMatrix values="0 0 0 0 0 0 0 0 0 0 0 0 0 0 0 0 0 0 0.33 0"/><feBlend in2="BackgroundImageFix" result="effect1_dropShadow"/><feBlend in="SourceGraphic" in2="effect1_dropShadow" result="shape"/></filter><filter id="filter8_d" x="22.21" y="182.145" width="79.174" height="32.656" filterUnits="userSpaceOnUse" color-interpolation-filters="sRGB"><feFlood flood-opacity="0" result="BackgroundImageFix"/><feColorMatrix in="SourceAlpha" values="0 0 0 0 0 0 0 0 0 0 0 0 0 0 0 0 0 0 127 0"/><feOffset/><feGaussianBlur stdDeviation="5"/><feColorMatrix values="0 0 0 0 0 0 0 0 0 0 0 0 0 0 0 0 0 0 0.33 0"/><feBlend in2="BackgroundImageFix" result="effect1_dropShadow"/><feBlend in="SourceGraphic" in2="effect1_dropShadow" result="shape"/></filter><filter id="filter9_d" x="55.47" y="156.199" width="103.074" height="32.6" filterUnits="userSpaceOnUse" color-interpolation-filters="sRGB"><feFlood flood-opacity="0" result="BackgroundImageFix"/><feColorMatrix in="SourceAlpha" values="0 0 0 0 0 0 0 0 0 0 0 0 0 0 0 0 0 0 127 0"/><feOffset/><feGaussianBlur stdDeviation="5"/><feColorMatrix values="0 0 0 0 0 0 0 0 0 0 0 0 0 0 0 0 0 0 0.33 0"/><feBlend in2="BackgroundImageFix" result="effect1_dropShadow"/><feBlend in="SourceGraphic" in2="effect1_dropShadow" result="shape"/></filter><filter id="filter10_d" x="22.7" y="260.061" width="131.284" height="32.74" filterUnits="userSpaceOnUse" color-interpolation-filters="sRGB"><feFlood flood-opacity="0" result="BackgroundImageFix"/><feColorMatrix in="SourceAlpha" values="0 0 0 0 0 0 0 0 0 0 0 0 0 0 0 0 0 0 127 0"/><feOffset/><feGaussianBlur stdDeviation="5"/><feColorMatrix values="0 0 0 0 0 0 0 0 0 0 0 0 0 0 0 0 0 0 0.33 0"/><feBlend in2="BackgroundImageFix" result="effect1_dropShadow"/><feBlend in="SourceGraphic" in2="effect1_dropShadow" result="shape"/></filter></defs></svg>