<svg width="57" height="57" fill="none" xmlns="http://www.w3.org/2000/svg"><path fill-rule="evenodd" clip-rule="evenodd" d="M28.5 57C44.24 57 57 44.24 57 28.5S44.24 0 28.5 0 0 12.76 0 28.5 12.76 57 28.5 57zM19 26.444c0-5.268 4.287-9.555 9.556-9.555 5.268 0 9.556 4.287 9.556 9.556 0 7.13-8.512 15.17-8.874 15.508a.995.995 0 01-1.344.02C27.531 41.65 19 34.03 19 26.443zm5 .002a4.556 4.556 0 109.112-.002 4.556 4.556 0 00-9.112.002z" fill="url(#paint0_linear)"/><defs><linearGradient id="paint0_linear" x1="4.56" y1="11.97" x2="52.44" y2="44.46" gradientUnits="userSpaceOnUse"><stop stop-color="#D91515"/><stop offset="1" stop-color="#E95050"/></linearGradient></defs></svg>