<svg width="12" height="17" fill="none" xmlns="http://www.w3.org/2000/svg"><path d="M12 9.445c0-.29-.019-.581-.026-.872a1.383 1.383 0 00-1.405-1.371h-.26v-.245c0-.873.007-1.745-.004-2.618a5.15 5.15 0 00-.06-.744h-.007C9.946 1.586 8.195.075 6.105.003 4.05-.07 2.172 1.42 1.782 3.438c-.054.293-.082.59-.083.887-.011.872-.004 1.745-.004 2.617V7.2h-.319c-.757.018-1.357.597-1.36 1.35-.013 2.345-.018 4.691-.016 7.037 0 .803.59 1.382 1.399 1.408.348.01.696.002 1.044.002h8.02c.956 0 1.535-.577 1.536-1.528V9.445zm-5.35 2.693c.094.734.179 1.47.263 2.206.028.255-.055.344-.31.347-.195.002-.39 0-.584 0h-.585c-.31 0-.383-.083-.347-.39.083-.722.167-1.444.26-2.164.019-.15-.018-.242-.137-.336-.61-.485-.677-1.34-.158-1.89a1.294 1.294 0 011.465-.304c.163.07.31.174.43.304.517.553.447 1.408-.162 1.89-.12.095-.154.188-.135.337zM4.075 7.2h-.282V4.329c.003-1.25.978-2.238 2.206-2.238.463-.001.914.143 1.289.413.375.27.654.652.797 1.09.01.027.018.055.027.082.06.213.088.432.083.652-.001.084.003.167.014.25v1.288a.688.688 0 000 .124V7.2H4.075z" fill="#F14949"/></svg>