<svg width="109" height="37" fill="none" xmlns="http://www.w3.org/2000/svg"><g filter="url(#filter0_d)"><path d="M69.682 6a3.15 3.15 0 00-2.259.93 3.033 3.033 0 00-.929 2.226 3.185 3.185 0 003.185 3.185 3.031 3.031 0 002.224-.932 3.085 3.085 0 00.964-2.256 2.987 2.987 0 00-.964-2.226A3.04 3.04 0 0069.682 6z" fill="#D91515"/><path d="M14.87 13.24a8.607 8.607 0 00-6.278 2.556 8.327 8.327 0 00-2.59 6.21 8.433 8.433 0 002.59 6.244 8.666 8.666 0 006.277 2.524 8.6 8.6 0 006.277-2.524 8.442 8.442 0 002.59-6.243 8.339 8.339 0 00-2.59-6.21 8.542 8.542 0 00-6.277-2.557zm2.388 11.257a3.186 3.186 0 01-2.389.963 3.246 3.246 0 01-2.388-.963 3.428 3.428 0 01-.93-2.49 3.435 3.435 0 01.93-2.492 3.253 3.253 0 012.388-.961 3.185 3.185 0 012.389.96 3.371 3.371 0 01.953 2.493 3.366 3.366 0 01-.95 2.49h-.003zm19.43-1.961c0 .974-.242 1.728-.73 2.259-.489.53-1.128.764-1.993.764a2.54 2.54 0 01-1.827-.666c-.437-.44-.655-1.093-.655-1.959v-9.239h-5.52v9.938c0 2.3.564 4.07 1.693 5.308a5.809 5.809 0 004.416 1.826c2.08 0 3.62-.708 4.616-2.123v1.661H42.2v-16.61h-5.512v8.841zM52.23 9.055l-5.513 1.661v2.98h-2.498v5.288h2.49v4.95c0 2.633.664 4.459 1.993 5.478 1.329 1.02 3.654 1.318 6.975.897v-4.982c-1.242.067-2.123 0-2.654-.164-.531-.165-.796-.632-.796-1.362v-4.817h3.45v-5.287h-3.45l.002-4.642zm20.206 4.65h-5.513V30.31h5.513V13.706zm6.272-5.481c-1.403 1.263-2.105 3.087-2.105 5.472h-2.091v5.287h2.091V30.31h5.513V18.983h2.856v-5.287h-2.845c0-1.482.952-2.157 2.856-2.025V6.565c-2.766-.156-4.857.397-6.275 1.659zm24.152 13.75c0-2.5-.809-4.58-2.426-6.242-1.618-1.662-3.665-2.492-6.142-2.49-2.57 0-4.684.842-6.343 2.524-1.66 1.683-2.49 3.775-2.493 6.275 0 2.523.842 4.615 2.524 6.277 1.683 1.661 3.942 2.48 6.776 2.457 3.122 0 5.502-1.03 7.14-3.089l-3.981-2.79a4.247 4.247 0 01-3.023 1.163c-1.927 0-3.166-.675-3.716-2.025h11.455a8.654 8.654 0 00.229-2.06zm-11.756-1.76c.466-1.55 1.55-2.324 3.254-2.324 1.637 0 2.677.775 3.122 2.325h-6.376zM59.396 30.243V6h5.513v24.243h-5.513z" fill="#fff"/></g><defs><filter id="filter0_d" x="0" y="0" width="108.86" height="36.776" filterUnits="userSpaceOnUse" color-interpolation-filters="sRGB"><feFlood flood-opacity="0" result="BackgroundImageFix"/><feColorMatrix in="SourceAlpha" values="0 0 0 0 0 0 0 0 0 0 0 0 0 0 0 0 0 0 127 0"/><feOffset/><feGaussianBlur stdDeviation="3"/><feColorMatrix values="0 0 0 0 0 0 0 0 0 0 0 0 0 0 0 0 0 0 0.25 0"/><feBlend in2="BackgroundImageFix" result="effect1_dropShadow"/><feBlend in="SourceGraphic" in2="effect1_dropShadow" result="shape"/></filter></defs></svg>