<svg width="94" height="70" viewBox="0 0 94 70" fill="none" xmlns="http://www.w3.org/2000/svg">
<path d="M25.472 30.4264C25.7403 29.4277 26.3742 28.5665 27.248 28.0136C28.1377 27.4434 29.1749 27.1461 30.2316 27.1586V32.9939C29.0874 32.7913 27.9089 33.0297 26.9334 33.6612C25.9574 34.2988 25.4703 35.3407 25.472 36.7869V43.358H20.1948V27.4757H25.472V30.4264Z" fill="white"/>
<path d="M39.5411 43.794C38.4302 43.8147 37.3266 43.6118 36.2958 43.1973C35.2649 42.7828 34.328 42.1652 33.5408 41.3812C32.7393 40.6107 32.1057 39.683 31.6795 38.6561C31.2534 37.6293 31.0441 36.5255 31.0646 35.4139C31.0423 34.3066 31.251 33.2068 31.6773 32.1846C32.1036 31.1625 32.7383 30.2403 33.5408 29.4771C35.1445 27.9092 37.2983 27.0312 39.5411 27.0312C41.7839 27.0312 43.9376 27.9092 45.5413 29.4771C46.3438 30.2403 46.9785 31.1625 47.4048 32.1846C47.8312 33.2068 48.0399 34.3066 48.0175 35.4139C48.0381 36.5255 47.8287 37.6293 47.4026 38.6561C46.9765 39.683 46.3428 40.6107 45.5413 41.3812C44.7565 42.1685 43.8201 42.7883 42.7887 43.2031C41.7573 43.6178 40.6525 43.8188 39.5411 43.794ZM39.5411 38.7197C39.9648 38.7337 40.3868 38.659 40.78 38.5004C41.1732 38.3418 41.529 38.1028 41.8245 37.7988C42.4169 37.1473 42.7452 36.2983 42.7452 35.4177C42.7452 34.5371 42.4169 33.6881 41.8245 33.0366C41.529 32.7326 41.1732 32.4936 40.78 32.335C40.3868 32.1764 39.9648 32.1017 39.5411 32.1157C39.1178 32.1052 38.6968 32.1816 38.3041 32.34C37.9114 32.4984 37.5553 32.7354 37.2577 33.0366C36.6848 33.6976 36.3695 34.543 36.3695 35.4177C36.3695 36.2924 36.6848 37.1378 37.2577 37.7988C37.5557 38.099 37.9121 38.3352 38.3047 38.4927C38.6974 38.6502 39.1181 38.7257 39.5411 38.7147V38.7197Z" fill="white"/>
<path d="M8.88247 6.91982C7.76904 6.89981 6.66314 7.10604 5.63175 7.52601C4.60037 7.94598 3.66497 8.57094 2.88222 9.36305C2.07921 10.1259 1.44421 11.048 1.01783 12.0702C0.591451 13.0925 0.383068 14.1925 0.406004 15.2999C0.384868 16.4115 0.593945 17.5155 1.02009 18.5425C1.44623 19.5694 2.08023 20.4971 2.88222 21.2672C3.66945 22.0512 4.60634 22.6688 5.63716 23.0833C6.66797 23.4978 7.77164 23.7007 8.88247 23.6799C9.99381 23.7045 11.0986 23.5033 12.1299 23.0886C13.1613 22.6739 14.0978 22.0542 14.8827 21.2672C15.6842 20.4967 16.3179 19.569 16.744 18.5421C17.1701 17.5153 17.3795 16.4114 17.3589 15.2999C17.3813 14.1926 17.1726 13.0928 16.7462 12.0706C16.3199 11.0484 15.6852 10.1263 14.8827 9.36305C14.1022 8.56793 13.1672 7.94098 12.1353 7.5208C11.1034 7.10062 9.9964 6.89609 8.88247 6.91982ZM11.1659 17.6797C10.8704 17.9837 10.5146 18.2227 10.1214 18.3813C9.72822 18.5399 9.30623 18.6146 8.88247 18.6007C8.45917 18.6111 8.03821 18.5347 7.64552 18.3763C7.25282 18.218 6.8967 17.9809 6.59908 17.6797C6.30006 17.3621 6.06749 16.988 5.915 16.5794C5.76251 16.1707 5.69319 15.7357 5.71109 15.2999C5.69328 14.8637 5.76263 14.4283 5.91511 14.0193C6.06758 13.6102 6.30011 13.2357 6.59908 12.9175C6.89719 12.6172 7.25345 12.3808 7.64607 12.2229C8.03869 12.065 8.45941 11.9888 8.88247 11.9991C9.30604 11.9848 9.72792 12.0592 10.1211 12.2173C10.5143 12.3755 10.8701 12.614 11.1659 12.9175C11.4718 13.2317 11.7104 13.6051 11.867 14.0148C12.0237 14.4244 12.095 14.8617 12.0767 15.2999C12.0953 15.7375 12.0243 16.1743 11.8681 16.5835C11.7119 16.9927 11.4738 17.3657 11.1684 17.6797H11.1659Z" fill="#D91515"/>
<path d="M29.7368 15.8066C29.7368 16.7377 29.5059 17.4582 29.0391 17.9656C28.5723 18.4731 27.9608 18.6963 27.1337 18.6963C26.4905 18.7239 25.8626 18.4948 25.3882 18.0595C24.9704 17.6384 24.7616 17.0142 24.7616 16.1871V7.35547H19.4844V16.8544C19.4844 19.0532 20.0239 20.7446 21.103 21.9286C21.6427 22.5023 22.2983 22.9546 23.0261 23.2556C23.754 23.5565 24.5376 23.6992 25.3248 23.6741C27.3139 23.6741 28.7846 22.9976 29.7368 21.6444V23.2327H35.0064V7.35547H29.7368V15.8066Z" fill="#D91515"/>
<path d="M44.5974 2.92188L39.3278 4.5101V7.35927H36.9404V12.4132H39.3202V17.1449C39.3202 19.6617 39.9554 21.4072 41.2256 22.3815C42.4958 23.3557 44.7183 23.6416 47.8931 23.239V18.4769C46.7057 18.5403 45.8634 18.4769 45.356 18.3196C44.8486 18.1623 44.5949 17.7157 44.5949 17.018V12.4132H47.8931V7.35927H44.5949L44.5974 2.92188Z" fill="#D91515"/>
<path d="M50.1195 29.5432H50.1167V63.5848H55.8944V34.0416H55.8971V0H50.1195V29.5432Z" fill="#D91515"/>
<path d="M63.9126 7.36523H58.6431V23.2374H63.9126V7.36523Z" fill="#D91515"/>
<path d="M61.2783 0.000213167C60.8774 -0.00292728 60.48 0.0739991 60.1092 0.226482C59.7385 0.378964 59.4019 0.603934 59.1192 0.8882C58.8335 1.1634 58.6072 1.4943 58.4545 1.86044C58.3018 2.22657 58.2258 2.62015 58.2312 3.01683C58.2312 3.82429 58.552 4.59868 59.123 5.16964C59.6939 5.7406 60.4683 6.06136 61.2758 6.06136C61.6722 6.06629 62.0655 5.98981 62.4312 5.83663C62.7969 5.68345 63.1273 5.45684 63.4019 5.17083C63.6947 4.8935 63.9276 4.55901 64.086 4.18807C64.2444 3.81713 64.325 3.41764 64.3228 3.01429C64.3268 2.61479 64.2469 2.21889 64.0883 1.85222C63.9297 1.48554 63.6958 1.15625 63.4019 0.885663C63.1268 0.601247 62.7966 0.376004 62.4315 0.223745C62.0663 0.071486 61.6739 -0.00457939 61.2783 0.000213167Z" fill="white"/>
<path d="M69.9037 2.1278C68.5625 3.33546 67.8918 5.0793 67.8918 7.35931H65.8926V12.4132H67.8918V23.2391H73.1614V12.4132H75.8913V7.35931H73.1715C73.1715 5.94191 74.0815 5.29664 75.9015 5.4235V0.542107C73.2578 0.393263 71.2586 0.921827 69.9037 2.1278Z" fill="#D91515"/>
<path d="M92.9918 15.269C92.9918 12.879 92.2188 10.8899 90.6729 9.30168C89.1269 7.71345 87.1699 6.92019 84.802 6.92188C82.3461 6.92188 80.3248 7.72614 78.7383 9.33467C77.1518 10.9432 76.3576 12.9424 76.356 15.3324C76.356 17.7443 77.1602 19.7444 78.7687 21.3326C80.3773 22.9209 82.5363 23.704 85.246 23.682C88.2296 23.682 90.5045 22.6976 92.0708 20.7288L88.2651 18.0623C87.4865 18.7999 86.4476 19.1994 85.3754 19.1736C83.5334 19.1736 82.3495 18.5283 81.8234 17.2378H92.7736C92.9248 16.5926 92.998 15.9316 92.9918 15.269ZM81.7549 13.5869C82.1998 12.1052 83.2366 11.3644 84.8654 11.3644C86.43 11.3644 87.4245 12.1052 87.8491 13.5869H81.7549Z" fill="#D91515"/>
<path d="M63.3073 37.3497C63.8367 38.6419 65.0207 39.2872 66.8592 39.2855C67.3899 39.2991 67.918 39.2079 68.4135 39.0172C68.9089 38.8266 69.3618 38.5401 69.7465 38.1742L73.5521 40.8407C71.9876 42.8095 69.7126 43.7939 66.7273 43.7939C64.038 43.7939 61.8789 43.0108 60.2501 41.4446C58.6213 39.8783 57.817 37.8782 57.8373 35.4443C57.8373 33.0543 58.6314 31.0543 60.2196 29.444C61.8079 27.8338 63.8291 27.0296 66.2833 27.0313C68.6513 27.0313 70.6082 27.8254 72.1542 29.4136C73.7001 31.0018 74.4782 32.9909 74.4883 35.3809C74.4928 36.0437 74.4178 36.7047 74.2651 37.3497H63.3073ZM63.2439 33.6988H69.3329C68.9101 32.2171 67.9155 31.4763 66.3493 31.4763C64.7238 31.4763 63.6887 32.2171 63.2439 33.6988Z" fill="white"/>
<path d="M40.2384 47.3193C41.2459 47.3023 42.2447 47.51 43.1619 47.9273C44.0792 48.3447 44.8919 48.9612 45.5409 49.7321C46.9803 51.3203 47.7 53.3103 47.7 55.7019C47.7 58.0936 46.9803 60.0937 45.5409 61.7022C44.8867 62.4647 44.0722 63.0734 43.1556 63.4848C42.239 63.8961 41.2429 64.1001 40.2384 64.082C38.3135 64.082 36.8116 63.4469 35.7325 62.1766V69.9858H30.4629V47.7659H35.7274V49.2247C36.8099 47.9561 38.3135 47.321 40.2384 47.3193ZM36.6534 58.2086C37.3066 58.8209 38.1684 59.1617 39.0637 59.1617C39.959 59.1617 40.8208 58.8209 41.4739 58.2086C42.0687 57.5083 42.3952 56.6194 42.3952 55.7007C42.3952 54.7819 42.0687 53.893 41.4739 53.1927C40.8199 52.5821 39.9585 52.2424 39.0637 52.2424C38.1689 52.2424 37.3074 52.5821 36.6534 53.1927C36.0587 53.893 35.7321 54.7819 35.7321 55.7007C35.7321 56.6194 36.0587 57.5083 36.6534 58.2086Z" fill="white"/>
<path d="M69.4708 47.7656H74.7403V63.6377H69.4708V62.1764C68.3899 63.4483 66.8871 64.0834 64.9623 64.0817C63.9545 64.0973 62.9554 63.8923 62.0351 63.4812C61.1148 63.0701 60.2954 62.4629 59.6344 61.7019C58.2153 60.0934 57.5066 58.0933 57.5083 55.7017C57.51 53.31 58.2187 51.3201 59.6344 49.7318C60.2904 48.9626 61.108 48.3475 62.0289 47.9304C62.9498 47.5134 63.9515 47.3046 64.9623 47.3191C66.8871 47.3191 68.3899 47.9542 69.4708 49.2244V47.7656ZM63.7242 58.2083C64.3779 58.8195 65.2395 59.1596 66.1345 59.1596C67.0294 59.1596 67.891 58.8195 68.5447 58.2083C69.1395 57.508 69.466 56.6192 69.466 55.7004C69.466 54.7816 69.1395 53.8927 68.5447 53.1925C67.8904 52.5823 67.0291 52.2431 66.1345 52.2431C65.2398 52.2431 64.3785 52.5823 63.7242 53.1925C63.1294 53.8927 62.8029 54.7816 62.8029 55.7004C62.8029 56.6192 63.1294 57.508 63.7242 58.2083Z" fill="white"/>
<path d="M87.8639 47.7656H93.6993L88.2699 63.384C87.4242 65.774 86.2283 67.4984 84.6824 68.5572C83.1364 69.616 81.1364 70.0922 78.6821 69.9856V65.0332C79.8035 65.0332 80.6492 64.8962 81.2192 64.6222C81.8395 64.296 82.3319 63.7705 82.6172 63.1303L76.2744 47.7656H82.1833L85.3877 56.9702L87.8639 47.7656Z" fill="white"/>
</svg>
