<svg width="91" height="91" fill="none" xmlns="http://www.w3.org/2000/svg"><g filter="url(#filter0_d)"><circle cx="45.5" cy="45.5" r="32.5" fill="url(#paint0_linear)"/></g><path d="M51.388 35.804c0-3.205-2.096-5.804-5.94-5.804-3.85 0-5.807 2.6-5.807 5.804v1.384h11.746v-1.384h.001zm-5.941 15.087c3.845 0 5.941-2.597 5.941-5.801V38.2H39.641v6.888c0 3.205 1.957 5.802 5.806 5.802z" fill="#fff"/><path d="M53.571 36.964v8.127c0 4.48-3.005 8.124-8.125 8.124s-8.125-3.644-8.125-8.125v-8.126c-1.295-1.294-2.321 0-2.321 0v8.126c0 5.376 4.063 9.8 9.285 10.379v3.605l-4.626.01-1.18 3.415H52.03l-1.154-3.428-4.27.001v-3.605c5.224-.58 9.285-5.003 9.285-10.379h.002v-8.124c-1.425-1.422-2.322 0-2.322 0z" fill="#fff"/><g filter="url(#filter1_d)"><path d="M70.416 20.014c1.349.777 2.024 1.95 2.024 3.52 0 1.305-.462 2.376-1.386 3.212-.924.836-2.061 1.254-3.41 1.254H61.11V12.6h6.072c1.32 0 2.427.41 3.322 1.232.909.807 1.364 1.84 1.364 3.102 0 1.276-.484 2.303-1.452 3.08zm-3.234-4.576h-3.036v3.388h3.036c.469 0 .858-.161 1.166-.484.322-.323.484-.726.484-1.21s-.154-.887-.462-1.21c-.308-.323-.704-.484-1.188-.484zm.462 9.724c.513 0 .938-.169 1.276-.506.337-.352.506-.792.506-1.32 0-.513-.169-.939-.506-1.276-.338-.352-.763-.528-1.276-.528h-3.498v3.63h3.498z" fill="#fff"/></g><defs><filter id="filter0_d" x="0" y="0" width="91" height="91" filterUnits="userSpaceOnUse" color-interpolation-filters="sRGB"><feFlood flood-opacity="0" result="BackgroundImageFix"/><feColorMatrix in="SourceAlpha" values="0 0 0 0 0 0 0 0 0 0 0 0 0 0 0 0 0 0 127 0"/><feMorphology radius="1" operator="dilate" in="SourceAlpha" result="effect1_dropShadow"/><feOffset/><feGaussianBlur stdDeviation="6"/><feColorMatrix values="0 0 0 0 0.858824 0 0 0 0 0.105882 0 0 0 0 0.105882 0 0 0 0.6 0"/><feBlend in2="BackgroundImageFix" result="effect1_dropShadow"/><feBlend in="SourceGraphic" in2="effect1_dropShadow" result="shape"/></filter><filter id="filter1_d" x="57.11" y="8.6" width="19.33" height="23.4" filterUnits="userSpaceOnUse" color-interpolation-filters="sRGB"><feFlood flood-opacity="0" result="BackgroundImageFix"/><feColorMatrix in="SourceAlpha" values="0 0 0 0 0 0 0 0 0 0 0 0 0 0 0 0 0 0 127 0"/><feOffset/><feGaussianBlur stdDeviation="2"/><feColorMatrix values="0 0 0 0 0.854902 0 0 0 0 0.0941176 0 0 0 0 0.0941176 0 0 0 1 0"/><feBlend in2="BackgroundImageFix" result="effect1_dropShadow"/><feBlend in="SourceGraphic" in2="effect1_dropShadow" result="shape"/></filter><linearGradient id="paint0_linear" x1="18.2" y1="26.65" x2="72.8" y2="63.7" gradientUnits="userSpaceOnUse"><stop stop-color="#D91515"/><stop offset="1" stop-color="#E95050"/></linearGradient></defs></svg>