<svg width="30" height="34" fill="none" xmlns="http://www.w3.org/2000/svg"><g filter="url(#filter0_f)"><path d="M22.956 10.125C19.66 10.125 17.135 9.15 15 7c-2.135 2.15-4.66 3.125-7.956 3.125C7.044 15.723 5.924 23.743 15 27c9.075-3.257 7.956-11.277 7.956-16.875zm-8.615 9.852l-2.651-2.745 1.187-1.229 1.464 1.516 2.782-2.88 1.187 1.228-3.97 4.11z" fill="#F14949" fill-opacity=".5"/></g><path fill-rule="evenodd" clip-rule="evenodd" d="M15 7c2.135 2.15 4.66 3.125 7.956 3.125 0 .538.01 1.098.021 1.674.1 5.421.226 12.257-7.977 15.201-8.203-2.944-8.077-9.78-7.977-15.2.01-.577.02-1.137.02-1.675C10.34 10.125 12.866 9.15 15 7z" fill="#F14949"/><path d="M18 14.846L17.154 14 15 16.154 12.846 14l-.846.846L14.154 17 12 19.154l.846.846L15 17.846 17.154 20l.846-.846L15.846 17 18 14.846z" fill="#fff" stroke="#fff" stroke-width=".5"/><defs><filter id="filter0_f" x="0" y="0" width="30" height="34" filterUnits="userSpaceOnUse" color-interpolation-filters="sRGB"><feFlood flood-opacity="0" result="BackgroundImageFix"/><feBlend in="SourceGraphic" in2="BackgroundImageFix" result="shape"/><feGaussianBlur stdDeviation="3.5" result="effect1_foregroundBlur"/></filter></defs></svg>