<svg width="30" height="34" fill="none" xmlns="http://www.w3.org/2000/svg"><g filter="url(#filter0_f)"><path d="M22.956 10.125C19.66 10.125 17.135 9.15 15 7c-2.135 2.15-4.66 3.125-7.956 3.125C7.044 15.723 5.924 23.743 15 27c9.075-3.257 7.956-11.277 7.956-16.875zm-8.615 9.852l-2.651-2.745 1.187-1.229 1.464 1.516 2.782-2.88 1.187 1.228-3.97 4.11z" fill="#21DB70" fill-opacity=".5"/></g><ellipse cx="15" cy="17.5" rx="5" ry="3.5" fill="#fff"/><path d="M22.956 10.125C19.66 10.125 17.135 9.15 15 7c-2.135 2.15-4.66 3.125-7.956 3.125C7.044 15.723 5.924 23.743 15 27c9.075-3.257 7.956-11.277 7.956-16.875zm-8.615 9.852l-2.651-2.745 1.187-1.229 1.464 1.516 2.782-2.88 1.187 1.228-3.97 4.11z" fill="#21DB70"/><defs><filter id="filter0_f" x="0" y="0" width="30" height="34" filterUnits="userSpaceOnUse" color-interpolation-filters="sRGB"><feFlood flood-opacity="0" result="BackgroundImageFix"/><feBlend in="SourceGraphic" in2="BackgroundImageFix" result="shape"/><feGaussianBlur stdDeviation="3.5" result="effect1_foregroundBlur"/></filter></defs></svg>