<svg width="43" height="43" fill="none" xmlns="http://www.w3.org/2000/svg"><g filter="url(#filter0_f)"><circle cx="21.5" cy="21.5" r="14.5" fill="#21DB70" fill-opacity=".64"/></g><circle cx="21.5" cy="21.5" r="13.5" fill="#21DB70" fill-opacity=".8"/><path d="M20.957 16.475v-1.074c0-.32.086-.401.422-.401h.76c.288 0 .388.095.388.369v1.13c.11.03.213.055.316.083 1.281.34 2.075 1.31 2.123 2.59.008.216-.076.317-.299.32a48.69 48.69 0 01-1.399 0c-.203-.002-.29-.088-.322-.278-.01-.067-.019-.134-.031-.199-.171-.909-1.162-1.354-1.998-.896-.07.04-.134.086-.192.14-.402.368-.543 1.453.128 1.88.365.232.753.427 1.159.582.621.238 1.235.475 1.793.844.696.461 1.099 1.078 1.175 1.889.062.65-.005 1.282-.384 1.847-.444.66-1.108 1-1.88 1.173l-.135.029-.056.022v.4c0 .251.003.502 0 .752-.003.199-.106.313-.299.317-.322.008-.645.008-.967 0-.196-.004-.299-.116-.301-.315-.005-.312 0-.624 0-.935v-.15c-.405-.11-.797-.184-1.162-.325-1.139-.44-1.75-1.26-1.795-2.456-.01-.268.072-.356.35-.358.431-.004.863-.004 1.295 0 .28.002.339.056.377.323.12.811.55 1.21 1.4 1.272.178.014.357.007.533-.02.734-.113 1.123-.702.98-1.465-.062-.329-.223-.604-.518-.777a8.52 8.52 0 00-.917-.458c-.487-.211-.996-.377-1.47-.61-.752-.369-1.39-.863-1.585-1.718-.209-.916-.138-1.788.516-2.54.462-.53 1.074-.807 1.762-.944l.233-.043z" fill="#fff"/><defs><filter id="filter0_f" x="0" y="0" width="43" height="43" filterUnits="userSpaceOnUse" color-interpolation-filters="sRGB"><feFlood flood-opacity="0" result="BackgroundImageFix"/><feBlend in="SourceGraphic" in2="BackgroundImageFix" result="shape"/><feGaussianBlur stdDeviation="3.5" result="effect1_foregroundBlur"/></filter></defs></svg>