<svg width="46" height="29" fill="none" xmlns="http://www.w3.org/2000/svg"><path d="M7.258 26.582v-1.451H2.421v1.451h-.484v1.935h5.805v-1.935h-.484z" fill="#D91515"/><path d="M8.707 26.582v-1.451h-1.45v1.451h.483v1.935h1.45v-1.935h-.484z" fill="#7E0000"/><path d="M1.937 25.131h5.805V10.62H1.937v14.512z" fill="#D91515"/><path d="M7.742 25.131h1.451V10.62H7.742v14.512z" fill="#7E0000"/><path d="M7.257 10.618H2.42v-2.42c0-3.047.919-5.9 2.418-7.739 1.5 1.838 2.42 4.692 2.42 7.74v2.419z" fill="#D91515"/><path d="M4.836.459c1.5 1.838 2.42 4.692 2.42 7.74v2.419h1.45v-2.42c0-3.047-1.45-5.9-3.87-7.739z" fill="#7E0000"/><path d="M9.191 25.615H.484c-.29 0-.484-.194-.484-.484V10.618c0-.29.193-.483.484-.483H9.19c.29 0 .484.193.484.483v14.513c0 .29-.194.484-.484.484zm-8.224-.968h7.74V11.102H.967v13.545z" fill="#000"/><path d="M8.706 27.065H.966c-.29 0-.483-.193-.483-.484v-1.45c0-.291.193-.485.484-.485h7.74c.29 0 .483.194.483.484v1.451c0 .29-.193.484-.484.484zm-7.256-.967h6.773v-.484H1.45v.484z" fill="#000"/><path d="M9.191 29H.484C.194 29 0 28.807 0 28.516v-1.935c0-.29.193-.483.484-.483H9.19c.29 0 .484.193.484.483v1.935c0 .29-.194.484-.484.484zm-8.224-.967h7.74v-.968H.967v.968zm7.739-16.931H.966c-.29 0-.483-.194-.483-.484V8.2c0-3.145 1.5-6.192 4.063-8.127a.617.617 0 01.58 0A10.242 10.242 0 019.19 8.2v2.418c0 .29-.193.484-.484.484zm-7.256-.968h6.773V8.2a9.21 9.21 0 00-3.387-7.11A9.21 9.21 0 001.45 8.2v1.935z" fill="#000"/><path d="M31.258 26.582v-1.451h-4.837v1.451h-.484v1.935h5.805v-1.935h-.484z" fill="#D91515"/><path d="M32.707 26.582v-1.451h-1.45v1.451h.483v1.935h1.451v-1.935h-.484z" fill="#7E0000"/><path d="M25.937 25.131h5.805V10.62h-5.805v14.512z" fill="#D91515"/><path d="M31.742 25.131h1.451V10.62h-1.451v14.512z" fill="#7E0000"/><path d="M31.257 10.618H26.42v-2.42c0-3.047.919-5.9 2.418-7.739 1.5 1.838 2.42 4.692 2.42 7.74v2.419z" fill="#D91515"/><path d="M28.837.459c1.5 1.838 2.418 4.692 2.418 7.74v2.419h1.451v-2.42c0-3.047-1.45-5.9-3.87-7.739z" fill="#7E0000"/><path d="M33.191 25.615h-8.707c-.29 0-.484-.194-.484-.484V10.618c0-.29.194-.483.484-.483h8.707c.29 0 .484.193.484.483v14.513c0 .29-.194.484-.484.484zm-8.224-.968h7.74V11.102h-7.74v13.545z" fill="#000"/><path d="M32.706 27.065h-7.74c-.29 0-.483-.193-.483-.484v-1.45c0-.291.193-.485.483-.485h7.74c.29 0 .484.194.484.484v1.451c0 .29-.193.484-.484.484zm-7.256-.967h6.773v-.484H25.45v.484z" fill="#000"/><path d="M33.191 29h-8.707c-.29 0-.484-.193-.484-.484v-1.935c0-.29.194-.483.484-.483h8.707c.29 0 .484.193.484.483v1.935c0 .29-.194.484-.484.484zm-8.224-.967h7.74v-.968h-7.74v.968zm7.739-16.931h-7.74c-.29 0-.483-.194-.483-.484V8.2c0-3.145 1.5-6.192 4.063-8.127a.616.616 0 01.58 0A10.241 10.241 0 0133.19 8.2v2.418c0 .29-.193.484-.484.484zm-7.256-.968h6.773V8.2a9.21 9.21 0 00-3.387-7.11A9.21 9.21 0 0025.45 8.2v1.935z" fill="#000"/><path d="M19.258 26.582v-1.451h-4.837v1.451h-.484v1.935h5.805v-1.935h-.484z" fill="#D91515"/><path d="M20.707 26.582v-1.451h-1.45v1.451h.483v1.935h1.451v-1.935h-.484z" fill="#7E0000"/><path d="M13.937 25.131h5.805V10.62h-5.805v14.512z" fill="#D91515"/><path d="M19.742 25.131h1.451V10.62h-1.451v14.512z" fill="#7E0000"/><path d="M19.257 10.618H14.42v-2.42c0-3.047.919-5.9 2.418-7.739 1.5 1.838 2.42 4.692 2.42 7.74v2.419z" fill="#D91515"/><path d="M16.837.459c1.5 1.838 2.418 4.692 2.418 7.74v2.419h1.451v-2.42c0-3.047-1.45-5.9-3.87-7.739z" fill="#7E0000"/><path d="M21.191 25.615h-8.707c-.29 0-.484-.194-.484-.484V10.618c0-.29.194-.483.484-.483h8.707c.29 0 .484.193.484.483v14.513c0 .29-.194.484-.484.484zm-8.223-.968h7.74V11.102h-7.74v13.545z" fill="#000"/><path d="M20.706 27.065h-7.74c-.29 0-.483-.193-.483-.484v-1.45c0-.291.193-.485.483-.485h7.74c.29 0 .484.194.484.484v1.451c0 .29-.193.484-.484.484zm-7.256-.967h6.773v-.484H13.45v.484z" fill="#000"/><path d="M21.191 29h-8.707c-.29 0-.484-.193-.484-.484v-1.935c0-.29.194-.483.484-.483h8.707c.29 0 .484.193.484.483v1.935c0 .29-.194.484-.484.484zm-8.223-.967h7.74v-.968h-7.74v.968zm7.738-16.931h-7.74c-.29 0-.483-.194-.483-.484V8.2c0-3.145 1.5-6.192 4.063-8.127a.616.616 0 01.58 0A10.241 10.241 0 0121.19 8.2v2.418c0 .29-.193.484-.484.484zm-7.256-.968h6.773V8.2a9.21 9.21 0 00-3.387-7.11A9.21 9.21 0 0013.45 8.2v1.935z" fill="#000"/><path d="M43.258 26.582v-1.451h-4.837v1.451h-.484v1.935h5.805v-1.935h-.484z" fill="#D91515"/><path d="M44.707 26.582v-1.451h-1.45v1.451h.483v1.935h1.451v-1.935h-.484z" fill="#7E0000"/><path d="M37.937 25.131h5.805V10.62h-5.805v14.512z" fill="#D91515"/><path d="M43.742 25.131h1.451V10.62h-1.451v14.512z" fill="#7E0000"/><path d="M43.257 10.618H38.42v-2.42c0-3.047.919-5.9 2.418-7.739 1.5 1.838 2.42 4.692 2.42 7.74v2.419z" fill="#D91515"/><path d="M40.837.459c1.5 1.838 2.418 4.692 2.418 7.74v2.419h1.451v-2.42c0-3.047-1.45-5.9-3.87-7.739z" fill="#7E0000"/><path d="M45.191 25.615h-8.707c-.29 0-.484-.194-.484-.484V10.618c0-.29.194-.483.484-.483h8.707c.29 0 .484.193.484.483v14.513c0 .29-.194.484-.484.484zm-8.224-.968h7.74V11.102h-7.74v13.545z" fill="#000"/><path d="M44.706 27.065h-7.74c-.29 0-.483-.193-.483-.484v-1.45c0-.291.193-.485.484-.485h7.74c.29 0 .483.194.483.484v1.451c0 .29-.193.484-.484.484zm-7.256-.967h6.773v-.484H37.45v.484z" fill="#000"/><path d="M45.191 29h-8.707c-.29 0-.484-.193-.484-.484v-1.935c0-.29.194-.483.484-.483h8.707c.29 0 .484.193.484.483v1.935c0 .29-.194.484-.484.484zm-8.224-.967h7.74v-.968h-7.74v.968zm7.739-16.931h-7.74c-.29 0-.483-.194-.483-.484V8.2c0-3.145 1.5-6.192 4.063-8.127a.616.616 0 01.58 0A10.241 10.241 0 0145.19 8.2v2.418c0 .29-.193.484-.484.484zm-7.256-.968h6.773V8.2a9.21 9.21 0 00-3.387-7.11A9.21 9.21 0 0037.45 8.2v1.935z" fill="#000"/></svg>