<svg width="510" height="91" fill="none" xmlns="http://www.w3.org/2000/svg"><rect y="16" width="492" height="59" rx="29.5" fill="#1C1C1E" fill-opacity=".7"/><g filter="url(#filter0_d)"><path d="M377.456 25.9h2.3V42h-2.645V28.729l-3.243.92-.644-2.254 4.232-1.495zm13.755 7.728c1.58.874 2.369 2.177 2.369 3.91 0 1.472-.513 2.637-1.541 3.496-1.027.843-2.392 1.265-4.094 1.265-1.702 0-3.074-.422-4.117-1.265-1.027-.859-1.541-2.024-1.541-3.496 0-.828.207-1.58.621-2.254.414-.69.997-1.242 1.748-1.656-1.211-.797-1.817-1.932-1.817-3.404s.491-2.607 1.472-3.404c.982-.813 2.193-1.219 3.634-1.219 1.426 0 2.63.406 3.611 1.219.997.797 1.495 1.932 1.495 3.404s-.613 2.607-1.84 3.404zm-3.266-5.52c-.72 0-1.311.192-1.771.575-.46.383-.69.935-.69 1.656 0 .69.23 1.234.69 1.633.476.399 1.066.598 1.771.598.69 0 1.273-.2 1.748-.598.476-.399.713-.943.713-1.633 0-.72-.237-1.273-.713-1.656-.46-.383-1.042-.575-1.748-.575zm0 11.684c.89 0 1.61-.215 2.162-.644.552-.445.828-1.066.828-1.863 0-.797-.276-1.41-.828-1.84-.552-.445-1.272-.667-2.162-.667-.904 0-1.633.222-2.185.667-.552.43-.828 1.043-.828 1.84 0 .797.276 1.418.828 1.863.552.43 1.281.644 2.185.644zm10.593-6.647a1.662 1.662 0 01-1.219.506c-.475 0-.882-.169-1.219-.506a1.663 1.663 0 01-.506-1.219c0-.49.161-.897.483-1.219a1.688 1.688 0 011.242-.506c.475 0 .882.169 1.219.506.337.337.506.744.506 1.219 0 .475-.169.882-.506 1.219zm0 8.625a1.662 1.662 0 01-1.219.506c-.475 0-.882-.169-1.219-.506a1.663 1.663 0 01-.506-1.219 1.688 1.688 0 011.725-1.725c.475 0 .882.169 1.219.506.337.337.506.744.506 1.219 0 .475-.169.882-.506 1.219zm14.648-5.129v2.461h-1.84V42h-2.668v-2.898h-7.912v-2.461l5.543-10.741h2.875l-5.543 10.741h5.037v-4.186h2.668v4.186h1.84zm8.075-4.163c1.165.276 2.108.82 2.829 1.633.736.797 1.104 1.802 1.104 3.013 0 1.61-.544 2.875-1.633 3.795-1.089.92-2.423 1.38-4.002 1.38-1.227 0-2.331-.284-3.312-.851-.966-.567-1.664-1.395-2.093-2.484l2.254-1.311c.475 1.38 1.526 2.07 3.151 2.07.92 0 1.648-.23 2.185-.69.537-.475.805-1.112.805-1.909 0-.797-.268-1.426-.805-1.886-.537-.46-1.265-.69-2.185-.69h-.598l-1.058-1.587 3.473-4.577h-6.739V25.9h9.89v2.254l-3.266 4.324z" fill="#fff"/></g><g filter="url(#filter1_d)"><path d="M342.992 40.71c-.69.98-1.665 1.47-2.925 1.47-1.26 0-2.24-.49-2.94-1.47-.69-.99-1.035-2.31-1.035-3.96s.345-2.965 1.035-3.945c.7-.99 1.68-1.485 2.94-1.485s2.235.495 2.925 1.485c.7.98 1.05 2.295 1.05 3.945s-.35 2.97-1.05 3.96zm-5.085-.705c.52.77 1.24 1.155 2.16 1.155.92 0 1.635-.385 2.145-1.155.52-.77.78-1.855.78-3.255s-.26-2.485-.78-3.255c-.51-.77-1.225-1.155-2.145-1.155-.92 0-1.64.385-2.16 1.155-.51.77-.765 1.855-.765 3.255s.255 2.485.765 3.255zm9.59-8.505h.9V42h-1.05v-9.345l-2.355.705-.27-.9 2.775-.96zm4.408 10.41a.796.796 0 01-.585.24.796.796 0 01-.585-.24.796.796 0 01-.24-.585c0-.23.08-.425.24-.585.16-.16.355-.24.585-.24.23 0 .425.08.585.24.16.16.24.355.24.585 0 .23-.08.425-.24.585zm8.343-1.2c-.69.98-1.665 1.47-2.925 1.47-1.26 0-2.24-.49-2.94-1.47-.69-.99-1.035-2.31-1.035-3.96s.345-2.965 1.035-3.945c.7-.99 1.68-1.485 2.94-1.485s2.235.495 2.925 1.485c.7.98 1.05 2.295 1.05 3.945s-.35 2.97-1.05 3.96zm-5.085-.705c.52.77 1.24 1.155 2.16 1.155.92 0 1.635-.385 2.145-1.155.52-.77.78-1.855.78-3.255s-.26-2.485-.78-3.255c-.51-.77-1.225-1.155-2.145-1.155-.92 0-1.64.385-2.16 1.155-.51.77-.765 1.855-.765 3.255s.255 2.485.765 3.255zm10.858-4.755c1.03 0 1.875.325 2.535.975.66.64.99 1.47.99 2.49 0 1.02-.33 1.855-.99 2.505-.66.64-1.505.96-2.535.96-1.03 0-1.875-.32-2.535-.96-.66-.65-.99-1.485-.99-2.505 0-.79.215-1.49.645-2.1l3.435-5.115h1.185l-2.58 3.84c.27-.06.55-.09.84-.09zm-1.8 5.235c.46.45 1.06.675 1.8.675s1.335-.225 1.785-.675c.46-.45.69-1.04.69-1.77s-.23-1.32-.69-1.77c-.45-.45-1.045-.675-1.785-.675s-1.34.225-1.8.675c-.45.45-.675 1.04-.675 1.77s.225 1.32.675 1.77z" fill="#fff"/></g><path d="M333.07 58.842c0 1.077-.348 1.957-1.045 2.641-.684.672-1.583 1.077-2.698 1.216v1.691h-1.235v-1.672c-1.051-.063-1.951-.348-2.698-.855a4.242 4.242 0 01-1.615-2.07l1.881-1.084c.443 1.115 1.254 1.736 2.432 1.862V56.62a21.215 21.215 0 01-1.387-.57 7.547 7.547 0 01-1.14-.722 2.992 2.992 0 01-.893-1.102c-.19-.443-.285-.956-.285-1.539 0-1.064.355-1.925 1.064-2.584.709-.658 1.59-1.038 2.641-1.14V47.29h1.235v1.691c1.697.228 2.875 1.096 3.534 2.603l-1.843 1.064c-.329-.823-.893-1.323-1.691-1.5v3.761c.405.152.709.273.912.361.215.089.494.222.836.4.355.177.627.354.817.531.19.178.386.393.589.646.215.254.367.551.456.893.089.33.133.697.133 1.102zm-6.498-6.156c0 .393.114.716.342.97.241.253.633.506 1.178.76v-3.307c-.469.076-.842.254-1.121.532-.266.279-.399.627-.399 1.045zm2.755 7.866c.507-.101.893-.304 1.159-.608a1.59 1.59 0 00.399-1.083c0-.418-.127-.753-.38-1.007-.253-.266-.646-.52-1.178-.76v3.458zm4.899 1.938v-1.71l4.636-4.73c1.127-1.128 1.691-2.103 1.691-2.927 0-.646-.197-1.146-.589-1.5-.38-.368-.868-.552-1.463-.552-1.115 0-1.938.551-2.47 1.653l-1.843-1.083c.418-.886 1.007-1.558 1.767-2.014a4.817 4.817 0 012.527-.684c1.165 0 2.166.368 3.002 1.102.836.735 1.254 1.736 1.254 3.002 0 1.356-.754 2.8-2.261 4.332l-3.002 3.002h5.51v2.11h-8.759zm24.04-1.634c-.912 1.254-2.191 1.881-3.838 1.881-1.646 0-2.932-.627-3.857-1.88-.912-1.255-1.368-2.927-1.368-5.017 0-2.09.456-3.762 1.368-5.016.925-1.254 2.211-1.88 3.857-1.88 1.647 0 2.926.626 3.838 1.88.925 1.254 1.387 2.926 1.387 5.016s-.462 3.762-1.387 5.016zm-3.838-.247c.988 0 1.742-.411 2.261-1.235.52-.823.779-2.001.779-3.534 0-1.532-.259-2.71-.779-3.534-.519-.823-1.273-1.235-2.261-1.235-.975 0-1.729.412-2.261 1.235-.519.824-.779 2.002-.779 3.534 0 1.533.26 2.71.779 3.534.532.824 1.286 1.235 2.261 1.235zm15.806.247c-.912 1.254-2.191 1.881-3.838 1.881-1.647 0-2.932-.627-3.857-1.88-.912-1.255-1.368-2.927-1.368-5.017 0-2.09.456-3.762 1.368-5.016.925-1.254 2.21-1.88 3.857-1.88 1.647 0 2.926.626 3.838 1.88.925 1.254 1.387 2.926 1.387 5.016s-.462 3.762-1.387 5.016zm-3.838-.247c.988 0 1.742-.411 2.261-1.235.519-.823.779-2.001.779-3.534 0-1.532-.26-2.71-.779-3.534-.519-.823-1.273-1.235-2.261-1.235-.975 0-1.729.412-2.261 1.235-.519.824-.779 2.002-.779 3.534 0 1.533.26 2.71.779 3.534.532.824 1.286 1.235 2.261 1.235zm15.806.247c-.912 1.254-2.191 1.881-3.838 1.881-1.647 0-2.932-.627-3.857-1.88-.912-1.255-1.368-2.927-1.368-5.017 0-2.09.456-3.762 1.368-5.016.925-1.254 2.21-1.88 3.857-1.88 1.647 0 2.926.626 3.838 1.88.925 1.254 1.387 2.926 1.387 5.016s-.462 3.762-1.387 5.016zm-3.838-.247c.988 0 1.742-.411 2.261-1.235.519-.823.779-2.001.779-3.534 0-1.532-.26-2.71-.779-3.534-.519-.823-1.273-1.235-2.261-1.235-.975 0-1.729.412-2.261 1.235-.519.824-.779 2.002-.779 3.534 0 1.533.26 2.71.779 3.534.532.824 1.286 1.235 2.261 1.235zm20.556.247c-.912 1.254-2.192 1.881-3.838 1.881-1.647 0-2.933-.627-3.857-1.88-.912-1.255-1.368-2.927-1.368-5.017 0-2.09.456-3.762 1.368-5.016.924-1.254 2.21-1.88 3.857-1.88 1.646 0 2.926.626 3.838 1.88.924 1.254 1.387 2.926 1.387 5.016s-.463 3.762-1.387 5.016zm-3.838-.247c.988 0 1.741-.411 2.261-1.235.519-.823.779-2.001.779-3.534 0-1.532-.26-2.71-.779-3.534-.52-.823-1.273-1.235-2.261-1.235-.976 0-1.729.412-2.261 1.235-.52.824-.779 2.002-.779 3.534 0 1.533.259 2.71.779 3.534.532.824 1.285 1.235 2.261 1.235zm15.805.247c-.912 1.254-2.191 1.881-3.838 1.881-1.646 0-2.932-.627-3.857-1.88-.912-1.255-1.368-2.927-1.368-5.017 0-2.09.456-3.762 1.368-5.016.925-1.254 2.211-1.88 3.857-1.88 1.647 0 2.926.626 3.838 1.88.925 1.254 1.387 2.926 1.387 5.016s-.462 3.762-1.387 5.016zm-3.838-.247c.988 0 1.742-.411 2.261-1.235.52-.823.779-2.001.779-3.534 0-1.532-.259-2.71-.779-3.534-.519-.823-1.273-1.235-2.261-1.235-.975 0-1.729.412-2.261 1.235-.519.824-.779 2.002-.779 3.534 0 1.533.26 2.71.779 3.534.532.824 1.286 1.235 2.261 1.235zm15.806.247c-.912 1.254-2.191 1.881-3.838 1.881-1.646 0-2.932-.627-3.857-1.88-.912-1.255-1.368-2.927-1.368-5.017 0-2.09.456-3.762 1.368-5.016.925-1.254 2.211-1.88 3.857-1.88 1.647 0 2.926.626 3.838 1.88.925 1.254 1.387 2.926 1.387 5.016s-.462 3.762-1.387 5.016zm-3.838-.247c.988 0 1.742-.411 2.261-1.235.52-.823.779-2.001.779-3.534 0-1.532-.259-2.71-.779-3.534-.519-.823-1.273-1.235-2.261-1.235-.975 0-1.729.412-2.261 1.235-.519.824-.779 2.002-.779 3.534 0 1.533.26 2.71.779 3.534.532.824 1.286 1.235 2.261 1.235z" fill="#21DB70"/><g filter="url(#filter2_d)"><circle cx="464.5" cy="45.5" r="32.5" fill="url(#paint0_linear)"/></g><path d="M470.388 35.804c0-3.205-2.096-5.804-5.941-5.804-3.849 0-5.806 2.6-5.806 5.804v1.384h11.746v-1.384h.001zm-5.941 15.087c3.845 0 5.941-2.597 5.941-5.801V38.2h-11.747v6.888c0 3.205 1.957 5.802 5.806 5.802z" fill="#fff"/><path d="M472.571 36.964v8.127c0 4.48-3.005 8.124-8.125 8.124s-8.125-3.644-8.125-8.125v-8.126c-1.295-1.294-2.321 0-2.321 0v8.126c0 5.376 4.063 9.8 9.285 10.379v3.605l-4.626.01-1.18 3.415h13.551l-1.154-3.428-4.27.001v-3.605c5.224-.58 9.285-5.003 9.285-10.379h.002v-8.124c-1.425-1.422-2.322 0-2.322 0z" fill="#fff"/><g filter="url(#filter3_d)"><path d="M489.416 20.014c1.349.777 2.024 1.95 2.024 3.52 0 1.305-.462 2.376-1.386 3.212-.924.836-2.061 1.254-3.41 1.254h-6.534V12.6h6.072c1.32 0 2.427.41 3.322 1.232.909.807 1.364 1.84 1.364 3.102 0 1.276-.484 2.303-1.452 3.08zm-3.234-4.576h-3.036v3.388h3.036c.469 0 .858-.161 1.166-.484.322-.323.484-.726.484-1.21s-.154-.887-.462-1.21c-.308-.323-.704-.484-1.188-.484zm.462 9.724c.513 0 .938-.169 1.276-.506.337-.352.506-.792.506-1.32 0-.513-.169-.939-.506-1.276-.338-.352-.763-.528-1.276-.528h-3.498v3.63h3.498z" fill="#fff"/></g><path d="M38.786 55.695a3.84 3.84 0 107.68 0c0-2.12-3.84-11.931-3.84-11.931s-3.84 9.81-3.84 11.931zM43.898 30v6.016c1.892.152 3.688.648 5.324 1.424l3.008-5.211A21.242 21.242 0 0043.898 30zm14.058 20.082h6.016a21.245 21.245 0 00-2.229-8.332l-5.21 3.009a15.27 15.27 0 011.423 5.323zM41.392 30a21.245 21.245 0 00-8.332 2.229l3.008 5.21a15.271 15.271 0 015.324-1.423V30zm-12.64 14.759l-5.21-3.009a21.243 21.243 0 00-2.23 8.332h6.016a15.27 15.27 0 011.424-5.323zm29.208 7.823a15.274 15.274 0 01-2.005 6.433l5.199 3.002a21.245 21.245 0 002.823-9.435h-6.018zm-3.564-19.098l-3.008 5.211a15.452 15.452 0 013.896 3.897l5.21-3.009a21.483 21.483 0 00-6.098-6.099zM21.313 52.582a21.244 21.244 0 002.823 9.434l5.199-3.001a15.272 15.272 0 01-2.005-6.433h-6.017zm3.485-13.001l5.21 3.009a15.45 15.45 0 013.897-3.897l-3.009-5.21a21.484 21.484 0 00-6.098 6.098z" fill="#F14949"/><path d="M80.888 45.9c1.717.95 2.575 2.367 2.575 4.25 0 1.6-.558 2.867-1.675 3.8-1.116.917-2.6 1.375-4.45 1.375s-3.341-.458-4.475-1.375c-1.116-.933-1.675-2.2-1.675-3.8 0-.9.225-1.717.675-2.45.45-.75 1.084-1.35 1.9-1.8-1.316-.867-1.975-2.1-1.975-3.7s.534-2.833 1.6-3.7c1.067-.883 2.384-1.325 3.95-1.325 1.55 0 2.859.442 3.925 1.325 1.084.867 1.625 2.1 1.625 3.7s-.666 2.833-2 3.7zm-3.55-6c-.783 0-1.425.208-1.925.625-.5.417-.75 1.017-.75 1.8 0 .75.25 1.342.75 1.775.517.433 1.159.65 1.925.65.75 0 1.384-.217 1.9-.65.517-.433.775-1.025.775-1.775 0-.783-.258-1.383-.775-1.8-.5-.417-1.133-.625-1.9-.625zm0 12.7c.967 0 1.75-.233 2.35-.7.6-.483.9-1.158.9-2.025s-.3-1.533-.9-2c-.6-.483-1.383-.725-2.35-.725-.983 0-1.775.242-2.375.725-.6.467-.9 1.133-.9 2s.3 1.542.9 2.025c.6.467 1.392.7 2.375.7zm13.742-8.5c1.667 0 3.075.5 4.225 1.5 1.15.983 1.725 2.35 1.725 4.1 0 1.75-.592 3.125-1.775 4.125-1.183 1-2.633 1.5-4.35 1.5-1.383 0-2.608-.317-3.675-.95-1.067-.65-1.825-1.583-2.275-2.8l2.475-1.425c.467 1.583 1.625 2.375 3.475 2.375.983 0 1.767-.25 2.35-.75.6-.517.9-1.208.9-2.075 0-.867-.292-1.55-.875-2.05-.583-.5-1.358-.75-2.325-.75h-5.1l.675-9.4h9.75v2.7h-7.1l-.3 3.9h2.2zM119.028 55h-3.425l-6.9-8.325V55h-2.875V37.5h2.875v7.85l6.65-7.85h3.425l-7.075 8.525L119.028 55zm18.613-17.5V55h-2.875V42.525l-5.325 8.8h-.35l-5.325-8.825V55h-2.875V37.5h3.1l5.275 8.75 5.3-8.75h3.075zm3.99 20h-1.375l10-22.5h1.375l-10 22.5zm22.01-20h2.875V55h-2.875v-6.725c-1.217.55-2.5.825-3.85.825-1.75 0-3.175-.483-4.275-1.45-1.084-.983-1.625-2.283-1.625-3.9V37.5h2.875v5.95c0 .9.275 1.608.825 2.125.55.517 1.3.775 2.25.775 1.383 0 2.65-.283 3.8-.85v-8z" fill="#fff"/><g filter="url(#filter4_d)"><circle cx="277.5" cy="45.5" r="32.5" fill="url(#paint1_linear)"/></g><path d="M260.598 43.511c.547-.858 2.303-1.268 3.142-.642.295.222.51.709.556 1.1.087.737.025 1.502.025 2.29h1.268c0-.767-.007-1.541 0-2.314.009-.84.501-1.352 1.342-1.42a.235.235 0 01.072 0c1.557.323 2.685-.382 3.55-1.578 1.318-1.82 3.053-2.311 5.268-2.202 3.611.18 7.238.047 10.857.05 1.144 0 1.528.39 1.531 1.542v5.906h1.299v-2.308c.008-.897.442-1.358 1.326-1.408a9.37 9.37 0 01.954 0c.767.033 1.293.519 1.299 1.296.019 2.886.009 5.773 0 8.658.003.196-.034.39-.107.571-.285.668-1.28.944-2.507.714-.675-.127-1.088-.608-1.108-1.343-.021-.736 0-1.463 0-2.246h-1.18c-.021.034-.077.078-.071.114.205 1.219-.473 1.992-1.29 2.76-1.336 1.254-2.58 2.61-3.919 3.861a2.21 2.21 0 01-1.338.562c-2.715.051-5.43.044-8.145 0a1.997 1.997 0 01-1.154-.472 52.135 52.135 0 01-2.812-2.577 1.837 1.837 0 00-1.423-.544c-2.288.03-2.444-.148-2.444-2.439V50.17h-1.265v2.005c0 1.383-.341 1.697-1.747 1.725-.848.018-1.632-.03-1.977-.988l-.002-9.4zm20.153 4.115h-2.842l2.948-4.995c-.906 0-1.683.024-2.457-.009-.4-.017-.6.121-.779.48-.917 1.83-1.865 3.643-2.801 5.464a4.323 4.323 0 00-.168.467h2.568c-.693 1.917-1.352 3.748-2.012 5.576l.106.05 5.437-7.033zm-3.874-10.17v-1.222c-.75 0-1.454.008-2.155 0-1.012-.017-1.41-.412-1.444-1.419-.009-.244 0-.488 0-.737.016-1.163.429-1.576 1.6-1.576h7.839c1.241 0 1.662.427 1.668 1.678 0 .243.01.488 0 .737-.048.86-.477 1.294-1.336 1.317-.799.019-1.598 0-2.417 0l-.066 1.223-3.689-.001z" fill="#fff"/><path d="M198.788 24.174a.77.77 0 00-.989.012c-.577.521-3.481 3.239-3.99 5.573-.379 1.74.343 3.685 1.042 5.567.492 1.326.957 2.577.957 3.572 0 .867-.42 1.335-.816 1.335-.355 0-.729-.405-.729-1.181 0-.957.004-3.737-2.533-4.106v-6.492c0-.34-.284-.576-.67-.576h-.904v-.653c0-.339-.284-.576-.67-.576h-7.084c-.387 0-.729.237-.729.576v.653h-.758c-.386 0-.729.237-.729.576v15.935h-1.457c-.387 0-.729.237-.729.576v1.382c0 .34.342.653.729.653h14.517a.665.665 0 00.671-.653v-1.382c0-.34-.284-.576-.671-.576h-1.516v-8.186c.525.172 1.134.77 1.134 2.849 0 1.656 1.103 2.41 2.121 2.41 1.101 0 2.219-.88 2.219-2.564 0-1.19-.497-2.532-1.024-3.953-.364-.978-.733-1.976-.931-2.916 1.117-.212 1.861-.67 2.212-1.367.678-1.346-.457-2.984-.762-3.384.634-.8 1.385-1.587 2.103-2.235a.563.563 0 00-.014-.87zm-8.632 10.078c0 .34-.313.614-.699.614h-7.084c-.387 0-.7-.275-.7-.614v-4.377c0-.34.313-.615.7-.615h7.084c.386 0 .699.275.699.615v4.377zm6.025-4.086c-.148.293-.51.504-1.076.631a3.68 3.68 0 01.078-.807c.1-.458.343-.981.678-1.526.289.516.562 1.225.32 1.702zm14.97 6.554c1.374.76 2.06 1.893 2.06 3.4 0 1.28-.446 2.293-1.34 3.04-.893.733-2.08 1.1-3.56 1.1s-2.673-.367-3.58-1.1c-.893-.747-1.34-1.76-1.34-3.04 0-.72.18-1.373.54-1.96.36-.6.867-1.08 1.52-1.44-1.053-.693-1.58-1.68-1.58-2.96s.427-2.267 1.28-2.96c.854-.707 1.907-1.06 3.16-1.06 1.24 0 2.287.353 3.14 1.06.867.693 1.3 1.68 1.3 2.96s-.533 2.267-1.6 2.96zm-2.84-4.8c-.626 0-1.14.167-1.54.5-.4.333-.6.813-.6 1.44 0 .6.2 1.073.6 1.42.414.347.927.52 1.54.52.6 0 1.107-.173 1.52-.52.414-.347.62-.82.62-1.42 0-.627-.206-1.107-.62-1.44-.4-.333-.906-.5-1.52-.5zm0 10.16c.774 0 1.4-.187 1.88-.56.48-.387.72-.927.72-1.62 0-.693-.24-1.227-.72-1.6-.48-.387-1.106-.58-1.88-.58-.786 0-1.42.193-1.9.58-.48.373-.72.907-.72 1.6 0 .693.24 1.233.72 1.62.48.373 1.114.56 1.9.56zm6.016 1.92v-1.8l4.88-4.98c1.187-1.187 1.78-2.213 1.78-3.08 0-.68-.207-1.207-.62-1.58-.4-.387-.913-.58-1.54-.58-1.173 0-2.04.58-2.6 1.74l-1.94-1.14c.44-.933 1.06-1.64 1.86-2.12.8-.48 1.687-.72 2.66-.72 1.227 0 2.28.387 3.16 1.16.88.773 1.32 1.827 1.32 3.16 0 1.427-.793 2.947-2.38 4.56l-3.16 3.16h5.8V44h-9.22zm13.666-2.2h5.7V44h-8V30h2.3v11.8z" fill="#EEC157"/><path d="M192.993 56.734h5.081c.434 0 .551.154.551.727v4.058c0 .619-.116.773-.589.773h-10.092c-.364 0-.365 0-.365.478v1.606c0 .237-.027.457-.203.571-.176.115-.338.03-.486-.127a5191.266 5191.266 0 00-4.634-4.818c-.341-.356-.343-.637.005-1 1.185-1.236 2.371-2.468 3.559-3.698l1.113-1.151c.123-.128.251-.207.406-.11.164.104.236.285.237.52 0 .603.01 1.206-.003 1.81-.006.279.061.369.275.368 1.715-.011 3.431-.007 5.145-.007zm-6.171 6.773v-1.392c0-.683.105-.818.621-.818h10.066c.357 0 .357 0 .357-.458v-2.687c0-.451 0-.452-.337-.452h-10.177c-.406 0-.524-.152-.53-.692-.004-.399 0-.798-.003-1.197 0-.072.028-.171-.044-.206-.052-.026-.093.043-.133.084l-3.507 3.637c-.136.14-.136.223.005.368.735.749 1.461 1.51 2.19 2.268l1.492 1.545z" fill="#fff"/><path d="M206.007 62.266h-5.081c-.434 0-.551-.154-.551-.727v-4.058c0-.619.116-.773.589-.773h10.092c.364 0 .365 0 .365-.478v-1.606c0-.237.027-.457.203-.571.176-.115.338-.03.486.127 1.544 1.608 3.089 3.214 4.634 4.819.341.355.343.636-.005 1a1540.676 1540.676 0 01-3.559 3.697l-1.113 1.151c-.123.128-.251.207-.406.11-.164-.104-.236-.285-.237-.52 0-.603-.01-1.206.003-1.81.006-.279-.061-.369-.275-.368-1.715.011-3.431.007-5.145.007zm6.171-6.773v1.392c0 .683-.105.818-.621.818h-10.066c-.357 0-.357 0-.357.458v2.687c0 .451 0 .452.337.452h10.177c.406 0 .524.152.53.692.004.399 0 .798.003 1.197 0 .072-.028.171.044.206.052.026.093-.043.133-.084l3.507-3.637c.136-.14.136-.223-.005-.368-.735-.749-1.461-1.51-2.19-2.268l-1.492-1.545z" fill="#21DB70"/><path d="M235 59.445c0-.29-.019-.581-.026-.872a1.383 1.383 0 00-1.405-1.371h-.26v-.245c0-.873.007-1.745-.004-2.618a5.151 5.151 0 00-.06-.744h-.007c-.292-2.009-2.043-3.52-4.133-3.593-2.054-.072-3.933 1.418-4.323 3.436-.054.293-.082.59-.083.887-.011.872-.004 1.745-.004 2.617v.258h-.319c-.757.018-1.357.597-1.36 1.349-.013 2.346-.018 4.692-.015 7.038 0 .803.59 1.382 1.399 1.408.348.01.696.002 1.044.002h8.02c.956 0 1.535-.577 1.536-1.528v-6.024zm-5.349 2.693c.094.734.179 1.47.263 2.206.028.255-.055.344-.31.347-.195.002-.389 0-.584 0h-.585c-.31 0-.383-.083-.347-.39.083-.721.167-1.444.26-2.164.019-.15-.018-.242-.137-.336-.609-.485-.677-1.34-.158-1.89a1.293 1.293 0 011.465-.304c.163.07.31.174.431.303.516.554.446 1.409-.163 1.892-.119.094-.154.187-.135.336zm-2.576-4.938h-.282v-2.871c.003-1.25.978-2.238 2.206-2.237a2.176 2.176 0 012.086 1.502l.027.082c.06.212.088.432.083.652-.001.084.003.167.014.25v1.288a.648.648 0 000 .124v1.21l-4.134.001z" fill="#F14949"/><defs><filter id="filter0_d" x="365.224" y="17.602" width="67.97" height="32.698" filterUnits="userSpaceOnUse" color-interpolation-filters="sRGB"><feFlood flood-opacity="0" result="BackgroundImageFix"/><feColorMatrix in="SourceAlpha" values="0 0 0 0 0 0 0 0 0 0 0 0 0 0 0 0 0 0 127 0"/><feOffset/><feGaussianBlur stdDeviation="4"/><feColorMatrix values="0 0 0 0 0 0 0 0 0 0 0 0 0 0 0 0 0 0 0.25 0"/><feBlend in2="BackgroundImageFix" result="effect1_dropShadow"/><feBlend in="SourceGraphic" in2="effect1_dropShadow" result="shape"/></filter><filter id="filter1_d" x="328.092" y="23.32" width="49.454" height="26.86" filterUnits="userSpaceOnUse" color-interpolation-filters="sRGB"><feFlood flood-opacity="0" result="BackgroundImageFix"/><feColorMatrix in="SourceAlpha" values="0 0 0 0 0 0 0 0 0 0 0 0 0 0 0 0 0 0 127 0"/><feOffset/><feGaussianBlur stdDeviation="4"/><feColorMatrix values="0 0 0 0 0 0 0 0 0 0 0 0 0 0 0 0 0 0 0.25 0"/><feBlend in2="BackgroundImageFix" result="effect1_dropShadow"/><feBlend in="SourceGraphic" in2="effect1_dropShadow" result="shape"/></filter><filter id="filter2_d" x="419" y="0" width="91" height="91" filterUnits="userSpaceOnUse" color-interpolation-filters="sRGB"><feFlood flood-opacity="0" result="BackgroundImageFix"/><feColorMatrix in="SourceAlpha" values="0 0 0 0 0 0 0 0 0 0 0 0 0 0 0 0 0 0 127 0"/><feMorphology radius="1" operator="dilate" in="SourceAlpha" result="effect1_dropShadow"/><feOffset/><feGaussianBlur stdDeviation="6"/><feColorMatrix values="0 0 0 0 0.858824 0 0 0 0 0.105882 0 0 0 0 0.105882 0 0 0 0.6 0"/><feBlend in2="BackgroundImageFix" result="effect1_dropShadow"/><feBlend in="SourceGraphic" in2="effect1_dropShadow" result="shape"/></filter><filter id="filter3_d" x="476.11" y="8.6" width="19.33" height="23.4" filterUnits="userSpaceOnUse" color-interpolation-filters="sRGB"><feFlood flood-opacity="0" result="BackgroundImageFix"/><feColorMatrix in="SourceAlpha" values="0 0 0 0 0 0 0 0 0 0 0 0 0 0 0 0 0 0 127 0"/><feOffset/><feGaussianBlur stdDeviation="2"/><feColorMatrix values="0 0 0 0 0.854902 0 0 0 0 0.0941176 0 0 0 0 0.0941176 0 0 0 1 0"/><feBlend in2="BackgroundImageFix" result="effect1_dropShadow"/><feBlend in="SourceGraphic" in2="effect1_dropShadow" result="shape"/></filter><filter id="filter4_d" x="232" y="0" width="91" height="91" filterUnits="userSpaceOnUse" color-interpolation-filters="sRGB"><feFlood flood-opacity="0" result="BackgroundImageFix"/><feColorMatrix in="SourceAlpha" values="0 0 0 0 0 0 0 0 0 0 0 0 0 0 0 0 0 0 127 0"/><feMorphology radius="1" operator="dilate" in="SourceAlpha" result="effect1_dropShadow"/><feOffset/><feGaussianBlur stdDeviation="6"/><feColorMatrix values="0 0 0 0 0.858824 0 0 0 0 0.105882 0 0 0 0 0.105882 0 0 0 0.6 0"/><feBlend in2="BackgroundImageFix" result="effect1_dropShadow"/><feBlend in="SourceGraphic" in2="effect1_dropShadow" result="shape"/></filter><linearGradient id="paint0_linear" x1="437.2" y1="26.65" x2="491.8" y2="63.7" gradientUnits="userSpaceOnUse"><stop stop-color="#D91515"/><stop offset="1" stop-color="#E95050"/></linearGradient><linearGradient id="paint1_linear" x1="250.2" y1="26.65" x2="304.8" y2="63.7" gradientUnits="userSpaceOnUse"><stop stop-color="#D91515"/><stop offset="1" stop-color="#E95050"/></linearGradient></defs></svg>