<svg width="21" height="23" fill="none" xmlns="http://www.w3.org/2000/svg"><path d="M20.788.174a.77.77 0 00-.99.012c-.576.521-3.48 3.239-3.989 5.573-.38 1.74.343 3.685 1.042 5.567.492 1.326.957 2.577.957 3.572 0 .867-.42 1.335-.816 1.335-.355 0-.73-.405-.73-1.181 0-.957.005-3.737-2.532-4.106V4.454c0-.34-.284-.576-.67-.576h-.904v-.653c0-.339-.284-.576-.67-.576H4.402c-.387 0-.729.237-.729.576v.653h-.758c-.386 0-.729.237-.729.576v15.935H.73c-.387 0-.729.237-.729.576v1.382c0 .34.342.653.729.653h14.517c.387 0 .67-.314.67-.653v-1.382c0-.34-.283-.576-.67-.576H13.73v-8.186c.525.172 1.134.77 1.134 2.849 0 1.656 1.103 2.41 2.12 2.41 1.102 0 2.22-.88 2.22-2.564 0-1.19-.497-2.532-1.024-3.953-.364-.978-.733-1.976-.93-2.916 1.116-.212 1.86-.67 2.211-1.367.678-1.346-.457-2.984-.762-3.384.634-.8 1.385-1.587 2.103-2.235a.563.563 0 00-.014-.87zm-8.632 10.078c0 .34-.313.614-.7.614H4.374c-.387 0-.7-.275-.7-.614V5.875c0-.34.313-.615.7-.615h7.084c.386 0 .7.275.7.615v4.377zm6.025-4.086c-.148.293-.51.504-1.076.631a3.69 3.69 0 01.078-.807c.1-.458.343-.981.678-1.526.29.516.562 1.225.32 1.702z" fill="#EEC157"/></svg>