<svg width="30" height="35" fill="none" xmlns="http://www.w3.org/2000/svg"><g filter="url(#filter0_f)"><path fill-rule="evenodd" clip-rule="evenodd" d="M14.8 4c2.882 2.902 6.291 4.218 10.74 4.218 0 .727.015 1.483.03 2.26.134 7.32.304 16.548-10.77 20.522C3.726 27.026 3.896 17.798 4.03 10.479c.015-.778.03-1.534.03-2.26 4.448 0 7.857-1.317 10.74-4.219z" fill="#21DB70"/></g><path fill-rule="evenodd" clip-rule="evenodd" d="M14.8 4c2.882 2.902 6.291 4.218 10.74 4.218 0 .727.015 1.483.03 2.26.134 7.32.304 16.548-10.77 20.522C3.726 27.026 3.896 17.798 4.03 10.479c.015-.778.03-1.534.03-2.26 4.448 0 7.857-1.317 10.74-4.219z" fill="#21DB70"/><path d="M18.85 14.591l-1.142-1.142-2.908 2.908-2.908-2.908-1.142 1.142 2.908 2.908-2.908 2.908 1.142 1.142 2.908-2.908 2.908 2.908 1.142-1.142-2.908-2.908 2.908-2.908z" fill="#fff" stroke="#fff" stroke-width=".5"/><defs><filter id="filter0_f" x="0" y="0" width="29.6" height="35" filterUnits="userSpaceOnUse" color-interpolation-filters="sRGB"><feFlood flood-opacity="0" result="BackgroundImageFix"/><feBlend in="SourceGraphic" in2="BackgroundImageFix" result="shape"/><feGaussianBlur stdDeviation="2" result="effect1_foregroundBlur"/></filter></defs></svg>