<svg width="36" height="41" fill="none" xmlns="http://www.w3.org/2000/svg"><g filter="url(#filter0_f)"><path d="M28.54 11.219c-4.449 0-7.858-1.317-10.74-4.219-2.883 2.902-6.292 4.219-10.74 4.219C7.06 18.776 5.548 29.602 17.8 34c12.251-4.397 10.74-15.224 10.74-22.782zm-11.63 13.3l-3.579-3.706 1.603-1.659 1.976 2.047 3.756-3.89 1.602 1.66-5.358 5.547z" fill="#21DB70"/></g><ellipse cx="17.8" cy="21.174" rx="6.75" ry="4.725" fill="#fff"/><path d="M28.54 11.219c-4.449 0-7.858-1.317-10.74-4.219-2.883 2.902-6.292 4.219-10.74 4.219C7.06 18.776 5.548 29.602 17.8 34c12.251-4.397 10.74-15.224 10.74-22.782zm-11.63 13.3l-3.579-3.706 1.603-1.659 1.976 2.047 3.756-3.89 1.602 1.66-5.358 5.547z" fill="#21DB70"/><defs><filter id="filter0_f" x="0" y="0" width="35.6" height="41" filterUnits="userSpaceOnUse" color-interpolation-filters="sRGB"><feFlood flood-opacity="0" result="BackgroundImageFix"/><feBlend in="SourceGraphic" in2="BackgroundImageFix" result="shape"/><feGaussianBlur stdDeviation="3.5" result="effect1_foregroundBlur"/></filter></defs></svg>