<svg width="28" height="14" viewBox="0 0 28 14" fill="none" xmlns="http://www.w3.org/2000/svg">
<path d="M28 10.0645C28 7.88438 26.2279 6.12502 24.0627 6.12502C22.6856 6.12502 22.6122 5.97556 20.9536 5.00808C21.1597 4.59514 20.667 4.18717 20.3001 4.46252L20.1769 4.555L18.7513 3.72336C18.9943 3.31369 18.4948 2.86318 18.1126 3.15001L17.962 3.263L16.5466 2.43732C16.8301 2.0299 16.3193 1.5417 15.9251 1.83751L15.7472 1.97095L12.7243 0.207597C12.0338 -0.195232 11.138 0.00180777 10.6866 0.680482L10.5372 0.905193C10.1954 1.4186 10.1957 2.08196 10.5378 2.59515L10.7362 2.89276L9.34335 3.58916C8.47196 4.02485 7.40139 3.7507 6.85282 2.92771L6.0744 1.76002C5.2456 0.517021 3.39049 0.599927 2.67534 1.91079C1.68888 3.71931 1.69594 3.69766 1.56507 3.97246C0.934027 5.2159 0.604096 6.99139 0.86162 8.69939L0.0313516 10.7751C-0.0496955 10.9777 0.0309688 11.2091 0.220516 11.3174C2.29001 12.5 4.64377 13.125 7.02733 13.125H23.9206C25.6926 13.125 27.3535 12.0315 27.9782 10.199C27.9908 10.1608 27.9998 10.1109 28 10.0645ZM27.11 9.76547C25.7731 10.2411 24.0177 10.5 22.5817 10.5C20.4184 10.5 18.2422 10.4021 16.0778 10.209L17.9687 7.68778C19.7771 8.39254 21.6782 8.75003 23.6252 8.75003C24.4773 8.75003 25.1067 7.9499 24.8984 7.11684C26.09 7.45547 26.9873 8.49852 27.11 9.76547ZM11.2656 1.39011C11.4388 1.12963 11.5704 0.875006 11.9564 0.875006C12.2065 0.875006 12.1025 0.857888 14.9874 2.54074L14.1752 3.14996C13.9819 3.29494 13.9427 3.5692 14.0876 3.76246C14.2324 3.95545 14.5067 3.9951 14.7001 3.85002L15.8078 3.01931L17.2023 3.83279L16.3626 4.46252C16.1693 4.6075 16.1301 4.88175 16.2751 5.07502C16.4198 5.26801 16.6941 5.30766 16.8876 5.16258L18.0226 4.31136L19.4171 5.12484L18.5501 5.77508C18.3568 5.92005 18.3176 6.19431 18.4625 6.38758C18.6073 6.58057 18.8816 6.62022 19.075 6.47513L20.2374 5.60341L21.7123 6.46376C22.3313 6.82481 23.0459 7.00014 23.625 7.00014C23.8676 7.00014 24.0625 7.19504 24.0625 7.43764C24.0625 7.68023 23.8676 7.87514 23.625 7.87514C20.5384 7.87514 17.5822 6.90848 15.1334 5.1798L11.6938 2.75211L11.2657 2.10996C11.1201 1.89127 11.12 1.60875 11.2656 1.39011ZM3.44348 2.32997C3.84396 1.59568 4.88253 1.55007 5.34634 2.24553L6.12476 3.41323C6.92052 4.607 8.4724 5.00294 9.7347 4.3719L11.3367 3.57095C14.8382 6.04234 15.4668 6.57139 17.1389 7.33608L15.0573 10.1114C14.5409 10.058 14.0254 9.99866 13.511 9.93446C13.3685 9.14679 12.9415 8.48015 12.3736 8.02624C11.5654 7.37934 10.6616 6.87184 9.68767 6.51785L2.57094 3.92964L3.44348 2.32997ZM23.9207 12.25H7.02733C4.92262 12.25 2.84252 11.7294 0.987292 10.7413L1.5923 9.22877L3.45371 9.47738C3.694 9.50937 3.91336 9.34039 3.94524 9.10162C3.97723 8.86214 3.80901 8.64208 3.56948 8.61009L1.69867 8.36022C1.54959 7.12778 1.72126 5.86887 2.18998 4.72218L9.3888 7.34018C10.273 7.66153 11.0933 8.12222 11.8272 8.70962C12.1682 8.98213 12.441 9.36374 12.5824 9.81278C12.5768 9.81201 6.99233 9.06399 6.94163 9.06399C6.70002 9.06399 6.5044 9.25989 6.5044 9.5015C6.5044 9.72561 6.67317 9.91034 6.89039 9.93594C12.8073 10.7255 16.6402 11.375 22.5818 11.375C23.8993 11.375 25.4186 11.1729 26.6985 10.813C26.0728 11.6988 25.0468 12.25 23.9207 12.25Z" fill="white"/>
</svg>
