<svg width="43" height="33" fill="none" xmlns="http://www.w3.org/2000/svg"><path d="M22.898 0v6.016c1.892.152 3.688.648 5.324 1.424l3.008-5.211A21.243 21.243 0 0022.898 0zm14.058 20.082h6.016a21.245 21.245 0 00-2.229-8.332l-5.21 3.009a15.27 15.27 0 011.423 5.323zM20.392 0a21.245 21.245 0 00-8.332 2.229l3.008 5.21a15.272 15.272 0 015.324-1.423V0zM7.752 14.759l-5.21-3.009a21.244 21.244 0 00-2.23 8.332h6.016a15.27 15.27 0 011.424-5.323zm29.208 7.823a15.274 15.274 0 01-2.005 6.433l5.199 3.002a21.245 21.245 0 002.823-9.435h-6.018zM33.396 3.484l-3.009 5.211a15.45 15.45 0 013.897 3.897l5.21-3.009a21.484 21.484 0 00-6.098-6.099zM.313 22.582a21.245 21.245 0 002.823 9.434l5.199-3.001a15.273 15.273 0 01-2.005-6.433H.312zM3.798 9.581l5.21 3.009a15.45 15.45 0 013.897-3.897l-3.009-5.21A21.485 21.485 0 003.798 9.58z" fill="#F14949"/></svg>