<svg width="43" height="43" fill="none" xmlns="http://www.w3.org/2000/svg"><g filter="url(#filter0_f)"><circle cx="21.5" cy="21.5" r="14.5" fill="#EEC157" fill-opacity=".7"/></g><circle cx="21.5" cy="21.5" r="13.5" fill="#DFB44E"/><path d="M21.182 19.177c.538 0 1.075-.003 1.613 0 .701.006 1.061.44.929 1.122-.344 1.773-.69 3.547-1.039 5.319-.018.09-.037.182-.05.274-.072.52.39.928.894.766.262-.084.5-.236.763-.328.124-.042.272-.013.409-.016 0 .13.055.31-.013.385-.257.296-.51.632-.84.82-1.076.613-2.217.613-3.348.156-.707-.287-1.056-.899-.938-1.653.229-1.464.5-2.92.755-4.38.046-.263.125-.521.157-.786.056-.467-.164-.718-.631-.754-.148-.01-.298-.012-.445-.037a.468.468 0 01-.397-.492c.02-.233.188-.39.455-.392.575-.007 1.15 0 1.724 0l.002-.004zm1.1-.847a1.665 1.665 0 11-.006-3.33 1.665 1.665 0 01.006 3.33z" fill="#fff"/><defs><filter id="filter0_f" x="0" y="0" width="43" height="43" filterUnits="userSpaceOnUse" color-interpolation-filters="sRGB"><feFlood flood-opacity="0" result="BackgroundImageFix"/><feBlend in="SourceGraphic" in2="BackgroundImageFix" result="shape"/><feGaussianBlur stdDeviation="3.5" result="effect1_foregroundBlur"/></filter></defs></svg>