<svg width="17" height="11" viewBox="0 0 17 11" fill="none" xmlns="http://www.w3.org/2000/svg">
<path d="M10.9932 2.73413H16.0744C16.5079 2.73413 16.625 2.88777 16.625 3.46086C16.625 4.81345 16.625 6.16604 16.625 7.51863C16.625 8.13787 16.5088 8.2921 16.0356 8.2921C12.6719 8.2921 9.30808 8.2921 5.94412 8.2921C5.57959 8.2921 5.57915 8.2921 5.57915 8.77055C5.57915 9.30566 5.57915 9.84078 5.57915 10.3765C5.57915 10.6131 5.55175 10.8327 5.3759 10.9472C5.20004 11.0617 5.03832 10.9764 4.88986 10.8199C3.34574 9.21219 1.80117 7.60606 0.256165 6.00149C-0.0853861 5.64572 -0.0871535 5.36473 0.261467 5.00136C1.44592 3.76639 2.632 2.53394 3.8197 1.30403C4.19041 0.919637 4.56245 0.537578 4.93272 0.152597C5.05555 0.0252444 5.18413 -0.0542053 5.33922 0.0439384C5.50315 0.14734 5.57517 0.327854 5.57561 0.562114C5.57561 1.16558 5.58578 1.76905 5.57296 2.3731C5.56678 2.65176 5.63438 2.74172 5.84824 2.74055C7.56306 2.73004 9.27877 2.73413 10.9932 2.73413ZM4.82181 9.50662C4.82181 8.98786 4.82181 8.55148 4.82181 8.11509C4.82181 7.43159 4.92653 7.29722 5.44262 7.29722H15.5089C15.8659 7.29722 15.8663 7.29722 15.8663 6.83922C15.8663 5.94346 15.8663 5.04771 15.8663 4.15195C15.8663 3.70096 15.8663 3.70037 15.5288 3.70037H5.35204C4.94642 3.70037 4.82844 3.54849 4.82181 3.00811C4.81784 2.60911 4.82181 2.21011 4.81916 1.81111C4.81916 1.73925 4.847 1.63994 4.77498 1.60489C4.72284 1.57919 4.68175 1.64812 4.64242 1.68901C3.47387 2.89984 2.30488 4.11203 1.13545 5.32559C0.999359 5.46638 0.998917 5.54933 1.14031 5.69363C1.87467 6.44256 2.60063 7.20492 3.32968 7.96203C3.80909 8.45917 4.28894 8.95515 4.82181 9.50662Z" fill="white"/>
</svg>
