<svg width="17" height="11" viewBox="0 0 17 11" fill="none" xmlns="http://www.w3.org/2000/svg">
<path d="M6.00685 8.26587L0.925558 8.26587C0.492103 8.26587 0.375011 8.11223 0.375011 7.53914C0.375011 6.18655 0.375011 4.83396 0.375011 3.48137C0.375011 2.86213 0.491218 2.7079 0.964441 2.7079C4.32811 2.7079 7.69192 2.7079 11.0559 2.7079C11.4204 2.7079 11.4209 2.7079 11.4209 2.22945C11.4209 1.69433 11.4209 1.15922 11.4209 0.623518C11.4209 0.386921 11.4482 0.167266 11.6241 0.0527647C11.8 -0.0617363 11.9617 0.0235546 12.1101 0.180117C13.6543 1.7878 15.1988 3.39393 16.7438 4.99851C17.0854 5.35428 17.0872 5.63527 16.7385 5.99864C15.5541 7.23361 14.368 8.46606 13.1803 9.69597C12.8096 10.0804 12.4376 10.4624 12.0673 10.8474C11.9444 10.9748 11.8159 11.0542 11.6608 10.9561C11.4969 10.8527 11.4248 10.6721 11.4244 10.4379C11.4244 9.83442 11.4142 9.23095 11.427 8.6269C11.4332 8.34824 11.3656 8.25828 11.1518 8.25945C9.43694 8.26996 7.72123 8.26587 6.00685 8.26587ZM12.1782 1.49337C12.1782 2.01213 12.1782 2.44852 12.1782 2.88491C12.1782 3.56841 12.0735 3.70278 11.5574 3.70278L1.49113 3.70278C1.13411 3.70278 1.13367 3.70278 1.13367 4.16078C1.13367 5.05654 1.13367 5.95229 1.13367 6.84805C1.13367 7.29904 1.13367 7.29963 1.47124 7.29963L11.648 7.29963C12.0536 7.29963 12.1716 7.45151 12.1782 7.99189C12.1822 8.39089 12.1782 8.78989 12.1808 9.18889C12.1808 9.26075 12.153 9.36006 12.225 9.39511C12.2772 9.42081 12.3183 9.35188 12.3576 9.31099C13.5261 8.10016 14.6951 6.88797 15.8646 5.67441C16.0006 5.53362 16.0011 5.45067 15.8597 5.30637C15.1253 4.55744 14.3994 3.79508 13.6703 3.03797C13.1909 2.54082 12.7111 2.04485 12.1782 1.49337Z" fill="#21DB70"/>
</svg>
