<svg width="22" height="28" viewBox="0 0 22 28" fill="none" xmlns="http://www.w3.org/2000/svg">
<path d="M21.0653 17.1809L16.507 16.8752C16.0263 16.8353 15.598 17.1774 15.5306 17.655C14.8935 21.4689 13.2858 24.5875 11.2033 26.0926C8.40071 24.0881 6.5339 19.2927 6.5339 13.9989C6.5339 8.70507 8.40076 3.90912 11.2033 1.90509C13.2858 3.41022 14.8935 6.53155 15.5306 10.3427C15.6023 10.7919 15.989 11.123 16.4439 11.1249C16.4645 11.1249 16.4855 11.1249 16.507 11.1249L21.0653 10.8192C21.3313 10.801 21.5768 10.6699 21.7399 10.459C21.903 10.2481 21.9681 9.97748 21.9188 9.71545C20.823 3.91798 17.6485 0.0242839 14.0124 6.60207e-07C14.0087 6.60207e-07 14.0054 6.60207e-07 14.0012 6.60207e-07H8.40071C3.76867 -0.0023511 0 6.2786 0 13.9988C0 21.7191 3.76867 28 8.40071 28H14.0012C14.0054 28 14.0087 27.9976 14.0124 27.9976C17.6485 27.9734 20.823 24.0773 21.9188 18.2846C21.9681 18.0225 21.903 17.7519 21.7399 17.541C21.5768 17.3301 21.3313 17.199 21.0653 17.1809ZM12.6767 1.14345C12.7052 1.13459 12.7332 1.1271 12.7616 1.11873C12.9364 1.06644 13.1142 1.02515 13.2942 0.995069C13.325 0.98949 13.3558 0.982927 13.3875 0.978716C13.5884 0.94869 13.7912 0.933048 13.9942 0.932063C17.1749 0.940923 19.9895 4.53687 21.0018 9.88582L16.4533 10.1887C15.8083 6.32717 14.1916 3.10646 12.0663 1.38475C12.2641 1.29079 12.468 1.21017 12.6767 1.14345ZM8.40076 27.0638C4.28349 27.0666 0.933485 21.2043 0.933485 13.9988C0.933485 6.79336 4.28349 0.931079 8.40076 0.931079H10.962L10.9518 0.938079H10.9476C7.7007 3.03126 5.60053 8.15519 5.60053 13.9988C5.60053 19.8425 7.7007 24.9664 10.9453 27.0554L10.9583 27.0638H8.40076V27.0638ZM13.9905 27.0666C13.7874 27.0656 13.5846 27.05 13.3838 27.02C13.353 27.0158 13.3222 27.0093 13.2904 27.0036C13.1105 26.9735 12.9327 26.9322 12.7579 26.88C12.7294 26.8715 12.7014 26.8641 12.6729 26.8552C12.4643 26.7885 12.2604 26.7079 12.0625 26.6139C14.1878 24.8913 15.8059 21.6701 16.4439 17.8063L21.0018 18.1119C19.9895 23.4613 17.1748 27.0568 13.9905 27.0666Z" fill="white"/>
</svg>
