<svg width="35" height="35" viewBox="0 0 35 35" fill="none" xmlns="http://www.w3.org/2000/svg">
<g filter="url(#filter0_d)">
<path d="M25.05 21.6654C24.1402 23.2412 22.7835 24.5119 21.1516 25.3167C19.5197 26.1214 17.6857 26.4242 15.8817 26.1867C14.0777 25.9492 12.3846 25.1821 11.0166 23.9824C9.64852 22.7826 8.66697 21.2042 8.19602 19.4466C7.72508 17.689 7.7859 15.8312 8.37078 14.1082C8.95567 12.3852 10.0384 10.8743 11.4819 9.76658C12.9255 8.65888 14.6651 8.00413 16.4808 7.88513C18.2965 7.76612 20.1067 8.1882 21.6825 9.098C21.8731 9.208 22.0636 9.318 22.2455 9.423L22.8771 8.52903C22.6634 8.40569 22.4469 8.28069 22.2275 8.15403C20.2132 6.98879 17.8636 6.54002 15.5616 6.88084C13.2596 7.22166 11.1408 8.33198 9.55048 10.0309C7.96017 11.7298 6.99204 13.9172 6.80382 16.2367C6.6156 18.5562 7.2184 20.8711 8.51398 22.8042C9.80957 24.7373 11.7216 26.1747 13.9386 26.8822C16.1555 27.5897 18.5467 27.5256 20.7226 26.7004C22.8985 25.8752 24.7308 24.3375 25.921 22.3377C27.1112 20.338 27.5891 17.9942 27.277 15.6881L26.2162 15.7454C26.5056 17.7938 26.0947 19.8799 25.05 21.6654Z" fill="#21DB70"/>
</g>
<defs>
<filter id="filter0_d" x="0" y="0" width="34.1401" height="34.1401" filterUnits="userSpaceOnUse" color-interpolation-filters="sRGB">
<feFlood flood-opacity="0" result="BackgroundImageFix"/>
<feColorMatrix in="SourceAlpha" type="matrix" values="0 0 0 0 0 0 0 0 0 0 0 0 0 0 0 0 0 0 127 0"/>
<feOffset/>
<feGaussianBlur stdDeviation="1.5"/>
<feColorMatrix type="matrix" values="0 0 0 0 0.129412 0 0 0 0 0.858824 0 0 0 0 0.439216 0 0 0 1 0"/>
<feBlend mode="normal" in2="BackgroundImageFix" result="effect1_dropShadow"/>
<feBlend mode="normal" in="SourceGraphic" in2="effect1_dropShadow" result="shape"/>
</filter>
</defs>
</svg>
