<svg width="35" height="35" viewBox="0 0 35 35" fill="none" xmlns="http://www.w3.org/2000/svg">
<g filter="url(#filter0_d)">
<path d="M25.05 21.8256C24.1402 23.4014 22.7835 24.672 21.1516 25.4768C19.5197 26.2816 17.6857 26.5844 15.8817 26.3469C14.0777 26.1094 12.3846 25.3423 11.0166 24.1425C9.64852 22.9428 8.66697 21.3643 8.19602 19.6067C7.72508 17.8491 7.7859 15.9914 8.37078 14.2683C8.95567 12.5453 10.0384 11.0344 11.4819 9.92674C12.9255 8.81904 14.6651 8.16429 16.4808 8.04528C18.2965 7.92628 20.1067 8.34836 21.6825 9.25815C21.8731 9.36815 22.0636 9.47815 22.2455 9.58315L22.8771 8.68918C22.6634 8.56585 22.4469 8.44085 22.2275 8.31418C20.2132 7.14894 17.8636 6.70017 15.5616 7.041C13.2596 7.38182 11.1408 8.49214 9.55048 10.1911C7.96017 11.89 6.99204 14.0774 6.80382 16.3969C6.6156 18.7164 7.2184 21.0312 8.51398 22.9643C9.80957 24.8974 11.7216 26.3348 13.9386 27.0424C16.1555 27.7499 18.5467 27.6858 20.7226 26.8606C22.8985 26.0353 24.7308 24.4976 25.921 22.4979C27.1112 20.4982 27.5891 18.1544 27.277 15.8483L26.2162 15.9056C26.5056 17.954 26.0947 20.04 25.05 21.8256Z" fill="#EEC157"/>
</g>
<defs>
<filter id="filter0_d" x="0" y="0.160156" width="34.1401" height="34.1401" filterUnits="userSpaceOnUse" color-interpolation-filters="sRGB">
<feFlood flood-opacity="0" result="BackgroundImageFix"/>
<feColorMatrix in="SourceAlpha" type="matrix" values="0 0 0 0 0 0 0 0 0 0 0 0 0 0 0 0 0 0 127 0"/>
<feOffset/>
<feGaussianBlur stdDeviation="1.5"/>
<feColorMatrix type="matrix" values="0 0 0 0 0.933333 0 0 0 0 0.756863 0 0 0 0 0.341176 0 0 0 1 0"/>
<feBlend mode="normal" in2="BackgroundImageFix" result="effect1_dropShadow"/>
<feBlend mode="normal" in="SourceGraphic" in2="effect1_dropShadow" result="shape"/>
</filter>
</defs>
</svg>
