<svg width="20" height="28" viewBox="0 0 18 28" fill="none" xmlns="http://www.w3.org/2000/svg">
<path d="M17.8441 13.1797H17.0772C16.8399 10.6946 15.5353 8.5163 13.6283 7.10938H13.6941V0H12.0535V2.38809H5.2453V0H3.60468V7.02457C1.42465 8.57739 0 11.1255 0 14C0 16.8899 1.44003 19.4497 3.64014 21H3.60468V28H5.2453V25.6119H12.0535V28H13.6941V20.8419C15.5654 19.4337 16.8427 17.2768 17.0772 14.8203H17.8444V13.1797H17.8441ZM5.2453 4.02872H12.0535V6.18845C10.9858 5.70886 9.80273 5.44162 8.55838 5.44162C7.38431 5.44162 6.26492 5.67938 5.2453 6.10898V4.02872ZM12.0535 23.9713H5.2453V21.891C6.26492 22.3206 7.38431 22.5584 8.55838 22.5584C9.80273 22.5584 10.9858 22.2911 12.0537 21.8116V23.9713H12.0535ZM8.55838 20.9178C4.74393 20.9178 1.64062 17.8145 1.64062 14C1.64062 10.1855 4.74393 7.08224 8.55838 7.08224C12.3728 7.08224 15.4761 10.1855 15.4761 14C15.4761 17.8145 12.3728 20.9178 8.55838 20.9178Z" fill="white"/>
<path d="M9.37891 9.95312H7.73828V14.8203H11.1178V13.1797H9.37891V9.95312Z" fill="white"/>
</svg>
