<svg width="91" height="91" viewBox="0 0 91 91" fill="none" xmlns="http://www.w3.org/2000/svg">
<g filter="url(#filter0_d)">
<circle cx="45.5" cy="45.5" r="32.5" fill="url(#paint0_linear)"/>
</g>
<path d="M29 44.0095C29.547 43.1514 31.303 42.7416 32.1419 43.3667C32.4368 43.5893 32.652 44.0759 32.6977 44.4666C32.7847 45.2038 32.7228 45.969 32.7228 46.7563H33.9907C33.9907 45.9896 33.9834 45.2155 33.9907 44.443C33.9996 43.6026 34.492 43.091 35.3324 43.0232C35.3563 43.0195 35.3807 43.0195 35.4047 43.0232C36.9616 43.3461 38.0895 42.6413 38.9549 41.4456C40.273 39.6247 42.0083 39.1338 44.2228 39.2429C47.8336 39.4228 51.4605 39.2901 55.0801 39.293C56.2242 39.293 56.6075 39.6822 56.6105 40.8352C56.6105 42.7873 56.6105 44.7393 56.6105 46.7415H57.9094C57.9094 45.9807 57.9094 45.2067 57.9094 44.4327C57.9182 43.5362 58.3517 43.0748 59.2363 43.0246C59.5541 43.0084 59.8725 43.0084 60.1902 43.0246C60.9569 43.0585 61.4833 43.5436 61.4892 44.3206C61.5083 47.2074 61.498 50.0942 61.4892 52.9796C61.4915 53.175 61.4549 53.369 61.3815 53.5501C61.097 54.218 60.1018 54.4937 58.8751 54.2637C58.1998 54.1369 57.787 53.6563 57.7664 52.9206C57.7457 52.1849 57.7664 51.458 57.7664 50.6751H56.5869C56.5662 50.709 56.5102 50.7533 56.5161 50.7887C56.7211 52.008 56.0428 52.7805 55.226 53.5487C53.8903 54.8034 52.6459 56.1583 51.3072 57.41C50.9369 57.7426 50.4652 57.9405 49.9685 57.9718C47.2541 58.0234 44.5384 58.016 41.824 57.9718C41.3988 57.9415 40.9943 57.7762 40.6696 57.5C39.698 56.6802 38.7677 55.8118 37.858 54.9228C37.6736 54.7356 37.4511 54.5902 37.2057 54.4964C36.9602 54.4025 36.6975 54.3624 36.4352 54.3787C34.147 54.4097 33.9907 54.2313 33.9907 51.9401V50.6678H32.7257C32.7257 51.3322 32.7257 52.0006 32.7257 52.6729C32.7257 54.0559 32.3851 54.3699 30.9786 54.3979C30.1308 54.4156 29.3465 54.3684 29.0015 53.4101L29 44.0095ZM49.1531 48.1245H46.3105L49.2593 43.1293C48.3525 43.1293 47.5756 43.1529 46.8015 43.1205C46.402 43.1028 46.2014 43.2414 46.023 43.5996C45.106 45.4293 44.158 47.2428 43.2217 49.0636C43.1572 49.2162 43.1011 49.3723 43.0537 49.531H45.622C44.9291 51.4477 44.27 53.2789 43.6095 55.1071L43.7157 55.1572L49.1531 48.1245Z" fill="white"/>
<path d="M45.2789 37.9539V36.7316C44.5285 36.7316 43.8252 36.7405 43.1234 36.7316C42.112 36.7154 41.7139 36.3203 41.68 35.3133C41.6712 35.0685 41.68 34.8253 41.68 34.5761C41.6962 33.4128 42.1091 33 43.2797 33C45.8913 33 48.5044 33 51.1189 33C52.3603 33 52.7805 33.4276 52.7864 34.6778C52.7864 34.9211 52.7967 35.1658 52.7864 35.415C52.7392 36.2746 52.3102 36.7095 51.4507 36.7316C50.6515 36.7508 49.8524 36.7316 49.0342 36.7316C49.0091 37.1946 48.9899 37.5543 48.9678 37.9553L45.2789 37.9539Z" fill="white"/>
<defs>
<filter id="filter0_d" x="0" y="0" width="91" height="91" filterUnits="userSpaceOnUse" color-interpolation-filters="sRGB">
<feFlood flood-opacity="0" result="BackgroundImageFix"/>
<feColorMatrix in="SourceAlpha" type="matrix" values="0 0 0 0 0 0 0 0 0 0 0 0 0 0 0 0 0 0 127 0"/>
<feMorphology radius="1" operator="dilate" in="SourceAlpha" result="effect1_dropShadow"/>
<feOffset/>
<feGaussianBlur stdDeviation="6"/>
<feColorMatrix type="matrix" values="0 0 0 0 0.858824 0 0 0 0 0.105882 0 0 0 0 0.105882 0 0 0 0.6 0"/>
<feBlend mode="normal" in2="BackgroundImageFix" result="effect1_dropShadow"/>
<feBlend mode="normal" in="SourceGraphic" in2="effect1_dropShadow" result="shape"/>
</filter>
<linearGradient id="paint0_linear" x1="18.2" y1="26.65" x2="72.8" y2="63.7" gradientUnits="userSpaceOnUse">
<stop stop-color="#D91515"/>
<stop offset="1" stop-color="#E95050"/>
</linearGradient>
</defs>
</svg>
