<svg width="28" height="29" viewBox="0 0 28 29" fill="none" xmlns="http://www.w3.org/2000/svg">
<path d="M27.5241 7.9159C26.9572 7.39625 26.1541 7.41987 25.4691 7.89228C26.1068 6.90021 26.6029 6.09711 26.721 5.93177C27.028 5.5066 27.5241 4.11298 26.2013 3.3335C24.9022 2.55401 24.288 3.40436 23.8629 3.97125C23.8629 3.97125 23.3668 4.65625 23.0125 5.15229C23.2251 4.70349 23.4377 4.27832 23.6267 3.92401C24.477 2.36505 24.3353 1.25488 23.1306 0.569879C21.6898 -0.233223 20.7686 1.04229 20.556 1.60919C20.4615 1.82177 20.0599 2.71936 19.9891 2.90832C20.2725 1.98712 20.4615 0.758844 19.0915 0.168328C18.0522 -0.280465 17.131 0.191949 16.753 1.30212C16.5877 1.79815 15.4303 5.69556 15.1941 6.49866C14.9579 7.27814 14.0603 10.963 13.8949 11.5299C13.8477 11.5771 13.8005 11.6007 13.7532 11.648C13.6115 11.1283 13.517 10.585 13.4934 10.0418C13.4698 9.42762 13.3044 8.83711 12.9501 8.34107C13.0446 7.63246 13.6115 3.92401 13.6587 3.40436C13.7296 2.79022 13.5406 1.44384 12.0053 1.3966C10.8951 1.34936 10.2337 2.03436 10.0684 3.3335C10.0684 3.38074 10.0448 3.42798 10.0448 3.49884C10.0448 3.26263 10.0684 2.29419 10.0684 2.05798C10.1156 1.34936 9.76133 -0.11512 8.15513 0.0266039C6.78513 0.144707 6.17099 1.08953 6.28909 2.86108C6.31271 3.16815 6.33634 3.54608 6.33634 3.94763C6.24185 3.38074 6.17099 2.95557 6.10013 2.71936C5.93478 1.9635 5.74582 1.04229 4.21048 1.25488C2.65151 1.46746 2.55703 2.8847 2.65151 3.40436C2.67513 3.59332 2.79324 4.53815 2.95858 5.69556C2.53341 4.96332 1.82479 4.60901 1.09255 4.84522C-0.513655 5.36487 -0.0412416 7.53797 0.572895 9.47487C1.51772 12.4038 2.24996 15.6399 2.43893 17.7421C2.62789 19.8443 2.91134 27.521 2.91134 27.6155C2.91134 27.8281 3.10031 28.0171 3.31289 28.0171H10.8715C11.1077 28.0171 11.2967 27.8281 11.2967 27.5919V27.5683C11.2967 27.5447 11.2494 26.7652 11.2022 25.8676L15.7137 27.9698C15.9263 28.0643 16.1625 27.9698 16.257 27.7809C16.3043 27.7336 19.8001 20.8836 20.863 19.0649C21.926 17.2461 23.9573 14.6005 26.036 12.3566C27.4296 10.8449 28.7287 9.04969 27.5241 7.9159ZM12.3596 11.6007C12.4541 11.1047 12.5722 10.6087 12.6431 10.1126V10.1362C12.7375 11.4118 12.9501 12.0495 13.1391 12.3802C13.0682 12.4983 12.9974 12.5928 12.9265 12.7109C12.6431 13.2542 12.2887 13.7502 11.8636 14.199C11.9581 13.6085 12.1706 12.4747 12.3596 11.6007ZM3.73806 27.214C3.6672 25.5842 3.45462 19.5609 3.26565 17.6949C3.07668 15.5454 2.32082 12.2149 1.376 9.23866C0.714619 7.16004 0.620137 5.88453 1.32876 5.64832C1.84841 5.45935 2.24996 5.97901 2.41531 6.52228C2.53341 6.90022 3.17117 9.26228 3.6672 11.1519C3.73806 11.3645 3.95065 11.5062 4.16323 11.4354C4.3522 11.3881 4.49392 11.1756 4.4703 10.9866C4.42306 10.7031 3.5491 3.85315 3.45462 3.28625C3.40737 2.97919 3.40737 2.15246 4.30496 2.0816C5.08444 2.01074 5.13168 2.15246 5.27341 2.90832C5.34427 3.28625 5.50961 4.20746 5.69858 5.27039C5.88754 6.3097 6.07651 7.49073 6.26547 8.57728C6.31272 8.81349 6.5253 8.95521 6.73789 8.90797C6.92685 8.88435 7.06858 8.719 7.06858 8.50642C7.06858 8.36469 7.18668 4.75074 7.06858 2.81384C6.92685 0.995051 7.70633 0.900568 8.17875 0.853327C9.05271 0.758844 9.19444 1.68005 9.17081 2.03436C9.14719 2.27057 9.09995 6.12073 8.91099 9.56935C8.88737 9.80555 9.07633 9.99452 9.31254 9.99452C9.52512 9.99452 9.71409 9.8528 9.73771 9.66383C9.78495 9.45125 10.6825 4.53815 10.8243 3.42798C10.966 2.41229 11.3439 2.1997 11.9344 2.22333C12.7612 2.22333 12.832 3.02643 12.7848 3.3335C12.7375 3.82953 12.1234 7.82142 12.0053 8.67176C11.8872 9.45125 11.6982 10.4669 11.4856 11.4354C10.8951 14.388 10.8243 14.884 11.2731 15.1202C12.1234 15.5454 12.9974 14.199 13.5879 13.1361C13.7768 12.7581 14.0603 12.4274 14.391 12.1676C14.391 12.1676 14.4146 12.1676 14.4146 12.144C14.7217 11.9787 15.0996 11.955 15.383 12.144C15.6901 12.333 15.1705 13.9864 15.1468 14.1045C14.2493 16.9862 13.3989 18.8995 12.5958 19.7735C11.0841 21.5214 10.1865 22.7261 10.2337 23.7181C10.281 24.3795 10.3991 26.3164 10.4463 27.1904L3.73806 27.214ZM25.4218 11.7897C23.296 14.0809 21.2174 16.7736 20.1308 18.6633C19.186 20.2931 16.446 25.6314 15.6901 27.0959L11.1313 24.97C11.1077 24.4267 11.0605 23.9543 11.0605 23.6945C11.0132 22.9623 12.147 21.5923 13.2572 20.3404C14.5799 18.8759 15.6429 15.4745 15.9972 14.3643C16.0208 14.2462 16.9656 11.9078 15.7846 11.4118C15.4775 11.2937 15.1705 11.2228 14.8398 11.2228C14.9815 10.7268 15.7374 7.53797 15.9736 6.78211C16.2098 5.97901 17.3672 2.10522 17.5325 1.63281C17.816 0.735224 18.5482 0.876948 18.7608 0.995051C19.3041 1.23126 19.5639 1.58557 19.2568 2.55401C18.9261 3.59332 17.7451 8.19935 17.6034 8.64814C17.6034 8.64814 17.4853 9.02607 17.8632 9.1678C18.1939 9.2859 18.3829 8.93159 18.3829 8.90797C19.682 5.71918 21.2174 2.17608 21.3118 1.9635C21.4299 1.63281 21.926 0.876948 22.7055 1.30212C23.107 1.53833 23.7684 1.93988 22.8944 3.54608C22.0677 5.0578 20.9103 7.7978 20.556 8.62452V8.64814C20.5323 8.69538 20.5324 8.76625 20.5087 8.81349C20.5087 9.04969 20.6977 9.21504 20.9103 9.23866C21.052 9.23866 21.1701 9.1678 21.241 9.04969L22.2567 7.63246C23.2251 6.26246 24.477 4.51453 24.477 4.51453C24.9494 3.87677 25.1148 3.71143 25.7053 4.08936C26.4848 4.53815 26.1304 5.29401 25.9651 5.55384C25.7525 5.88453 23.6503 9.19142 22.5401 10.9393C22.1386 11.5771 21.8315 12.0259 21.8079 12.0968C21.6898 12.3093 21.7606 12.4983 21.8551 12.6164C22.0205 12.7818 22.3039 12.7818 22.4692 12.5928C23.7684 11.1047 24.4061 10.3016 24.7841 9.82918C25.1384 9.404 25.3037 9.21504 25.5636 8.93159C25.847 8.62452 26.4611 8.17573 26.9099 8.6009C27.5004 9.02607 26.9099 10.1835 25.4218 11.7897Z" fill="white"/>
</svg>
