<svg width="159" height="293" viewBox="0 0 159 293" fill="none" xmlns="http://www.w3.org/2000/svg">
<rect y="31" width="30" height="21" rx="10" fill="#D91515" fill-opacity="0.4"/>
<path d="M12.8533 45.987V36.913C14.0579 36.8783 14.8899 36.861 15.3493 36.861C16.3373 36.861 17.0696 37.0603 17.5463 37.459C18.0316 37.849 18.2743 38.3993 18.2743 39.11C18.2743 39.6387 18.1356 40.0807 17.8583 40.436C17.5809 40.7913 17.1996 41.0513 16.7143 41.216V41.242C17.3036 41.3373 17.7629 41.5713 18.0923 41.944C18.4303 42.3167 18.5993 42.802 18.5993 43.4C18.5993 44.2667 18.3046 44.9253 17.7153 45.376C17.1259 45.818 16.3199 46.039 15.2973 46.039C14.3006 46.039 13.4859 46.0217 12.8533 45.987ZM15.4273 41.853H13.9583V44.947C14.3136 44.9817 14.7816 44.999 15.3623 44.999C16.0469 44.999 16.5713 44.8603 16.9353 44.583C17.3079 44.297 17.4943 43.881 17.4943 43.335C17.4943 42.8583 17.3123 42.4943 16.9483 42.243C16.5929 41.983 16.0859 41.853 15.4273 41.853ZM15.3233 37.901C15.0633 37.901 14.6083 37.914 13.9583 37.94V40.878H15.4143C15.9256 40.878 16.3459 40.7437 16.6753 40.475C17.0046 40.1977 17.1693 39.825 17.1693 39.357C17.1693 38.3863 16.5539 37.901 15.3233 37.901Z" fill="white"/>
<g filter="url(#filter0_d)">
<path d="M34.66 46H33.47V36.2H34.674L38.356 41.226L41.884 36.2H43.018V46H41.828V38.076L38.356 42.948H38.174L34.66 38.118V46ZM50.2504 41.31L46.6104 46H45.4904V39.7H46.6104V44.39L50.2504 39.7H51.3704V46H50.2504V41.31ZM57.4524 39.7H58.9224L56.1644 42.71L59.1884 46H57.6344L54.7924 42.78L57.4524 39.7ZM54.5264 46H53.4064V39.7H54.5264V46ZM61.4991 48.8H60.3791V39.7H61.4991V40.442C61.7231 40.1807 62.0311 39.9707 62.4231 39.812C62.8151 39.644 63.2211 39.56 63.6411 39.56C64.5371 39.56 65.2418 39.8587 65.7551 40.456C66.2871 41.044 66.5531 41.8093 66.5531 42.752C66.5531 43.7133 66.2498 44.5207 65.6431 45.174C65.0458 45.818 64.2571 46.14 63.2771 46.14C62.5211 46.14 61.9284 45.9953 61.4991 45.706V48.8ZM63.3191 40.61C62.5724 40.61 61.9658 40.8993 61.4991 41.478V44.6C61.9938 44.9267 62.5538 45.09 63.1791 45.09C63.8418 45.09 64.3691 44.88 64.7611 44.46C65.1624 44.0307 65.3631 43.4753 65.3631 42.794C65.3631 42.1313 65.1811 41.604 64.8171 41.212C64.4531 40.8107 63.9538 40.61 63.3191 40.61ZM68.6624 45.216C68.0464 44.5813 67.7384 43.7927 67.7384 42.85C67.7384 41.898 68.0464 41.114 68.6624 40.498C69.2877 39.8727 70.0997 39.56 71.0984 39.56C72.0971 39.56 72.9044 39.8727 73.5204 40.498C74.1457 41.114 74.4584 41.898 74.4584 42.85C74.4584 43.802 74.1457 44.5907 73.5204 45.216C72.9044 45.832 72.0971 46.14 71.0984 46.14C70.1091 46.14 69.2971 45.832 68.6624 45.216ZM69.5444 41.24C69.1337 41.6507 68.9284 42.1873 68.9284 42.85C68.9284 43.5127 69.1291 44.0493 69.5304 44.46C69.9411 44.88 70.4637 45.09 71.0984 45.09C71.7331 45.09 72.2511 44.8847 72.6524 44.474C73.0631 44.054 73.2684 43.5127 73.2684 42.85C73.2684 42.206 73.0631 41.6693 72.6524 41.24C72.2511 40.82 71.7331 40.61 71.0984 40.61C70.4637 40.61 69.9457 40.82 69.5444 41.24ZM80.3444 48.8H79.2244V46.14H79.0704C78.0157 46.14 77.1804 45.832 76.5644 45.216C75.9577 44.5907 75.6544 43.802 75.6544 42.85C75.6544 41.9447 75.9624 41.17 76.5784 40.526C77.1944 39.882 78.0204 39.56 79.0564 39.56H79.2244V36.2H80.3444V39.56H80.5264C81.5531 39.56 82.3744 39.8727 82.9904 40.498C83.6064 41.1233 83.9144 41.9073 83.9144 42.85C83.9144 43.83 83.6157 44.6233 83.0184 45.23C82.4304 45.8367 81.5997 46.14 80.5264 46.14H80.3444V48.8ZM76.8444 42.85C76.8444 43.5313 77.0451 44.0773 77.4464 44.488C77.8571 44.8893 78.4124 45.09 79.1124 45.09H79.2244V40.61H79.0424C78.3611 40.61 77.8244 40.82 77.4324 41.24C77.0404 41.6507 76.8444 42.1873 76.8444 42.85ZM80.5264 40.61H80.3444V45.09H80.4704C81.1797 45.09 81.7304 44.8893 82.1224 44.488C82.5237 44.0773 82.7244 43.5313 82.7244 42.85C82.7244 42.234 82.5284 41.7067 82.1364 41.268C81.7444 40.8293 81.2077 40.61 80.5264 40.61ZM86.0257 45.216C85.4097 44.5813 85.1017 43.7927 85.1017 42.85C85.1017 41.898 85.4097 41.114 86.0257 40.498C86.651 39.8727 87.463 39.56 88.4617 39.56C89.4603 39.56 90.2677 39.8727 90.8837 40.498C91.509 41.114 91.8217 41.898 91.8217 42.85C91.8217 43.802 91.509 44.5907 90.8837 45.216C90.2677 45.832 89.4603 46.14 88.4617 46.14C87.4723 46.14 86.6603 45.832 86.0257 45.216ZM86.9077 41.24C86.497 41.6507 86.2917 42.1873 86.2917 42.85C86.2917 43.5127 86.4923 44.0493 86.8937 44.46C87.3043 44.88 87.827 45.09 88.4617 45.09C89.0963 45.09 89.6143 44.8847 90.0157 44.474C90.4263 44.054 90.6317 43.5127 90.6317 42.85C90.6317 42.206 90.4263 41.6693 90.0157 41.24C89.6143 40.82 89.0963 40.61 88.4617 40.61C87.827 40.61 87.309 40.82 86.9077 41.24ZM99.1777 46H98.0577V43.34L94.5577 43.34V46H93.4377V39.7H94.5577V42.29H98.0577V39.7H99.1777V46Z" fill="white"/>
</g>
<rect y="83" width="30" height="21" rx="10" fill="#D91515" fill-opacity="0.4"/>
<path d="M18.3813 98H12.7913V88.9H13.8963V96.96H18.3813V98Z" fill="white"/>
<g filter="url(#filter1_d)">
<path d="M32.7 93.1C32.7 91.6813 33.1713 90.4867 34.114 89.516C35.0567 88.5453 36.2513 88.06 37.698 88.06C39.1353 88.06 40.3253 88.5313 41.268 89.474C42.22 90.4167 42.696 91.6253 42.696 93.1C42.696 94.5373 42.22 95.7413 41.268 96.712C40.316 97.664 39.126 98.14 37.698 98.14C36.27 98.14 35.0753 97.6687 34.114 96.726C33.1713 95.7833 32.7 94.5747 32.7 93.1ZM33.96 93.1C33.96 94.2013 34.3193 95.1347 35.038 95.9C35.7567 96.6467 36.6433 97.02 37.698 97.02C38.7993 97.02 39.6953 96.6467 40.386 95.9C41.086 95.1533 41.436 94.22 41.436 93.1C41.436 91.98 41.0767 91.0467 40.358 90.3C39.6393 89.5533 38.7527 89.18 37.698 89.18C36.6247 89.18 35.7333 89.5487 35.024 90.286C34.3147 91.0233 33.96 91.9613 33.96 93.1ZM45.9223 92.82H43.6123V91.7H49.3523V92.82H47.0423V98H45.9223V92.82ZM54.6224 91.7H56.0924L53.3344 94.71L56.3584 98H54.8044L51.9624 94.78L54.6224 91.7ZM51.6964 98H50.5764V91.7H51.6964V98ZM58.669 100.8H57.549V91.7H58.669V92.442C58.893 92.1807 59.201 91.9707 59.593 91.812C59.985 91.644 60.391 91.56 60.811 91.56C61.707 91.56 62.4117 91.8587 62.925 92.456C63.457 93.044 63.723 93.8093 63.723 94.752C63.723 95.7133 63.4197 96.5207 62.813 97.174C62.2157 97.818 61.427 98.14 60.447 98.14C59.691 98.14 59.0983 97.9953 58.669 97.706V100.8ZM60.489 92.61C59.7423 92.61 59.1357 92.8993 58.669 93.478V96.6C59.1637 96.9267 59.7237 97.09 60.349 97.09C61.0117 97.09 61.539 96.88 61.931 96.46C62.3323 96.0307 62.533 95.4753 62.533 94.794C62.533 94.1313 62.351 93.604 61.987 93.212C61.623 92.8107 61.1237 92.61 60.489 92.61ZM67.3583 98H65.3283V91.7H66.4483V93.59H67.4843C68.343 93.59 68.973 93.786 69.3743 94.178C69.7756 94.5607 69.9763 95.088 69.9763 95.76C69.9763 96.3947 69.7663 96.9267 69.3463 97.356C68.945 97.7853 68.2823 98 67.3583 98ZM72.3003 98H71.1803V91.7H72.3003V98ZM67.2743 94.64H66.4483V96.95H67.2603C67.7923 96.95 68.1796 96.8567 68.4223 96.67C68.665 96.4833 68.7863 96.194 68.7863 95.802C68.7863 95.0273 68.2823 94.64 67.2743 94.64ZM75.8227 92.82H73.5127V91.7L79.2527 91.7V92.82H76.9427V98H75.8227V92.82ZM82.6048 98H80.4768V91.7H81.5968V93.59H82.7448C83.6034 93.59 84.2334 93.786 84.6348 94.178C85.0361 94.5607 85.2368 95.088 85.2368 95.76C85.2368 96.3947 85.0268 96.9267 84.6068 97.356C84.1868 97.7853 83.5194 98 82.6048 98ZM82.5348 94.64H81.5968V96.95H82.5208C83.5381 96.95 84.0468 96.5673 84.0468 95.802C84.0468 95.0273 83.5428 94.64 82.5348 94.64ZM89.337 100.912L88.455 100.59L93.117 88.06L93.985 88.382L89.337 100.912ZM100.475 98.14C99.7937 98.14 99.159 97.9953 98.571 97.706C97.9923 97.4167 97.5583 97.048 97.269 96.6L97.927 95.802C98.235 96.166 98.6177 96.46 99.075 96.684C99.5417 96.908 99.985 97.02 100.405 97.02C101.077 97.02 101.614 96.852 102.015 96.516C102.426 96.18 102.631 95.7227 102.631 95.144C102.631 94.6587 102.463 94.2713 102.127 93.982C101.791 93.6927 101.32 93.548 100.713 93.548H99.579V92.428H100.629C101.058 92.428 101.436 92.274 101.763 91.966C102.09 91.6393 102.253 91.2427 102.253 90.776C102.253 90.272 102.09 89.88 101.763 89.6C101.436 89.32 101.007 89.18 100.475 89.18C99.607 89.18 98.865 89.544 98.249 90.272L97.549 89.488C97.885 89.04 98.3237 88.69 98.865 88.438C99.4063 88.186 99.985 88.06 100.601 88.06C101.469 88.06 102.16 88.2933 102.673 88.76C103.186 89.2173 103.443 89.852 103.443 90.664C103.443 91.1213 103.317 91.5553 103.065 91.966C102.822 92.3673 102.477 92.68 102.029 92.904V92.946C102.598 93.058 103.037 93.324 103.345 93.744C103.662 94.1547 103.821 94.6587 103.821 95.256C103.821 96.1427 103.494 96.8427 102.841 97.356C102.188 97.8787 101.399 98.14 100.475 98.14ZM106.147 93.03L105.853 92.134C106.478 91.7513 107.178 91.56 107.953 91.56C108.802 91.56 109.418 91.77 109.801 92.19C110.183 92.61 110.375 93.2587 110.375 94.136V98H109.311V97.188C108.816 97.7947 108.144 98.098 107.295 98.098C106.716 98.098 106.249 97.9253 105.895 97.58C105.54 97.2253 105.363 96.7493 105.363 96.152C105.363 95.536 105.582 95.0507 106.021 94.696C106.459 94.332 107.033 94.15 107.743 94.15C108.405 94.15 108.928 94.2853 109.311 94.556C109.311 93.8467 109.213 93.338 109.017 93.03C108.821 92.722 108.443 92.568 107.883 92.568C107.313 92.568 106.735 92.722 106.147 93.03ZM107.687 97.09C108.312 97.09 108.853 96.8193 109.311 96.278V95.48C108.919 95.2 108.447 95.06 107.897 95.06C107.514 95.06 107.192 95.1533 106.931 95.34C106.679 95.5173 106.553 95.7693 106.553 96.096C106.553 96.404 106.651 96.6467 106.847 96.824C107.052 97.0013 107.332 97.09 107.687 97.09ZM116.296 91.7H117.766L115.008 94.71L118.032 98H116.478L113.636 94.78L116.296 91.7ZM113.37 98H112.25V91.7H113.37V98ZM120.343 100.8H119.223V91.7H120.343V92.442C120.567 92.1807 120.875 91.9707 121.267 91.812C121.659 91.644 122.065 91.56 122.485 91.56C123.381 91.56 124.086 91.8587 124.599 92.456C125.131 93.044 125.397 93.8093 125.397 94.752C125.397 95.7133 125.094 96.5207 124.487 97.174C123.89 97.818 123.101 98.14 122.121 98.14C121.365 98.14 120.772 97.9953 120.343 97.706V100.8ZM122.163 92.61C121.416 92.61 120.81 92.8993 120.343 93.478V96.6C120.838 96.9267 121.398 97.09 122.023 97.09C122.686 97.09 123.213 96.88 123.605 96.46C124.006 96.0307 124.207 95.4753 124.207 94.794C124.207 94.1313 124.025 93.604 123.661 93.212C123.297 92.8107 122.798 92.61 122.163 92.61ZM129.032 98H127.002V91.7H128.122V93.59H129.158C130.017 93.59 130.647 93.786 131.048 94.178C131.449 94.5607 131.65 95.088 131.65 95.76C131.65 96.3947 131.44 96.9267 131.02 97.356C130.619 97.7853 129.956 98 129.032 98ZM133.974 98H132.854V91.7H133.974V98ZM128.948 94.64H128.122V96.95H128.934C129.466 96.95 129.853 96.8567 130.096 96.67C130.339 96.4833 130.46 96.194 130.46 95.802C130.46 95.0273 129.956 94.64 128.948 94.64ZM137.497 92.82H135.187V91.7H140.927V92.82H138.617V98H137.497V92.82ZM144.279 98H142.151V91.7H143.271V93.59H144.419C145.277 93.59 145.907 93.786 146.309 94.178C146.71 94.5607 146.911 95.088 146.911 95.76C146.911 96.3947 146.701 96.9267 146.281 97.356C145.861 97.7853 145.193 98 144.279 98ZM144.209 94.64H143.271V96.95H144.195C145.212 96.95 145.721 96.5673 145.721 95.802C145.721 95.0273 145.217 94.64 144.209 94.64Z" fill="white"/>
</g>
<rect y="213" width="30" height="21" rx="10" fill="#D91515" fill-opacity="0.4"/>
<path d="M17.9354 218.9H19.2744L15.2184 223.177L19.4824 228H18.0654L13.9444 223.255L17.9354 218.9ZM13.7234 228H12.6184V218.9H13.7234V228Z" fill="white"/>
<g filter="url(#filter2_d)">
<path d="M39.196 218.2H40.638L36.27 222.806L40.862 228H39.336L34.898 222.89L39.196 218.2ZM34.66 228H33.47V218.2H34.66V228ZM43.2745 230.8H42.1545V221.7H43.2745V222.442C43.4985 222.181 43.8065 221.971 44.1985 221.812C44.5905 221.644 44.9965 221.56 45.4165 221.56C46.3125 221.56 47.0172 221.859 47.5305 222.456C48.0625 223.044 48.3285 223.809 48.3285 224.752C48.3285 225.713 48.0252 226.521 47.4185 227.174C46.8212 227.818 46.0325 228.14 45.0525 228.14C44.2965 228.14 43.7038 227.995 43.2745 227.706V230.8ZM45.0945 222.61C44.3478 222.61 43.7412 222.899 43.2745 223.478V226.6C43.7692 226.927 44.3292 227.09 44.9545 227.09C45.6172 227.09 46.1445 226.88 46.5365 226.46C46.9378 226.031 47.1385 225.475 47.1385 224.794C47.1385 224.131 46.9565 223.604 46.5925 223.212C46.2285 222.811 45.7292 222.61 45.0945 222.61ZM54.1397 221.7H55.4137L52.8937 228C52.4364 229.111 52.0397 229.848 51.7037 230.212C51.349 230.604 50.943 230.8 50.4857 230.8C50.075 230.8 49.6784 230.669 49.2957 230.408L49.6597 229.554C49.9584 229.694 50.1917 229.764 50.3597 229.764C50.621 229.764 50.8544 229.652 51.0597 229.428C51.2744 229.204 51.489 228.84 51.7037 228.336L51.8437 228L48.8197 221.7H50.1637L52.0117 225.704C52.049 225.769 52.175 226.087 52.3897 226.656C52.4737 226.348 52.5717 226.026 52.6837 225.69L54.1397 221.7ZM61.3246 223.31L57.6846 228H56.5646V221.7H57.6846V226.39L61.3246 221.7H62.4446V228H61.3246V223.31ZM66.5667 228.14C66.0907 228.14 65.5867 228.061 65.0547 227.902C64.5413 227.734 64.1773 227.529 63.9627 227.286L64.5367 226.446C64.7887 226.651 65.0873 226.819 65.4327 226.95C65.7873 227.071 66.1093 227.132 66.3987 227.132C66.884 227.132 67.2807 227.039 67.5887 226.852C67.8967 226.656 68.0507 226.404 68.0507 226.096C68.0507 225.835 67.9387 225.634 67.7147 225.494C67.5 225.354 67.2013 225.284 66.8187 225.284H65.7547V224.374H66.7487C67.066 224.374 67.3273 224.29 67.5327 224.122C67.738 223.945 67.8407 223.73 67.8407 223.478C67.8407 223.198 67.7193 222.979 67.4767 222.82C67.234 222.652 66.9073 222.568 66.4967 222.568C65.834 222.568 65.204 222.801 64.6067 223.268L64.1727 222.4C64.4247 222.139 64.7747 221.933 65.2227 221.784C65.68 221.635 66.1607 221.56 66.6647 221.56C67.4113 221.56 67.99 221.709 68.4007 222.008C68.8207 222.307 69.0307 222.722 69.0307 223.254C69.0307 223.982 68.662 224.477 67.9247 224.738V224.766C68.3353 224.813 68.6573 224.976 68.8907 225.256C69.124 225.527 69.2407 225.858 69.2407 226.25C69.2407 226.829 68.9933 227.291 68.4987 227.636C68.0133 227.972 67.3693 228.14 66.5667 228.14ZM74.3355 224.71H70.9895V223.66H74.3355V224.71ZM80.4349 221.7H81.9049L79.1469 224.71L82.1709 228H80.6169L77.7749 224.78L80.4349 221.7ZM77.5089 228H76.3889V221.7H77.5089V228ZM83.5237 227.216C82.9077 226.581 82.5997 225.793 82.5997 224.85C82.5997 223.898 82.9077 223.114 83.5237 222.498C84.1491 221.873 84.9611 221.56 85.9597 221.56C86.9584 221.56 87.7657 221.873 88.3817 222.498C89.0071 223.114 89.3197 223.898 89.3197 224.85C89.3197 225.802 89.0071 226.591 88.3817 227.216C87.7657 227.832 86.9584 228.14 85.9597 228.14C84.9704 228.14 84.1584 227.832 83.5237 227.216ZM84.4057 223.24C83.9951 223.651 83.7897 224.187 83.7897 224.85C83.7897 225.513 83.9904 226.049 84.3917 226.46C84.8024 226.88 85.3251 227.09 85.9597 227.09C86.5944 227.09 87.1124 226.885 87.5137 226.474C87.9244 226.054 88.1297 225.513 88.1297 224.85C88.1297 224.206 87.9244 223.669 87.5137 223.24C87.1124 222.82 86.5944 222.61 85.9597 222.61C85.3251 222.61 84.8071 222.82 84.4057 223.24ZM96.6757 228H95.5557V225.34H92.0557V228H90.9357V221.7H92.0557V224.29H95.5557V221.7H96.6757V228ZM100.213 222.82H97.9034V221.7H103.643V222.82H101.333V228H100.213V222.82ZM105.987 230.8H104.867V221.7H105.987V222.442C106.211 222.181 106.519 221.971 106.911 221.812C107.303 221.644 107.709 221.56 108.129 221.56C109.025 221.56 109.73 221.859 110.243 222.456C110.775 223.044 111.041 223.809 111.041 224.752C111.041 225.713 110.738 226.521 110.131 227.174C109.534 227.818 108.745 228.14 107.765 228.14C107.009 228.14 106.417 227.995 105.987 227.706V230.8ZM107.807 222.61C107.061 222.61 106.454 222.899 105.987 223.478V226.6C106.482 226.927 107.042 227.09 107.667 227.09C108.33 227.09 108.857 226.88 109.249 226.46C109.651 226.031 109.851 225.475 109.851 224.794C109.851 224.131 109.669 223.604 109.305 223.212C108.941 222.811 108.442 222.61 107.807 222.61ZM113.151 227.216C112.535 226.581 112.227 225.793 112.227 224.85C112.227 223.898 112.535 223.114 113.151 222.498C113.776 221.873 114.588 221.56 115.587 221.56C116.585 221.56 117.393 221.873 118.009 222.498C118.634 223.114 118.947 223.898 118.947 224.85C118.947 225.802 118.634 226.591 118.009 227.216C117.393 227.832 116.585 228.14 115.587 228.14C114.597 228.14 113.785 227.832 113.151 227.216ZM114.033 223.24C113.622 223.651 113.417 224.187 113.417 224.85C113.417 225.513 113.617 226.049 114.019 226.46C114.429 226.88 114.952 227.09 115.587 227.09C116.221 227.09 116.739 226.885 117.141 226.474C117.551 226.054 117.757 225.513 117.757 224.85C117.757 224.206 117.551 223.669 117.141 223.24C116.739 222.82 116.221 222.61 115.587 222.61C114.952 222.61 114.434 222.82 114.033 223.24ZM125.749 228H124.629V222.82H122.417L122.347 223.884C122.272 224.752 122.16 225.475 122.011 226.054C121.871 226.623 121.684 227.053 121.451 227.342C121.227 227.622 120.989 227.818 120.737 227.93C120.485 228.033 120.177 228.084 119.813 228.084L119.729 226.992C119.831 227.001 119.939 226.987 120.051 226.95C120.163 226.903 120.284 226.81 120.415 226.67C120.555 226.53 120.676 226.343 120.779 226.11C120.891 225.877 120.989 225.55 121.073 225.13C121.166 224.701 121.227 224.211 121.255 223.66L121.367 221.7L125.749 221.7V228ZM129.896 228H127.768V221.7H128.888V223.59H130.036C130.894 223.59 131.524 223.786 131.926 224.178C132.327 224.561 132.528 225.088 132.528 225.76C132.528 226.395 132.318 226.927 131.898 227.356C131.478 227.785 130.81 228 129.896 228ZM129.826 224.64H128.888V226.95H129.812C130.829 226.95 131.338 226.567 131.338 225.802C131.338 225.027 130.834 224.64 129.826 224.64Z" fill="white"/>
</g>
<rect y="239" width="30" height="21" rx="10" fill="#D91515" fill-opacity="0.4"/>
<path d="M18.1256 244.9H19.4386L16.2146 249.372L19.5556 254H18.2426L15.4866 250.217L12.7436 254H11.4436L14.7846 249.372L11.5866 244.9H12.8866L15.5256 248.54L18.1256 244.9Z" fill="white"/>
<g filter="url(#filter3_d)">
<path d="M33.414 254H32.21L36.424 244.144H37.446L41.66 254H40.386L39.126 251.032H34.66L33.414 254ZM38.664 249.912L36.9 245.726L35.136 249.912H38.664ZM42.8791 254V247.7C42.9258 247.7 42.9911 247.7 43.0751 247.7C43.1591 247.691 43.2804 247.686 43.4391 247.686C43.5978 247.677 43.7424 247.672 43.8731 247.672C44.5638 247.653 44.9931 247.644 45.1611 247.644C46.9718 247.644 47.8771 248.185 47.8771 249.268C47.8771 249.641 47.7604 249.963 47.5271 250.234C47.2938 250.495 46.9904 250.654 46.6171 250.71V250.738C47.5971 250.915 48.0871 251.41 48.0871 252.222C48.0871 253.445 47.1211 254.056 45.1891 254.056C45.0958 254.056 44.6851 254.047 43.9571 254.028C43.8171 254.028 43.6631 254.023 43.4951 254.014C43.3271 254.014 43.1964 254.009 43.1031 254C43.0098 254 42.9351 254 42.8791 254ZM45.3431 251.172H43.9991V253.104C44.6711 253.132 45.1004 253.146 45.2871 253.146C46.3604 253.146 46.8971 252.81 46.8971 252.138C46.8971 251.494 46.3791 251.172 45.3431 251.172ZM45.2451 248.554C44.9744 248.554 44.5591 248.568 43.9991 248.596V250.472H45.4131C45.7958 250.472 46.1038 250.383 46.3371 250.206C46.5704 250.029 46.6871 249.791 46.6871 249.492C46.6871 248.867 46.2064 248.554 45.2451 248.554ZM51.3091 248.82H48.9991V247.7H54.7391V248.82H52.4291V254H51.3091V248.82ZM56.262 253.216C55.646 252.581 55.338 251.793 55.338 250.85C55.338 249.898 55.646 249.114 56.262 248.498C56.8873 247.873 57.6993 247.56 58.698 247.56C59.6967 247.56 60.504 247.873 61.12 248.498C61.7453 249.114 62.058 249.898 62.058 250.85C62.058 251.802 61.7453 252.591 61.12 253.216C60.504 253.832 59.6967 254.14 58.698 254.14C57.7087 254.14 56.8967 253.832 56.262 253.216ZM57.144 249.24C56.7333 249.651 56.528 250.187 56.528 250.85C56.528 251.513 56.7287 252.049 57.13 252.46C57.5407 252.88 58.0633 253.09 58.698 253.09C59.3327 253.09 59.8507 252.885 60.252 252.474C60.6627 252.054 60.868 251.513 60.868 250.85C60.868 250.206 60.6627 249.669 60.252 249.24C59.8507 248.82 59.3327 248.61 58.698 248.61C58.0633 248.61 57.5453 248.82 57.144 249.24ZM69.344 254H68.224V248.75H64.794V254H63.674V247.7H69.344V254ZM76.1313 249.31L72.4913 254H71.3713V247.7H72.4913V252.39L76.1313 247.7H77.2513V254H76.1313V249.31ZM84.7193 254H83.5993V248.82H81.3873L81.3173 249.884C81.2426 250.752 81.1306 251.475 80.9813 252.054C80.8413 252.623 80.6546 253.053 80.4213 253.342C80.1973 253.622 79.9593 253.818 79.7073 253.93C79.4553 254.033 79.1473 254.084 78.7833 254.084L78.6993 252.992C78.802 253.001 78.9093 252.987 79.0213 252.95C79.1333 252.903 79.2546 252.81 79.3853 252.67C79.5253 252.53 79.6466 252.343 79.7493 252.11C79.8613 251.877 79.9593 251.55 80.0433 251.13C80.1366 250.701 80.1973 250.211 80.2253 249.66L80.3373 247.7H84.7193V254ZM87.2425 253.216C86.6265 252.581 86.3185 251.793 86.3185 250.85C86.3185 249.898 86.6265 249.114 87.2425 248.498C87.8678 247.873 88.6798 247.56 89.6785 247.56C90.6771 247.56 91.4845 247.873 92.1005 248.498C92.7258 249.114 93.0385 249.898 93.0385 250.85C93.0385 251.802 92.7258 252.591 92.1005 253.216C91.4845 253.832 90.6771 254.14 89.6785 254.14C88.6891 254.14 87.8771 253.832 87.2425 253.216ZM88.1245 249.24C87.7138 249.651 87.5085 250.187 87.5085 250.85C87.5085 251.513 87.7091 252.049 88.1105 252.46C88.5211 252.88 89.0438 253.09 89.6785 253.09C90.3131 253.09 90.8311 252.885 91.2325 252.474C91.6431 252.054 91.8485 251.513 91.8485 250.85C91.8485 250.206 91.6431 249.669 91.2325 249.24C90.8311 248.82 90.3131 248.61 89.6785 248.61C89.0438 248.61 88.5258 248.82 88.1245 249.24ZM95.9204 248.82H93.6104V247.7H99.3504V248.82H97.0404V254H95.9204V248.82Z" fill="white"/>
</g>
<rect y="135" width="30" height="21" rx="10" fill="#D91515" fill-opacity="0.4"/>
<path d="M15.4608 140.9H16.5658V147.933C16.5658 149.398 15.9028 150.13 14.5768 150.13C13.9788 150.13 13.5195 149.97 13.1988 149.649L13.5758 148.804C13.8185 148.995 14.1045 149.09 14.4338 149.09C15.1185 149.09 15.4608 148.644 15.4608 147.751V140.9Z" fill="white"/>
<g filter="url(#filter4_d)">
<path d="M41.17 150H39.98V141.32H34.66V150H33.47V140.2H41.17V150ZM44.7647 152.8H43.6447V143.7H44.7647V144.442C44.9887 144.181 45.2967 143.971 45.6887 143.812C46.0807 143.644 46.4867 143.56 46.9067 143.56C47.8027 143.56 48.5074 143.859 49.0207 144.456C49.5527 145.044 49.8187 145.809 49.8187 146.752C49.8187 147.713 49.5154 148.521 48.9087 149.174C48.3114 149.818 47.5227 150.14 46.5427 150.14C45.7867 150.14 45.1941 149.995 44.7647 149.706V152.8ZM46.5847 144.61C45.8381 144.61 45.2314 144.899 44.7647 145.478V148.6C45.2594 148.927 45.8194 149.09 46.4447 149.09C47.1074 149.09 47.6347 148.88 48.0267 148.46C48.4281 148.031 48.6287 147.475 48.6287 146.794C48.6287 146.131 48.4467 145.604 48.0827 145.212C47.7187 144.811 47.2194 144.61 46.5847 144.61ZM56.184 145.31L52.544 150H51.424V143.7H52.544V148.39L56.184 143.7H57.304V150H56.184V145.31ZM64.184 148.278L64.716 149.09C64.1747 149.79 63.3674 150.14 62.294 150.14C61.286 150.14 60.4694 149.841 59.844 149.244C59.228 148.647 58.92 147.849 58.92 146.85C58.92 145.926 59.2234 145.147 59.83 144.512C60.4367 143.877 61.1974 143.56 62.112 143.56C63.2134 143.56 64.0394 143.835 64.59 144.386L64.072 145.268C63.5867 144.829 62.9847 144.61 62.266 144.61C61.678 144.61 61.1694 144.825 60.74 145.254C60.32 145.674 60.11 146.206 60.11 146.85C60.11 147.531 60.3247 148.073 60.754 148.474C61.1927 148.885 61.734 149.09 62.378 149.09C63.106 149.09 63.708 148.819 64.184 148.278ZM67.6059 144.82H65.2959V143.7H71.0359V144.82H68.7259V150H67.6059V144.82ZM77.0249 148.432L77.3749 149.314C76.7682 149.865 75.9795 150.14 75.0089 150.14C73.9822 150.14 73.1655 149.841 72.5589 149.244C71.9429 148.647 71.6349 147.849 71.6349 146.85C71.6349 145.907 71.9242 145.123 72.5029 144.498C73.0722 143.873 73.8655 143.56 74.8829 143.56C75.7229 143.56 76.4182 143.831 76.9689 144.372C77.5289 144.904 77.8089 145.595 77.8089 146.444C77.8089 146.715 77.7855 146.967 77.7389 147.2H72.8949C72.9415 147.788 73.1609 148.25 73.5529 148.586C73.9542 148.922 74.4675 149.09 75.0929 149.09C75.9142 149.09 76.5582 148.871 77.0249 148.432ZM74.8269 144.61C74.2762 144.61 73.8189 144.764 73.4549 145.072C73.1002 145.38 72.8902 145.786 72.8249 146.29H76.6469C76.6189 145.767 76.4415 145.357 76.1149 145.058C75.7975 144.759 75.3682 144.61 74.8269 144.61ZM80.4483 150H79.3283V143.7H83.3183V144.75H80.4483V150ZM90.1406 150H89.0206V147.34H85.5206V150H84.4006V143.7H85.5206V146.29H89.0206V143.7H90.1406V150ZM96.6182 143.7H97.8922L95.3722 150C94.9149 151.111 94.5182 151.848 94.1822 152.212C93.8275 152.604 93.4215 152.8 92.9642 152.8C92.5535 152.8 92.1569 152.669 91.7742 152.408L92.1382 151.554C92.4369 151.694 92.6702 151.764 92.8382 151.764C93.0995 151.764 93.3329 151.652 93.5382 151.428C93.7529 151.204 93.9675 150.84 94.1822 150.336L94.3222 150L91.2982 143.7H92.6422L94.4902 147.704C94.5275 147.769 94.6535 148.087 94.8682 148.656C94.9522 148.348 95.0502 148.026 95.1622 147.69L96.6182 143.7ZM100.678 144.82H98.3682V143.7H104.108V144.82H101.798V150H100.678V144.82ZM107.46 150H105.332V143.7H106.452V145.59H107.6C108.459 145.59 109.089 145.786 109.49 146.178C109.892 146.561 110.092 147.088 110.092 147.76C110.092 148.395 109.882 148.927 109.462 149.356C109.042 149.785 108.375 150 107.46 150ZM107.39 146.64H106.452V148.95H107.376C108.394 148.95 108.902 148.567 108.902 147.802C108.902 147.027 108.398 146.64 107.39 146.64ZM116.356 148.278L116.888 149.09C116.347 149.79 115.539 150.14 114.466 150.14C113.458 150.14 112.641 149.841 112.016 149.244C111.4 148.647 111.092 147.849 111.092 146.85C111.092 145.926 111.395 145.147 112.002 144.512C112.609 143.877 113.369 143.56 114.284 143.56C115.385 143.56 116.211 143.835 116.762 144.386L116.244 145.268C115.759 144.829 115.157 144.61 114.438 144.61C113.85 144.61 113.341 144.825 112.912 145.254C112.492 145.674 112.282 146.206 112.282 146.85C112.282 147.531 112.497 148.073 112.926 148.474C113.365 148.885 113.906 149.09 114.55 149.09C115.278 149.09 115.88 148.819 116.356 148.278ZM120.805 143.7L122.765 143.7V150H121.645V147.9L120.427 147.9L118.887 150H117.529L119.349 147.62C118.966 147.536 118.644 147.331 118.383 147.004C118.122 146.668 117.991 146.267 117.991 145.8C117.991 145.156 118.224 144.647 118.691 144.274C119.158 143.891 119.862 143.7 120.805 143.7ZM119.181 145.828C119.181 146.127 119.298 146.374 119.531 146.57C119.764 146.757 120.04 146.85 120.357 146.85L121.645 146.85V144.75L120.623 144.75C120.147 144.75 119.788 144.848 119.545 145.044C119.302 145.24 119.181 145.501 119.181 145.828Z" fill="white"/>
</g>
<rect y="109" width="30" height="21" rx="10" fill="#D91515" fill-opacity="0.4"/>
<path d="M18.2083 124H12.6573V123.155C13.8359 122.002 14.7026 121.084 15.2573 120.399C16.2366 119.168 16.7263 118.137 16.7263 117.305C16.7263 116.872 16.5919 116.521 16.3233 116.252C16.0633 115.975 15.7036 115.836 15.2443 115.836C14.8456 115.836 14.4946 115.966 14.1913 116.226C13.8966 116.477 13.7059 116.833 13.6193 117.292L12.7353 116.928C12.8393 116.278 13.1296 115.762 13.6063 115.381C14.0916 114.991 14.6679 114.796 15.3353 114.796C16.1326 114.796 16.7479 115.026 17.1813 115.485C17.6146 115.944 17.8313 116.482 17.8313 117.097C17.8313 118.267 17.2723 119.511 16.1543 120.828C15.6516 121.417 15.2486 121.859 14.9453 122.154C14.6853 122.414 14.3733 122.704 14.0093 123.025H18.2083V124Z" fill="white"/>
<g filter="url(#filter5_d)">
<path d="M35.766 124.14C35.0847 124.14 34.45 123.995 33.862 123.706C33.2833 123.417 32.8493 123.048 32.56 122.6L33.218 121.802C33.526 122.166 33.9087 122.46 34.366 122.684C34.8327 122.908 35.276 123.02 35.696 123.02C36.368 123.02 36.9047 122.852 37.306 122.516C37.7167 122.18 37.922 121.723 37.922 121.144C37.922 120.659 37.754 120.271 37.418 119.982C37.082 119.693 36.6107 119.548 36.004 119.548H34.87V118.428H35.92C36.3493 118.428 36.7273 118.274 37.054 117.966C37.3807 117.639 37.544 117.243 37.544 116.776C37.544 116.272 37.3807 115.88 37.054 115.6C36.7273 115.32 36.298 115.18 35.766 115.18C34.898 115.18 34.156 115.544 33.54 116.272L32.84 115.488C33.176 115.04 33.6147 114.69 34.156 114.438C34.6973 114.186 35.276 114.06 35.892 114.06C36.76 114.06 37.4507 114.293 37.964 114.76C38.4773 115.217 38.734 115.852 38.734 116.664C38.734 117.121 38.608 117.555 38.356 117.966C38.1133 118.367 37.768 118.68 37.32 118.904V118.946C37.8893 119.058 38.328 119.324 38.636 119.744C38.9533 120.155 39.112 120.659 39.112 121.256C39.112 122.143 38.7853 122.843 38.132 123.356C37.4787 123.879 36.69 124.14 35.766 124.14ZM41.4378 119.03L41.1438 118.134C41.7691 117.751 42.4691 117.56 43.2438 117.56C44.0931 117.56 44.7091 117.77 45.0918 118.19C45.4744 118.61 45.6658 119.259 45.6658 120.136V124H44.6018V123.188C44.1071 123.795 43.4351 124.098 42.5858 124.098C42.0071 124.098 41.5404 123.925 41.1858 123.58C40.8311 123.225 40.6538 122.749 40.6538 122.152C40.6538 121.536 40.8731 121.051 41.3118 120.696C41.7504 120.332 42.3244 120.15 43.0338 120.15C43.6964 120.15 44.2191 120.285 44.6018 120.556C44.6018 119.847 44.5038 119.338 44.3078 119.03C44.1118 118.722 43.7338 118.568 43.1738 118.568C42.6044 118.568 42.0258 118.722 41.4378 119.03ZM42.9778 123.09C43.6031 123.09 44.1444 122.819 44.6018 122.278V121.48C44.2098 121.2 43.7384 121.06 43.1878 121.06C42.8051 121.06 42.4831 121.153 42.2218 121.34C41.9698 121.517 41.8438 121.769 41.8438 122.096C41.8438 122.404 41.9418 122.647 42.1378 122.824C42.3431 123.001 42.6231 123.09 42.9778 123.09ZM47.5412 124V117.7C47.5879 117.7 47.6532 117.7 47.7372 117.7C47.8212 117.691 47.9425 117.686 48.1012 117.686C48.2599 117.677 48.4045 117.672 48.5352 117.672C49.2259 117.653 49.6552 117.644 49.8232 117.644C51.6339 117.644 52.5392 118.185 52.5392 119.268C52.5392 119.641 52.4225 119.963 52.1892 120.234C51.9559 120.495 51.6525 120.654 51.2792 120.71V120.738C52.2592 120.915 52.7492 121.41 52.7492 122.222C52.7492 123.445 51.7832 124.056 49.8512 124.056C49.7579 124.056 49.3472 124.047 48.6192 124.028C48.4792 124.028 48.3252 124.023 48.1572 124.014C47.9892 124.014 47.8585 124.009 47.7652 124C47.6719 124 47.5972 124 47.5412 124ZM50.0052 121.172H48.6612V123.104C49.3332 123.132 49.7625 123.146 49.9492 123.146C51.0225 123.146 51.5592 122.81 51.5592 122.138C51.5592 121.494 51.0412 121.172 50.0052 121.172ZM49.9072 118.554C49.6365 118.554 49.2212 118.568 48.6612 118.596V120.472H50.0752C50.4579 120.472 50.7659 120.383 50.9992 120.206C51.2325 120.029 51.3492 119.791 51.3492 119.492C51.3492 118.867 50.8685 118.554 49.9072 118.554ZM59.4292 122.432L59.7792 123.314C59.1725 123.865 58.3838 124.14 57.4132 124.14C56.3865 124.14 55.5698 123.841 54.9632 123.244C54.3472 122.647 54.0392 121.849 54.0392 120.85C54.0392 119.907 54.3285 119.123 54.9072 118.498C55.4765 117.873 56.2698 117.56 57.2872 117.56C58.1272 117.56 58.8225 117.831 59.3732 118.372C59.9332 118.904 60.2132 119.595 60.2132 120.444C60.2132 120.715 60.1898 120.967 60.1432 121.2H55.2992C55.3458 121.788 55.5652 122.25 55.9572 122.586C56.3585 122.922 56.8718 123.09 57.4972 123.09C58.3185 123.09 58.9625 122.871 59.4292 122.432ZM57.2312 118.61C56.6805 118.61 56.2232 118.764 55.8592 119.072C55.5045 119.38 55.2945 119.786 55.2292 120.29H59.0512C59.0232 119.767 58.8458 119.357 58.5192 119.058C58.2018 118.759 57.7725 118.61 57.2312 118.61ZM66.4946 122.278L67.0266 123.09C66.4852 123.79 65.6779 124.14 64.6046 124.14C63.5966 124.14 62.7799 123.841 62.1546 123.244C61.5386 122.647 61.2306 121.849 61.2306 120.85C61.2306 119.926 61.5339 119.147 62.1406 118.512C62.7472 117.877 63.5079 117.56 64.4226 117.56C65.5239 117.56 66.3499 117.835 66.9006 118.386L66.3826 119.268C65.8972 118.829 65.2952 118.61 64.5766 118.61C63.9886 118.61 63.4799 118.825 63.0506 119.254C62.6306 119.674 62.4206 120.206 62.4206 120.85C62.4206 121.531 62.6352 122.073 63.0646 122.474C63.5032 122.885 64.0446 123.09 64.6886 123.09C65.4166 123.09 66.0186 122.819 66.4946 122.278ZM69.9165 118.82H67.6065V117.7H73.3465V118.82H71.0365V124H69.9165V118.82ZM79.3305 119.31L75.6905 124H74.5705V117.7H75.6905V122.39L79.3305 117.7H80.4505V124H79.3305V119.31ZM85.813 125.54H84.763V122.95H85.547C85.7804 122.661 85.9857 122.194 86.163 121.55C86.3404 120.897 86.457 120.169 86.513 119.366L86.611 117.7H90.909V122.95H91.959V125.54H90.909V124H85.813V125.54ZM87.661 118.75L87.591 119.8C87.535 120.5 87.423 121.139 87.255 121.718C87.087 122.297 86.9144 122.707 86.737 122.95H89.789V118.75H87.661ZM93.1779 124V117.7C93.2246 117.7 93.2899 117.7 93.3739 117.7C93.4579 117.691 93.5793 117.686 93.7379 117.686C93.8966 117.677 94.0413 117.672 94.1719 117.672C94.8626 117.653 95.2919 117.644 95.4599 117.644C97.2706 117.644 98.1759 118.185 98.1759 119.268C98.1759 119.641 98.0593 119.963 97.8259 120.234C97.5926 120.495 97.2893 120.654 96.9159 120.71V120.738C97.8959 120.915 98.3859 121.41 98.3859 122.222C98.3859 123.445 97.4199 124.056 95.4879 124.056C95.3946 124.056 94.9839 124.047 94.2559 124.028C94.1159 124.028 93.9619 124.023 93.7939 124.014C93.6259 124.014 93.4953 124.009 93.4019 124C93.3086 124 93.2339 124 93.1779 124ZM95.6419 121.172H94.2979V123.104C94.9699 123.132 95.3993 123.146 95.5859 123.146C96.6593 123.146 97.1959 122.81 97.1959 122.138C97.1959 121.494 96.6779 121.172 95.6419 121.172ZM95.5439 118.554C95.2733 118.554 94.8579 118.568 94.2979 118.596V120.472H95.7119C96.0946 120.472 96.4026 120.383 96.6359 120.206C96.8693 120.029 96.9859 119.791 96.9859 119.492C96.9859 118.867 96.5053 118.554 95.5439 118.554ZM104.856 119.31L101.216 124H100.096V117.7H101.216V122.39L104.856 117.7H105.976V124H104.856V119.31ZM109.132 124H108.012V117.7H112.002V118.75H109.132V124ZM113.42 119.03L113.126 118.134C113.752 117.751 114.452 117.56 115.226 117.56C116.076 117.56 116.692 117.77 117.074 118.19C117.457 118.61 117.648 119.259 117.648 120.136V124H116.584V123.188C116.09 123.795 115.418 124.098 114.568 124.098C113.99 124.098 113.523 123.925 113.168 123.58C112.814 123.225 112.636 122.749 112.636 122.152C112.636 121.536 112.856 121.051 113.294 120.696C113.733 120.332 114.307 120.15 115.016 120.15C115.679 120.15 116.202 120.285 116.584 120.556C116.584 119.847 116.486 119.338 116.29 119.03C116.094 118.722 115.716 118.568 115.156 118.568C114.587 118.568 114.008 118.722 113.42 119.03ZM114.96 123.09C115.586 123.09 116.127 122.819 116.584 122.278V121.48C116.192 121.2 115.721 121.06 115.17 121.06C114.788 121.06 114.466 121.153 114.204 121.34C113.952 121.517 113.826 121.769 113.826 122.096C113.826 122.404 113.924 122.647 114.12 122.824C114.326 123.001 114.606 123.09 114.96 123.09ZM121.036 118.82H118.726V117.7H124.466V118.82H122.156V124H121.036V118.82ZM130.455 122.432L130.805 123.314C130.198 123.865 129.409 124.14 128.439 124.14C127.412 124.14 126.595 123.841 125.989 123.244C125.373 122.647 125.065 121.849 125.065 120.85C125.065 119.907 125.354 119.123 125.933 118.498C126.502 117.873 127.295 117.56 128.313 117.56C129.153 117.56 129.848 117.831 130.399 118.372C130.959 118.904 131.239 119.595 131.239 120.444C131.239 120.715 131.215 120.967 131.169 121.2H126.325C126.371 121.788 126.591 122.25 126.983 122.586C127.384 122.922 127.897 123.09 128.523 123.09C129.344 123.09 129.988 122.871 130.455 122.432ZM128.257 118.61C127.706 118.61 127.249 118.764 126.885 119.072C126.53 119.38 126.32 119.786 126.255 120.29H130.077C130.049 119.767 129.871 119.357 129.545 119.058C129.227 118.759 128.798 118.61 128.257 118.61ZM137.944 124H136.824V118.82H134.612L134.542 119.884C134.467 120.752 134.355 121.475 134.206 122.054C134.066 122.623 133.879 123.053 133.646 123.342C133.422 123.622 133.184 123.818 132.932 123.93C132.68 124.033 132.372 124.084 132.008 124.084L131.924 122.992C132.027 123.001 132.134 122.987 132.246 122.95C132.358 122.903 132.479 122.81 132.61 122.67C132.75 122.53 132.871 122.343 132.974 122.11C133.086 121.877 133.184 121.55 133.268 121.13C133.361 120.701 133.422 120.211 133.45 119.66L133.562 117.7H137.944V124ZM142.091 124H139.963V117.7H141.083V119.59H142.231C143.09 119.59 143.72 119.786 144.121 120.178C144.522 120.561 144.723 121.088 144.723 121.76C144.723 122.395 144.513 122.927 144.093 123.356C143.673 123.785 143.006 124 142.091 124ZM142.021 120.64H141.083V122.95H142.007C143.024 122.95 143.533 122.567 143.533 121.802C143.533 121.027 143.029 120.64 142.021 120.64Z" fill="white"/>
</g>
<rect y="5" width="30" height="21" rx="10" fill="#D91515" fill-opacity="0.4"/>
<path d="M14.4493 11.94H11.2643V10.9H18.7393V11.94H15.5543V20H14.4493V11.94Z" fill="white"/>
<g filter="url(#filter6_d)">
<path d="M38.44 10.2H39.63V20H38.44V15.716C37.74 16.22 36.8767 16.472 35.85 16.472C34.982 16.472 34.2773 16.22 33.736 15.716C33.1853 15.212 32.91 14.4233 32.91 13.35V10.2H34.1V13.028C34.1 14.5773 34.786 15.352 36.158 15.352C36.942 15.352 37.7027 15.1047 38.44 14.61V10.2ZM42.4495 15.03L42.1555 14.134C42.7808 13.7513 43.4808 13.56 44.2555 13.56C45.1048 13.56 45.7208 13.77 46.1035 14.19C46.4861 14.61 46.6775 15.2587 46.6775 16.136V20L45.6135 20V19.188C45.1188 19.7947 44.4468 20.098 43.5975 20.098C43.0188 20.098 42.5521 19.9253 42.1975 19.58C41.8428 19.2253 41.6655 18.7493 41.6655 18.152C41.6655 17.536 41.8848 17.0507 42.3235 16.696C42.7621 16.332 43.3361 16.15 44.0455 16.15C44.7081 16.15 45.2308 16.2853 45.6135 16.556C45.6135 15.8467 45.5155 15.338 45.3195 15.03C45.1235 14.722 44.7455 14.568 44.1855 14.568C43.6161 14.568 43.0375 14.722 42.4495 15.03ZM43.9895 19.09C44.6148 19.09 45.1561 18.8193 45.6135 18.278V17.48C45.2215 17.2 44.7501 17.06 44.1995 17.06C43.8168 17.06 43.4948 17.1533 43.2335 17.34C42.9815 17.5173 42.8555 17.7693 42.8555 18.096C42.8555 18.404 42.9535 18.6467 43.1495 18.824C43.3548 19.0013 43.6348 19.09 43.9895 19.09ZM50.0649 14.82L47.7549 14.82V13.7H53.4949V14.82H51.1849V20H50.0649V14.82Z" fill="white"/>
</g>
<g filter="url(#filter7_d)">
<path d="M35.57 63.32H32.14V62.2H40.19V63.32H36.76V72H35.57V63.32ZM44.4585 70.432L44.8085 71.314C44.2018 71.8647 43.4131 72.14 42.4425 72.14C41.4158 72.14 40.5991 71.8413 39.9925 71.244C39.3765 70.6467 39.0685 69.8487 39.0685 68.85C39.0685 67.9073 39.3578 67.1233 39.9365 66.498C40.5058 65.8727 41.2991 65.56 42.3165 65.56C43.1565 65.56 43.8518 65.8307 44.4025 66.372C44.9625 66.904 45.2425 67.5947 45.2425 68.444C45.2425 68.7147 45.2191 68.9667 45.1725 69.2H40.3285C40.3751 69.788 40.5945 70.25 40.9865 70.586C41.3878 70.922 41.9011 71.09 42.5265 71.09C43.3478 71.09 43.9918 70.8707 44.4585 70.432ZM42.2605 66.61C41.7098 66.61 41.2525 66.764 40.8885 67.072C40.5338 67.38 40.3238 67.786 40.2585 68.29H44.0805C44.0525 67.7673 43.8751 67.3567 43.5485 67.058C43.2311 66.7593 42.8018 66.61 42.2605 66.61ZM51.9478 72H50.8278V66.82H48.6158L48.5458 67.884C48.4711 68.752 48.3591 69.4753 48.2098 70.054C48.0698 70.6233 47.8831 71.0527 47.6498 71.342C47.4258 71.622 47.1878 71.818 46.9358 71.93C46.6838 72.0327 46.3758 72.084 46.0118 72.084L45.9278 70.992C46.0305 71.0013 46.1378 70.9873 46.2498 70.95C46.3618 70.9033 46.4831 70.81 46.6138 70.67C46.7538 70.53 46.8751 70.3433 46.9778 70.11C47.0898 69.8767 47.1878 69.55 47.2718 69.13C47.3651 68.7007 47.4258 68.2107 47.4538 67.66L47.5658 65.7H51.9478V72ZM58.937 70.432L59.287 71.314C58.6803 71.8647 57.8917 72.14 56.921 72.14C55.8943 72.14 55.0777 71.8413 54.471 71.244C53.855 70.6467 53.547 69.8487 53.547 68.85C53.547 67.9073 53.8363 67.1233 54.415 66.498C54.9843 65.8727 55.7777 65.56 56.795 65.56C57.635 65.56 58.3303 65.8307 58.881 66.372C59.441 66.904 59.721 67.5947 59.721 68.444C59.721 68.7147 59.6977 68.9667 59.651 69.2H54.807C54.8537 69.788 55.073 70.25 55.465 70.586C55.8663 70.922 56.3797 71.09 57.005 71.09C57.8263 71.09 58.4703 70.8707 58.937 70.432ZM56.739 66.61C56.1883 66.61 55.731 66.764 55.367 67.072C55.0123 67.38 54.8023 67.786 54.737 68.29H58.559C58.531 67.7673 58.3537 67.3567 58.027 67.058C57.7097 66.7593 57.2803 66.61 56.739 66.61ZM65.4284 74.8H64.3084V72.14H64.1544C63.0997 72.14 62.2644 71.832 61.6484 71.216C61.0417 70.5907 60.7384 69.802 60.7384 68.85C60.7384 67.9447 61.0464 67.17 61.6624 66.526C62.2784 65.882 63.1044 65.56 64.1404 65.56H64.3084V62.2H65.4284V65.56H65.6104C66.6371 65.56 67.4584 65.8727 68.0744 66.498C68.6904 67.1233 68.9984 67.9073 68.9984 68.85C68.9984 69.83 68.6997 70.6233 68.1024 71.23C67.5144 71.8367 66.6837 72.14 65.6104 72.14H65.4284V74.8ZM61.9284 68.85C61.9284 69.5313 62.1291 70.0773 62.5304 70.488C62.9411 70.8893 63.4964 71.09 64.1964 71.09H64.3084V66.61H64.1264C63.4451 66.61 62.9084 66.82 62.5164 67.24C62.1244 67.6507 61.9284 68.1873 61.9284 68.85ZM65.6104 66.61H65.4284V71.09H65.5544C66.2637 71.09 66.8144 70.8893 67.2064 70.488C67.6077 70.0773 67.8084 69.5313 67.8084 68.85C67.8084 68.234 67.6124 67.7067 67.2204 67.268C66.8284 66.8293 66.2917 66.61 65.6104 66.61ZM71.1097 71.216C70.4937 70.5813 70.1857 69.7927 70.1857 68.85C70.1857 67.898 70.4937 67.114 71.1097 66.498C71.735 65.8727 72.547 65.56 73.5457 65.56C74.5443 65.56 75.3517 65.8727 75.9677 66.498C76.593 67.114 76.9057 67.898 76.9057 68.85C76.9057 69.802 76.593 70.5907 75.9677 71.216C75.3517 71.832 74.5443 72.14 73.5457 72.14C72.5563 72.14 71.7443 71.832 71.1097 71.216ZM71.9917 67.24C71.581 67.6507 71.3757 68.1873 71.3757 68.85C71.3757 69.5127 71.5763 70.0493 71.9777 70.46C72.3883 70.88 72.911 71.09 73.5457 71.09C74.1803 71.09 74.6983 70.8847 75.0997 70.474C75.5103 70.054 75.7157 69.5127 75.7157 68.85C75.7157 68.206 75.5103 67.6693 75.0997 67.24C74.6983 66.82 74.1803 66.61 73.5457 66.61C72.911 66.61 72.393 66.82 71.9917 67.24ZM84.2617 72H83.1417V69.34H79.6417V72L78.5217 72V65.7H79.6417V68.29H83.1417V65.7H84.2617V72Z" fill="white"/>
</g>
<rect y="57" width="30" height="21" rx="10" fill="#D91515" fill-opacity="0.4"/>
<path d="M11.9865 66.6938L12.9371 67.6194C13.0019 67.6827 13.1054 67.6825 13.1701 67.619L14.7695 66.0507L14.7695 72.8333C14.7695 72.9253 14.8442 73 14.9362 73L16.2695 73C16.3615 73 16.4362 72.9253 16.4362 72.8333L16.4362 66.0507L18.0357 67.619C18.1004 67.6824 18.2037 67.6825 18.2685 67.6194L19.219 66.6938C19.2513 66.6625 19.2695 66.6195 19.2695 66.5745C19.2695 66.5295 19.2512 66.4865 19.219 66.4552L15.719 63.0474C15.6867 63.0159 15.6447 63 15.6029 63C15.5609 63 15.519 63.0159 15.4865 63.0474L11.9865 66.4552C11.9544 66.4865 11.9362 66.5295 11.9362 66.5745C11.9362 66.6195 11.9544 66.6625 11.9865 66.6938Z" fill="white"/>
<g filter="url(#filter8_d)">
<path d="M33.414 202H32.21L36.424 192.144H37.446L41.66 202H40.386L39.126 199.032H34.66L33.414 202ZM38.664 197.912L36.9 193.726L35.136 197.912H38.664ZM42.8791 202V195.7C42.9258 195.7 42.9911 195.7 43.0751 195.7C43.1591 195.691 43.2804 195.686 43.4391 195.686C43.5978 195.677 43.7424 195.672 43.8731 195.672C44.5638 195.653 44.9931 195.644 45.1611 195.644C46.9718 195.644 47.8771 196.185 47.8771 197.268C47.8771 197.641 47.7604 197.963 47.5271 198.234C47.2938 198.495 46.9904 198.654 46.6171 198.71V198.738C47.5971 198.915 48.0871 199.41 48.0871 200.222C48.0871 201.445 47.1211 202.056 45.1891 202.056C45.0958 202.056 44.6851 202.047 43.9571 202.028C43.8171 202.028 43.6631 202.023 43.4951 202.014C43.3271 202.014 43.1964 202.009 43.1031 202C43.0098 202 42.9351 202 42.8791 202ZM45.3431 199.172H43.9991V201.104C44.6711 201.132 45.1004 201.146 45.2871 201.146C46.3604 201.146 46.8971 200.81 46.8971 200.138C46.8971 199.494 46.3791 199.172 45.3431 199.172ZM45.2451 196.554C44.9744 196.554 44.5591 196.568 43.9991 196.596V198.472H45.4131C45.7958 198.472 46.1038 198.383 46.3371 198.206C46.5704 198.029 46.6871 197.791 46.6871 197.492C46.6871 196.867 46.2064 196.554 45.2451 196.554ZM50.1331 197.03L49.8391 196.134C50.4644 195.751 51.1644 195.56 51.9391 195.56C52.7884 195.56 53.4044 195.77 53.7871 196.19C54.1697 196.61 54.3611 197.259 54.3611 198.136V202H53.2971V201.188C52.8024 201.795 52.1304 202.098 51.2811 202.098C50.7024 202.098 50.2357 201.925 49.8811 201.58C49.5264 201.225 49.3491 200.749 49.3491 200.152C49.3491 199.536 49.5684 199.051 50.0071 198.696C50.4457 198.332 51.0197 198.15 51.7291 198.15C52.3917 198.15 52.9144 198.285 53.2971 198.556C53.2971 197.847 53.1991 197.338 53.0031 197.03C52.8071 196.722 52.4291 196.568 51.8691 196.568C51.2997 196.568 50.7211 196.722 50.1331 197.03ZM51.6731 201.09C52.2984 201.09 52.8397 200.819 53.2971 200.278V199.48C52.9051 199.2 52.4337 199.06 51.8831 199.06C51.5004 199.06 51.1784 199.153 50.9171 199.34C50.6651 199.517 50.5391 199.769 50.5391 200.096C50.5391 200.404 50.6371 200.647 50.8331 200.824C51.0384 201.001 51.3184 201.09 51.6731 201.09ZM57.3565 204.8H56.2365V195.7H57.3565V196.442C57.5805 196.181 57.8885 195.971 58.2805 195.812C58.6725 195.644 59.0785 195.56 59.4985 195.56C60.3945 195.56 61.0992 195.859 61.6125 196.456C62.1445 197.044 62.4105 197.809 62.4105 198.752C62.4105 199.713 62.1072 200.521 61.5005 201.174C60.9032 201.818 60.1145 202.14 59.1345 202.14C58.3785 202.14 57.7858 201.995 57.3565 201.706V204.8ZM59.1765 196.61C58.4298 196.61 57.8232 196.899 57.3565 197.478V200.6C57.8512 200.927 58.4112 201.09 59.0365 201.09C59.6992 201.09 60.2265 200.88 60.6185 200.46C61.0198 200.031 61.2205 199.475 61.2205 198.794C61.2205 198.131 61.0385 197.604 60.6745 197.212C60.3105 196.811 59.8112 196.61 59.1765 196.61ZM68.7758 197.31L65.1358 202H64.0158V195.7H65.1358V200.39L68.7758 195.7H69.8958V202H68.7758V197.31ZM76.6918 197.31L73.0518 202H71.9318V195.7H73.0518V200.39L76.6918 195.7H77.8118V202H76.6918V197.31ZM72.8278 192.48H73.8778C73.9338 193.217 74.2932 193.586 74.9558 193.586C75.5812 193.586 75.9218 193.217 75.9778 192.48H77.0278C77.0278 193.049 76.8318 193.521 76.4398 193.894C76.0572 194.258 75.5625 194.44 74.9558 194.44C74.2932 194.44 73.7705 194.263 73.3878 193.908C73.0145 193.544 72.8278 193.068 72.8278 192.48ZM83.8938 195.7H85.3638L82.6058 198.71L85.6298 202H84.0758L81.2338 198.78L83.8938 195.7ZM80.9678 202H79.8478V195.7H80.9678V202ZM87.1565 197.03L86.8625 196.134C87.4878 195.751 88.1878 195.56 88.9625 195.56C89.8118 195.56 90.4278 195.77 90.8105 196.19C91.1932 196.61 91.3845 197.259 91.3845 198.136V202H90.3205V201.188C89.8258 201.795 89.1538 202.098 88.3045 202.098C87.7258 202.098 87.2592 201.925 86.9045 201.58C86.5498 201.225 86.3725 200.749 86.3725 200.152C86.3725 199.536 86.5918 199.051 87.0305 198.696C87.4692 198.332 88.0432 198.15 88.7525 198.15C89.4152 198.15 89.9378 198.285 90.3205 198.556C90.3205 197.847 90.2225 197.338 90.0265 197.03C89.8305 196.722 89.4525 196.568 88.8925 196.568C88.3232 196.568 87.7445 196.722 87.1565 197.03ZM88.6965 201.09C89.3218 201.09 89.8632 200.819 90.3205 200.278V199.48C89.9285 199.2 89.4572 199.06 88.9065 199.06C88.5238 199.06 88.2018 199.153 87.9405 199.34C87.6885 199.517 87.5625 199.769 87.5625 200.096C87.5625 200.404 87.6605 200.647 87.8565 200.824C88.0618 201.001 88.3418 201.09 88.6965 201.09Z" fill="white"/>
</g>
<rect y="187" width="30" height="21" rx="10" fill="#D91515" fill-opacity="0.4"/>
<path d="M19.2205 199.306L18.27 198.381C18.2052 198.317 18.1016 198.317 18.037 198.381L16.4375 199.949V193.167C16.4375 193.075 16.3628 193 16.2708 193H14.9375C14.8455 193 14.7708 193.075 14.7708 193.167V199.949L13.1713 198.381C13.1067 198.318 13.0033 198.317 12.9385 198.381L11.988 199.306C11.9557 199.337 11.9375 199.38 11.9375 199.425C11.9375 199.47 11.9558 199.513 11.988 199.545L15.488 202.953C15.5203 202.984 15.5623 203 15.6042 203C15.6462 203 15.688 202.984 15.7205 202.953L19.2205 199.545C19.2527 199.513 19.2708 199.47 19.2708 199.425C19.2708 199.38 19.2527 199.337 19.2205 199.306Z" fill="white"/>
<g filter="url(#filter9_d)">
<path d="M73.17 176H71.98V167.32H66.66V176H65.47V166.2H73.17V176ZM76.1487 175.216C75.5327 174.581 75.2247 173.793 75.2247 172.85C75.2247 171.898 75.5327 171.114 76.1487 170.498C76.7741 169.873 77.5861 169.56 78.5847 169.56C79.5834 169.56 80.3907 169.873 81.0067 170.498C81.6321 171.114 81.9447 171.898 81.9447 172.85C81.9447 173.802 81.6321 174.591 81.0067 175.216C80.3907 175.832 79.5834 176.14 78.5847 176.14C77.5954 176.14 76.7834 175.832 76.1487 175.216ZM77.0307 171.24C76.6201 171.651 76.4147 172.187 76.4147 172.85C76.4147 173.513 76.6154 174.049 77.0167 174.46C77.4274 174.88 77.9501 175.09 78.5847 175.09C79.2194 175.09 79.7374 174.885 80.1387 174.474C80.5494 174.054 80.7547 173.513 80.7547 172.85C80.7547 172.206 80.5494 171.669 80.1387 171.24C79.7374 170.82 79.2194 170.61 78.5847 170.61C77.9501 170.61 77.4321 170.82 77.0307 171.24ZM83.5607 176V169.7C83.6074 169.7 83.6727 169.7 83.7567 169.7C83.8407 169.691 83.9621 169.686 84.1207 169.686C84.2794 169.677 84.4241 169.672 84.5547 169.672C85.2454 169.653 85.6747 169.644 85.8427 169.644C87.6534 169.644 88.5587 170.185 88.5587 171.268C88.5587 171.641 88.4421 171.963 88.2087 172.234C87.9754 172.495 87.6721 172.654 87.2987 172.71V172.738C88.2787 172.915 88.7687 173.41 88.7687 174.222C88.7687 175.445 87.8027 176.056 85.8707 176.056C85.7774 176.056 85.3667 176.047 84.6387 176.028C84.4987 176.028 84.3447 176.023 84.1767 176.014C84.0087 176.014 83.8781 176.009 83.7847 176C83.6914 176 83.6167 176 83.5607 176ZM86.0247 173.172H84.6807V175.104C85.3527 175.132 85.7821 175.146 85.9687 175.146C87.0421 175.146 87.5787 174.81 87.5787 174.138C87.5787 173.494 87.0607 173.172 86.0247 173.172ZM85.9267 170.554C85.6561 170.554 85.2407 170.568 84.6807 170.596V172.472H86.0947C86.4774 172.472 86.7854 172.383 87.0187 172.206C87.2521 172.029 87.3687 171.791 87.3687 171.492C87.3687 170.867 86.8881 170.554 85.9267 170.554ZM90.9827 175.216C90.3667 174.581 90.0587 173.793 90.0587 172.85C90.0587 171.898 90.3667 171.114 90.9827 170.498C91.608 169.873 92.42 169.56 93.4187 169.56C94.4174 169.56 95.2247 169.873 95.8407 170.498C96.466 171.114 96.7787 171.898 96.7787 172.85C96.7787 173.802 96.466 174.591 95.8407 175.216C95.2247 175.832 94.4174 176.14 93.4187 176.14C92.4294 176.14 91.6174 175.832 90.9827 175.216ZM91.8647 171.24C91.454 171.651 91.2487 172.187 91.2487 172.85C91.2487 173.513 91.4494 174.049 91.8507 174.46C92.2614 174.88 92.784 175.09 93.4187 175.09C94.0534 175.09 94.5714 174.885 94.9727 174.474C95.3834 174.054 95.5887 173.513 95.5887 172.85C95.5887 172.206 95.3834 171.669 94.9727 171.24C94.5714 170.82 94.0534 170.61 93.4187 170.61C92.784 170.61 92.266 170.82 91.8647 171.24ZM99.5147 178.8H98.3947V169.7H99.5147V170.442C99.7387 170.181 100.047 169.971 100.439 169.812C100.831 169.644 101.237 169.56 101.657 169.56C102.553 169.56 103.257 169.859 103.771 170.456C104.303 171.044 104.569 171.809 104.569 172.752C104.569 173.713 104.265 174.521 103.659 175.174C103.061 175.818 102.273 176.14 101.293 176.14C100.537 176.14 99.9441 175.995 99.5147 175.706V178.8ZM101.335 170.61C100.588 170.61 99.9814 170.899 99.5147 171.478V174.6C100.009 174.927 100.569 175.09 101.195 175.09C101.857 175.09 102.385 174.88 102.777 174.46C103.178 174.031 103.379 173.475 103.379 172.794C103.379 172.131 103.197 171.604 102.833 171.212C102.469 170.811 101.969 170.61 101.335 170.61ZM106.678 175.216C106.062 174.581 105.754 173.793 105.754 172.85C105.754 171.898 106.062 171.114 106.678 170.498C107.303 169.873 108.115 169.56 109.114 169.56C110.113 169.56 110.92 169.873 111.536 170.498C112.161 171.114 112.474 171.898 112.474 172.85C112.474 173.802 112.161 174.591 111.536 175.216C110.92 175.832 110.113 176.14 109.114 176.14C108.125 176.14 107.313 175.832 106.678 175.216ZM107.56 171.24C107.149 171.651 106.944 172.187 106.944 172.85C106.944 173.513 107.145 174.049 107.546 174.46C107.957 174.88 108.479 175.09 109.114 175.09C109.749 175.09 110.267 174.885 110.668 174.474C111.079 174.054 111.284 173.513 111.284 172.85C111.284 172.206 111.079 171.669 110.668 171.24C110.267 170.82 109.749 170.61 109.114 170.61C108.479 170.61 107.961 170.82 107.56 171.24ZM115.356 170.82H113.046V169.7H118.786V170.82H116.476V176H115.356V170.82ZM125.75 176H124.63V173.34H121.13V176H120.01V169.7H121.13V172.29H124.63V169.7H125.75V176ZM132.536 171.31L128.896 176H127.776V169.7H128.896V174.39L132.536 169.7H133.656V176H132.536V171.31ZM139.738 169.7H141.208L138.45 172.71L141.474 176H139.92L137.078 172.78L139.738 169.7ZM136.812 176H135.692V169.7H136.812V176ZM147.424 171.31L143.784 176H142.664V169.7H143.784V174.39L147.424 169.7H148.544V176H147.424V171.31Z" fill="white"/>
</g>
<rect y="161" width="30" height="21" rx="10" fill="#D91515" fill-opacity="0.4"/>
<rect x="32" y="161" width="30" height="21" rx="10" fill="#D91515" fill-opacity="0.4"/>
<path d="M14.2954 175.283L15.2209 174.332C15.2843 174.268 15.2841 174.164 15.2206 174.099L13.6522 172.5L20.4349 172.5C20.5269 172.5 20.6016 172.425 20.6016 172.333L20.6016 171C20.6016 170.908 20.5269 170.833 20.4349 170.833L13.6522 170.833L15.2206 169.234C15.2839 169.169 15.2841 169.066 15.2209 169.001L14.2954 168.051C14.2641 168.018 14.2211 168 14.1761 168C14.1311 168 14.0881 168.018 14.0567 168.051L10.6489 171.55C10.6174 171.583 10.6016 171.625 10.6016 171.667C10.6016 171.709 10.6174 171.75 10.6489 171.783L14.0567 175.283C14.0881 175.315 14.1311 175.333 14.1761 175.333C14.2211 175.333 14.2641 175.315 14.2954 175.283Z" fill="white"/>
<path d="M48.9077 167.717L47.9822 168.668C47.9189 168.732 47.919 168.836 47.9825 168.901L49.5509 170.5L42.7682 170.5C42.6762 170.5 42.6016 170.575 42.6016 170.667L42.6016 172C42.6016 172.092 42.6762 172.167 42.7682 172.167L49.5509 172.167L47.9825 173.766C47.9192 173.831 47.919 173.934 47.9822 173.999L48.9077 174.949C48.939 174.982 48.982 175 49.027 175C49.072 175 49.1151 174.982 49.1464 174.949L52.5542 171.45C52.5857 171.417 52.6015 171.375 52.6015 171.333C52.6015 171.291 52.5857 171.25 52.5542 171.217L49.1464 167.717C49.1151 167.685 49.072 167.667 49.027 167.667C48.982 167.667 48.939 167.685 48.9077 167.717Z" fill="white"/>
<rect y="265" width="30" height="21" rx="10" fill="#D91515" fill-opacity="0.4"/>
<path d="M9.86063 280H8.75563V270.9H13.8906V271.94H9.86063V275.164H13.5006V276.204H9.86063V280ZM15.0611 276.776C15.0611 275.996 15.1911 275.246 15.4511 274.527C15.7198 273.808 16.0751 273.197 16.5171 272.694C17.4271 271.663 18.4151 271.021 19.4811 270.77L19.9101 271.563C19.0521 271.78 18.2765 272.243 17.5831 272.954C16.9158 273.647 16.4825 274.531 16.2831 275.606C16.7165 274.8 17.4315 274.397 18.4281 274.397C19.1821 274.397 19.8018 274.657 20.2871 275.177C20.7811 275.697 21.0281 276.369 21.0281 277.192C21.0281 278.041 20.7465 278.748 20.1831 279.311C19.6285 279.857 18.9741 280.13 18.2201 280.13C17.2408 280.13 16.4695 279.809 15.9061 279.168C15.3428 278.509 15.0611 277.712 15.0611 276.776ZM16.1661 276.776C16.1661 277.426 16.3438 277.976 16.6991 278.427C17.0545 278.869 17.5571 279.09 18.2071 279.09C18.6925 279.09 19.0998 278.912 19.4291 278.557C19.7585 278.184 19.9231 277.755 19.9231 277.27C19.9231 276.707 19.7585 276.252 19.4291 275.905C19.1085 275.55 18.6578 275.372 18.0771 275.372C17.6178 275.372 17.2148 275.506 16.8681 275.775C16.5301 276.044 16.2961 276.377 16.1661 276.776Z" fill="white"/>
<g filter="url(#filter10_d)">
<path d="M40.288 278.152L40.764 279.048C40.4373 279.384 39.994 279.65 39.434 279.846C38.874 280.042 38.286 280.14 37.67 280.14C36.2047 280.14 35.0053 279.683 34.072 278.768C33.1573 277.835 32.7 276.612 32.7 275.1C32.7 273.644 33.1387 272.445 34.016 271.502C34.8933 270.541 36.0833 270.06 37.586 270.06C38.8273 270.06 39.8213 270.377 40.568 271.012L40.022 271.908C39.3687 271.423 38.5613 271.18 37.6 271.18C36.536 271.18 35.6633 271.544 34.982 272.272C34.3007 272.991 33.96 273.933 33.96 275.1C33.96 276.267 34.31 277.214 35.01 277.942C35.7287 278.661 36.6527 279.02 37.782 279.02C38.734 279.02 39.5693 278.731 40.288 278.152ZM46.2415 273.7H47.7115L44.9535 276.71L47.9775 280H46.4235L43.5815 276.78L46.2415 273.7ZM43.3155 280H42.1955V273.7H43.3155V280ZM50.2882 282.8H49.1682V273.7H50.2882V274.442C50.5122 274.181 50.8202 273.971 51.2122 273.812C51.6042 273.644 52.0102 273.56 52.4302 273.56C53.3262 273.56 54.0308 273.859 54.5442 274.456C55.0762 275.044 55.3422 275.809 55.3422 276.752C55.3422 277.713 55.0388 278.521 54.4322 279.174C53.8348 279.818 53.0462 280.14 52.0662 280.14C51.3102 280.14 50.7175 279.995 50.2882 279.706V282.8ZM52.1082 274.61C51.3615 274.61 50.7548 274.899 50.2882 275.478V278.6C50.7828 278.927 51.3428 279.09 51.9682 279.09C52.6308 279.09 53.1582 278.88 53.5502 278.46C53.9515 278.031 54.1522 277.475 54.1522 276.794C54.1522 276.131 53.9702 275.604 53.6062 275.212C53.2422 274.811 52.7428 274.61 52.1082 274.61ZM58.9775 280H56.9475V273.7H58.0675V275.59H59.1035C59.9621 275.59 60.5921 275.786 60.9935 276.178C61.3948 276.561 61.5955 277.088 61.5955 277.76C61.5955 278.395 61.3855 278.927 60.9655 279.356C60.5641 279.785 59.9015 280 58.9775 280ZM63.9195 280H62.7995V273.7H63.9195V280ZM58.8935 276.64H58.0675V278.95H58.8795C59.4115 278.95 59.7988 278.857 60.0415 278.67C60.2841 278.483 60.4055 278.194 60.4055 277.802C60.4055 277.027 59.9015 276.64 58.8935 276.64ZM67.4419 274.82H65.1319V273.7H70.8719V274.82H68.5619V280H67.4419V274.82ZM74.2239 280H72.0959V273.7H73.2159V275.59H74.3639C75.2226 275.59 75.8526 275.786 76.2539 276.178C76.6552 276.561 76.8559 277.088 76.8559 277.76C76.8559 278.395 76.6459 278.927 76.2259 279.356C75.8059 279.785 75.1386 280 74.2239 280ZM74.1539 276.64H73.2159V278.95H74.1399C75.1572 278.95 75.6659 278.567 75.6659 277.802C75.6659 277.027 75.1619 276.64 74.1539 276.64ZM87.1721 280H86.0521V274.75H82.6221V280H81.5021V273.7H87.1721V280ZM89.7034 279.216C89.0874 278.581 88.7794 277.793 88.7794 276.85C88.7794 275.898 89.0874 275.114 89.7034 274.498C90.3287 273.873 91.1407 273.56 92.1394 273.56C93.1381 273.56 93.9454 273.873 94.5614 274.498C95.1867 275.114 95.4994 275.898 95.4994 276.85C95.4994 277.802 95.1867 278.591 94.5614 279.216C93.9454 279.832 93.1381 280.14 92.1394 280.14C91.1501 280.14 90.3381 279.832 89.7034 279.216ZM90.5854 275.24C90.1747 275.651 89.9694 276.187 89.9694 276.85C89.9694 277.513 90.1701 278.049 90.5714 278.46C90.9821 278.88 91.5047 279.09 92.1394 279.09C92.7741 279.09 93.2921 278.885 93.6934 278.474C94.1041 278.054 94.3094 277.513 94.3094 276.85C94.3094 276.206 94.1041 275.669 93.6934 275.24C93.2921 274.82 92.7741 274.61 92.1394 274.61C91.5047 274.61 90.9867 274.82 90.5854 275.24ZM97.0513 281.54H96.0013V278.95H96.7853C97.0187 278.661 97.224 278.194 97.4013 277.55C97.5787 276.897 97.6953 276.169 97.7513 275.366L97.8493 273.7H102.147V278.95H103.197V281.54H102.147V280H97.0513V281.54ZM98.8993 274.75L98.8293 275.8C98.7733 276.5 98.6613 277.139 98.4933 277.718C98.3253 278.297 98.1527 278.707 97.9753 278.95H101.027V274.75H98.8993ZM109.26 278.278L109.792 279.09C109.251 279.79 108.444 280.14 107.37 280.14C106.362 280.14 105.546 279.841 104.92 279.244C104.304 278.647 103.996 277.849 103.996 276.85C103.996 275.926 104.3 275.147 104.906 274.512C105.513 273.877 106.274 273.56 107.188 273.56C108.29 273.56 109.116 273.835 109.666 274.386L109.148 275.268C108.663 274.829 108.061 274.61 107.342 274.61C106.754 274.61 106.246 274.825 105.816 275.254C105.396 275.674 105.186 276.206 105.186 276.85C105.186 277.531 105.401 278.073 105.83 278.474C106.269 278.885 106.81 279.09 107.454 279.09C108.182 279.09 108.784 278.819 109.26 278.278ZM115.298 273.7H116.768L114.01 276.71L117.034 280H115.48L112.638 276.78L115.298 273.7ZM112.372 280H111.252V273.7H112.372V280ZM118.561 275.03L118.267 274.134C118.892 273.751 119.592 273.56 120.367 273.56C121.216 273.56 121.832 273.77 122.215 274.19C122.597 274.61 122.789 275.259 122.789 276.136V280H121.725V279.188C121.23 279.795 120.558 280.098 119.709 280.098C119.13 280.098 118.663 279.925 118.309 279.58C117.954 279.225 117.777 278.749 117.777 278.152C117.777 277.536 117.996 277.051 118.435 276.696C118.873 276.332 119.447 276.15 120.157 276.15C120.819 276.15 121.342 276.285 121.725 276.556C121.725 275.847 121.627 275.338 121.431 275.03C121.235 274.722 120.857 274.568 120.297 274.568C119.727 274.568 119.149 274.722 118.561 275.03ZM120.101 279.09C120.726 279.09 121.267 278.819 121.725 278.278V277.48C121.333 277.2 120.861 277.06 120.311 277.06C119.928 277.06 119.606 277.153 119.345 277.34C119.093 277.517 118.967 277.769 118.967 278.096C118.967 278.404 119.065 278.647 119.261 278.824C119.466 279.001 119.746 279.09 120.101 279.09ZM126.75 280.14C126.274 280.14 125.77 280.061 125.238 279.902C124.725 279.734 124.361 279.529 124.146 279.286L124.72 278.446C124.972 278.651 125.271 278.819 125.616 278.95C125.971 279.071 126.293 279.132 126.582 279.132C127.068 279.132 127.464 279.039 127.772 278.852C128.08 278.656 128.234 278.404 128.234 278.096C128.234 277.835 128.122 277.634 127.898 277.494C127.684 277.354 127.385 277.284 127.002 277.284H125.938V276.374H126.932C127.25 276.374 127.511 276.29 127.716 276.122C127.922 275.945 128.024 275.73 128.024 275.478C128.024 275.198 127.903 274.979 127.66 274.82C127.418 274.652 127.091 274.568 126.68 274.568C126.018 274.568 125.388 274.801 124.79 275.268L124.356 274.4C124.608 274.139 124.958 273.933 125.406 273.784C125.864 273.635 126.344 273.56 126.848 273.56C127.595 273.56 128.174 273.709 128.584 274.008C129.004 274.307 129.214 274.722 129.214 275.254C129.214 275.982 128.846 276.477 128.108 276.738V276.766C128.519 276.813 128.841 276.976 129.074 277.256C129.308 277.527 129.424 277.858 129.424 278.25C129.424 278.829 129.177 279.291 128.682 279.636C128.197 279.972 127.553 280.14 126.75 280.14ZM135.177 273.7H136.647L133.889 276.71L136.913 280H135.359L132.517 276.78L135.177 273.7ZM132.251 280H131.131V273.7H132.251V280ZM142.864 275.31L139.224 280H138.104V273.7H139.224V278.39L142.864 273.7H143.984V280H142.864V275.31Z" fill="white"/>
</g>
<defs>
<filter id="filter0_d" x="23.47" y="26.1992" width="85.7077" height="32.6" filterUnits="userSpaceOnUse" color-interpolation-filters="sRGB">
<feFlood flood-opacity="0" result="BackgroundImageFix"/>
<feColorMatrix in="SourceAlpha" type="matrix" values="0 0 0 0 0 0 0 0 0 0 0 0 0 0 0 0 0 0 127 0"/>
<feOffset/>
<feGaussianBlur stdDeviation="5"/>
<feColorMatrix type="matrix" values="0 0 0 0 0 0 0 0 0 0 0 0 0 0 0 0 0 0 0.33 0"/>
<feBlend mode="normal" in2="BackgroundImageFix" result="effect1_dropShadow"/>
<feBlend mode="normal" in="SourceGraphic" in2="effect1_dropShadow" result="shape"/>
</filter>
<filter id="filter1_d" x="22.7" y="78.0605" width="134.211" height="32.852" filterUnits="userSpaceOnUse" color-interpolation-filters="sRGB">
<feFlood flood-opacity="0" result="BackgroundImageFix"/>
<feColorMatrix in="SourceAlpha" type="matrix" values="0 0 0 0 0 0 0 0 0 0 0 0 0 0 0 0 0 0 127 0"/>
<feOffset/>
<feGaussianBlur stdDeviation="5"/>
<feColorMatrix type="matrix" values="0 0 0 0 0 0 0 0 0 0 0 0 0 0 0 0 0 0 0.33 0"/>
<feBlend mode="normal" in2="BackgroundImageFix" result="effect1_dropShadow"/>
<feBlend mode="normal" in="SourceGraphic" in2="effect1_dropShadow" result="shape"/>
</filter>
<filter id="filter2_d" x="23.47" y="208.199" width="119.058" height="32.6" filterUnits="userSpaceOnUse" color-interpolation-filters="sRGB">
<feFlood flood-opacity="0" result="BackgroundImageFix"/>
<feColorMatrix in="SourceAlpha" type="matrix" values="0 0 0 0 0 0 0 0 0 0 0 0 0 0 0 0 0 0 127 0"/>
<feOffset/>
<feGaussianBlur stdDeviation="5"/>
<feColorMatrix type="matrix" values="0 0 0 0 0 0 0 0 0 0 0 0 0 0 0 0 0 0 0.33 0"/>
<feBlend mode="normal" in2="BackgroundImageFix" result="effect1_dropShadow"/>
<feBlend mode="normal" in="SourceGraphic" in2="effect1_dropShadow" result="shape"/>
</filter>
<filter id="filter3_d" x="22.21" y="234.145" width="87.1404" height="29.996" filterUnits="userSpaceOnUse" color-interpolation-filters="sRGB">
<feFlood flood-opacity="0" result="BackgroundImageFix"/>
<feColorMatrix in="SourceAlpha" type="matrix" values="0 0 0 0 0 0 0 0 0 0 0 0 0 0 0 0 0 0 127 0"/>
<feOffset/>
<feGaussianBlur stdDeviation="5"/>
<feColorMatrix type="matrix" values="0 0 0 0 0 0 0 0 0 0 0 0 0 0 0 0 0 0 0.33 0"/>
<feBlend mode="normal" in2="BackgroundImageFix" result="effect1_dropShadow"/>
<feBlend mode="normal" in="SourceGraphic" in2="effect1_dropShadow" result="shape"/>
</filter>
<filter id="filter4_d" x="23.47" y="130.199" width="109.295" height="32.6" filterUnits="userSpaceOnUse" color-interpolation-filters="sRGB">
<feFlood flood-opacity="0" result="BackgroundImageFix"/>
<feColorMatrix in="SourceAlpha" type="matrix" values="0 0 0 0 0 0 0 0 0 0 0 0 0 0 0 0 0 0 127 0"/>
<feOffset/>
<feGaussianBlur stdDeviation="5"/>
<feColorMatrix type="matrix" values="0 0 0 0 0 0 0 0 0 0 0 0 0 0 0 0 0 0 0.33 0"/>
<feBlend mode="normal" in2="BackgroundImageFix" result="effect1_dropShadow"/>
<feBlend mode="normal" in="SourceGraphic" in2="effect1_dropShadow" result="shape"/>
</filter>
<filter id="filter5_d" x="22.5601" y="104.061" width="132.163" height="31.48" filterUnits="userSpaceOnUse" color-interpolation-filters="sRGB">
<feFlood flood-opacity="0" result="BackgroundImageFix"/>
<feColorMatrix in="SourceAlpha" type="matrix" values="0 0 0 0 0 0 0 0 0 0 0 0 0 0 0 0 0 0 127 0"/>
<feOffset/>
<feGaussianBlur stdDeviation="5"/>
<feColorMatrix type="matrix" values="0 0 0 0 0 0 0 0 0 0 0 0 0 0 0 0 0 0 0.33 0"/>
<feBlend mode="normal" in2="BackgroundImageFix" result="effect1_dropShadow"/>
<feBlend mode="normal" in="SourceGraphic" in2="effect1_dropShadow" result="shape"/>
</filter>
<filter id="filter6_d" x="22.91" y="0.199219" width="40.5849" height="29.898" filterUnits="userSpaceOnUse" color-interpolation-filters="sRGB">
<feFlood flood-opacity="0" result="BackgroundImageFix"/>
<feColorMatrix in="SourceAlpha" type="matrix" values="0 0 0 0 0 0 0 0 0 0 0 0 0 0 0 0 0 0 127 0"/>
<feOffset/>
<feGaussianBlur stdDeviation="5"/>
<feColorMatrix type="matrix" values="0 0 0 0 0 0 0 0 0 0 0 0 0 0 0 0 0 0 0.33 0"/>
<feBlend mode="normal" in2="BackgroundImageFix" result="effect1_dropShadow"/>
<feBlend mode="normal" in="SourceGraphic" in2="effect1_dropShadow" result="shape"/>
</filter>
<filter id="filter7_d" x="22.14" y="52.1992" width="72.1217" height="32.6" filterUnits="userSpaceOnUse" color-interpolation-filters="sRGB">
<feFlood flood-opacity="0" result="BackgroundImageFix"/>
<feColorMatrix in="SourceAlpha" type="matrix" values="0 0 0 0 0 0 0 0 0 0 0 0 0 0 0 0 0 0 127 0"/>
<feOffset/>
<feGaussianBlur stdDeviation="5"/>
<feColorMatrix type="matrix" values="0 0 0 0 0 0 0 0 0 0 0 0 0 0 0 0 0 0 0.33 0"/>
<feBlend mode="normal" in2="BackgroundImageFix" result="effect1_dropShadow"/>
<feBlend mode="normal" in="SourceGraphic" in2="effect1_dropShadow" result="shape"/>
</filter>
<filter id="filter8_d" x="22.21" y="182.145" width="79.1745" height="32.656" filterUnits="userSpaceOnUse" color-interpolation-filters="sRGB">
<feFlood flood-opacity="0" result="BackgroundImageFix"/>
<feColorMatrix in="SourceAlpha" type="matrix" values="0 0 0 0 0 0 0 0 0 0 0 0 0 0 0 0 0 0 127 0"/>
<feOffset/>
<feGaussianBlur stdDeviation="5"/>
<feColorMatrix type="matrix" values="0 0 0 0 0 0 0 0 0 0 0 0 0 0 0 0 0 0 0.33 0"/>
<feBlend mode="normal" in2="BackgroundImageFix" result="effect1_dropShadow"/>
<feBlend mode="normal" in="SourceGraphic" in2="effect1_dropShadow" result="shape"/>
</filter>
<filter id="filter9_d" x="55.47" y="156.199" width="103.074" height="32.6" filterUnits="userSpaceOnUse" color-interpolation-filters="sRGB">
<feFlood flood-opacity="0" result="BackgroundImageFix"/>
<feColorMatrix in="SourceAlpha" type="matrix" values="0 0 0 0 0 0 0 0 0 0 0 0 0 0 0 0 0 0 127 0"/>
<feOffset/>
<feGaussianBlur stdDeviation="5"/>
<feColorMatrix type="matrix" values="0 0 0 0 0 0 0 0 0 0 0 0 0 0 0 0 0 0 0.33 0"/>
<feBlend mode="normal" in2="BackgroundImageFix" result="effect1_dropShadow"/>
<feBlend mode="normal" in="SourceGraphic" in2="effect1_dropShadow" result="shape"/>
</filter>
<filter id="filter10_d" x="22.7" y="260.061" width="131.284" height="32.74" filterUnits="userSpaceOnUse" color-interpolation-filters="sRGB">
<feFlood flood-opacity="0" result="BackgroundImageFix"/>
<feColorMatrix in="SourceAlpha" type="matrix" values="0 0 0 0 0 0 0 0 0 0 0 0 0 0 0 0 0 0 127 0"/>
<feOffset/>
<feGaussianBlur stdDeviation="5"/>
<feColorMatrix type="matrix" values="0 0 0 0 0 0 0 0 0 0 0 0 0 0 0 0 0 0 0.33 0"/>
<feBlend mode="normal" in2="BackgroundImageFix" result="effect1_dropShadow"/>
<feBlend mode="normal" in="SourceGraphic" in2="effect1_dropShadow" result="shape"/>
</filter>
</defs>
</svg>
