<svg width="15" height="28" viewBox="0 0 15 28" fill="none" xmlns="http://www.w3.org/2000/svg">
<path d="M13.6179 2.20753V0.339916C13.6179 0.249765 13.5821 0.163306 13.5184 0.0995591C13.4546 0.0358125 13.3682 0 13.278 0H1.74694C1.65679 0 1.57033 0.0358125 1.50658 0.0995591C1.44284 0.163306 1.40702 0.249765 1.40702 0.339916V2.20577L1.08773 5.14366C0.381982 11.7688 0.0190345 18.426 0.000340306 25.0886L5.77012e-07 25.0989C5.77012e-07 25.1027 5.77012e-07 25.1064 5.77012e-07 25.1102C-0.000205951 25.309 0.0550329 25.504 0.159512 25.6732C0.263992 25.8424 0.413573 25.9791 0.591454 26.0679V27.6599C0.591454 27.75 0.627267 27.8365 0.691014 27.9002C0.75476 27.964 0.841218 27.9998 0.93137 27.9998H3.56232C3.65247 27.9998 3.73893 27.964 3.80268 27.9002C3.86642 27.8365 3.90223 27.75 3.90223 27.6599V26.0985C4.07633 26.027 4.22824 25.9104 4.34237 25.7607C4.4565 25.6111 4.52873 25.4337 4.55164 25.2469L5.5123 17.6654C5.66598 16.4526 5.90111 15.2515 6.2161 14.0702L7.42965 9.94741L8.63896 14.2493C8.914 15.3295 9.12242 16.4257 9.26305 17.5315L10.2431 25.2476C10.2678 25.4385 10.3435 25.6192 10.4623 25.7707C10.5811 25.9222 10.7385 26.0389 10.918 26.1084V27.6601C10.918 27.7502 10.9538 27.8367 11.0175 27.9004C11.0813 27.9642 11.1677 28 11.2579 28H13.8894C13.9796 28 14.066 27.9642 14.1298 27.9004C14.1935 27.8367 14.2293 27.7502 14.2293 27.6601V26.072C14.4083 25.9848 14.5594 25.8493 14.6654 25.6807C14.7714 25.5122 14.8282 25.3174 14.8293 25.1182C14.8639 18.5646 14.5655 12.0135 13.9354 5.49015L13.6179 2.20753ZM13.1894 4.83984H12.873C12.4603 4.83939 12.0648 4.67528 11.773 4.38352C11.4813 4.09177 11.3172 3.69619 11.3167 3.28359V2.5641H12.9693L13.1894 4.83984ZM2.05185 2.5641H3.6703V3.28359C3.66985 3.69619 3.50574 4.09177 3.21399 4.38352C2.92223 4.67528 2.52666 4.83939 2.11405 4.83984H1.80456L2.05185 2.5641ZM3.22218 27.3202H1.27106V26.1803H3.22218V27.3202ZM13.5494 27.3202H11.5977V26.1803H13.5494V27.3202ZM14.1493 25.1152C14.1485 25.2058 14.1161 25.2932 14.0577 25.3624C13.9993 25.4316 13.9186 25.4782 13.8295 25.4943C13.807 25.4983 13.7841 25.5004 13.7613 25.5005H11.3025C11.2961 25.5005 11.29 25.5005 11.2783 25.4994C11.1882 25.4938 11.1029 25.457 11.0371 25.3953C10.9712 25.3336 10.9289 25.2509 10.9174 25.1614L9.93721 17.4459C9.79295 16.3108 9.579 15.1857 9.29658 14.0769L9.29443 14.0689L7.76425 8.62627C7.74428 8.55526 7.70176 8.49267 7.6431 8.44795C7.58444 8.40323 7.51282 8.3788 7.43906 8.37836H7.43702C7.36361 8.37836 7.29218 8.40212 7.2334 8.44609C7.17462 8.49006 7.13165 8.55188 7.11093 8.6223L5.56261 13.8825C5.56182 13.8853 5.56102 13.8882 5.56029 13.8909C5.23687 15.1031 4.9955 16.3358 4.8378 17.5804L3.87697 25.1618C3.86625 25.2493 3.82588 25.3304 3.76258 25.3918C3.69927 25.4531 3.61686 25.4909 3.52906 25.4989C3.51669 25.5001 3.50427 25.5007 3.49184 25.5007H1.06824C0.965905 25.5007 0.86771 25.4603 0.794955 25.3883C0.7222 25.3163 0.680754 25.2186 0.679605 25.1163L0.679945 25.1069C0.679945 25.1032 0.679945 25.0996 0.679945 25.0959C0.698447 18.5569 1.04968 12.023 1.73227 5.51967H2.11405C2.70689 5.51901 3.27527 5.28321 3.69447 4.86401C4.11367 4.4448 4.34947 3.87643 4.35013 3.28359V2.5641H4.56507C4.65522 2.5641 4.74168 2.52829 4.80543 2.46454C4.86917 2.40079 4.90499 2.31433 4.90499 2.22418C4.90499 2.13403 4.86917 2.04757 4.80543 1.98383C4.74168 1.92008 4.65522 1.88427 4.56507 1.88427H2.08686V0.679832H12.9381V1.88427H5.9432C5.85305 1.88427 5.76659 1.92008 5.70285 1.98383C5.6391 2.04757 5.60329 2.13403 5.60329 2.22418C5.60329 2.31433 5.6391 2.40079 5.70285 2.46454C5.76659 2.52829 5.85305 2.5641 5.9432 2.5641H7.11761V6.70597C7.11761 6.75061 7.1264 6.79481 7.14349 6.83605C7.16057 6.87729 7.18561 6.91477 7.21717 6.94633C7.24873 6.97789 7.28621 7.00293 7.32745 7.02001C7.36869 7.0371 7.41289 7.04589 7.45753 7.04589C7.85969 7.04536 8.24522 6.88533 8.52954 6.60091C8.81386 6.31648 8.97374 5.93089 8.97412 5.52873V2.5641H10.6369V3.28359C10.6375 3.87643 10.8733 4.4448 11.2925 4.86401C11.7117 5.28321 12.2801 5.51901 12.873 5.51967H13.2551L13.2586 5.55581C13.8866 12.0563 14.1839 18.5846 14.1493 25.1152ZM8.29429 2.5641V5.52873C8.29411 5.69056 8.24711 5.84889 8.15895 5.9846C8.07079 6.12031 7.94523 6.22761 7.79744 6.29354V2.5641H8.29429Z" fill="white"/>
</svg>
