<svg width="57" height="57" viewBox="0 0 57 57" fill="none" xmlns="http://www.w3.org/2000/svg">
<path fill-rule="evenodd" clip-rule="evenodd" d="M28.5 57C44.2401 57 57 44.2401 57 28.5C57 12.7599 44.2401 0 28.5 0C12.7599 0 0 12.7599 0 28.5C0 44.2401 12.7599 57 28.5 57ZM19 26.4442C19 21.1756 23.2867 16.8889 28.556 16.8889C33.824 16.8889 38.112 21.1762 38.112 26.4449C38.112 33.5742 29.6 41.6142 29.238 41.9529C29.0467 42.1322 28.8013 42.2222 28.556 42.2222C28.32 42.2222 28.084 42.1389 27.894 41.9722C27.5307 41.6509 19 34.0302 19 26.4442ZM24 26.4456C24 28.9602 26.0393 31.0009 28.556 31.0009C31.0713 31.0009 33.1107 28.9609 33.1107 26.4456C33.1107 23.9302 31.0713 21.8902 28.556 21.8902C26.0393 21.8902 24 23.9309 24 26.4456Z" fill="url(#paint0_linear)"/>
<defs>
<linearGradient id="paint0_linear" x1="4.56" y1="11.97" x2="52.44" y2="44.46" gradientUnits="userSpaceOnUse">
<stop stop-color="#D91515"/>
<stop offset="1" stop-color="#E95050"/>
</linearGradient>
</defs>
</svg>
