<svg width="12" height="17" viewBox="0 0 12 17" fill="none" xmlns="http://www.w3.org/2000/svg">
<path d="M11.9996 9.44519C11.9996 9.15437 11.9812 8.86354 11.9737 8.57272C11.9541 7.79663 11.3537 7.20169 10.5691 7.20169H10.309V6.95656C10.309 6.08409 10.3161 5.21161 10.3048 4.33914C10.3028 4.08999 10.2827 3.84132 10.2447 3.59504H10.2384C9.94617 1.58627 8.19547 0.0743966 6.1049 0.00252132C4.05066 -0.0697695 2.17178 1.4205 1.78222 3.43841C1.7283 3.73093 1.70036 4.02761 1.69872 4.32501C1.68786 5.19749 1.69496 6.06996 1.69496 6.94244V7.20044C1.57889 7.20044 1.47743 7.20044 1.37597 7.20044C0.61857 7.2183 0.0194151 7.79663 0.0156573 8.54904C0.00313147 10.8953 -0.00187888 13.2414 0.000626294 15.5874C0.000626294 16.3897 0.59143 16.9688 1.39977 16.9946C1.74757 17.0054 2.09579 16.9967 2.44359 16.9967H10.4643C11.4196 16.9967 11.9992 16.42 11.9996 15.4694C12.0001 13.4613 12.0001 11.4533 11.9996 9.44519ZM6.65103 12.1378C6.74498 12.8724 6.82974 13.6077 6.91366 14.3435C6.94247 14.5986 6.85854 14.6884 6.60427 14.6913C6.40928 14.6933 6.21471 14.6913 6.01973 14.6913C5.82474 14.6913 5.63017 14.6913 5.43519 14.6913C5.12538 14.6913 5.0519 14.6082 5.0878 14.3011C5.17131 13.5795 5.25481 12.8574 5.34751 12.137C5.36671 11.9878 5.33039 11.8952 5.21139 11.8009C4.6018 11.3156 4.53374 10.4618 5.05273 9.91051C5.17387 9.78084 5.32057 9.67742 5.48369 9.6067C5.6468 9.53597 5.82281 9.49947 6.00073 9.49947C6.17865 9.49947 6.35467 9.53597 6.51778 9.6067C6.68089 9.67742 6.82759 9.78084 6.94873 9.91051C7.4648 10.4639 7.39549 11.3189 6.78631 11.8017C6.6669 11.8964 6.63183 11.9891 6.65103 12.1378ZM4.07488 7.20002H3.79263V6.96695C3.79263 6.08741 3.79263 5.20787 3.79263 4.32875C3.79597 3.0782 4.77132 2.09106 5.99927 2.09148C6.46194 2.08979 6.9132 2.23433 7.28802 2.50425C7.66283 2.77416 7.94184 3.15553 8.08483 3.59338C8.09443 3.62121 8.1032 3.64947 8.11197 3.67647C8.17166 3.88853 8.19979 4.10815 8.19547 4.32833C8.19353 4.41165 8.19799 4.49498 8.20883 4.57761C8.20883 5.0072 8.20883 5.43652 8.20883 5.86555C8.20506 5.90701 8.20506 5.94873 8.20883 5.99019C8.20883 6.32007 8.20883 6.64967 8.20883 6.979V7.19836C6.83099 7.19864 5.453 7.19919 4.07488 7.20002Z" fill="#F14949"/>
</svg>
