<svg width="109" height="37" viewBox="0 0 109 37" fill="none" xmlns="http://www.w3.org/2000/svg">
<g filter="url(#filter0_d)">
<path d="M69.6819 6.00022C69.2626 5.99694 68.8468 6.07741 68.4589 6.23693C68.0711 6.39645 67.719 6.6318 67.4233 6.92918C67.1243 7.21707 66.8877 7.56324 66.7279 7.94627C66.5681 8.32929 66.4886 8.74103 66.4943 9.15601C66.4943 10.0007 66.8299 10.8108 67.4272 11.4081C68.0245 12.0054 68.8346 12.341 69.6793 12.341C70.094 12.3462 70.5054 12.2661 70.888 12.1059C71.2706 11.9457 71.6162 11.7086 71.9035 11.4094C72.2099 11.1193 72.4534 10.7693 72.6192 10.3813C72.7849 9.99323 72.8692 9.57531 72.8669 9.15336C72.8711 8.73542 72.7875 8.32126 72.6216 7.93767C72.4556 7.55407 72.211 7.2096 71.9035 6.92652C71.6158 6.62899 71.2703 6.39335 70.8883 6.23407C70.5063 6.07478 70.0958 5.99521 69.6819 6.00022Z" fill="#D91515"/>
<path d="M14.8693 13.2402C13.7045 13.2193 12.5476 13.435 11.4686 13.8744C10.3897 14.3137 9.4111 14.9675 8.59224 15.7962C7.75218 16.5942 7.08789 17.5588 6.64184 18.6283C6.19579 19.6977 5.97779 20.8484 6.00179 22.0069C5.97967 23.1698 6.1984 24.3247 6.6442 25.3991C7.09001 26.4734 7.75325 27.4438 8.59224 28.2495C9.41578 29.0696 10.3959 29.7158 11.4743 30.1494C12.5526 30.583 13.7072 30.7953 14.8693 30.7736C16.0319 30.7992 17.1877 30.5888 18.2666 30.155C19.3455 29.7211 20.3252 29.0729 21.1464 28.2495C21.9849 27.4435 22.6478 26.4729 23.0935 25.3987C23.5393 24.3245 23.7583 23.1697 23.7368 22.0069C23.7602 20.8485 23.5419 19.698 23.0959 18.6286C22.6499 17.5593 21.9859 16.5946 21.1464 15.7962C20.3299 14.9644 19.3517 14.3085 18.2722 13.8689C17.1927 13.4294 16.0346 13.2154 14.8693 13.2402ZM17.258 24.4965C16.9489 24.8145 16.5768 25.0645 16.1654 25.2305C15.7541 25.3964 15.3126 25.4745 14.8693 25.4599C14.4265 25.4708 13.9861 25.391 13.5753 25.2253C13.1645 25.0596 12.7919 24.8116 12.4806 24.4965C12.1678 24.1643 11.9245 23.7729 11.7649 23.3454C11.6054 22.9179 11.5329 22.4628 11.5516 22.0069C11.533 21.5506 11.6055 21.0951 11.765 20.6672C11.9246 20.2392 12.1678 19.8474 12.4806 19.5146C12.7924 19.2004 13.1651 18.9531 13.5759 18.7879C13.9866 18.6227 14.4267 18.5431 14.8693 18.5538C15.3124 18.5389 15.7538 18.6166 16.1651 18.7821C16.5764 18.9475 16.9487 19.197 17.258 19.5146C17.5781 19.8433 17.8277 20.2339 17.9916 20.6625C18.1554 21.091 18.23 21.5485 18.2109 22.0069C18.2303 22.4647 18.1561 22.9216 17.9927 23.3497C17.8293 23.7778 17.5802 24.168 17.2607 24.4965H17.258Z" fill="white"/>
<path d="M36.6877 22.5363C36.6877 23.5104 36.4461 24.2641 35.9578 24.795C35.4694 25.3258 34.8297 25.5594 33.9645 25.5594C33.2916 25.5882 32.6347 25.3486 32.1384 24.8932C31.7014 24.4526 31.4829 23.7997 31.4829 22.9344V13.6953H25.9622V23.6325C25.9622 25.9327 26.5267 27.7022 27.6556 28.9408C28.2201 29.5409 28.9059 30.0141 29.6674 30.3289C30.4288 30.6438 31.2485 30.793 32.0721 30.7668C34.1529 30.7668 35.6915 30.0591 36.6877 28.6435V30.305H42.2003V13.6953H36.6877V22.5363Z" fill="white"/>
<path d="M52.2292 9.05469L46.7166 10.7162V13.6968H44.219V18.9839H46.7086V23.9339C46.7086 26.5668 47.373 28.3928 48.7019 29.412C50.0307 30.4312 52.3557 30.7303 55.677 30.3091V25.3273C54.4348 25.3937 53.5536 25.3273 53.0228 25.1627C52.492 24.9982 52.2266 24.5311 52.2266 23.8012V18.9839H55.677V13.6968H52.2266L52.2292 9.05469Z" fill="white"/>
<path d="M72.4361 13.7051H66.9235V30.3095H72.4361V13.7051Z" fill="white"/>
<path d="M78.7082 8.22357C77.3051 9.48695 76.6035 11.3112 76.6035 13.6964H74.512V18.9835H76.6035V30.3088H82.1162V18.9835H84.972V13.6964H82.1268C82.1268 12.2136 83.0787 11.5386 84.9827 11.6713V6.56472C82.217 6.40901 80.1256 6.96196 78.7082 8.22357Z" fill="white"/>
<path d="M102.86 21.9744C102.86 19.4741 102.051 17.3933 100.434 15.7318C98.8164 14.0703 96.7692 13.2404 94.292 13.2422C91.7228 13.2422 89.6083 14.0836 87.9486 15.7663C86.2888 17.449 85.4581 19.5405 85.4563 22.0407C85.4563 24.5639 86.2977 26.6563 87.9804 28.3178C89.6631 29.9793 91.9218 30.7985 94.7565 30.7755C97.8777 30.7755 100.258 29.7457 101.896 27.6861L97.9149 24.8966C97.1003 25.6682 96.0135 26.0862 94.8918 26.0591C92.9649 26.0591 91.7263 25.3841 91.176 24.034H102.631C102.79 23.359 102.866 22.6676 102.86 21.9744ZM91.1043 20.2147C91.5697 18.6646 92.6544 17.8896 94.3583 17.8896C95.9951 17.8896 97.0355 18.6646 97.4796 20.2147H91.1043Z" fill="white"/>
<path d="M59.3962 30.243V6H64.9089V30.243H59.3962Z" fill="white"/>
</g>
<defs>
<filter id="filter0_d" x="0" y="0" width="108.86" height="36.776" filterUnits="userSpaceOnUse" color-interpolation-filters="sRGB">
<feFlood flood-opacity="0" result="BackgroundImageFix"/>
<feColorMatrix in="SourceAlpha" type="matrix" values="0 0 0 0 0 0 0 0 0 0 0 0 0 0 0 0 0 0 127 0"/>
<feOffset/>
<feGaussianBlur stdDeviation="3"/>
<feColorMatrix type="matrix" values="0 0 0 0 0 0 0 0 0 0 0 0 0 0 0 0 0 0 0.25 0"/>
<feBlend mode="normal" in2="BackgroundImageFix" result="effect1_dropShadow"/>
<feBlend mode="normal" in="SourceGraphic" in2="effect1_dropShadow" result="shape"/>
</filter>
</defs>
</svg>
