<svg width="210" height="705" viewBox="0 0 210 705" fill="none" xmlns="http://www.w3.org/2000/svg">
<g filter="url(#filter0_f)">
<path d="M6.42222 261.62C8.49222 257 10.4022 246.17 9.13222 239C7.86222 231.83 6.42222 195.49 10.4022 185.92C14.3822 176.35 9.60222 158.67 20.2822 141.3C30.9622 123.93 55.3422 124.57 55.3422 124.57C55.3422 124.57 78.3422 117.08 81.4822 112.46C84.6222 107.84 83.0722 87.75 83.0722 87.75C76.8622 83.13 76.2222 69.58 76.2222 69.58C76.2222 69.58 75.7422 71.98 73.3522 70.38C70.9622 68.78 70.1622 52.69 70.8022 51.26C71.4422 49.83 74.1522 50.26 74.1522 50.26C74.1522 50.26 70.3222 29.26 76.8622 18.39C83.4022 7.52 98.8522 6 104.902 6C110.952 6 126.422 7.59 133.002 18.43C139.582 29.27 135.712 50.3 135.712 50.3C135.712 50.3 138.422 49.82 139.062 51.3C139.702 52.78 138.902 68.83 136.512 70.42C134.122 72.01 133.642 69.62 133.642 69.62C133.642 69.62 133.002 83.17 126.792 87.79C126.792 87.79 125.202 107.87 128.382 112.5C131.562 117.13 154.522 124.61 154.522 124.61C154.522 124.61 178.902 123.97 189.582 141.34C200.262 158.71 195.482 176.4 199.462 185.96C203.442 195.52 202.012 231.86 200.732 239.03C199.452 246.2 201.372 257.03 203.442 261.66C205.512 266.29 199.142 341.98 200.092 352.34C201.042 362.7 204.402 390.59 203.092 392.98C201.782 395.37 193.372 416.73 184.612 417.98C184.612 417.98 178.232 422.6 176.002 421.17C173.772 419.74 176.482 416.54 176.482 416.54C175.975 416.627 175.455 416.602 174.959 416.465C174.463 416.329 174.003 416.085 173.612 415.75C172.502 414.63 182.062 405.39 182.062 405.39C182.062 405.39 177.282 407.46 175.682 405.55C174.082 403.64 187.952 396.31 190.342 390.89C192.732 385.47 189.552 381.96 189.552 381.96L185.552 383.88C185.552 383.88 181.732 396.47 179.022 396.63C176.312 396.79 174.562 396.79 176.792 381.96C176.792 381.96 173.602 370.96 176.152 366.03C178.702 361.1 181.572 359.81 181.572 354.56C181.572 349.31 173.762 321.89 171.212 306.75C168.662 291.61 173.442 262.13 170.892 256.39C168.342 250.65 165.322 237.1 165.162 227.39C165.002 217.68 162.452 204.76 160.062 201.57C157.672 198.38 161.062 220.06 155.802 233.93C150.542 247.8 154.162 271.85 156.712 282.21C159.262 292.57 167.712 350.74 168.502 371.93C169.292 393.12 163.232 471.66 164.002 483C164.772 494.34 170.212 510.25 170.212 542.76C170.212 575.27 164.792 577.97 160.212 591.52C155.632 605.07 150.972 640.29 151.452 646.82C151.452 646.82 154.262 651.44 154.372 654.15C154.482 656.86 154.322 660.15 155.272 663.55C156.222 666.95 165.952 690.49 163.082 693.83C160.212 697.17 143.322 697.5 137.432 697.02C137.432 697.02 135.992 699.73 130.092 698.77C124.192 697.81 124.992 677.09 126.752 666.26C128.512 655.43 123.402 652.72 124.992 645.87C126.582 639.02 129.622 635.98 129.992 632.96C130.362 629.94 132.692 594.71 128.552 577.66C124.412 560.61 125.042 534.66 129.032 523.16C133.022 511.66 127.112 505.31 122.812 491.44C118.512 477.57 116.282 443.95 116.282 429.13C116.282 414.31 111.342 403.95 108.952 395.35C106.562 386.75 106.882 374.35 106.882 374.35L104.962 373.53L103.052 374.35C103.052 374.35 103.372 386.78 100.982 395.35C98.5922 403.92 93.6522 414.35 93.6522 429.13C93.6522 443.91 91.4222 477.58 87.1222 491.44C82.8222 505.3 76.9222 511.68 80.9022 523.16C84.8822 534.64 85.5222 560.61 81.3822 577.66C77.2422 594.71 79.6222 629.93 79.9422 632.96C80.2622 635.99 83.2922 638.96 84.8822 645.87C86.4722 652.78 81.3822 655.43 83.1322 666.26C84.8822 677.09 85.6822 697.82 79.7822 698.77C73.8822 699.72 72.3922 697 72.3922 697C66.5022 697.48 49.6122 697.16 46.7422 693.81C43.8722 690.46 53.5922 666.88 54.5422 663.53C55.4922 660.18 55.3422 656.84 55.4522 654.13C55.5622 651.42 58.3722 646.8 58.3722 646.8C58.8522 640.27 54.2322 605.05 49.6122 591.5C44.9922 577.95 39.6122 575.25 39.6122 542.74C39.6122 510.23 45.0022 494.29 45.7822 483C46.5622 471.71 40.5222 393.1 41.3222 371.9C42.1222 350.7 50.5622 292.54 53.1122 282.18C55.6622 271.82 59.3322 247.76 54.0222 233.9C48.7122 220.04 52.1522 198.36 49.7622 201.54C47.3722 204.72 44.8222 217.64 44.6622 227.36C44.5022 237.08 41.4722 250.63 38.9322 256.36C36.3922 262.09 41.1622 291.58 38.6122 306.72C36.0622 321.86 28.2522 349.27 28.2522 354.53C28.2522 359.79 31.1222 361.06 33.6722 366C36.2222 370.94 33.0022 381.94 33.0022 381.94C35.2322 396.77 33.4822 396.77 30.7722 396.61C28.0622 396.45 24.2322 383.86 24.2322 383.86L20.2322 381.94C20.2322 381.94 17.0422 385.45 19.4322 390.87C21.8222 396.29 35.6922 403.62 34.0922 405.53C32.4922 407.44 27.7222 405.37 27.7222 405.37C27.7222 405.37 37.2822 414.61 36.1722 415.73C35.7813 416.065 35.3215 416.309 34.8254 416.445C34.3293 416.582 33.8093 416.607 33.3022 416.52C33.3022 416.52 36.0122 419.71 33.7822 421.15C31.5522 422.59 25.2222 418 25.2222 418C16.4622 416.69 8.00222 395.33 6.74222 392.94C5.48222 390.55 8.81222 362.66 9.74222 352.3C10.6722 341.94 4.34222 266.24 6.42222 261.62Z" stroke="#D91515" stroke-width="2"/>
</g>
<mask id="path-2-inside-1" fill="white">
<path d="M6.42222 261.62C8.49222 257 10.4022 246.17 9.13222 239C7.86222 231.83 6.42222 195.49 10.4022 185.92C14.3822 176.35 9.60222 158.67 20.2822 141.3C30.9622 123.93 55.3422 124.57 55.3422 124.57C55.3422 124.57 78.3422 117.08 81.4822 112.46C84.6222 107.84 83.0722 87.75 83.0722 87.75C76.8622 83.13 76.2222 69.58 76.2222 69.58C76.2222 69.58 75.7422 71.98 73.3522 70.38C70.9622 68.78 70.1622 52.69 70.8022 51.26C71.4422 49.83 74.1522 50.26 74.1522 50.26C74.1522 50.26 70.3222 29.26 76.8622 18.39C83.4022 7.52 98.8522 6 104.902 6C110.952 6 126.422 7.59 133.002 18.43C139.582 29.27 135.712 50.3 135.712 50.3C135.712 50.3 138.422 49.82 139.062 51.3C139.702 52.78 138.902 68.83 136.512 70.42C134.122 72.01 133.642 69.62 133.642 69.62C133.642 69.62 133.002 83.17 126.792 87.79C126.792 87.79 125.202 107.87 128.382 112.5C131.562 117.13 154.522 124.61 154.522 124.61C154.522 124.61 178.902 123.97 189.582 141.34C200.262 158.71 195.482 176.4 199.462 185.96C203.442 195.52 202.012 231.86 200.732 239.03C199.452 246.2 201.372 257.03 203.442 261.66C205.512 266.29 199.142 341.98 200.092 352.34C201.042 362.7 204.402 390.59 203.092 392.98C201.782 395.37 193.372 416.73 184.612 417.98C184.612 417.98 178.232 422.6 176.002 421.17C173.772 419.74 176.482 416.54 176.482 416.54C175.975 416.627 175.455 416.602 174.959 416.465C174.463 416.329 174.003 416.085 173.612 415.75C172.502 414.63 182.062 405.39 182.062 405.39C182.062 405.39 177.282 407.46 175.682 405.55C174.082 403.64 187.952 396.31 190.342 390.89C192.732 385.47 189.552 381.96 189.552 381.96L185.552 383.88C185.552 383.88 181.732 396.47 179.022 396.63C176.312 396.79 174.562 396.79 176.792 381.96C176.792 381.96 173.602 370.96 176.152 366.03C178.702 361.1 181.572 359.81 181.572 354.56C181.572 349.31 173.762 321.89 171.212 306.75C168.662 291.61 173.442 262.13 170.892 256.39C168.342 250.65 165.322 237.1 165.162 227.39C165.002 217.68 162.452 204.76 160.062 201.57C157.672 198.38 161.062 220.06 155.802 233.93C150.542 247.8 154.162 271.85 156.712 282.21C159.262 292.57 167.712 350.74 168.502 371.93C169.292 393.12 163.232 471.66 164.002 483C164.772 494.34 170.212 510.25 170.212 542.76C170.212 575.27 164.792 577.97 160.212 591.52C155.632 605.07 150.972 640.29 151.452 646.82C151.452 646.82 154.262 651.44 154.372 654.15C154.482 656.86 154.322 660.15 155.272 663.55C156.222 666.95 165.952 690.49 163.082 693.83C160.212 697.17 143.322 697.5 137.432 697.02C137.432 697.02 135.992 699.73 130.092 698.77C124.192 697.81 124.992 677.09 126.752 666.26C128.512 655.43 123.402 652.72 124.992 645.87C126.582 639.02 129.622 635.98 129.992 632.96C130.362 629.94 132.692 594.71 128.552 577.66C124.412 560.61 125.042 534.66 129.032 523.16C133.022 511.66 127.112 505.31 122.812 491.44C118.512 477.57 116.282 443.95 116.282 429.13C116.282 414.31 111.342 403.95 108.952 395.35C106.562 386.75 106.882 374.35 106.882 374.35L104.962 373.53L103.052 374.35C103.052 374.35 103.372 386.78 100.982 395.35C98.5922 403.92 93.6522 414.35 93.6522 429.13C93.6522 443.91 91.4222 477.58 87.1222 491.44C82.8222 505.3 76.9222 511.68 80.9022 523.16C84.8822 534.64 85.5222 560.61 81.3822 577.66C77.2422 594.71 79.6222 629.93 79.9422 632.96C80.2622 635.99 83.2922 638.96 84.8822 645.87C86.4722 652.78 81.3822 655.43 83.1322 666.26C84.8822 677.09 85.6822 697.82 79.7822 698.77C73.8822 699.72 72.3922 697 72.3922 697C66.5022 697.48 49.6122 697.16 46.7422 693.81C43.8722 690.46 53.5922 666.88 54.5422 663.53C55.4922 660.18 55.3422 656.84 55.4522 654.13C55.5622 651.42 58.3722 646.8 58.3722 646.8C58.8522 640.27 54.2322 605.05 49.6122 591.5C44.9922 577.95 39.6122 575.25 39.6122 542.74C39.6122 510.23 45.0022 494.29 45.7822 483C46.5622 471.71 40.5222 393.1 41.3222 371.9C42.1222 350.7 50.5622 292.54 53.1122 282.18C55.6622 271.82 59.3322 247.76 54.0222 233.9C48.7122 220.04 52.1522 198.36 49.7622 201.54C47.3722 204.72 44.8222 217.64 44.6622 227.36C44.5022 237.08 41.4722 250.63 38.9322 256.36C36.3922 262.09 41.1622 291.58 38.6122 306.72C36.0622 321.86 28.2522 349.27 28.2522 354.53C28.2522 359.79 31.1222 361.06 33.6722 366C36.2222 370.94 33.0022 381.94 33.0022 381.94C35.2322 396.77 33.4822 396.77 30.7722 396.61C28.0622 396.45 24.2322 383.86 24.2322 383.86L20.2322 381.94C20.2322 381.94 17.0422 385.45 19.4322 390.87C21.8222 396.29 35.6922 403.62 34.0922 405.53C32.4922 407.44 27.7222 405.37 27.7222 405.37C27.7222 405.37 37.2822 414.61 36.1722 415.73C35.7813 416.065 35.3215 416.309 34.8254 416.445C34.3293 416.582 33.8093 416.607 33.3022 416.52C33.3022 416.52 36.0122 419.71 33.7822 421.15C31.5522 422.59 25.2222 418 25.2222 418C16.4622 416.69 8.00222 395.33 6.74222 392.94C5.48222 390.55 8.81222 362.66 9.74222 352.3C10.6722 341.94 4.34222 266.24 6.42222 261.62Z"/>
</mask>
<path d="M6.42222 261.62C8.49222 257 10.4022 246.17 9.13222 239C7.86222 231.83 6.42222 195.49 10.4022 185.92C14.3822 176.35 9.60222 158.67 20.2822 141.3C30.9622 123.93 55.3422 124.57 55.3422 124.57C55.3422 124.57 78.3422 117.08 81.4822 112.46C84.6222 107.84 83.0722 87.75 83.0722 87.75C76.8622 83.13 76.2222 69.58 76.2222 69.58C76.2222 69.58 75.7422 71.98 73.3522 70.38C70.9622 68.78 70.1622 52.69 70.8022 51.26C71.4422 49.83 74.1522 50.26 74.1522 50.26C74.1522 50.26 70.3222 29.26 76.8622 18.39C83.4022 7.52 98.8522 6 104.902 6C110.952 6 126.422 7.59 133.002 18.43C139.582 29.27 135.712 50.3 135.712 50.3C135.712 50.3 138.422 49.82 139.062 51.3C139.702 52.78 138.902 68.83 136.512 70.42C134.122 72.01 133.642 69.62 133.642 69.62C133.642 69.62 133.002 83.17 126.792 87.79C126.792 87.79 125.202 107.87 128.382 112.5C131.562 117.13 154.522 124.61 154.522 124.61C154.522 124.61 178.902 123.97 189.582 141.34C200.262 158.71 195.482 176.4 199.462 185.96C203.442 195.52 202.012 231.86 200.732 239.03C199.452 246.2 201.372 257.03 203.442 261.66C205.512 266.29 199.142 341.98 200.092 352.34C201.042 362.7 204.402 390.59 203.092 392.98C201.782 395.37 193.372 416.73 184.612 417.98C184.612 417.98 178.232 422.6 176.002 421.17C173.772 419.74 176.482 416.54 176.482 416.54C175.975 416.627 175.455 416.602 174.959 416.465C174.463 416.329 174.003 416.085 173.612 415.75C172.502 414.63 182.062 405.39 182.062 405.39C182.062 405.39 177.282 407.46 175.682 405.55C174.082 403.64 187.952 396.31 190.342 390.89C192.732 385.47 189.552 381.96 189.552 381.96L185.552 383.88C185.552 383.88 181.732 396.47 179.022 396.63C176.312 396.79 174.562 396.79 176.792 381.96C176.792 381.96 173.602 370.96 176.152 366.03C178.702 361.1 181.572 359.81 181.572 354.56C181.572 349.31 173.762 321.89 171.212 306.75C168.662 291.61 173.442 262.13 170.892 256.39C168.342 250.65 165.322 237.1 165.162 227.39C165.002 217.68 162.452 204.76 160.062 201.57C157.672 198.38 161.062 220.06 155.802 233.93C150.542 247.8 154.162 271.85 156.712 282.21C159.262 292.57 167.712 350.74 168.502 371.93C169.292 393.12 163.232 471.66 164.002 483C164.772 494.34 170.212 510.25 170.212 542.76C170.212 575.27 164.792 577.97 160.212 591.52C155.632 605.07 150.972 640.29 151.452 646.82C151.452 646.82 154.262 651.44 154.372 654.15C154.482 656.86 154.322 660.15 155.272 663.55C156.222 666.95 165.952 690.49 163.082 693.83C160.212 697.17 143.322 697.5 137.432 697.02C137.432 697.02 135.992 699.73 130.092 698.77C124.192 697.81 124.992 677.09 126.752 666.26C128.512 655.43 123.402 652.72 124.992 645.87C126.582 639.02 129.622 635.98 129.992 632.96C130.362 629.94 132.692 594.71 128.552 577.66C124.412 560.61 125.042 534.66 129.032 523.16C133.022 511.66 127.112 505.31 122.812 491.44C118.512 477.57 116.282 443.95 116.282 429.13C116.282 414.31 111.342 403.95 108.952 395.35C106.562 386.75 106.882 374.35 106.882 374.35L104.962 373.53L103.052 374.35C103.052 374.35 103.372 386.78 100.982 395.35C98.5922 403.92 93.6522 414.35 93.6522 429.13C93.6522 443.91 91.4222 477.58 87.1222 491.44C82.8222 505.3 76.9222 511.68 80.9022 523.16C84.8822 534.64 85.5222 560.61 81.3822 577.66C77.2422 594.71 79.6222 629.93 79.9422 632.96C80.2622 635.99 83.2922 638.96 84.8822 645.87C86.4722 652.78 81.3822 655.43 83.1322 666.26C84.8822 677.09 85.6822 697.82 79.7822 698.77C73.8822 699.72 72.3922 697 72.3922 697C66.5022 697.48 49.6122 697.16 46.7422 693.81C43.8722 690.46 53.5922 666.88 54.5422 663.53C55.4922 660.18 55.3422 656.84 55.4522 654.13C55.5622 651.42 58.3722 646.8 58.3722 646.8C58.8522 640.27 54.2322 605.05 49.6122 591.5C44.9922 577.95 39.6122 575.25 39.6122 542.74C39.6122 510.23 45.0022 494.29 45.7822 483C46.5622 471.71 40.5222 393.1 41.3222 371.9C42.1222 350.7 50.5622 292.54 53.1122 282.18C55.6622 271.82 59.3322 247.76 54.0222 233.9C48.7122 220.04 52.1522 198.36 49.7622 201.54C47.3722 204.72 44.8222 217.64 44.6622 227.36C44.5022 237.08 41.4722 250.63 38.9322 256.36C36.3922 262.09 41.1622 291.58 38.6122 306.72C36.0622 321.86 28.2522 349.27 28.2522 354.53C28.2522 359.79 31.1222 361.06 33.6722 366C36.2222 370.94 33.0022 381.94 33.0022 381.94C35.2322 396.77 33.4822 396.77 30.7722 396.61C28.0622 396.45 24.2322 383.86 24.2322 383.86L20.2322 381.94C20.2322 381.94 17.0422 385.45 19.4322 390.87C21.8222 396.29 35.6922 403.62 34.0922 405.53C32.4922 407.44 27.7222 405.37 27.7222 405.37C27.7222 405.37 37.2822 414.61 36.1722 415.73C35.7813 416.065 35.3215 416.309 34.8254 416.445C34.3293 416.582 33.8093 416.607 33.3022 416.52C33.3022 416.52 36.0122 419.71 33.7822 421.15C31.5522 422.59 25.2222 418 25.2222 418C16.4622 416.69 8.00222 395.33 6.74222 392.94C5.48222 390.55 8.81222 362.66 9.74222 352.3C10.6722 341.94 4.34222 266.24 6.42222 261.62Z" stroke="white" mask="url(#path-2-inside-1)"/>
<defs>
<filter id="filter0_f" x="0" y="0" width="209.859" height="704.976" filterUnits="userSpaceOnUse" color-interpolation-filters="sRGB">
<feFlood flood-opacity="0" result="BackgroundImageFix"/>
<feBlend mode="normal" in="SourceGraphic" in2="BackgroundImageFix" result="shape"/>
<feGaussianBlur stdDeviation="2.5" result="effect1_foregroundBlur"/>
</filter>
</defs>
</svg>
