<svg width="28" height="28" viewBox="0 0 28 28" fill="none" xmlns="http://www.w3.org/2000/svg">
<path d="M11.2102 28C11.21 28 11.21 28 11.21 28C10.6364 28 10.0693 27.9086 9.52454 27.7282C7.86128 27.1776 5.55178 25.9836 3.99461 23.421C1.10151 18.6607 0.0135706 11.5764 0.00298963 11.5054C-0.0154593 11.3829 0.0529103 11.2638 0.168487 11.2169C3.41455 9.89896 6.79545 8.84972 10.2208 8.09716C11.347 3.90384 13.2918 0.182147 13.3114 0.144491C13.3692 0.0347529 13.4957 -0.0214611 13.6164 0.00758731C18.5634 1.20583 23.3543 3.01087 27.8556 5.37239C27.9659 5.43035 28.0223 5.55542 27.9918 5.67552C27.9743 5.74518 26.1921 12.6898 22.843 17.1465C21.5652 18.8471 19.8473 20.0347 17.7344 20.6785C17.4526 23.1751 16.2469 25.0317 15.222 26.1943C14.2104 27.3418 12.7481 28 11.2102 28ZM0.573414 11.6342C0.775403 12.8318 1.89875 18.93 4.45922 23.1433C5.9312 25.5654 8.11957 26.6959 9.69627 27.2178C10.1856 27.3798 10.6948 27.4619 11.2098 27.4619H11.21C12.5915 27.4619 13.9048 26.8709 14.8134 25.8402C15.9072 24.5993 17.2183 22.5267 17.2523 19.6992C17.3119 14.7375 15.1801 8.97452 14.7338 7.82456C14.4706 7.86289 14.2076 7.90323 13.945 7.94492C13.9375 7.946 13.9302 7.94694 13.9228 7.94748C12.787 8.12809 11.6349 8.34487 10.498 8.59179C10.4823 8.59515 10.4665 8.59717 10.4508 8.59784C7.08711 9.33023 3.76549 10.3514 0.573414 11.6342ZM17.5889 16.4511C17.7484 17.6188 17.8232 18.711 17.8112 19.7052C17.8096 19.8312 17.8051 19.9591 17.7974 20.094C19.6959 19.4703 21.2457 18.3719 22.408 16.8253C25.3735 12.8788 27.0924 6.92029 27.4114 5.74841C23.0685 3.48949 18.4565 1.75183 13.6966 0.581293C13.3032 1.36264 11.79 4.47431 10.818 7.96913C11.7449 7.77507 12.6838 7.60078 13.6178 7.44935C13.6205 7.22382 13.6632 6.9991 13.7442 6.78796C13.755 6.75986 13.7674 6.73242 13.78 6.70539L13.79 6.68333C13.8315 6.59175 13.9208 6.5307 14.0219 6.52491L16.9806 6.35452C17.0837 6.34887 17.1776 6.39917 17.2294 6.48524C17.5361 6.99507 17.5905 7.60454 17.3786 8.15727C17.1321 8.80023 16.5513 9.26057 15.8788 9.37233C16.1915 10.3112 16.5639 11.5304 16.8991 12.8958C17.5345 13.1522 18.0824 13.6336 18.6125 14.3986C18.7669 14.6213 18.9064 14.8603 19.0274 15.1087C19.8287 16.7576 19.6265 17.9606 19.6176 18.011C19.5981 18.1201 19.513 18.2061 19.4035 18.2278C19.2939 18.2493 19.1823 18.2022 19.1219 18.109C19.1157 18.0995 18.489 17.1379 17.6068 16.4644C17.6006 16.46 17.5947 16.4556 17.5889 16.4511ZM17.4785 15.7129C17.6385 15.8184 17.7925 15.9274 17.9377 16.0383C18.401 16.3921 18.7935 16.8098 19.0782 17.1518C19.029 16.6966 18.8906 16.067 18.5385 15.3422C18.4295 15.1184 18.3039 14.9034 18.1653 14.7031C17.808 14.1875 17.4489 13.821 17.0609 13.5806C17.227 14.3126 17.367 15.0273 17.4785 15.7129ZM15.0075 7.26941C15.0832 7.29322 15.1473 7.34876 15.1782 7.42474C15.1877 7.44814 15.4001 7.97303 15.7048 8.85309C16.2254 8.79929 16.6834 8.45636 16.8715 7.96604C17.005 7.61746 16.9916 7.23741 16.8378 6.90133L14.2258 7.05182C14.1929 7.15389 14.1723 7.25785 14.164 7.36315C14.3987 7.32724 14.6335 7.29268 14.8689 7.25946C14.8816 7.25771 14.8943 7.25677 14.9067 7.25677C14.942 7.25462 14.9758 7.25919 15.0075 7.26941ZM10.678 24.2185C10.119 24.2185 9.5107 24.1003 8.81832 23.8571C8.51174 23.7494 8.20829 23.616 7.91649 23.4604C5.97732 22.4265 5.32415 21.1302 5.29729 21.0755C5.24845 20.9759 5.26622 20.8568 5.34192 20.7754C5.41761 20.6941 5.53604 20.667 5.64022 20.7074C5.65325 20.7124 6.95634 21.2117 8.30433 21.2491C9.66033 21.2863 10.7461 20.9997 10.7563 20.9969C10.7669 20.9941 11.8507 20.6963 12.9997 19.9849C14.1435 19.2767 15.013 18.1925 15.0215 18.1816C15.091 18.0946 15.2067 18.0587 15.3136 18.0909C15.4205 18.1231 15.4966 18.217 15.5051 18.3274C15.5099 18.3881 15.6078 19.8339 14.4625 21.6981C14.2901 21.9786 14.0963 22.246 13.8869 22.4926C12.8729 23.6862 11.8831 24.2185 10.678 24.2185ZM6.22503 21.4585C6.59129 21.8881 7.21096 22.4733 8.17356 22.9866C8.44107 23.1292 8.71902 23.2514 8.99955 23.35C9.63279 23.5724 10.1818 23.6805 10.6781 23.6805C11.7087 23.6805 12.5704 23.2073 13.4719 22.1461C13.6637 21.9204 13.841 21.6755 13.9991 21.4183C14.5677 20.4927 14.8035 19.6774 14.9004 19.123C14.5136 19.5175 13.9482 20.0317 13.287 20.4411C12.0668 21.1966 10.9454 21.5034 10.8982 21.516C10.8538 21.5279 9.72707 21.8267 8.28914 21.7866C7.5098 21.7651 6.75977 21.6049 6.22503 21.4585ZM5.32863 17.8242C5.28128 17.8242 5.23394 17.812 5.19148 17.7873C4.74911 17.5305 4.43168 17.1195 4.29766 16.6301C4.01685 15.6045 4.62987 14.5436 5.66437 14.2651C5.83136 14.2202 6.00323 14.1973 6.17483 14.1973C7.0494 14.1973 7.82045 14.7823 8.04998 15.62C8.05703 15.6457 8.06246 15.6715 8.06761 15.6973L8.0725 15.7207C8.09515 15.825 8.05351 15.9327 7.96628 15.9952L5.48775 17.7731C5.4404 17.8071 5.38452 17.8242 5.32863 17.8242ZM6.1747 14.7354C6.05098 14.7354 5.92713 14.7519 5.8064 14.7843C5.06071 14.9851 4.61875 15.7499 4.82128 16.4892C4.90281 16.7864 5.07807 17.0435 5.32211 17.2279L7.49705 15.6678C7.30239 15.1141 6.77198 14.7354 6.1747 14.7354ZM13.6822 15.5755C13.6735 15.5755 13.6648 15.5751 13.6561 15.5743L10.611 15.2834C10.5038 15.2732 10.4129 15.2011 10.3793 15.0997L10.3713 15.0764C10.3627 15.052 10.3543 15.0273 10.3474 15.0021C10.0665 13.9762 10.6796 12.9153 11.714 12.6368C11.881 12.5919 12.0527 12.569 12.2245 12.569C13.099 12.569 13.8701 13.154 14.0996 13.9917C14.2336 14.4812 14.1695 14.9949 13.9189 15.4382C13.8705 15.5233 13.7796 15.5755 13.6822 15.5755ZM10.8484 14.7656L13.5206 15.0209C13.637 14.7396 13.6571 14.4297 13.5757 14.1325C13.4103 13.5287 12.8546 13.1069 12.2243 13.1069C12.1006 13.1069 11.9768 13.1235 11.856 13.1559C11.1422 13.3479 10.7068 14.0568 10.8484 14.7656ZM21.4004 11.6003C21.1646 11.6003 20.9323 11.5579 20.71 11.4742C20.2246 11.2913 19.8402 10.9319 19.6274 10.4624C19.4147 9.99283 19.3991 9.46929 19.5837 8.98811C19.7956 8.43538 20.2444 8.01553 20.8153 7.83626C20.9117 7.806 21.0171 7.83128 21.0889 7.90229L23.1866 9.97777C23.258 10.0484 23.284 10.1525 23.2541 10.2479L23.2476 10.2689C23.2386 10.2982 23.2294 10.3276 23.2183 10.3566C22.9328 11.1007 22.2025 11.6003 21.4004 11.6003ZM20.8291 8.40526C20.489 8.55521 20.2244 8.83049 20.0908 9.17894C19.9578 9.52591 19.9691 9.90327 20.1224 10.2418C20.2756 10.5803 20.5529 10.8393 20.9029 10.9711C21.0633 11.0316 21.2307 11.0621 21.4004 11.0621C21.9525 11.0621 22.4576 10.7337 22.6809 10.2373L20.8291 8.40526Z" fill="white"/>
</svg>
