<svg width="43" height="43" viewBox="0 0 43 43" fill="none" xmlns="http://www.w3.org/2000/svg">
<g filter="url(#filter0_f)">
<circle cx="21.5" cy="21.5" r="14.5" fill="#21DB70" fill-opacity="0.64"/>
</g>
<circle cx="21.5" cy="21.5" r="13.5" fill="#21DB70" fill-opacity="0.8"/>
<path d="M20.9566 16.475C20.9566 16.1118 20.9566 15.7566 20.9566 15.401C20.9566 15.0812 21.0433 15 21.3795 15C21.6328 15 21.886 15 22.1396 15C22.4268 15.0007 22.527 15.0946 22.527 15.3689C22.527 15.7419 22.527 16.1145 22.527 16.4998C22.6361 16.5282 22.7398 16.5542 22.8434 16.582C24.1243 16.9225 24.9182 17.8919 24.9659 19.1728C24.9739 19.3884 24.8896 19.4893 24.6674 19.4926C24.2013 19.4996 23.7345 19.499 23.2684 19.4926C23.0649 19.4903 22.9772 19.4044 22.9464 19.2136C22.936 19.1468 22.9271 19.0799 22.915 19.0154C22.7436 18.1061 21.7527 17.6607 20.9172 18.1188C20.8478 18.1582 20.7834 18.2054 20.7255 18.2595C20.3229 18.6271 20.1816 19.7115 20.853 20.1392C21.2177 20.3707 21.6059 20.5656 22.0115 20.721C22.6334 20.9593 23.2474 21.1962 23.805 21.5652C24.5009 22.026 24.9037 22.6432 24.9797 23.4536C25.0416 24.1045 24.9749 24.7361 24.5955 25.3006C24.1516 25.9615 23.4882 26.3007 22.7163 26.4738L22.5815 26.5029C22.5705 26.5056 22.5601 26.5113 22.5252 26.5246V26.9256C22.5252 27.1763 22.5283 27.4269 22.5252 27.6772C22.5221 27.8757 22.4192 27.99 22.226 27.9943C21.9035 28.0019 21.5811 28.0019 21.2586 27.9943C21.063 27.99 20.9604 27.8784 20.9576 27.6792C20.9532 27.3671 20.9576 27.0553 20.9576 26.7435V26.5941C20.5531 26.4832 20.1605 26.4103 19.7964 26.2693C18.6572 25.8282 18.046 25.0092 18.0008 23.8125C17.9911 23.5451 18.0726 23.4573 18.3501 23.4549C18.782 23.4511 19.2138 23.4511 19.6457 23.4549C19.9263 23.4569 19.985 23.5114 20.0234 23.7781C20.1429 24.5891 20.5734 24.9878 21.423 25.0503C21.601 25.0637 21.7799 25.0569 21.9562 25.0302C22.69 24.9173 23.0787 24.3284 22.936 23.5655C22.8742 23.236 22.7132 22.961 22.4178 22.7882C22.1221 22.6175 21.8159 22.4645 21.5008 22.3301C21.0143 22.1186 20.505 21.9535 20.031 21.7209C19.2791 21.3513 18.641 20.8567 18.4461 20.0016C18.2371 19.0859 18.3079 18.2141 18.9623 17.4619C19.4236 16.9325 20.0362 16.6548 20.7244 16.5181C20.7932 16.5061 20.8609 16.4934 20.9566 16.475Z" fill="white"/>
<defs>
<filter id="filter0_f" x="0" y="0" width="43" height="43" filterUnits="userSpaceOnUse" color-interpolation-filters="sRGB">
<feFlood flood-opacity="0" result="BackgroundImageFix"/>
<feBlend mode="normal" in="SourceGraphic" in2="BackgroundImageFix" result="shape"/>
<feGaussianBlur stdDeviation="3.5" result="effect1_foregroundBlur"/>
</filter>
</defs>
</svg>
