<svg width="30" height="30" viewBox="0 0 30 30" fill="none" xmlns="http://www.w3.org/2000/svg">
<path d="M4.39541 18.7878C4.39259 18.7871 4.3895 18.7863 4.38617 18.7856C4.37682 18.7834 4.36643 18.7815 4.35507 18.7802C3.79823 18.6873 3.22783 18.8106 2.76003 19.1235H2.75362L2.68857 19.1697C1.89046 19.7372 1.55102 20.7557 1.84911 21.6885C2.14681 22.62 3.01209 23.2525 3.98983 23.2536M4.39541 18.7878L6.24342 20.9964C6.24346 20.9977 6.24349 20.9989 6.24352 21.0002M4.39541 18.7878C5.46499 18.982 6.24281 19.9132 6.24352 21.0002M4.39541 18.7878L6.24352 21.0002M3.98983 23.2536C3.98849 23.2536 3.98715 23.2535 3.98581 23.2535L3.99352 23.0036L3.99366 23.2536C3.99238 23.2536 3.99111 23.2536 3.98983 23.2536ZM3.98983 23.2536C4.05524 23.2554 4.12074 23.2521 4.18569 23.2436M4.18569 23.2436H4.34965L4.40892 23.0777C4.68532 22.3041 5.29411 21.6954 6.06769 21.419L6.21028 21.368L6.23118 21.218C6.24123 21.1459 6.24537 21.073 6.24352 21.0002M4.18569 23.2436H4.1735H4.16852V22.9936L4.1735 23.0276L4.20473 23.241C4.19839 23.2419 4.19204 23.2428 4.18569 23.2436Z" stroke="white" stroke-width="0.5"/>
<path d="M6.52163 21.8023L6.53937 21.7983C6.68923 21.7648 6.84266 21.7493 6.99635 21.7523C8.19706 21.7514 9.1858 22.6965 9.23882 23.8963L9.24553 24.0483L9.11365 24.1241C8.42771 24.5184 7.94785 25.1922 7.79957 25.9693L7.77109 26.1186L7.62547 26.162C7.42036 26.2232 7.2073 26.2537 6.99325 26.2524M6.52163 21.8023L6.99398 26.0024M6.52163 21.8023H6.49024L6.46059 21.8171C6.45984 21.8172 6.45908 21.8174 6.45831 21.8176C6.4533 21.819 6.44666 21.8208 6.43887 21.8235C5.64605 22.0284 5.0261 22.6459 4.81768 23.4372C4.81068 23.4543 4.80511 23.472 4.80109 23.4902C4.79343 23.5154 4.78836 23.5412 4.7858 23.567C4.75561 23.7107 4.74151 23.8575 4.74392 24.0046M6.52163 21.8023L4.99391 24.0024M6.99325 26.2524C6.99299 26.2524 6.99273 26.2524 6.99246 26.2524L6.99398 26.0024M6.99325 26.2524C6.99349 26.2524 6.99374 26.2524 6.99398 26.2524V26.0024M6.99325 26.2524C5.75167 26.2521 4.74509 25.246 4.74392 24.0046M6.99398 26.0024C5.88941 26.0024 4.99391 25.107 4.99391 24.0024M4.74392 24.0046C4.74393 24.0053 4.74394 24.006 4.74395 24.0068L4.99391 24.0024M4.74392 24.0046C4.74392 24.0038 4.74391 24.0031 4.74391 24.0024H4.99391" stroke="white" stroke-width="0.5"/>
<path d="M4.26592 18.2671L4.37359 18.2791L4.45597 18.2087C4.97586 17.7647 5.2652 17.1081 5.24224 16.4249C5.21929 15.7416 4.88636 15.106 4.33782 14.6979L4.32373 14.6874L4.30832 14.679C4.30073 14.6749 4.29368 14.6698 4.28736 14.6641L4.27546 14.6532L4.26226 14.6439C3.77517 14.3019 3.16903 14.1751 2.58575 14.2931C1.55983 14.4853 0.800693 15.3578 0.752427 16.4007C0.704129 17.4442 1.38036 18.3837 2.3852 18.6691L2.49062 18.6991L2.58409 18.6419C3.0875 18.3335 3.67923 18.2017 4.26592 18.2671Z" stroke="white" stroke-width="0.5"/>
<path d="M4.49367 8.00201L4.24367 8.00102C4.24188 8.45306 4.37984 8.89461 4.63873 9.26523L4.68859 9.33661L4.77201 9.36157C5.25108 9.50493 5.68214 9.77589 6.01892 10.1455L6.07484 10.2068L6.49373 10.0021V10.2521C6.49451 10.2521 6.4953 10.2521 6.49608 10.2521C7.7377 10.2508 8.74379 9.24387 8.74379 8.00201C8.74379 6.75931 7.73637 5.75195 6.49373 5.75195C5.25103 5.75195 4.24367 6.75938 4.24367 8.00201H4.49367ZM4.49367 8.00201C4.49208 8.40251 4.61431 8.7937 4.84368 9.12206M4.49367 8.00201L4.84368 9.12206M4.84368 9.12206C5.36619 9.27842 5.83636 9.57396 6.20371 9.97708L4.84368 9.12206Z" stroke="white" stroke-width="0.5"/>
<path d="M2.60142 13.7671L2.5313 13.7073C1.81501 13.0958 1.55605 12.1026 1.88276 11.2193C2.20934 10.3363 3.05171 9.75065 3.99305 9.75199C3.99341 9.75199 3.99376 9.75199 3.99412 9.75199L3.99364 10.002C4.1418 10.001 4.28952 10.0178 4.43368 10.052L2.60142 13.7671ZM2.60142 13.7671H2.69361H2.70362H2.71765L2.73159 13.7656C3.31642 13.6997 3.90649 13.8315 4.40763 14.14L4.50118 14.1976L4.60687 14.1677C5.32151 13.965 5.89006 13.4228 6.12632 12.7185C6.36258 12.0143 6.23602 11.2388 5.78817 10.6463L5.71315 10.547H5.70835C5.39432 10.1737 4.96604 9.91404 4.4895 9.80828L2.60142 13.7671ZM5.79525 10.6606L5.79225 10.656C5.79453 10.6594 5.7963 10.6623 5.79525 10.6606Z" stroke="white" stroke-width="0.5"/>
<path d="M27.2813 19.1562L27.2806 19.1558C27.2776 19.1535 27.2732 19.1504 27.2686 19.1472C27.2649 19.1446 27.2599 19.1413 27.2539 19.1376C26.7686 18.8005 26.1667 18.6759 25.5873 18.7929C24.5196 18.9856 23.7432 19.9153 23.7441 21.0001C23.7422 21.0718 23.7464 21.1436 23.7568 21.2147L23.7784 21.3627L23.9191 21.4136C24.6927 21.6935 25.3012 22.3037 25.5789 23.078L25.6299 23.2204L25.7797 23.2412C25.8518 23.2513 25.9247 23.2554 25.9974 23.2536C26.9666 23.253 27.8266 22.6318 28.1317 21.7116C28.436 20.7935 28.1196 19.7842 27.3467 19.2041C27.3258 19.1862 27.3039 19.1702 27.2813 19.1562Z" stroke="white" stroke-width="0.5"/>
<path d="M27.3979 14.2835L27.3718 14.2699L27.3391 14.2738C26.764 14.1817 26.1758 14.3214 25.7036 14.6622C25.6878 14.6715 25.6718 14.6816 25.656 14.6927L25.6559 14.6926L25.6493 14.6976C25.0824 15.1244 24.7477 15.7917 24.7446 16.5013H24.7446L24.7446 16.5028C24.7456 17.1588 25.0334 17.7816 25.5323 18.2076L25.6148 18.278L25.7225 18.2659C26.3108 18.2 26.9043 18.3319 27.4093 18.6408L27.5023 18.6976L27.6072 18.6682C28.6179 18.3848 29.2985 17.4404 29.2474 16.3919C29.1969 15.3566 28.4461 14.4916 27.4321 14.2933L27.4269 14.2883L27.3979 14.2835Z" stroke="white" stroke-width="0.5"/>
<path d="M25.9948 9.75196C26.9364 9.75041 27.779 10.3361 28.1056 11.2193L28.1056 11.2193C28.4323 12.1026 28.1734 13.0959 27.4571 13.7073L27.3747 13.7776L27.2671 13.7656C26.6804 13.7002 26.0887 13.8321 25.5852 14.1404L25.4925 14.1971L25.3878 14.168C24.415 13.8978 23.7425 13.0112 23.7446 12.0015L23.7446 12.0012C23.7464 11.5139 23.9038 11.0399 24.1937 10.6483L24.2047 10.6334L24.2169 10.6212C24.2175 10.6206 24.2191 10.6187 24.2225 10.6146C24.2228 10.6142 24.2231 10.6138 24.2235 10.6134C24.2279 10.6081 24.2359 10.5984 24.2462 10.5874C24.5536 10.2046 24.9787 9.93406 25.4556 9.81767C25.458 9.81686 25.4602 9.81613 25.4624 9.81546C25.4637 9.81506 25.4649 9.81467 25.4662 9.81429L25.4769 9.80898L25.5079 9.8024C25.668 9.76849 25.8312 9.75157 25.9948 9.75196ZM25.9948 9.75196C25.995 9.75196 25.9952 9.75196 25.9954 9.75196L25.9947 10.002L25.9943 9.75196C25.9945 9.75196 25.9947 9.75196 25.9948 9.75196Z" stroke="white" stroke-width="0.5"/>
<path d="M23.9102 10.2161L23.8211 10.2294C23.7124 10.2456 23.6026 10.2532 23.4929 10.2521M23.9102 10.2161L21.2441 8.00201C21.2441 9.24429 22.2508 10.2514 23.4929 10.2521M23.9102 10.2161L23.9704 10.1489M23.9102 10.2161L23.9704 10.1489M23.4929 10.2521C23.4925 10.2521 23.492 10.2521 23.4916 10.2521L23.4941 10.0021V10.2521C23.4937 10.2521 23.4933 10.2521 23.4929 10.2521ZM23.9704 10.1489C24.3051 9.77525 24.7377 9.50269 25.2193 9.36203L25.3048 9.33706M23.9704 10.1489L25.3048 9.33706M25.3048 9.33706L25.3553 9.26362M25.3048 9.33706L25.3553 9.26362M25.3553 9.26362C25.6104 8.89227 25.746 8.45196 25.7443 8.0015M25.3553 9.26362L25.7443 8.0015M25.7443 8.0015C25.744 6.75904 24.7367 5.75195 23.4942 5.75195C22.2516 5.75195 21.2441 6.75937 21.2441 8.002L25.7443 8.0015Z" stroke="white" stroke-width="0.5"/>
<path d="M25.1802 23.4734L25.1798 23.4734C25.1798 23.4733 25.1798 23.4734 25.185 23.4917C25.1888 23.5048 25.195 23.5269 25.1999 23.5534C25.2326 23.7015 25.2477 23.8531 25.2447 24.0049C25.2432 25.2461 24.2368 26.252 22.9954 26.2524C22.9951 26.2524 22.9948 26.2524 22.9946 26.2524V26.0024C22.805 26.0035 22.6163 25.9766 22.4346 25.9224L25.1802 23.4734ZM25.1802 23.4734L25.1771 23.4612C24.9738 22.6536 24.3432 22.023 23.5356 21.8198L23.5256 21.8173L23.5155 21.8156C23.5154 21.8156 23.5146 21.8154 23.5129 21.815L23.5014 21.8119L23.4791 21.8055C23.4705 21.8032 23.4592 21.8003 23.4465 21.7976M25.1802 23.4734L23.4465 21.7976M23.4465 21.7976C23.4471 21.7978 23.4477 21.7979 23.4483 21.798L23.3946 22.0422L23.4439 21.7971C23.4448 21.7973 23.4456 21.7975 23.4465 21.7976Z" stroke="white" stroke-width="0.5"/>
<path d="M21.7294 26.2916C21.7325 26.3095 21.7342 26.3277 21.7345 26.3459C21.7402 26.3971 21.7435 26.4485 21.7443 26.4999L21.7444 26.5042H21.7444C21.7444 27.7467 20.7372 28.7541 19.4946 28.7542M21.7294 26.2916L17.7442 27.0037C17.7437 27.2233 17.7175 27.4422 17.6662 27.6557L17.6386 27.7701L17.7092 27.8642C18.1306 28.426 18.7924 28.7559 19.4946 28.7542M21.7294 26.2916V26.2733L21.726 26.2529L21.7253 26.2492C21.717 26.1989 21.7072 26.1405 21.6933 26.0801C21.6906 26.0404 21.6827 26.0012 21.6698 25.9635C21.6514 25.8829 21.6275 25.8036 21.5984 25.726L21.5956 25.7187L21.5924 25.7115C21.591 25.7085 21.5897 25.705 21.5885 25.7011L21.5889 25.701L21.5841 25.688C21.56 25.6222 21.5311 25.5582 21.4978 25.4965C21.4492 25.3926 21.391 25.2934 21.3239 25.2002C21.2717 25.1241 21.2134 25.0525 21.1495 24.9859C21.1164 24.9433 21.079 24.904 21.0378 24.869C21.0016 24.8336 20.9631 24.8009 20.9345 24.777L20.9346 24.7769L20.9267 24.7708C20.9145 24.7614 20.9007 24.7505 20.8855 24.7385C20.8358 24.6992 20.7722 24.649 20.7096 24.6087C20.628 24.5563 20.5333 24.5065 20.4511 24.4654L20.3983 24.439H20.392C20.3857 24.4362 20.3804 24.4339 20.3763 24.4322L20.3752 24.4317C20.3662 24.4278 20.3637 24.4267 20.3612 24.4254L20.3531 24.4214L20.3448 24.418C20.0749 24.3065 19.7851 24.2507 19.4931 24.254C18.616 24.2528 17.8187 24.7628 17.4521 25.5596L17.4019 25.6685L17.4556 25.7758C17.6461 26.157 17.7449 26.5774 17.7442 27.0036L21.7294 26.2916ZM19.4946 28.7542C19.4945 28.7542 19.4944 28.7542 19.4943 28.7542V28.5042L19.4949 28.7542C19.4948 28.7542 19.4947 28.7542 19.4946 28.7542Z" stroke="white" stroke-width="0.5"/>
<path d="M16.5858 28.5959C17.211 27.9721 17.4033 27.0511 17.1099 26.2438H17.1611L16.9338 25.8652L16.8887 25.7902L16.8889 25.7901L16.8843 25.7831C16.7982 25.6499 16.6986 25.526 16.5873 25.4132L16.5873 25.4132L16.5859 25.4118C15.7061 24.5346 14.2825 24.5346 13.4027 25.4118L13.4027 25.4118L13.4013 25.4132C13.29 25.5261 13.1904 25.65 13.1043 25.783L13.1042 25.7829L13.0999 25.7902L13.0548 25.8652L13.0548 25.8652L13.0542 25.8662C12.8497 26.2108 12.7426 26.6043 12.7442 27.0049L12.9942 27.0039L12.7442 27.0046C12.7448 27.2262 12.7768 27.4467 12.8393 27.6594L12.8393 27.6594L12.8402 27.6623C13.0722 28.4175 13.6828 28.996 14.4493 29.1871C15.2158 29.3782 16.0265 29.1539 16.5858 28.5959L16.5858 28.5959Z" stroke="white" stroke-width="0.5"/>
<path d="M10.4931 28.7522C11.1954 28.754 11.8574 28.4241 12.2788 27.8622L12.3494 27.7681L12.3219 27.6537C12.2705 27.4401 12.2443 27.2213 12.2438 27.0016C12.2431 26.5754 12.3419 26.1551 12.5324 25.7738L12.5861 25.6665L12.5359 25.5576C12.1694 24.7609 11.372 24.2508 10.495 24.2521C10.2029 24.2488 9.91326 24.3045 9.6433 24.416L9.63498 24.4194L9.62692 24.4235C9.62433 24.4248 9.62187 24.4259 9.61283 24.4297L9.61175 24.4302C9.60316 24.4339 9.58871 24.4401 9.57206 24.4484L9.6837 24.6721L9.5719 24.4485L9.54568 24.4615M10.4931 28.7522L10.4937 28.5022V28.7522C10.4935 28.7522 10.4933 28.7522 10.4931 28.7522ZM10.4931 28.7522C9.25073 28.7519 8.24365 27.7446 8.24365 26.5022C8.24365 26.4561 8.24792 26.4095 8.25165 26.3688C8.25252 26.3593 8.25336 26.3501 8.2541 26.3414M8.2541 26.3414C8.25382 26.3464 8.25366 26.3517 8.25366 26.3572H8.50366L8.25452 26.3365C8.25438 26.3381 8.25425 26.3397 8.2541 26.3414ZM8.2541 26.3414C8.25498 26.3257 8.257 26.3128 8.25867 26.3038C8.25926 26.3007 8.25985 26.2978 8.2604 26.2953M8.2604 26.2953C8.26005 26.2994 8.25971 26.3036 8.25939 26.3078L8.25864 26.3175V26.3271C8.25864 26.32 8.25899 26.3135 8.2595 26.3078C8.26025 26.2994 8.26134 26.2929 8.2621 26.2888L8.26354 26.2818M8.2604 26.2953C8.2609 26.2929 8.26137 26.2909 8.26176 26.2892L8.26354 26.2818M8.2604 26.2953C8.32689 25.4972 8.81784 24.7964 9.54568 24.4615M8.26354 26.2818L8.26359 26.2817C8.26369 26.2812 8.26378 26.2808 8.26378 26.2808C8.26378 26.2808 8.26371 26.2811 8.26354 26.2818ZM9.54568 24.4615L9.54203 24.4634L9.65368 24.6871L9.54962 24.4597C9.54831 24.4603 9.547 24.4609 9.54568 24.4615Z" stroke="white" stroke-width="0.5"/>
<path d="M10.994 0.751957C10.1706 0.750466 9.41242 1.19961 9.01815 1.92251C8.65509 2.58816 8.65419 3.38757 9.00538 4.04988L7.88383 5.28398L7.68061 5.50761L7.93834 5.66535C8.20143 5.82638 8.43529 6.03079 8.63001 6.27L8.81358 6.4955L9.00901 6.2802L10.1138 5.06305C10.9028 5.40089 11.8235 5.2605 12.4777 4.68723L12.4777 4.68722C13.1817 4.07023 13.4292 3.08136 13.099 2.20542L13.0989 2.20539C12.7687 1.32972 11.93 0.75055 10.994 0.751957ZM10.994 0.751957C10.9939 0.751957 10.9937 0.751957 10.9936 0.751958L10.994 1.00196L10.9945 0.751958C10.9943 0.751957 10.9942 0.751957 10.994 0.751957ZM10.4191 3.4806L10.4882 3.54773C10.6235 3.67917 10.8048 3.75248 10.9934 3.75208L10.994 3.75208C11.4082 3.75208 11.744 3.41627 11.7441 3.00202L10.4191 3.4806ZM10.4191 3.4806C10.3064 3.34766 10.2438 3.17833 10.244 3.00227V3.00202C10.244 2.58778 10.5798 2.25196 10.994 2.25196C11.4083 2.25196 11.7441 2.58776 11.7441 3.00199L10.4191 3.4806Z" stroke="white" stroke-width="0.5"/>
<path d="M18.2442 3.00188L18.2442 3.00209C18.2442 3.41627 17.9086 3.75217 17.4942 3.75217C17.0803 3.75217 16.7447 3.41684 16.7442 3.00309M18.2442 3.00188L20.6889 0.775623C20.4294 0.706097 20.1525 0.780334 19.9626 0.970287L19.9625 0.970258L19.9594 0.973515L19.9563 0.976749C19.2971 0.656201 18.5171 0.677887 17.8727 1.04503C17.1699 1.44543 16.7384 2.19435 16.7442 3.00309M18.2442 3.00188C18.244 2.69879 18.4261 2.42538 18.7059 2.3089C18.9553 2.20507 19.2385 2.24406 19.4493 2.40501V2.54703H19.5913M18.2442 3.00188L19.5913 2.54703M16.7442 3.00309C16.7442 3.00278 16.7442 3.00246 16.7442 3.00214H16.9942M16.7442 3.00309C16.7442 3.00341 16.7442 3.00373 16.7442 3.00405L16.9942 3.00214M16.9942 3.00214C16.9942 3.27827 17.218 3.50217 17.4942 3.50217C17.7704 3.50217 17.9942 3.27827 17.9942 3.00209C17.9939 2.59798 18.2368 2.23342 18.6098 2.0781L16.9942 3.00214ZM19.5913 2.54703C19.6921 2.67921 19.7465 2.84218 19.7441 3.01027C19.7417 3.18457 19.6784 3.35159 19.5666 3.48315L19.5001 3.54777C19.3648 3.67921 19.1834 3.75255 18.9948 3.75215H18.9943C18.5801 3.75215 18.2442 4.0879 18.2442 4.50217C18.2442 4.91643 18.58 5.2522 18.9943 5.25221L18.9964 5.25219C19.2998 5.24957 19.5988 5.18542 19.8755 5.06438L20.9792 6.28027L21.1747 6.49555L21.3582 6.27009C21.553 6.0309 21.7868 5.82644 22.0499 5.66542L22.3076 5.50767L22.1044 5.28405L20.9835 4.05061C21.318 3.42544 21.3315 2.67641 21.0201 2.03971L21.0229 2.03699L21.0229 2.03702L21.0261 2.03382C21.2161 1.84385 21.2903 1.56695 21.2208 1.3074C21.1512 1.04795 20.9486 0.845157 20.689 0.775642L19.5913 2.54703Z" stroke="white" stroke-width="0.5"/>
</svg>
