<svg width="28" height="26" viewBox="0 0 28 26" fill="none" xmlns="http://www.w3.org/2000/svg">
<path d="M27.8489 6.79448C27.8425 6.78768 27.8358 6.78102 27.829 6.77457L22.0491 1.63745C21.9963 1.58938 21.9348 1.55209 21.8678 1.52757L17.6866 0.033135C17.4014 -0.0704314 17.0863 0.0768829 16.9827 0.362103C16.964 0.413542 16.9532 0.467455 16.9504 0.522122C16.9504 0.642996 16.7691 3.42857 13.9835 3.47253C11.1815 3.42857 11.0056 0.642996 11.0001 0.522122C10.9839 0.219115 10.7252 -0.01336 10.4222 0.00284798C10.3701 0.00566378 10.3187 0.0158281 10.2694 0.033135L6.09379 1.54405C6.02676 1.56857 5.96523 1.60586 5.91248 1.65394L0.171001 6.77457C-0.0489745 6.98355 -0.0579026 7.33134 0.151085 7.55131C0.15754 7.55811 0.164202 7.56477 0.171001 7.57123L4.74221 12.1919V24.8286C4.74221 25.1321 4.98821 25.3781 5.29163 25.3781H22.7084C23.0118 25.3781 23.2578 25.1321 23.2578 24.8286V12.1919L27.829 7.57123C28.049 7.36224 28.0579 7.01453 27.8489 6.79448ZM23.2413 10.626V8.0767C23.2413 7.77328 22.9953 7.52728 22.6919 7.52728C22.3885 7.52728 22.1425 7.77328 22.1425 8.0767V24.2517H5.81908V8.0767C5.81908 7.77328 5.57307 7.52728 5.26966 7.52728C4.96624 7.52728 4.72023 7.77328 4.72023 8.0767V10.6315L1.34127 7.20861L6.57179 2.52752L10.0112 1.28582C10.4373 3.48118 12.5624 4.91552 14.7577 4.48944C16.379 4.17476 17.6467 2.9071 17.9613 1.28582L21.4007 2.52752L26.6148 7.20861L23.2413 10.626Z" fill="white"/>
</svg>
