<svg width="25" height="28" viewBox="0 0 25 28" fill="none" xmlns="http://www.w3.org/2000/svg">
<path d="M21.0963 3.04308L19.5246 2.57057C19.3649 1.84275 18.9615 1.19123 18.3812 0.7238C17.8009 0.256367 17.0785 0.00102126 16.3333 0H7.93334C7.1882 0.00102126 6.46573 0.256367 5.88543 0.7238C5.30514 1.19123 4.90178 1.84275 4.74209 2.57057L3.17036 3.04308C2.26366 3.27131 1.45922 3.79596 0.88482 4.53369C0.310416 5.27142 -0.001012 6.17994 2.47061e-06 7.11492V24.7333C-4.65621e-05 24.9302 0.0415024 25.1248 0.121926 25.3044C0.202349 25.484 0.319831 25.6446 0.466669 25.7757V27.5333C0.466669 27.6571 0.515836 27.7758 0.603353 27.8633C0.69087 27.9508 0.809568 28 0.933336 28H3.73334C3.8571 28 3.9758 27.9508 4.06332 27.8633C4.15084 27.7758 4.2 27.6571 4.2 27.5333V25.7757C4.3429 25.648 4.458 25.4923 4.53816 25.3183C4.61831 25.1443 4.6618 24.9556 4.66591 24.764C4.94281 24.9666 5.26228 25.1034 5.6 25.1639V26.6C5.6 26.7238 5.64917 26.8425 5.73669 26.93C5.8242 27.0175 5.9429 27.0667 6.06667 27.0667H18.2C18.3238 27.0667 18.4425 27.0175 18.53 26.93C18.6175 26.8425 18.6667 26.7238 18.6667 26.6V25.1639C19.0044 25.1034 19.3239 24.9666 19.6008 24.764C19.6049 24.9556 19.6484 25.1443 19.7285 25.3183C19.8087 25.4923 19.9238 25.648 20.0667 25.7757V27.5333C20.0667 27.6571 20.1158 27.7758 20.2034 27.8633C20.2909 27.9508 20.4096 28 20.5333 28H23.3333C23.4571 28 23.5758 27.9508 23.6633 27.8633C23.7508 27.7758 23.8 27.6571 23.8 27.5333V25.7757C23.9468 25.6446 24.0643 25.484 24.1447 25.3044C24.2252 25.1248 24.2667 24.9302 24.2667 24.7333V7.11492C24.2677 6.17994 23.9563 5.27142 23.3819 4.53369C22.8074 3.79596 22.003 3.27131 21.0963 3.04308ZM16.5979 0.948208C17.1256 1.00923 17.6168 1.24815 17.9906 1.62562C18.3644 2.00308 18.5985 2.49659 18.6543 3.02488L13.4948 6.46456L16.5979 0.948208ZM9.78128 2.8H14.4854L12.1333 6.98145L9.78128 2.8ZM15.0104 1.86667H9.25628L8.73128 0.933333H15.5354L15.0104 1.86667ZM7.66879 0.948208L10.7721 6.46485L5.61237 3.02517C5.66816 2.49683 5.90223 2.00326 6.27602 1.62573C6.64981 1.2482 7.14104 1.00924 7.66879 0.948208ZM3.26667 27.0667H1.4V26.1333H3.26667V27.0667ZM17.7333 26.1333H6.53334V25.2H17.7333V26.1333ZM18.2663 24.2667H6.0004C5.6468 24.2663 5.30779 24.1256 5.05775 23.8756C4.80772 23.6255 4.66707 23.2865 4.66667 22.9329V10.2667C4.66667 10.1429 4.6175 10.0242 4.52999 9.93668C4.44247 9.84917 4.32377 9.8 4.2 9.8C4.07623 9.8 3.95754 9.84917 3.87002 9.93668C3.7825 10.0242 3.73334 10.1429 3.73334 10.2667V24.7333C3.7332 24.8571 3.68399 24.9757 3.5965 25.0632C3.50901 25.1507 3.39039 25.1999 3.26667 25.2H1.4C1.27628 25.1999 1.15766 25.1507 1.07017 25.0632C0.982686 24.9757 0.933475 24.8571 0.933336 24.7333V7.11492C0.932511 6.38619 1.17573 5.67817 1.62419 5.10379C2.07266 4.5294 2.70055 4.12173 3.40772 3.94578C3.41484 3.94397 3.42189 3.94205 3.42889 3.93995L4.75627 3.54095C4.7886 3.58564 4.82862 3.62424 4.87445 3.65493L10.7333 7.56088V14C10.7333 14.1238 10.7825 14.2425 10.87 14.33C10.9575 14.4175 11.0762 14.4667 11.2 14.4667C11.3238 14.4667 11.4425 14.4175 11.53 14.33C11.6175 14.2425 11.6667 14.1238 11.6667 14V8.18306L11.8745 8.3216C11.9511 8.37272 12.0412 8.39999 12.1333 8.39999C12.2255 8.39999 12.3156 8.37272 12.3922 8.3216L12.6 8.18306V14C12.6 14.1238 12.6492 14.2425 12.7367 14.33C12.8242 14.4175 12.9429 14.4667 13.0667 14.4667C13.1904 14.4667 13.3091 14.4175 13.3967 14.33C13.4842 14.2425 13.5333 14.1238 13.5333 14V7.56088L19.3922 3.65493C19.4381 3.62424 19.4781 3.58564 19.5104 3.54095L20.8378 3.93995C20.8448 3.94205 20.8518 3.94397 20.859 3.94578C21.5661 4.12173 22.194 4.5294 22.6425 5.10379C23.0909 5.67817 23.3342 6.38619 23.3333 7.11492V24.7333C23.3332 24.8571 23.284 24.9757 23.1965 25.0632C23.109 25.1507 22.9904 25.1999 22.8667 25.2H21C20.8763 25.1999 20.7577 25.1507 20.6702 25.0632C20.5827 24.9757 20.5335 24.8571 20.5333 24.7333V10.2667C20.5333 10.1429 20.4842 10.0242 20.3967 9.93668C20.3091 9.84917 20.1904 9.8 20.0667 9.8C19.9429 9.8 19.8242 9.84917 19.7367 9.93668C19.6492 10.0242 19.6 10.1429 19.6 10.2667V22.9329C19.5996 23.2865 19.459 23.6255 19.2089 23.8756C18.9589 24.1256 18.6199 24.2663 18.2663 24.2667ZM22.8667 27.0667H21V26.1333H22.8667V27.0667Z" fill="white"/>
</svg>
