<svg width="46" height="29" viewBox="0 0 46 29" fill="none" xmlns="http://www.w3.org/2000/svg">
<path d="M7.2581 26.5821V25.1309H2.42061V26.5821H1.93689V28.5171H7.74182V26.5821H7.2581Z" fill="#D91515"/>
<path d="M8.70738 26.5821V25.1309H7.25616V26.5821H7.73989V28.5171H9.1911V26.5821H8.70738Z" fill="#7E0000"/>
<path d="M1.93689 25.1315H7.74182V10.6191H1.93689V25.1315Z" fill="#D91515"/>
<path d="M7.74182 25.1315H9.19304V10.6191H7.74182V25.1315Z" fill="#7E0000"/>
<path d="M7.25711 10.6176H2.41968V8.19891C2.41968 5.1513 3.33882 2.29721 4.83839 0.458984C6.33803 2.29721 7.25711 5.1513 7.25711 8.19891V10.6176Z" fill="#D91515"/>
<path d="M4.83649 0.458984C6.33612 2.29721 7.2552 5.1513 7.2552 8.19891V10.6176H8.70642V8.19891C8.70648 5.1513 7.25526 2.29721 4.83649 0.458984Z" fill="#7E0000"/>
<path d="M9.19115 25.6146H0.483721C0.193477 25.6146 0 25.4212 0 25.1309V10.6185C0 10.3282 0.193477 10.1348 0.483721 10.1348H9.19115C9.48139 10.1348 9.67487 10.3282 9.67487 10.6185V25.1308C9.67493 25.4211 9.48139 25.6146 9.19115 25.6146ZM0.967499 24.6471H8.70743V11.1023H0.967499V24.6471Z" fill="black"/>
<path d="M8.70644 27.0651H0.966509C0.676265 27.0651 0.482788 26.8717 0.482788 26.5814V25.1302C0.482788 24.84 0.676265 24.6465 0.966509 24.6465H8.70644C8.99668 24.6465 9.19016 24.84 9.19016 25.1302V26.5814C9.19016 26.8717 8.99668 27.0651 8.70644 27.0651ZM1.45023 26.0976H8.22266V25.6139H1.45023V26.0976Z" fill="black"/>
<path d="M9.19115 29.0001H0.483721C0.193477 29.0001 0 28.8066 0 28.5164V26.5814C0 26.2911 0.193477 26.0977 0.483721 26.0977H9.19115C9.48139 26.0977 9.67487 26.2911 9.67487 26.5814V28.5164C9.67493 28.8066 9.48139 29.0001 9.19115 29.0001ZM0.967499 28.0326H8.70743V27.0651H0.967499V28.0326Z" fill="black"/>
<path d="M8.70644 11.102H0.966509C0.676265 11.102 0.482788 10.9085 0.482788 10.6182V8.19952C0.482788 5.05519 1.98242 2.00757 4.54626 0.0725754C4.73974 -0.0241918 4.93327 -0.0241918 5.12675 0.0725754C7.69059 2.00757 9.19022 5.05513 9.19022 8.19952V10.6182C9.19016 10.9084 8.99668 11.102 8.70644 11.102ZM1.45023 10.1345H8.22266V8.19946C8.22266 5.44209 6.96492 2.82989 4.83644 1.08837C2.70797 2.82983 1.45023 5.44209 1.45023 8.19946V10.1345Z" fill="black"/>
<path d="M31.2581 26.5821V25.1309H26.4206V26.5821H25.9369V28.5171H31.7418V26.5821H31.2581Z" fill="#D91515"/>
<path d="M32.7074 26.5821V25.1309H31.2562V26.5821H31.7399V28.5171H33.1911V26.5821H32.7074Z" fill="#7E0000"/>
<path d="M25.9369 25.1315H31.7418V10.6191H25.9369V25.1315Z" fill="#D91515"/>
<path d="M31.7418 25.1315H33.193V10.6191H31.7418V25.1315Z" fill="#7E0000"/>
<path d="M31.2571 10.6176H26.4197V8.19891C26.4197 5.1513 27.3388 2.29721 28.8384 0.458984C30.338 2.29721 31.2571 5.1513 31.2571 8.19891V10.6176Z" fill="#D91515"/>
<path d="M28.8365 0.458984C30.3361 2.29721 31.2552 5.1513 31.2552 8.19891V10.6176H32.7064V8.19891C32.7065 5.1513 31.2553 2.29721 28.8365 0.458984Z" fill="#7E0000"/>
<path d="M33.1911 25.6146H24.4837C24.1935 25.6146 24 25.4212 24 25.1309V10.6185C24 10.3282 24.1935 10.1348 24.4837 10.1348H33.1911C33.4814 10.1348 33.6749 10.3282 33.6749 10.6185V25.1308C33.6749 25.4211 33.4814 25.6146 33.1911 25.6146ZM24.9675 24.6471H32.7074V11.1023H24.9675V24.6471Z" fill="black"/>
<path d="M32.7064 27.0651H24.9665C24.6763 27.0651 24.4828 26.8717 24.4828 26.5814V25.1302C24.4828 24.84 24.6763 24.6465 24.9665 24.6465H32.7064C32.9967 24.6465 33.1902 24.84 33.1902 25.1302V26.5814C33.1902 26.8717 32.9967 27.0651 32.7064 27.0651ZM25.4502 26.0976H32.2227V25.6139H25.4502V26.0976Z" fill="black"/>
<path d="M33.1911 29.0001H24.4837C24.1935 29.0001 24 28.8066 24 28.5164V26.5814C24 26.2911 24.1935 26.0977 24.4837 26.0977H33.1911C33.4814 26.0977 33.6749 26.2911 33.6749 26.5814V28.5164C33.6749 28.8066 33.4814 29.0001 33.1911 29.0001ZM24.9675 28.0326H32.7074V27.0651H24.9675V28.0326Z" fill="black"/>
<path d="M32.7064 11.102H24.9665C24.6763 11.102 24.4828 10.9085 24.4828 10.6182V8.19952C24.4828 5.05519 25.9824 2.00757 28.5463 0.0725754C28.7397 -0.0241918 28.9333 -0.0241918 29.1267 0.0725754C31.6906 2.00757 33.1902 5.05513 33.1902 8.19952V10.6182C33.1902 10.9084 32.9967 11.102 32.7064 11.102ZM25.4502 10.1345H32.2227V8.19946C32.2227 5.44209 30.9649 2.82989 28.8364 1.08837C26.708 2.82983 25.4502 5.44209 25.4502 8.19946V10.1345Z" fill="black"/>
<path d="M19.2581 26.5821V25.1309H14.4206V26.5821H13.9369V28.5171H19.7418V26.5821H19.2581Z" fill="#D91515"/>
<path d="M20.7074 26.5821V25.1309H19.2562V26.5821H19.7399V28.5171H21.1911V26.5821H20.7074Z" fill="#7E0000"/>
<path d="M13.9369 25.1315H19.7418V10.6191H13.9369V25.1315Z" fill="#D91515"/>
<path d="M19.7418 25.1315H21.193V10.6191H19.7418V25.1315Z" fill="#7E0000"/>
<path d="M19.2571 10.6176H14.4197V8.19891C14.4197 5.1513 15.3388 2.29721 16.8384 0.458984C18.338 2.29721 19.2571 5.1513 19.2571 8.19891V10.6176Z" fill="#D91515"/>
<path d="M16.8365 0.458984C18.3361 2.29721 19.2552 5.1513 19.2552 8.19891V10.6176H20.7064V8.19891C20.7065 5.1513 19.2553 2.29721 16.8365 0.458984Z" fill="#7E0000"/>
<path d="M21.1911 25.6146H12.4837C12.1935 25.6146 12 25.4212 12 25.1309V10.6185C12 10.3282 12.1935 10.1348 12.4837 10.1348H21.1911C21.4814 10.1348 21.6749 10.3282 21.6749 10.6185V25.1308C21.6749 25.4211 21.4814 25.6146 21.1911 25.6146ZM12.9675 24.6471H20.7074V11.1023H12.9675V24.6471Z" fill="black"/>
<path d="M20.7064 27.0651H12.9665C12.6763 27.0651 12.4828 26.8717 12.4828 26.5814V25.1302C12.4828 24.84 12.6763 24.6465 12.9665 24.6465H20.7064C20.9967 24.6465 21.1902 24.84 21.1902 25.1302V26.5814C21.1902 26.8717 20.9967 27.0651 20.7064 27.0651ZM13.4502 26.0976H20.2227V25.6139H13.4502V26.0976Z" fill="black"/>
<path d="M21.1911 29.0001H12.4837C12.1935 29.0001 12 28.8066 12 28.5164V26.5814C12 26.2911 12.1935 26.0977 12.4837 26.0977H21.1911C21.4814 26.0977 21.6749 26.2911 21.6749 26.5814V28.5164C21.6749 28.8066 21.4814 29.0001 21.1911 29.0001ZM12.9675 28.0326H20.7074V27.0651H12.9675V28.0326Z" fill="black"/>
<path d="M20.7064 11.102H12.9665C12.6763 11.102 12.4828 10.9085 12.4828 10.6182V8.19952C12.4828 5.05519 13.9824 2.00757 16.5463 0.0725754C16.7397 -0.0241918 16.9333 -0.0241918 17.1267 0.0725754C19.6906 2.00757 21.1902 5.05513 21.1902 8.19952V10.6182C21.1902 10.9084 20.9967 11.102 20.7064 11.102ZM13.4502 10.1345H20.2227V8.19946C20.2227 5.44209 18.9649 2.82989 16.8364 1.08837C14.708 2.82983 13.4502 5.44209 13.4502 8.19946V10.1345Z" fill="black"/>
<path d="M43.2581 26.5821V25.1309H38.4206V26.5821H37.9369V28.5171H43.7418V26.5821H43.2581Z" fill="#D91515"/>
<path d="M44.7074 26.5821V25.1309H43.2562V26.5821H43.7399V28.5171H45.1911V26.5821H44.7074Z" fill="#7E0000"/>
<path d="M37.9369 25.1315H43.7418V10.6191H37.9369V25.1315Z" fill="#D91515"/>
<path d="M43.7418 25.1315H45.193V10.6191H43.7418V25.1315Z" fill="#7E0000"/>
<path d="M43.2571 10.6176H38.4197V8.19891C38.4197 5.1513 39.3388 2.29721 40.8384 0.458984C42.338 2.29721 43.2571 5.1513 43.2571 8.19891V10.6176Z" fill="#D91515"/>
<path d="M40.8365 0.458984C42.3361 2.29721 43.2552 5.1513 43.2552 8.19891V10.6176H44.7064V8.19891C44.7065 5.1513 43.2553 2.29721 40.8365 0.458984Z" fill="#7E0000"/>
<path d="M45.1911 25.6146H36.4837C36.1935 25.6146 36 25.4212 36 25.1309V10.6185C36 10.3282 36.1935 10.1348 36.4837 10.1348H45.1911C45.4814 10.1348 45.6749 10.3282 45.6749 10.6185V25.1308C45.6749 25.4211 45.4814 25.6146 45.1911 25.6146ZM36.9675 24.6471H44.7074V11.1023H36.9675V24.6471Z" fill="black"/>
<path d="M44.7064 27.0651H36.9665C36.6763 27.0651 36.4828 26.8717 36.4828 26.5814V25.1302C36.4828 24.84 36.6763 24.6465 36.9665 24.6465H44.7064C44.9967 24.6465 45.1902 24.84 45.1902 25.1302V26.5814C45.1902 26.8717 44.9967 27.0651 44.7064 27.0651ZM37.4502 26.0976H44.2227V25.6139H37.4502V26.0976Z" fill="black"/>
<path d="M45.1911 29.0001H36.4837C36.1935 29.0001 36 28.8066 36 28.5164V26.5814C36 26.2911 36.1935 26.0977 36.4837 26.0977H45.1911C45.4814 26.0977 45.6749 26.2911 45.6749 26.5814V28.5164C45.6749 28.8066 45.4814 29.0001 45.1911 29.0001ZM36.9675 28.0326H44.7074V27.0651H36.9675V28.0326Z" fill="black"/>
<path d="M44.7064 11.102H36.9665C36.6763 11.102 36.4828 10.9085 36.4828 10.6182V8.19952C36.4828 5.05519 37.9824 2.00757 40.5463 0.0725754C40.7397 -0.0241918 40.9333 -0.0241918 41.1267 0.0725754C43.6906 2.00757 45.1902 5.05513 45.1902 8.19952V10.6182C45.1902 10.9084 44.9967 11.102 44.7064 11.102ZM37.4502 10.1345H44.2227V8.19946C44.2227 5.44209 42.9649 2.82989 40.8364 1.08837C38.708 2.82983 37.4502 5.44209 37.4502 8.19946V10.1345Z" fill="black"/>
</svg>
