<svg width="76" height="72" viewBox="0 0 76 72" fill="none" xmlns="http://www.w3.org/2000/svg">
<path d="M43.7796 9.51172L0.347656 52.9436L64.4568 31.8918C64.4568 31.8918 49.5801 15.3124 43.7796 9.51172Z" fill="#F8E884"/>
<path d="M0.347656 52.9418H29.1459H29.4947V58.2544C29.4947 60.9561 31.6848 63.1462 34.3865 63.1462C37.0882 63.1462 39.2783 60.9561 39.2783 58.2544V66.1566C39.2783 68.8582 41.4684 71.0484 44.1701 71.0484C46.8717 71.0484 49.0618 68.8582 49.0618 66.1566V52.9419H49.4106H61.7696C61.7696 44.7387 62.0197 27.3965 62.0197 27.3965L0.347656 52.9418Z" fill="#EEC157"/>
<path d="M39.5269 23.0137H43.9141V27.4009H39.5269V23.0137Z" fill="#00CC76"/>
<path d="M38.1748 42.4102H42.562V46.7974H38.1748V42.4102Z" fill="#009959"/>
<path d="M54.3539 26.8945C50.4883 26.8945 47.3154 29.8543 46.9741 33.631H54.3539L59.0953 28.6102C57.8102 27.5393 56.1575 26.8945 54.3539 26.8945Z" fill="#DD4E4E"/>
<path d="M59.1005 28.6113L46.9793 33.6321C46.9591 33.8547 46.9473 34.0796 46.9473 34.3073C46.9473 38.4007 50.2656 41.7191 54.3591 41.7191C58.4525 41.7191 61.7709 38.4007 61.7709 34.3073C61.7709 32.0177 60.732 29.9709 59.1005 28.6113Z" fill="#C53232"/>
<path d="M24.4533 31.8926C20.3599 31.8926 17.0415 35.2109 17.0415 39.3044C17.0415 41.5656 18.0554 43.589 19.6518 44.9484L26.3482 43.9746L31.8391 39.9003C31.8547 39.7035 31.865 39.5052 31.865 39.3044C31.8651 35.2109 28.5467 31.8926 24.4533 31.8926Z" fill="#DD4E4E"/>
<path d="M53.2905 0L43.7773 9.51315C49.5779 15.3137 54.0754 22.0702 57.1227 29.4271H64.4546L69.5383 24.2844C65.7434 15.1331 60.1871 6.89674 53.2905 0Z" fill="#A06B2E"/>
<path d="M57.1201 29.4279C60.1675 36.785 61.7647 44.7426 61.7647 52.9458H75.2184C75.2184 42.7935 73.1966 33.1136 69.5356 24.2852L57.1201 29.4279Z" fill="#713E21"/>
<path d="M24.4547 46.7163C28.3474 46.7163 31.5367 43.7148 31.8406 39.9004L19.6533 44.9485C20.9468 46.0501 22.6226 46.7163 24.4547 46.7163Z" fill="#C53232"/>
</svg>
