<svg width="510" height="91" viewBox="0 0 510 91" fill="none" xmlns="http://www.w3.org/2000/svg">
<rect y="16" width="492" height="59" rx="29.5" fill="#1C1C1E" fill-opacity="0.7"/>
<g filter="url(#filter0_d)">
<path d="M377.456 25.9H379.756V42H377.111V28.729L373.868 29.649L373.224 27.395L377.456 25.9ZM391.211 33.628C392.791 34.502 393.58 35.8053 393.58 37.538C393.58 39.01 393.067 40.1753 392.039 41.034C391.012 41.8773 389.647 42.299 387.945 42.299C386.243 42.299 384.871 41.8773 383.828 41.034C382.801 40.1753 382.287 39.01 382.287 37.538C382.287 36.71 382.494 35.9587 382.908 35.284C383.322 34.594 383.905 34.042 384.656 33.628C383.445 32.8307 382.839 31.696 382.839 30.224C382.839 28.752 383.33 27.6173 384.311 26.82C385.293 26.0073 386.504 25.601 387.945 25.601C389.371 25.601 390.575 26.0073 391.556 26.82C392.553 27.6173 393.051 28.752 393.051 30.224C393.051 31.696 392.438 32.8307 391.211 33.628ZM387.945 28.108C387.225 28.108 386.634 28.2997 386.174 28.683C385.714 29.0663 385.484 29.6183 385.484 30.339C385.484 31.029 385.714 31.5733 386.174 31.972C386.65 32.3707 387.24 32.57 387.945 32.57C388.635 32.57 389.218 32.3707 389.693 31.972C390.169 31.5733 390.406 31.029 390.406 30.339C390.406 29.6183 390.169 29.0663 389.693 28.683C389.233 28.2997 388.651 28.108 387.945 28.108ZM387.945 39.792C388.835 39.792 389.555 39.5773 390.107 39.148C390.659 38.7033 390.935 38.0823 390.935 37.285C390.935 36.4877 390.659 35.8743 390.107 35.445C389.555 35.0003 388.835 34.778 387.945 34.778C387.041 34.778 386.312 35.0003 385.76 35.445C385.208 35.8743 384.932 36.4877 384.932 37.285C384.932 38.0823 385.208 38.7033 385.76 39.148C386.312 39.5773 387.041 39.792 387.945 39.792ZM398.538 33.145C398.201 33.4823 397.794 33.651 397.319 33.651C396.844 33.651 396.437 33.4823 396.1 33.145C395.763 32.8077 395.594 32.4013 395.594 31.926C395.594 31.4353 395.755 31.029 396.077 30.707C396.414 30.3697 396.828 30.201 397.319 30.201C397.794 30.201 398.201 30.3697 398.538 30.707C398.875 31.0443 399.044 31.4507 399.044 31.926C399.044 32.4013 398.875 32.8077 398.538 33.145ZM398.538 41.77C398.201 42.1073 397.794 42.276 397.319 42.276C396.844 42.276 396.437 42.1073 396.1 41.77C395.763 41.4327 395.594 41.0263 395.594 40.551C395.594 40.0757 395.755 39.6693 396.077 39.332C396.414 38.9947 396.828 38.826 397.319 38.826C397.794 38.826 398.201 38.9947 398.538 39.332C398.875 39.6693 399.044 40.0757 399.044 40.551C399.044 41.0263 398.875 41.4327 398.538 41.77ZM413.186 36.641V39.102H411.346V42H408.678V39.102H400.766V36.641L406.309 25.9H409.184L403.641 36.641H408.678V32.455H411.346V36.641H413.186ZM421.261 32.478C422.426 32.754 423.369 33.2983 424.09 34.111C424.826 34.9083 425.194 35.9127 425.194 37.124C425.194 38.734 424.65 39.999 423.561 40.919C422.472 41.839 421.138 42.299 419.559 42.299C418.332 42.299 417.228 42.0153 416.247 41.448C415.281 40.8807 414.583 40.0527 414.154 38.964L416.408 37.653C416.883 39.033 417.934 39.723 419.559 39.723C420.479 39.723 421.207 39.493 421.744 39.033C422.281 38.5577 422.549 37.9213 422.549 37.124C422.549 36.3267 422.281 35.698 421.744 35.238C421.207 34.778 420.479 34.548 419.559 34.548H418.961L417.903 32.961L421.376 28.384H414.637V25.9H424.527V28.154L421.261 32.478Z" fill="white"/>
</g>
<g filter="url(#filter1_d)">
<path d="M342.992 40.71C342.302 41.69 341.327 42.18 340.067 42.18C338.807 42.18 337.827 41.69 337.127 40.71C336.437 39.72 336.092 38.4 336.092 36.75C336.092 35.1 336.437 33.785 337.127 32.805C337.827 31.815 338.807 31.32 340.067 31.32C341.327 31.32 342.302 31.815 342.992 32.805C343.692 33.785 344.042 35.1 344.042 36.75C344.042 38.4 343.692 39.72 342.992 40.71ZM337.907 40.005C338.427 40.775 339.147 41.16 340.067 41.16C340.987 41.16 341.702 40.775 342.212 40.005C342.732 39.235 342.992 38.15 342.992 36.75C342.992 35.35 342.732 34.265 342.212 33.495C341.702 32.725 340.987 32.34 340.067 32.34C339.147 32.34 338.427 32.725 337.907 33.495C337.397 34.265 337.142 35.35 337.142 36.75C337.142 38.15 337.397 39.235 337.907 40.005ZM347.497 31.5H348.397V42H347.347V32.655L344.992 33.36L344.722 32.46L347.497 31.5ZM351.905 41.91C351.745 42.07 351.55 42.15 351.32 42.15C351.09 42.15 350.895 42.07 350.735 41.91C350.575 41.75 350.495 41.555 350.495 41.325C350.495 41.095 350.575 40.9 350.735 40.74C350.895 40.58 351.09 40.5 351.32 40.5C351.55 40.5 351.745 40.58 351.905 40.74C352.065 40.9 352.145 41.095 352.145 41.325C352.145 41.555 352.065 41.75 351.905 41.91ZM360.248 40.71C359.558 41.69 358.583 42.18 357.323 42.18C356.063 42.18 355.083 41.69 354.383 40.71C353.693 39.72 353.348 38.4 353.348 36.75C353.348 35.1 353.693 33.785 354.383 32.805C355.083 31.815 356.063 31.32 357.323 31.32C358.583 31.32 359.558 31.815 360.248 32.805C360.948 33.785 361.298 35.1 361.298 36.75C361.298 38.4 360.948 39.72 360.248 40.71ZM355.163 40.005C355.683 40.775 356.403 41.16 357.323 41.16C358.243 41.16 358.958 40.775 359.468 40.005C359.988 39.235 360.248 38.15 360.248 36.75C360.248 35.35 359.988 34.265 359.468 33.495C358.958 32.725 358.243 32.34 357.323 32.34C356.403 32.34 355.683 32.725 355.163 33.495C354.653 34.265 354.398 35.35 354.398 36.75C354.398 38.15 354.653 39.235 355.163 40.005ZM366.021 35.25C367.051 35.25 367.896 35.575 368.556 36.225C369.216 36.865 369.546 37.695 369.546 38.715C369.546 39.735 369.216 40.57 368.556 41.22C367.896 41.86 367.051 42.18 366.021 42.18C364.991 42.18 364.146 41.86 363.486 41.22C362.826 40.57 362.496 39.735 362.496 38.715C362.496 37.925 362.711 37.225 363.141 36.615L366.576 31.5H367.761L365.181 35.34C365.451 35.28 365.731 35.25 366.021 35.25ZM364.221 40.485C364.681 40.935 365.281 41.16 366.021 41.16C366.761 41.16 367.356 40.935 367.806 40.485C368.266 40.035 368.496 39.445 368.496 38.715C368.496 37.985 368.266 37.395 367.806 36.945C367.356 36.495 366.761 36.27 366.021 36.27C365.281 36.27 364.681 36.495 364.221 36.945C363.771 37.395 363.546 37.985 363.546 38.715C363.546 39.445 363.771 40.035 364.221 40.485Z" fill="white"/>
</g>
<path d="M333.07 58.8422C333.07 59.9189 332.722 60.7992 332.025 61.4832C331.341 62.1546 330.442 62.5599 329.327 62.6992V64.3902H328.092V62.7182C327.041 62.6549 326.141 62.3699 325.394 61.8632C324.647 61.3566 324.108 60.6662 323.779 59.7922L325.66 58.7092C326.103 59.8239 326.914 60.4446 328.092 60.5712V56.6192C327.522 56.4039 327.06 56.2139 326.705 56.0492C326.35 55.8719 325.97 55.6312 325.565 55.3272C325.172 55.0232 324.875 54.6559 324.672 54.2252C324.482 53.7819 324.387 53.2689 324.387 52.6862C324.387 51.6222 324.742 50.7609 325.451 50.1022C326.16 49.4436 327.041 49.0636 328.092 48.9622V47.2902H329.327V48.9812C331.024 49.2092 332.202 50.0769 332.861 51.5842L331.018 52.6482C330.689 51.8249 330.125 51.3246 329.327 51.1472V54.9092C329.732 55.0612 330.036 55.1816 330.239 55.2702C330.454 55.3589 330.733 55.4919 331.075 55.6692C331.43 55.8466 331.702 56.0239 331.892 56.2012C332.082 56.3786 332.278 56.5939 332.481 56.8472C332.696 57.1006 332.848 57.3982 332.937 57.7402C333.026 58.0696 333.07 58.4369 333.07 58.8422ZM326.572 52.6862C326.572 53.0789 326.686 53.4019 326.914 53.6552C327.155 53.9086 327.547 54.1619 328.092 54.4152V51.1092C327.623 51.1852 327.25 51.3626 326.971 51.6412C326.705 51.9199 326.572 52.2682 326.572 52.6862ZM329.327 60.5522C329.834 60.4509 330.22 60.2482 330.486 59.9442C330.752 59.6402 330.885 59.2792 330.885 58.8612C330.885 58.4432 330.758 58.1076 330.505 57.8542C330.252 57.5882 329.859 57.3349 329.327 57.0942V60.5522ZM334.226 62.4902V60.7802L338.862 56.0492C339.989 54.9219 340.553 53.9466 340.553 53.1232C340.553 52.4772 340.356 51.9769 339.964 51.6222C339.584 51.2549 339.096 51.0712 338.501 51.0712C337.386 51.0712 336.563 51.6222 336.031 52.7242L334.188 51.6412C334.606 50.7546 335.195 50.0832 335.955 49.6272C336.715 49.1712 337.557 48.9432 338.482 48.9432C339.647 48.9432 340.648 49.3106 341.484 50.0452C342.32 50.7799 342.738 51.7806 342.738 53.0472C342.738 54.4026 341.984 55.8466 340.477 57.3792L337.475 60.3812H342.985V62.4902H334.226ZM358.266 60.8562C357.354 62.1102 356.075 62.7372 354.428 62.7372C352.782 62.7372 351.496 62.1102 350.571 60.8562C349.659 59.6022 349.203 57.9302 349.203 55.8402C349.203 53.7502 349.659 52.0782 350.571 50.8242C351.496 49.5702 352.782 48.9432 354.428 48.9432C356.075 48.9432 357.354 49.5702 358.266 50.8242C359.191 52.0782 359.653 53.7502 359.653 55.8402C359.653 57.9302 359.191 59.6022 358.266 60.8562ZM354.428 60.6092C355.416 60.6092 356.17 60.1976 356.689 59.3742C357.209 58.5509 357.468 57.3729 357.468 55.8402C357.468 54.3076 357.209 53.1296 356.689 52.3062C356.17 51.4829 355.416 51.0712 354.428 51.0712C353.453 51.0712 352.699 51.4829 352.167 52.3062C351.648 53.1296 351.388 54.3076 351.388 55.8402C351.388 57.3729 351.648 58.5509 352.167 59.3742C352.699 60.1976 353.453 60.6092 354.428 60.6092ZM370.234 60.8562C369.322 62.1102 368.043 62.7372 366.396 62.7372C364.749 62.7372 363.464 62.1102 362.539 60.8562C361.627 59.6022 361.171 57.9302 361.171 55.8402C361.171 53.7502 361.627 52.0782 362.539 50.8242C363.464 49.5702 364.749 48.9432 366.396 48.9432C368.043 48.9432 369.322 49.5702 370.234 50.8242C371.159 52.0782 371.621 53.7502 371.621 55.8402C371.621 57.9302 371.159 59.6022 370.234 60.8562ZM366.396 60.6092C367.384 60.6092 368.138 60.1976 368.657 59.3742C369.176 58.5509 369.436 57.3729 369.436 55.8402C369.436 54.3076 369.176 53.1296 368.657 52.3062C368.138 51.4829 367.384 51.0712 366.396 51.0712C365.421 51.0712 364.667 51.4829 364.135 52.3062C363.616 53.1296 363.356 54.3076 363.356 55.8402C363.356 57.3729 363.616 58.5509 364.135 59.3742C364.667 60.1976 365.421 60.6092 366.396 60.6092ZM382.202 60.8562C381.29 62.1102 380.011 62.7372 378.364 62.7372C376.717 62.7372 375.432 62.1102 374.507 60.8562C373.595 59.6022 373.139 57.9302 373.139 55.8402C373.139 53.7502 373.595 52.0782 374.507 50.8242C375.432 49.5702 376.717 48.9432 378.364 48.9432C380.011 48.9432 381.29 49.5702 382.202 50.8242C383.127 52.0782 383.589 53.7502 383.589 55.8402C383.589 57.9302 383.127 59.6022 382.202 60.8562ZM378.364 60.6092C379.352 60.6092 380.106 60.1976 380.625 59.3742C381.144 58.5509 381.404 57.3729 381.404 55.8402C381.404 54.3076 381.144 53.1296 380.625 52.3062C380.106 51.4829 379.352 51.0712 378.364 51.0712C377.389 51.0712 376.635 51.4829 376.103 52.3062C375.584 53.1296 375.324 54.3076 375.324 55.8402C375.324 57.3729 375.584 58.5509 376.103 59.3742C376.635 60.1976 377.389 60.6092 378.364 60.6092ZM398.92 60.8562C398.008 62.1102 396.728 62.7372 395.082 62.7372C393.435 62.7372 392.149 62.1102 391.225 60.8562C390.313 59.6022 389.857 57.9302 389.857 55.8402C389.857 53.7502 390.313 52.0782 391.225 50.8242C392.149 49.5702 393.435 48.9432 395.082 48.9432C396.728 48.9432 398.008 49.5702 398.92 50.8242C399.844 52.0782 400.307 53.7502 400.307 55.8402C400.307 57.9302 399.844 59.6022 398.92 60.8562ZM395.082 60.6092C396.07 60.6092 396.823 60.1976 397.343 59.3742C397.862 58.5509 398.122 57.3729 398.122 55.8402C398.122 54.3076 397.862 53.1296 397.343 52.3062C396.823 51.4829 396.07 51.0712 395.082 51.0712C394.106 51.0712 393.353 51.4829 392.821 52.3062C392.301 53.1296 392.042 54.3076 392.042 55.8402C392.042 57.3729 392.301 58.5509 392.821 59.3742C393.353 60.1976 394.106 60.6092 395.082 60.6092ZM410.887 60.8562C409.975 62.1102 408.696 62.7372 407.049 62.7372C405.403 62.7372 404.117 62.1102 403.192 60.8562C402.28 59.6022 401.824 57.9302 401.824 55.8402C401.824 53.7502 402.28 52.0782 403.192 50.8242C404.117 49.5702 405.403 48.9432 407.049 48.9432C408.696 48.9432 409.975 49.5702 410.887 50.8242C411.812 52.0782 412.274 53.7502 412.274 55.8402C412.274 57.9302 411.812 59.6022 410.887 60.8562ZM407.049 60.6092C408.037 60.6092 408.791 60.1976 409.31 59.3742C409.83 58.5509 410.089 57.3729 410.089 55.8402C410.089 54.3076 409.83 53.1296 409.31 52.3062C408.791 51.4829 408.037 51.0712 407.049 51.0712C406.074 51.0712 405.32 51.4829 404.788 52.3062C404.269 53.1296 404.009 54.3076 404.009 55.8402C404.009 57.3729 404.269 58.5509 404.788 59.3742C405.32 60.1976 406.074 60.6092 407.049 60.6092ZM422.855 60.8562C421.943 62.1102 420.664 62.7372 419.017 62.7372C417.371 62.7372 416.085 62.1102 415.16 60.8562C414.248 59.6022 413.792 57.9302 413.792 55.8402C413.792 53.7502 414.248 52.0782 415.16 50.8242C416.085 49.5702 417.371 48.9432 419.017 48.9432C420.664 48.9432 421.943 49.5702 422.855 50.8242C423.78 52.0782 424.242 53.7502 424.242 55.8402C424.242 57.9302 423.78 59.6022 422.855 60.8562ZM419.017 60.6092C420.005 60.6092 420.759 60.1976 421.278 59.3742C421.798 58.5509 422.057 57.3729 422.057 55.8402C422.057 54.3076 421.798 53.1296 421.278 52.3062C420.759 51.4829 420.005 51.0712 419.017 51.0712C418.042 51.0712 417.288 51.4829 416.756 52.3062C416.237 53.1296 415.977 54.3076 415.977 55.8402C415.977 57.3729 416.237 58.5509 416.756 59.3742C417.288 60.1976 418.042 60.6092 419.017 60.6092Z" fill="#21DB70"/>
<g filter="url(#filter2_d)">
<circle cx="464.5" cy="45.5" r="32.5" fill="url(#paint0_linear)"/>
</g>
<path d="M470.388 35.8039C470.388 32.5995 468.292 30 464.447 30C460.598 30 458.641 32.5995 458.641 35.8039V37.1883H470.387V35.8039H470.388Z" fill="white"/>
<path d="M464.447 50.8914C468.292 50.8914 470.388 48.294 470.388 45.0896V38.2012H458.641V45.0885C458.641 48.294 460.598 50.8914 464.447 50.8914Z" fill="white"/>
<path d="M472.571 36.964V45.0905C472.571 49.5706 469.566 53.2149 464.446 53.2149C459.326 53.2149 456.321 49.5706 456.321 45.0905V36.964C455.026 35.6695 454 36.964 454 36.964V45.0686C454 45.0759 454 45.0822 454 45.0905C454 50.466 458.063 54.8908 463.285 55.4686V59.0742L458.659 59.0847L457.479 62.4991H471.03L469.876 59.0711L465.606 59.0721V55.4665C470.83 54.8877 474.891 50.464 474.891 45.0884H474.893V36.964C473.468 35.542 472.571 36.964 472.571 36.964Z" fill="white"/>
<g filter="url(#filter3_d)">
<path d="M489.416 20.014C490.765 20.7913 491.44 21.9647 491.44 23.534C491.44 24.8393 490.978 25.91 490.054 26.746C489.13 27.582 487.993 28 486.644 28H480.11V12.6H486.182C487.502 12.6 488.609 13.0107 489.504 13.832C490.413 14.6387 490.868 15.6727 490.868 16.934C490.868 18.21 490.384 19.2367 489.416 20.014ZM486.182 15.438H483.146V18.826H486.182C486.651 18.826 487.04 18.6647 487.348 18.342C487.67 18.0193 487.832 17.616 487.832 17.132C487.832 16.648 487.678 16.2447 487.37 15.922C487.062 15.5993 486.666 15.438 486.182 15.438ZM486.644 25.162C487.157 25.162 487.582 24.9933 487.92 24.656C488.257 24.304 488.426 23.864 488.426 23.336C488.426 22.8227 488.257 22.3973 487.92 22.06C487.582 21.708 487.157 21.532 486.644 21.532H483.146V25.162H486.644Z" fill="white"/>
</g>
<path d="M38.7863 55.6951C38.7863 57.8159 40.5055 59.5351 42.6264 59.5351C44.7472 59.5351 46.4664 57.8159 46.4664 55.6951C46.4664 53.5743 42.6264 43.7637 42.6264 43.7637C42.6264 43.7637 38.7863 53.5743 38.7863 55.6951Z" fill="#F14949"/>
<path d="M43.8982 30V36.0158C45.7903 36.1684 47.5855 36.6637 49.222 37.4397L52.2305 32.2287C49.6995 30.9563 46.8811 30.1723 43.8982 30Z" fill="#F14949"/>
<path d="M57.9563 50.0824H63.9721C63.7998 47.0996 63.0158 44.2811 61.7435 41.75L56.5325 44.7586C57.3084 46.395 57.8038 48.1902 57.9563 50.0824Z" fill="#F14949"/>
<path d="M41.3922 30C38.4094 30.1723 35.5909 30.9563 33.0598 32.2286L36.0684 37.4396C37.7049 36.6636 39.5 36.1683 41.3922 36.0157V30Z" fill="#F14949"/>
<path d="M28.7521 44.7586L23.5411 41.75C22.2687 44.2811 21.4848 47.0996 21.3125 50.0824H27.3283C27.4808 48.1902 27.9762 46.395 28.7521 44.7586Z" fill="#F14949"/>
<path d="M57.9592 52.582C57.7713 54.9115 57.0656 57.0949 55.9547 59.015L61.1535 62.0165C62.776 59.2123 63.7792 56.0052 63.977 52.582H57.9592Z" fill="#F14949"/>
<path d="M54.396 33.4844L51.3875 38.6954C52.9085 39.7495 54.2298 41.0709 55.2838 42.5918L60.4949 39.5833C58.8966 37.1604 56.8188 35.0826 54.396 33.4844Z" fill="#F14949"/>
<path d="M21.3125 52.582C21.5103 56.0052 22.5135 59.2123 24.1361 62.0165L29.3349 59.015C28.2238 57.0948 27.5182 54.9115 27.3303 52.582H21.3125Z" fill="#F14949"/>
<path d="M24.7977 39.5813L30.0087 42.5899C31.0627 41.0688 32.3841 39.7475 33.9051 38.6934L30.8965 33.4824C28.4737 35.0807 26.3959 37.1585 24.7977 39.5813Z" fill="#F14949"/>
<path d="M80.8884 45.9C82.605 46.85 83.4634 48.2667 83.4634 50.15C83.4634 51.75 82.905 53.0167 81.7884 53.95C80.6717 54.8667 79.1884 55.325 77.3384 55.325C75.4884 55.325 73.9967 54.8667 72.8634 53.95C71.7467 53.0167 71.1884 51.75 71.1884 50.15C71.1884 49.25 71.4134 48.4333 71.8634 47.7C72.3134 46.95 72.9467 46.35 73.7634 45.9C72.4467 45.0333 71.7884 43.8 71.7884 42.2C71.7884 40.6 72.3217 39.3667 73.3884 38.5C74.455 37.6167 75.7717 37.175 77.3384 37.175C78.8884 37.175 80.1967 37.6167 81.2634 38.5C82.3467 39.3667 82.8884 40.6 82.8884 42.2C82.8884 43.8 82.2217 45.0333 80.8884 45.9ZM77.3384 39.9C76.555 39.9 75.9134 40.1083 75.4134 40.525C74.9134 40.9417 74.6634 41.5417 74.6634 42.325C74.6634 43.075 74.9134 43.6667 75.4134 44.1C75.93 44.5333 76.5717 44.75 77.3384 44.75C78.0884 44.75 78.7217 44.5333 79.2384 44.1C79.755 43.6667 80.0134 43.075 80.0134 42.325C80.0134 41.5417 79.755 40.9417 79.2384 40.525C78.7384 40.1083 78.105 39.9 77.3384 39.9ZM77.3384 52.6C78.305 52.6 79.0884 52.3667 79.6884 51.9C80.2884 51.4167 80.5884 50.7417 80.5884 49.875C80.5884 49.0083 80.2884 48.3417 79.6884 47.875C79.0884 47.3917 78.305 47.15 77.3384 47.15C76.355 47.15 75.5634 47.3917 74.9634 47.875C74.3634 48.3417 74.0634 49.0083 74.0634 49.875C74.0634 50.7417 74.3634 51.4167 74.9634 51.9C75.5634 52.3667 76.355 52.6 77.3384 52.6ZM91.08 44.1C92.7466 44.1 94.155 44.6 95.305 45.6C96.455 46.5833 97.03 47.95 97.03 49.7C97.03 51.45 96.4383 52.825 95.255 53.825C94.0716 54.825 92.6216 55.325 90.905 55.325C89.5216 55.325 88.2966 55.0083 87.23 54.375C86.1633 53.725 85.405 52.7917 84.955 51.575L87.43 50.15C87.8966 51.7333 89.055 52.525 90.905 52.525C91.8883 52.525 92.6716 52.275 93.255 51.775C93.855 51.2583 94.155 50.5667 94.155 49.7C94.155 48.8333 93.8633 48.15 93.28 47.65C92.6966 47.15 91.9216 46.9 90.955 46.9H85.855L86.53 37.5H96.28V40.2H89.18L88.88 44.1H91.08ZM119.028 55H115.603L108.703 46.675V55H105.828V37.5H108.703V45.35L115.353 37.5H118.778L111.703 46.025L119.028 55ZM137.641 37.5V55H134.766V42.525L129.441 51.325H129.091L123.766 42.5V55H120.891V37.5H123.991L129.266 46.25L134.566 37.5H137.641ZM141.631 57.5H140.256L150.256 35H151.631L141.631 57.5ZM163.641 37.5H166.516V55H163.641V48.275C162.424 48.825 161.141 49.1 159.791 49.1C158.041 49.1 156.616 48.6167 155.516 47.65C154.432 46.6667 153.891 45.3667 153.891 43.75V37.5H156.766V43.45C156.766 44.35 157.041 45.0583 157.591 45.575C158.141 46.0917 158.891 46.35 159.841 46.35C161.224 46.35 162.491 46.0667 163.641 45.5V37.5Z" fill="white"/>
<g filter="url(#filter4_d)">
<circle cx="277.5" cy="45.5" r="32.5" fill="url(#paint1_linear)"/>
</g>
<path d="M260.598 43.5115C261.145 42.6534 262.901 42.2435 263.74 42.8686C264.035 43.0913 264.25 43.5778 264.296 43.9685C264.383 44.7057 264.321 45.4709 264.321 46.2582H265.589C265.589 45.4915 265.582 44.7175 265.589 43.9449C265.598 43.1045 266.09 42.5929 266.931 42.5251C266.954 42.5214 266.979 42.5214 267.003 42.5251C268.56 42.848 269.688 42.1433 270.553 40.9475C271.871 39.1267 273.606 38.6357 275.821 38.7448C279.432 38.9247 283.059 38.792 286.678 38.795C287.822 38.795 288.206 39.1842 288.209 40.3372C288.209 42.2892 288.209 44.2413 288.209 46.2435H289.508C289.508 45.4827 289.508 44.7087 289.508 43.9346C289.516 43.0382 289.95 42.5767 290.834 42.5266C291.152 42.5104 291.471 42.5104 291.788 42.5266C292.555 42.5605 293.081 43.0456 293.087 43.8226C293.106 46.7094 293.096 49.5962 293.087 52.4815C293.09 52.677 293.053 52.8709 292.98 53.0521C292.695 53.72 291.7 53.9957 290.473 53.7657C289.798 53.6389 289.385 53.1583 289.365 52.4225C289.344 51.6868 289.365 50.96 289.365 50.1771H288.185C288.164 50.211 288.108 50.2552 288.114 50.2906C288.319 51.5099 287.641 52.2825 286.824 53.0506C285.488 54.3053 284.244 55.6603 282.905 56.912C282.535 57.2445 282.063 57.4425 281.567 57.4737C278.852 57.5253 276.137 57.518 273.422 57.4737C272.997 57.4435 272.592 57.2782 272.268 57.0019C271.296 56.1822 270.366 55.3138 269.456 54.4247C269.272 54.2376 269.049 54.0922 268.804 53.9983C268.558 53.9045 268.296 53.8643 268.033 53.8807C265.745 53.9117 265.589 53.7333 265.589 51.4421V50.1697H264.324C264.324 50.8342 264.324 51.5025 264.324 52.1749C264.324 53.5578 263.983 53.8719 262.577 53.8999C261.729 53.9176 260.945 53.8704 260.6 52.912L260.598 43.5115ZM280.751 47.6264H277.909L280.857 42.6313C279.951 42.6313 279.174 42.6549 278.4 42.6224C278 42.6047 277.8 42.7433 277.621 43.1016C276.704 44.9313 275.756 46.7448 274.82 48.5656C274.755 48.7182 274.699 48.8742 274.652 49.033H277.22C276.527 50.9497 275.868 52.7808 275.208 54.609L275.314 54.6592L280.751 47.6264Z" fill="white"/>
<path d="M276.877 37.4558V36.2336C276.127 36.2336 275.423 36.2424 274.722 36.2336C273.71 36.2174 273.312 35.8222 273.278 34.8152C273.269 34.5705 273.278 34.3272 273.278 34.0781C273.294 32.9148 273.707 32.502 274.878 32.502C277.489 32.502 280.103 32.502 282.717 32.502C283.958 32.502 284.379 32.9295 284.385 34.1798C284.385 34.4231 284.395 34.6678 284.385 34.917C284.337 35.7765 283.908 36.2115 283.049 36.2336C282.25 36.2527 281.451 36.2336 280.632 36.2336C280.607 36.6965 280.588 37.0563 280.566 37.4573L276.877 37.4558Z" fill="white"/>
<path d="M198.788 24.1738C198.511 23.9374 198.068 23.9428 197.799 24.1861C197.222 24.7071 194.318 27.4248 193.809 29.7592C193.43 31.4981 194.152 33.4442 194.851 35.3263C195.343 36.6516 195.808 37.9034 195.808 38.8981C195.808 39.7654 195.388 40.2334 194.992 40.2334C194.637 40.2334 194.263 39.8275 194.263 39.0517C194.263 38.0948 194.267 35.3147 191.73 34.9457V28.454C191.73 28.1148 191.446 27.8781 191.06 27.8781H190.156V27.2253C190.156 26.886 189.872 26.6494 189.486 26.6494H182.402C182.015 26.6494 181.673 26.886 181.673 27.2253V27.8781H180.915C180.529 27.8781 180.186 28.1148 180.186 28.454V44.389H178.729C178.342 44.389 178 44.6257 178 44.9649V46.3472C178 46.6865 178.342 47 178.729 47H193.246C193.633 47 193.917 46.6865 193.917 46.3472V44.9649C193.917 44.6257 193.633 44.389 193.246 44.389H191.73V36.2033C192.255 36.375 192.864 36.9725 192.864 39.0518C192.864 40.7078 193.967 41.4622 194.985 41.4622C196.086 41.4622 197.204 40.5816 197.204 38.8982C197.204 37.7084 196.707 36.3664 196.18 34.9455C195.816 33.9665 195.447 32.9688 195.249 32.0285C196.366 31.8172 197.11 31.359 197.461 30.6617C198.139 29.3161 197.004 27.6779 196.699 27.2778C197.333 26.4775 198.084 25.6914 198.802 25.0426C199.071 24.7993 199.065 24.4103 198.788 24.1738ZM190.156 34.252C190.156 34.5913 189.843 34.8664 189.457 34.8664H182.373C181.986 34.8664 181.673 34.5913 181.673 34.252V29.8747C181.673 29.5355 181.986 29.2604 182.373 29.2604H189.457C189.843 29.2604 190.156 29.5355 190.156 29.8747V34.252ZM196.181 30.1656C196.033 30.4589 195.671 30.6704 195.105 30.7975C195.103 30.5182 195.127 30.2483 195.183 29.9902C195.283 29.5317 195.526 29.009 195.861 28.4636C196.15 28.9802 196.423 29.6887 196.181 30.1656Z" fill="#EEC157"/>
<path d="M211.151 36.72C212.525 37.48 213.211 38.6133 213.211 40.12C213.211 41.4 212.765 42.4133 211.871 43.16C210.978 43.8933 209.791 44.26 208.311 44.26C206.831 44.26 205.638 43.8933 204.731 43.16C203.838 42.4133 203.391 41.4 203.391 40.12C203.391 39.4 203.571 38.7467 203.931 38.16C204.291 37.56 204.798 37.08 205.451 36.72C204.398 36.0267 203.871 35.04 203.871 33.76C203.871 32.48 204.298 31.4933 205.151 30.8C206.005 30.0933 207.058 29.74 208.311 29.74C209.551 29.74 210.598 30.0933 211.451 30.8C212.318 31.4933 212.751 32.48 212.751 33.76C212.751 35.04 212.218 36.0267 211.151 36.72ZM208.311 31.92C207.685 31.92 207.171 32.0867 206.771 32.42C206.371 32.7533 206.171 33.2333 206.171 33.86C206.171 34.46 206.371 34.9333 206.771 35.28C207.185 35.6267 207.698 35.8 208.311 35.8C208.911 35.8 209.418 35.6267 209.831 35.28C210.245 34.9333 210.451 34.46 210.451 33.86C210.451 33.2333 210.245 32.7533 209.831 32.42C209.431 32.0867 208.925 31.92 208.311 31.92ZM208.311 42.08C209.085 42.08 209.711 41.8933 210.191 41.52C210.671 41.1333 210.911 40.5933 210.911 39.9C210.911 39.2067 210.671 38.6733 210.191 38.3C209.711 37.9133 209.085 37.72 208.311 37.72C207.525 37.72 206.891 37.9133 206.411 38.3C205.931 38.6733 205.691 39.2067 205.691 39.9C205.691 40.5933 205.931 41.1333 206.411 41.52C206.891 41.8933 207.525 42.08 208.311 42.08ZM214.327 44V42.2L219.207 37.22C220.394 36.0333 220.987 35.0067 220.987 34.14C220.987 33.46 220.78 32.9333 220.367 32.56C219.967 32.1733 219.454 31.98 218.827 31.98C217.654 31.98 216.787 32.56 216.227 33.72L214.287 32.58C214.727 31.6467 215.347 30.94 216.147 30.46C216.947 29.98 217.834 29.74 218.807 29.74C220.034 29.74 221.087 30.1267 221.967 30.9C222.847 31.6733 223.287 32.7267 223.287 34.06C223.287 35.4867 222.494 37.0067 220.907 38.62L217.747 41.78H223.547V44H214.327ZM227.993 41.8H233.693V44H225.693V30H227.993V41.8Z" fill="#EEC157"/>
<path d="M192.993 56.7341H198.074C198.508 56.7341 198.625 56.8878 198.625 57.4609C198.625 58.8134 198.625 60.166 198.625 61.5186C198.625 62.1379 198.509 62.2921 198.036 62.2921C194.672 62.2921 191.308 62.2921 187.944 62.2921C187.58 62.2921 187.579 62.2921 187.579 62.7705C187.579 63.3057 187.579 63.8408 187.579 64.3765C187.579 64.6131 187.552 64.8327 187.376 64.9472C187.2 65.0617 187.038 64.9764 186.89 64.8199C185.346 63.2122 183.801 61.6061 182.256 60.0015C181.915 59.6457 181.913 59.3647 182.261 59.0014C183.446 57.7664 184.632 56.5339 185.82 55.304C186.19 54.9196 186.562 54.5376 186.933 54.1526C187.056 54.0252 187.184 53.9458 187.339 54.0439C187.503 54.1473 187.575 54.3279 187.576 54.5621C187.576 55.1656 187.586 55.769 187.573 56.3731C187.567 56.6518 187.634 56.7417 187.848 56.7406C189.563 56.73 191.279 56.7341 192.993 56.7341ZM186.822 63.5066C186.822 62.9879 186.822 62.5515 186.822 62.1151C186.822 61.4316 186.927 61.2972 187.443 61.2972H197.509C197.866 61.2972 197.866 61.2972 197.866 60.8392C197.866 59.9435 197.866 59.0477 197.866 58.152C197.866 57.701 197.866 57.7004 197.529 57.7004H187.352C186.946 57.7004 186.828 57.5485 186.822 57.0081C186.818 56.6091 186.822 56.2101 186.819 55.8111C186.819 55.7393 186.847 55.6399 186.775 55.6049C186.723 55.5792 186.682 55.6481 186.642 55.689C185.474 56.8998 184.305 58.112 183.135 59.3256C182.999 59.4664 182.999 59.5493 183.14 59.6936C183.875 60.4426 184.601 61.2049 185.33 61.962C185.809 62.4592 186.289 62.9551 186.822 63.5066Z" fill="white"/>
<path d="M206.007 62.2659L200.926 62.2659C200.492 62.2659 200.375 62.1122 200.375 61.5391C200.375 60.1866 200.375 58.834 200.375 57.4814C200.375 56.8621 200.491 56.7079 200.964 56.7079C204.328 56.7079 207.692 56.7079 211.056 56.7079C211.42 56.7079 211.421 56.7079 211.421 56.2295C211.421 55.6943 211.421 55.1592 211.421 54.6235C211.421 54.3869 211.448 54.1673 211.624 54.0528C211.8 53.9383 211.962 54.0236 212.11 54.1801C213.654 55.7878 215.199 57.3939 216.744 58.9985C217.085 59.3543 217.087 59.6353 216.739 59.9986C215.554 61.2336 214.368 62.4661 213.18 63.696C212.81 64.0804 212.438 64.4624 212.067 64.8474C211.944 64.9748 211.816 65.0542 211.661 64.9561C211.497 64.8527 211.425 64.6721 211.424 64.4379C211.424 63.8344 211.414 63.231 211.427 62.6269C211.433 62.3482 211.366 62.2583 211.152 62.2594C209.437 62.27 207.721 62.2659 206.007 62.2659ZM212.178 55.4934C212.178 56.0121 212.178 56.4485 212.178 56.8849C212.178 57.5684 212.073 57.7028 211.557 57.7028L201.491 57.7028C201.134 57.7028 201.134 57.7028 201.134 58.1608C201.134 59.0565 201.134 59.9523 201.134 60.848C201.134 61.299 201.134 61.2996 201.471 61.2996L211.648 61.2996C212.054 61.2996 212.172 61.4515 212.178 61.9919C212.182 62.3909 212.178 62.7899 212.181 63.1889C212.181 63.2607 212.153 63.3601 212.225 63.3951C212.277 63.4208 212.318 63.3519 212.358 63.311C213.526 62.1002 214.695 60.888 215.865 59.6744C216.001 59.5336 216.001 59.4507 215.86 59.3064C215.125 58.5574 214.399 57.7951 213.67 57.038C213.191 56.5408 212.711 56.0448 212.178 55.4934Z" fill="#21DB70"/>
<path d="M235 59.4452C235 59.1544 234.981 58.8635 234.974 58.5727C234.954 57.7966 234.354 57.2017 233.569 57.2017H233.309V56.9566C233.309 56.0841 233.316 55.2116 233.305 54.3391C233.303 54.09 233.283 53.8413 233.245 53.595H233.238C232.946 51.5863 231.195 50.0744 229.105 50.0025C227.051 49.9302 225.172 51.4205 224.782 53.4384C224.728 53.7309 224.7 54.0276 224.699 54.325C224.688 55.1975 224.695 56.07 224.695 56.9424V57.2004C224.579 57.2004 224.477 57.2004 224.376 57.2004C223.619 57.2183 223.019 57.7966 223.016 58.549C223.003 60.8953 222.998 63.2414 223.001 65.5874C223.001 66.3897 223.591 66.9688 224.4 66.9946C224.748 67.0054 225.096 66.9967 225.444 66.9967H233.464C234.42 66.9967 234.999 66.42 235 65.4694C235 63.4613 235 61.4533 235 59.4452ZM229.651 62.1378C229.745 62.8724 229.83 63.6077 229.914 64.3435C229.942 64.5986 229.859 64.6884 229.604 64.6913C229.409 64.6933 229.215 64.6913 229.02 64.6913C228.825 64.6913 228.63 64.6913 228.435 64.6913C228.125 64.6913 228.052 64.6082 228.088 64.3011C228.171 63.5795 228.255 62.8574 228.348 62.137C228.367 61.9878 228.33 61.8952 228.211 61.8009C227.602 61.3156 227.534 60.4618 228.053 59.9105C228.174 59.7808 228.321 59.6774 228.484 59.6067C228.647 59.536 228.823 59.4995 229.001 59.4995C229.179 59.4995 229.355 59.536 229.518 59.6067C229.681 59.6774 229.828 59.7808 229.949 59.9105C230.465 60.4639 230.395 61.3189 229.786 61.8017C229.667 61.8964 229.632 61.9891 229.651 62.1378ZM227.075 57.2H226.793V56.9669C226.793 56.0874 226.793 55.2079 226.793 54.3288C226.796 53.0782 227.771 52.0911 228.999 52.0915C229.462 52.0898 229.913 52.2343 230.288 52.5042C230.663 52.7742 230.942 53.1555 231.085 53.5934C231.094 53.6212 231.103 53.6495 231.112 53.6765C231.172 53.8885 231.2 54.1082 231.195 54.3283C231.194 54.4116 231.198 54.495 231.209 54.5776C231.209 55.0072 231.209 55.4365 231.209 55.8656C231.205 55.907 231.205 55.9487 231.209 55.9902C231.209 56.3201 231.209 56.6497 231.209 56.979V57.1984C229.831 57.1986 228.453 57.1992 227.075 57.2Z" fill="#F14949"/>
<defs>
<filter id="filter0_d" x="365.224" y="17.6016" width="67.9703" height="32.698" filterUnits="userSpaceOnUse" color-interpolation-filters="sRGB">
<feFlood flood-opacity="0" result="BackgroundImageFix"/>
<feColorMatrix in="SourceAlpha" type="matrix" values="0 0 0 0 0 0 0 0 0 0 0 0 0 0 0 0 0 0 127 0"/>
<feOffset/>
<feGaussianBlur stdDeviation="4"/>
<feColorMatrix type="matrix" values="0 0 0 0 0 0 0 0 0 0 0 0 0 0 0 0 0 0 0.25 0"/>
<feBlend mode="normal" in2="BackgroundImageFix" result="effect1_dropShadow"/>
<feBlend mode="normal" in="SourceGraphic" in2="effect1_dropShadow" result="shape"/>
</filter>
<filter id="filter1_d" x="328.092" y="23.3203" width="49.4541" height="26.86" filterUnits="userSpaceOnUse" color-interpolation-filters="sRGB">
<feFlood flood-opacity="0" result="BackgroundImageFix"/>
<feColorMatrix in="SourceAlpha" type="matrix" values="0 0 0 0 0 0 0 0 0 0 0 0 0 0 0 0 0 0 127 0"/>
<feOffset/>
<feGaussianBlur stdDeviation="4"/>
<feColorMatrix type="matrix" values="0 0 0 0 0 0 0 0 0 0 0 0 0 0 0 0 0 0 0.25 0"/>
<feBlend mode="normal" in2="BackgroundImageFix" result="effect1_dropShadow"/>
<feBlend mode="normal" in="SourceGraphic" in2="effect1_dropShadow" result="shape"/>
</filter>
<filter id="filter2_d" x="419" y="0" width="91" height="91" filterUnits="userSpaceOnUse" color-interpolation-filters="sRGB">
<feFlood flood-opacity="0" result="BackgroundImageFix"/>
<feColorMatrix in="SourceAlpha" type="matrix" values="0 0 0 0 0 0 0 0 0 0 0 0 0 0 0 0 0 0 127 0"/>
<feMorphology radius="1" operator="dilate" in="SourceAlpha" result="effect1_dropShadow"/>
<feOffset/>
<feGaussianBlur stdDeviation="6"/>
<feColorMatrix type="matrix" values="0 0 0 0 0.858824 0 0 0 0 0.105882 0 0 0 0 0.105882 0 0 0 0.6 0"/>
<feBlend mode="normal" in2="BackgroundImageFix" result="effect1_dropShadow"/>
<feBlend mode="normal" in="SourceGraphic" in2="effect1_dropShadow" result="shape"/>
</filter>
<filter id="filter3_d" x="476.11" y="8.59961" width="19.33" height="23.4" filterUnits="userSpaceOnUse" color-interpolation-filters="sRGB">
<feFlood flood-opacity="0" result="BackgroundImageFix"/>
<feColorMatrix in="SourceAlpha" type="matrix" values="0 0 0 0 0 0 0 0 0 0 0 0 0 0 0 0 0 0 127 0"/>
<feOffset/>
<feGaussianBlur stdDeviation="2"/>
<feColorMatrix type="matrix" values="0 0 0 0 0.854902 0 0 0 0 0.0941176 0 0 0 0 0.0941176 0 0 0 1 0"/>
<feBlend mode="normal" in2="BackgroundImageFix" result="effect1_dropShadow"/>
<feBlend mode="normal" in="SourceGraphic" in2="effect1_dropShadow" result="shape"/>
</filter>
<filter id="filter4_d" x="232" y="0" width="91" height="91" filterUnits="userSpaceOnUse" color-interpolation-filters="sRGB">
<feFlood flood-opacity="0" result="BackgroundImageFix"/>
<feColorMatrix in="SourceAlpha" type="matrix" values="0 0 0 0 0 0 0 0 0 0 0 0 0 0 0 0 0 0 127 0"/>
<feMorphology radius="1" operator="dilate" in="SourceAlpha" result="effect1_dropShadow"/>
<feOffset/>
<feGaussianBlur stdDeviation="6"/>
<feColorMatrix type="matrix" values="0 0 0 0 0.858824 0 0 0 0 0.105882 0 0 0 0 0.105882 0 0 0 0.6 0"/>
<feBlend mode="normal" in2="BackgroundImageFix" result="effect1_dropShadow"/>
<feBlend mode="normal" in="SourceGraphic" in2="effect1_dropShadow" result="shape"/>
</filter>
<linearGradient id="paint0_linear" x1="437.2" y1="26.65" x2="491.8" y2="63.7" gradientUnits="userSpaceOnUse">
<stop stop-color="#D91515"/>
<stop offset="1" stop-color="#E95050"/>
</linearGradient>
<linearGradient id="paint1_linear" x1="250.2" y1="26.65" x2="304.8" y2="63.7" gradientUnits="userSpaceOnUse">
<stop stop-color="#D91515"/>
<stop offset="1" stop-color="#E95050"/>
</linearGradient>
</defs>
</svg>
