<svg width="21" height="23" viewBox="0 0 21 23" fill="none" xmlns="http://www.w3.org/2000/svg">
<path d="M20.7881 0.17379C20.5111 -0.0625845 20.0682 -0.0572088 19.7987 0.186077C19.2218 0.707131 16.318 3.42483 15.809 5.75924C15.4298 7.49811 16.1524 9.44416 16.8512 11.3263C17.3432 12.6516 17.8079 13.9034 17.8079 14.8981C17.8079 15.7654 17.3875 16.2334 16.992 16.2334C16.6369 16.2334 16.2629 15.8275 16.2629 15.0517C16.2629 14.0948 16.2666 11.3147 13.7304 10.9457V4.45403C13.7304 4.11475 13.4463 3.87807 13.0599 3.87807H12.1562V3.22531C12.1562 2.88603 11.8721 2.64935 11.4857 2.64935H4.40187C4.01549 2.64935 3.67311 2.88603 3.67311 3.22531V3.87807H2.91513C2.52876 3.87807 2.18637 4.11475 2.18637 4.45403V20.389H0.728762C0.342386 20.389 0 20.6257 0 20.9649V22.3472C0 22.6865 0.342386 23 0.728762 23H15.2463C15.6326 23 15.9168 22.6865 15.9168 22.3472V20.9649C15.9168 20.6257 15.6326 20.389 15.2463 20.389H13.7304V12.2033C14.2551 12.375 14.8637 12.9725 14.8637 15.0518C14.8637 16.7078 15.9667 17.4622 16.9847 17.4622C18.0856 17.4622 19.2036 16.5816 19.2036 14.8982C19.2036 13.7084 18.7072 12.3664 18.1797 10.9455C17.8162 9.96652 17.4468 8.9688 17.2491 8.02853C18.3658 7.81719 19.1095 7.35895 19.4611 6.66165C20.1394 5.31613 19.0035 3.67787 18.6993 3.27784C19.3332 2.47748 20.0837 1.69141 20.8019 1.04257C21.0713 0.799285 21.0652 0.410319 20.7881 0.17379ZM12.1562 10.252C12.1562 10.5913 11.843 10.8664 11.4566 10.8664H4.37275C3.98637 10.8664 3.67311 10.5913 3.67311 10.252V5.87474C3.67311 5.53546 3.98637 5.26038 4.37275 5.26038H11.4566C11.843 5.26038 12.1562 5.53546 12.1562 5.87474V10.252ZM18.1813 6.16556C18.0327 6.45892 17.671 6.67041 17.1048 6.7975C17.1031 6.5182 17.1272 6.24827 17.1833 5.99024C17.2834 5.53169 17.5261 5.00903 17.8609 4.46363C18.1502 4.98023 18.4229 5.68874 18.1813 6.16556Z" fill="#EEC157"/>
</svg>
