<svg width="43" height="33" viewBox="0 0 43 33" fill="none" xmlns="http://www.w3.org/2000/svg">
<path d="M22.8982 0V6.0158C24.7903 6.16837 26.5855 6.66369 28.222 7.43966L31.2305 2.22867C28.6995 0.956301 25.8811 0.172327 22.8982 0Z" fill="#F14949"/>
<path d="M36.9563 20.0824H42.9721C42.7998 17.0996 42.0158 14.2811 40.7435 11.75L35.5325 14.7586C36.3084 16.395 36.8038 18.1902 36.9563 20.0824Z" fill="#F14949"/>
<path d="M20.3922 0C17.4094 0.172327 14.5909 0.956301 12.0598 2.22859L15.0684 7.43958C16.7049 6.66361 18.5 6.16829 20.3922 6.01571V0Z" fill="#F14949"/>
<path d="M7.75208 14.7586L2.54109 11.75C1.26872 14.2811 0.484827 17.0996 0.3125 20.0824H6.32829C6.48079 18.1902 6.97619 16.395 7.75208 14.7586Z" fill="#F14949"/>
<path d="M36.9592 22.582C36.7713 24.9115 36.0656 27.0949 34.9547 29.015L40.1535 32.0165C41.776 29.2123 42.7792 26.0052 42.977 22.582H36.9592Z" fill="#F14949"/>
<path d="M33.396 3.48438L30.3875 8.69545C31.9085 9.7495 33.2298 11.0709 34.2838 12.5918L39.4949 9.58325C37.8966 7.16042 35.8188 5.08257 33.396 3.48438Z" fill="#F14949"/>
<path d="M0.3125 22.582C0.510327 26.0052 1.51354 29.2123 3.13607 32.0165L8.33489 29.015C7.22385 27.0948 6.51821 24.9115 6.3303 22.582H0.3125Z" fill="#F14949"/>
<path d="M3.7977 9.5813L9.00869 12.5899C10.0627 11.0688 11.3841 9.74754 12.9051 8.69341L9.89649 3.48242C7.47374 5.0807 5.39589 7.15855 3.7977 9.5813Z" fill="#F14949"/>
</svg>
