<svg width="43" height="43" viewBox="0 0 43 43" fill="none" xmlns="http://www.w3.org/2000/svg">
<g filter="url(#filter0_f)">
<circle cx="21.5" cy="21.5" r="14.5" fill="#EEC157" fill-opacity="0.7"/>
</g>
<circle cx="21.5" cy="21.5" r="13.5" fill="#DFB44E"/>
<path d="M21.1817 19.1773C21.7195 19.1773 22.2573 19.1739 22.7946 19.1773C23.4965 19.1834 23.8563 19.6166 23.724 20.2985C23.3802 22.0724 23.0339 23.8455 22.685 25.6178C22.6672 25.7085 22.6483 25.7997 22.6355 25.8915C22.5632 26.412 23.0248 26.8203 23.5293 26.6584C23.7913 26.5739 24.0299 26.4215 24.2924 26.3303C24.4158 26.2875 24.5638 26.3169 24.7006 26.3136C24.7006 26.4449 24.7562 26.6239 24.6884 26.699C24.4314 26.9949 24.1784 27.3314 23.848 27.5199C22.7723 28.1317 21.6305 28.1317 20.5003 27.6751C19.7934 27.3881 19.4436 26.7763 19.5621 26.0216C19.7907 24.5583 20.0626 23.1011 20.3174 21.6422C20.3635 21.3792 20.4425 21.1206 20.4742 20.8564C20.5298 20.3886 20.3101 20.1378 19.8429 20.1022C19.695 20.0911 19.5454 20.0905 19.398 20.0655C19.2823 20.0478 19.1774 19.9875 19.104 19.8964C19.0305 19.8053 18.9937 19.6901 19.0009 19.5733C19.0203 19.3402 19.1889 19.1839 19.4564 19.1806C20.0309 19.1739 20.6055 19.1806 21.1805 19.1806L21.1817 19.1773Z" fill="white"/>
<path d="M22.2823 18.3304C21.9524 18.3311 21.6297 18.2337 21.3552 18.0507C21.0807 17.8677 20.8668 17.6072 20.7405 17.3024C20.6143 16.9976 20.5814 16.6622 20.6461 16.3387C20.7108 16.0152 20.8701 15.7182 21.1039 15.4854C21.3376 15.2525 21.6353 15.0944 21.959 15.031C22.2828 14.9676 22.6181 15.0019 22.9224 15.1293C23.2267 15.2568 23.4862 15.4718 23.6682 15.747C23.8501 16.0222 23.9461 16.3453 23.9441 16.6752C23.9424 17.1148 23.7665 17.5358 23.455 17.846C23.1436 18.1562 22.7219 18.3304 22.2823 18.3304Z" fill="white"/>
<defs>
<filter id="filter0_f" x="0" y="0" width="43" height="43" filterUnits="userSpaceOnUse" color-interpolation-filters="sRGB">
<feFlood flood-opacity="0" result="BackgroundImageFix"/>
<feBlend mode="normal" in="SourceGraphic" in2="BackgroundImageFix" result="shape"/>
<feGaussianBlur stdDeviation="3.5" result="effect1_foregroundBlur"/>
</filter>
</defs>
</svg>
